<?xml version="1.0" encoding="UTF-8"?><svg id="Layer_8" xmlns="http://www.w3.org/2000/svg" width="544.04" height="539.11" viewBox="0 0 544.04 539.11"><defs><style>.cls-1{fill:#f89a1c;}.cls-2{fill:#f7a191;}.cls-3{fill:#f7aab2;}.cls-4{fill:#f7e1ce;}.cls-5{fill:#f7f7f7;}.cls-6{fill:#f8b536;}.cls-7{fill:#f8fcfd;}.cls-8{fill:#003a4c;}.cls-9{fill:#00394c;}.cls-10{fill:#022f3a;}.cls-11{fill:#67475e;}.cls-12{fill:#eaaf57;}.cls-13{fill:#ed4935;}.cls-14{fill:#efbe65;}.cls-15{fill:#f15f48;}.cls-16{fill:#e698a3;}.cls-17{fill:#fdb515;}.cls-18{fill:#999899;}.cls-19{fill:#6b445e;}.cls-20,.cls-21{fill:#7fa6b2;}.cls-22{fill:#853d2e;}.cls-23{fill:#87677f;}.cls-24{fill:#9e9d9e;}.cls-25{fill:#8fbe71;}.cls-26{fill:#915b63;}.cls-27{fill:#b85542;}.cls-28{fill:#72b8b4;}.cls-29{fill:#725269;}.cls-30{fill:#2faaaf;}.cls-31{fill:#8e6a4a;}.cls-32{fill:#326f82;}.cls-33{fill:#8d838b;}.cls-34{fill:#8dd1d0;}.cls-35{fill:#a6d277;}.cls-36{fill:#b0b0b0;}.cls-37{fill:#bf6955;}.cls-38{fill:#e38283;}.cls-39{fill:#c55f28;}.cls-40{fill:#d4edee;}.cls-41{fill:#d54938;}.cls-42{fill:#dfe5e5;}.cls-43,.cls-44{fill:#184b61;}.cls-45{fill:#23505b;}.cls-46{fill:#43343d;}.cls-47{fill:#1c2416;}.cls-48{fill:#1a4759;}.cls-49{fill:#51bcbc;}.cls-50{fill:#704f67;}.cls-51{fill:#81a556;}.cls-52{fill:#634130;}.cls-53{fill:#5aa65f;}.cls-54{fill:#5c3651;}.cls-55{fill:#4a6037;}.cls-56{fill:#293321;}.cls-57{fill:#2b566f;}.cls-58{fill:#354920;}.cls-59{fill:#3a758c;}.cls-60{fill:#353434;}.cls-61{fill:#579e99;}.cls-62{fill:#4c4b4c;}.cls-63{fill:#627a3c;}.cls-64{fill:#60231b;}.cls-65,.cls-66{fill:#5c9faa;}.cls-67{fill:#546d43;}.cls-68{fill:#764f36;}.cls-69{fill:#7b392d;}.cls-70{fill:#70a265;}.cls-71{fill:#50bcbb;}.cls-72{fill:#787277;}.cls-73,.cls-74{fill:#784044;}.cls-75{fill:#785470;}.cls-76,.cls-77{fill:#26647b;}.cls-78{fill:#7b5870;}.cls-79{fill:#895537;stroke:#704935;stroke-width:.5px;}.cls-79,.cls-21,.cls-44,.cls-66,.cls-77,.cls-80,.cls-81,.cls-82,.cls-83,.cls-74{stroke-miterlimit:10;}.cls-21{stroke:#537b85;}.cls-44,.cls-77{stroke:#6d90ad;}.cls-66{stroke:#547b86;}.cls-80{fill:#7b5a70;stroke:#e8d9e4;}.cls-81{fill:#88585b;}.cls-81,.cls-82,.cls-83,.cls-74{stroke:#c65f28;stroke-width:.75px;}.cls-82{fill:#88585a;}.cls-83{fill:#89595c;}</style></defs><ellipse class="cls-40" cx="272.02" cy="269.55" rx="272.02" ry="269.55"/><path class="cls-25" d="m135.31,288.13c.65-.72,2.38-2.08,4.18-3.18,3.1-1.92,6.05-2.91,8.06-3.44-.52-1.36-.59-2.48-.58-3.19.05-2.24,1.06-3.97,1.87-5.35.49-.84.97-1.49,1.3-1.91-.92-.6-2.95-2.11-4.03-4.71-1.12-2.68-.59-4.99-.29-6.24.3-1.22,1.35-5.25,5.76-7.9,4.73-2.84,9.76-1.95,10.65-1.78.04-1.36.34-3.86,2.16-6.24,3.83-5.01,11.07-5.19,12.53-5.22,6.98-.17,12.02,3.47,14.54,5.35,10.81,8.06,12.22,20.6,12.52,23.32,2.46,21.94-16.56,37.79-20.45,41.02-7.3,6.08-15.94,13.28-26.35,11.85-17.19-2.37-27.01-26.67-21.88-32.37Z"/><path class="cls-70" d="m136.96,286.7c-.96.64-2.22,1.64-3.23,3.13-4.84,7.07,1.47,16.85,2.15,17.87,8.03,12.07,27.46,12.82,29.8,12.87,23.32.55,38.17-16.81,39.02-17.83,13.64-16.49,13.62-41.75,0-53.64-11.18-9.76-25-10.2-25-10.2-1.8-.06-3.3.03-4.34.13,1.66,1.23,3.86,3.07,6.02,5.61,2.57,3.02,4.33,6.14,5.06,7.99,3.16,8.02-3.26,17.05-9.38,25.65-5.36,7.53-8.67,12.04-15.51,14.71-2.5.98-9.89,3.86-17,.69-4.42-1.96-6.66-5.34-7.58-6.98Z"/><path class="cls-22" d="m401.35,413.38v-163.48c-13.13-13-26.26-26-39.39-39-14.05,12.93-28.11,25.85-42.16,38.78v163.71"/><path class="cls-69" d="m401.35,413.38c0-54.49,0-108.99,0-163.48-27.18,54.49-54.37,108.99-81.55,163.48"/><path class="cls-76" d="m330.34,331.5c-.29.67-.57,1.34-.86,2.01v-2.01h.86Z"/><rect class="cls-44" x="333.51" y="376.69" width="10.56" height="17.57"/><rect class="cls-44" x="356.89" y="376.69" width="10.56" height="17.57"/><rect class="cls-44" x="380.27" y="376.69" width="10.56" height="17.57"/><rect class="cls-64" x="319.8" y="410.84" width="81.55" height="2.55"/><rect class="cls-64" x="319.8" y="406.9" width="81.55" height="2.55"/><rect class="cls-64" x="319.8" y="402.96" width="81.55" height="2.55"/><rect class="cls-77" x="333.51" y="339.13" width="10.56" height="17.57"/><rect class="cls-44" x="356.89" y="339.13" width="10.56" height="17.57"/><rect class="cls-44" x="380.27" y="339.13" width="10.56" height="17.57"/><rect class="cls-77" x="333.51" y="301.57" width="10.56" height="17.57"/><rect class="cls-77" x="356.89" y="301.57" width="10.56" height="17.57"/><rect class="cls-44" x="380.27" y="301.57" width="10.56" height="17.57"/><rect class="cls-77" x="333.51" y="264.01" width="10.56" height="17.57"/><rect class="cls-77" x="356.89" y="264.01" width="10.56" height="17.57"/><rect class="cls-77" x="380.27" y="264.01" width="10.56" height="17.57"/><path class="cls-43" d="m385.68,281.27c1.61-3.23,3.23-6.46,4.84-9.69,0,3.23,0,6.45,0,9.68-1.61,0-3.23,0-4.84.01Z"/><path class="cls-76" d="m333.82,385.27c0-2.76,0-5.52,0-8.28,1.38,0,2.76,0,4.13,0-1.38,2.76-2.75,5.52-4.13,8.28Z"/><rect class="cls-69" x="319.8" y="248.74" width="81.55" height="4.37"/><polygon class="cls-62" points="361.44 210.03 312.96 250.27 406.71 250.51 361.44 210.03"/><path class="cls-60" d="m361.43,210.03l.09,40.37c15.06.04,30.13.07,45.19.11-15.09-13.49-30.19-26.98-45.28-40.48Z"/><polyline class="cls-59" points="264.83 414.9 264.83 212.73 169.05 212.73 169.05 414.9"/><path class="cls-32" d="m264.83,414.9v-202.17c-31.93,67.39-63.85,134.78-95.78,202.17"/><rect class="cls-57" x="169.05" y="358.79" width="95.78" height="56.11"/><path class="cls-45" d="m264.83,414.9h-95.78c8.86-18.7,17.72-37.41,26.58-56.11h69.2v56.11Z"/><rect class="cls-8" x="169.05" y="356.5" width="95.78" height="4.57"/><path class="cls-10" d="m264.83,361.07h-70.28c.72-1.52,1.44-3.05,2.17-4.57h68.11v4.57Z"/><rect class="cls-44" x="183.28" y="370.8" width="12.4" height="20.14"/><rect class="cls-44" x="210.74" y="370.8" width="12.4" height="20.14"/><rect class="cls-44" x="238.2" y="370.8" width="12.4" height="20.14"/><path class="cls-76" d="m189.8,371.1c-2.07,4.37-4.14,8.74-6.21,13.11v-13.11h6.21Z"/><rect class="cls-77" x="183.28" y="323.79" width="12.4" height="20.14"/><rect class="cls-44" x="210.74" y="323.79" width="12.4" height="20.14"/><rect class="cls-44" x="238.2" y="323.79" width="12.4" height="20.14"/><rect class="cls-77" x="183.6" y="294.88" width="12.4" height="20.14"/><rect class="cls-77" x="210.74" y="294.88" width="12.4" height="20.14"/><rect class="cls-44" x="238.2" y="294.88" width="12.4" height="20.14"/><rect class="cls-77" x="183.28" y="265.97" width="12.4" height="20.14"/><rect class="cls-77" x="210.74" y="266.58" width="12.4" height="20.14"/><rect class="cls-44" x="238.2" y="266.58" width="12.4" height="20.14"/><rect class="cls-77" x="183.28" y="237.07" width="12.4" height="20.14"/><rect class="cls-77" x="210.74" y="237.07" width="12.4" height="20.14"/><rect class="cls-77" x="238.2" y="237.07" width="12.4" height="20.14"/><path class="cls-76" d="m212.06,324.11c-.34.71-.67,1.42-1.01,2.13v-2.13h1.01Z"/><path class="cls-43" d="m216.5,314.71c2.11-4.51,4.21-9.03,6.32-13.54,0,4.52.01,9.03.02,13.55h-6.34Z"/><path class="cls-43" d="m243.92,256.9c2.12-4.48,4.25-8.96,6.37-13.43,0,4.48,0,8.96,0,13.44-2.12,0-4.25,0-6.37,0Z"/><rect class="cls-9" x="169.07" y="411.39" width="7.54" height="3.51"/><rect class="cls-9" x="169.07" y="407.27" width="3.77" height="3.51"/><rect class="cls-9" x="169.07" y="403.14" width="7.54" height="3.51"/><rect class="cls-9" x="177.13" y="403.14" width="7.54" height="3.51"/><rect class="cls-9" x="185.22" y="403.14" width="7.54" height="3.51"/><rect class="cls-9" x="193.29" y="403.14" width="7.54" height="3.51"/><rect class="cls-9" x="201.33" y="403.14" width="7.54" height="3.51"/><rect class="cls-9" x="209.4" y="403.14" width="7.54" height="3.51"/><rect class="cls-9" x="217.49" y="403.14" width="7.54" height="3.51"/><rect class="cls-9" x="225.56" y="403.14" width="7.54" height="3.51"/><rect class="cls-9" x="233.67" y="403.14" width="7.54" height="3.51"/><rect class="cls-9" x="241.74" y="403.14" width="7.54" height="3.51"/><rect class="cls-9" x="249.73" y="403.14" width="7.54" height="3.51"/><rect class="cls-9" x="257.8" y="403.14" width="7.03" height="3.51"/><rect class="cls-9" x="173.36" y="407.27" width="7.54" height="3.51"/><rect class="cls-9" x="181.45" y="407.27" width="7.54" height="3.51"/><rect class="cls-9" x="189.51" y="407.27" width="7.54" height="3.51"/><rect class="cls-9" x="197.56" y="407.27" width="7.54" height="3.51"/><rect class="cls-9" x="205.68" y="407.27" width="7.54" height="3.51"/><rect class="cls-9" x="213.72" y="407.27" width="7.54" height="3.51"/><rect class="cls-9" x="221.74" y="407.27" width="7.54" height="3.51"/><rect class="cls-9" x="229.79" y="407.27" width="7.54" height="3.51"/><rect class="cls-9" x="237.92" y="407.27" width="7.54" height="3.51"/><rect class="cls-9" x="245.96" y="407.27" width="7.54" height="3.51"/><rect class="cls-9" x="254.03" y="407.27" width="7.54" height="3.51"/><rect class="cls-9" x="262.07" y="407.27" width="2.76" height="3.51"/><rect class="cls-9" x="177.13" y="411.39" width="7.54" height="3.51"/><rect class="cls-9" x="185.18" y="411.39" width="7.54" height="3.51"/><rect class="cls-9" x="193.28" y="411.39" width="7.54" height="3.51"/><rect class="cls-9" x="201.33" y="411.39" width="7.54" height="3.51"/><rect class="cls-9" x="209.4" y="411.39" width="7.54" height="3.51"/><rect class="cls-9" x="217.44" y="411.39" width="7.54" height="3.51"/><rect class="cls-9" x="225.52" y="411.39" width="7.54" height="3.51"/><rect class="cls-9" x="233.56" y="411.39" width="7.54" height="3.51"/><rect class="cls-9" x="241.58" y="411.39" width="7.54" height="3.51"/><rect class="cls-9" x="249.62" y="411.39" width="7.54" height="3.51"/><rect class="cls-9" x="257.73" y="411.39" width="7.09" height="3.51"/><path class="cls-72" d="m41.55,412.81c3.09,5,6.6,10.25,10.57,15.65,4.91,6.68,9.84,12.64,14.56,17.9,15.74,17.91,42.84,44.19,83.31,64.17,100.97,49.82,198.48,17.59,213.16,12.47,62.08-21.62,99.69-60.46,109.12-70.61,13.61-14.65,23.28-28.51,29.8-38.96-153.51-.21-307.02-.42-460.53-.63Z"/><path class="cls-33" d="m97.68,476.32c16.17,13.69,42.97,33.07,80.37,46.59,12.21,4.41,63.37,21.88,130.31,12.58,22.14-3.07,102.12-16.91,163.92-83.1,13.67-14.64,23.33-28.54,29.8-38.96-134.8,20.96-269.6,41.93-404.4,62.89Z"/><path class="cls-36" d="m46.05,419.67c150.68,0,301.36,0,452.04-.01-3.54,4.94-7.07,9.89-10.61,14.83-143.52.11-287.03.21-430.55.32-1.83-2.22-3.69-4.62-5.57-7.22-1.97-2.72-3.73-5.38-5.32-7.92Z"/><rect class="cls-46" x="57.22" y="415.93" width="32.62" height="3.62"/><rect class="cls-46" x="92.6" y="415.93" width="32.62" height="3.62"/><rect class="cls-46" x="127.99" y="415.93" width="32.62" height="3.62"/><rect class="cls-46" x="163.53" y="415.93" width="32.62" height="3.62"/><rect class="cls-46" x="199.61" y="415.93" width="32.62" height="3.62"/><rect class="cls-46" x="234.99" y="415.93" width="32.62" height="3.62"/><rect class="cls-46" x="270.38" y="415.93" width="32.62" height="3.62"/><rect class="cls-46" x="305.92" y="415.93" width="32.62" height="3.62"/><rect class="cls-46" x="342.46" y="415.93" width="32.62" height="3.62"/><rect class="cls-46" x="377.84" y="415.93" width="32.63" height="3.62"/><rect class="cls-46" x="413.22" y="415.93" width="32.62" height="3.62"/><rect class="cls-46" x="448.77" y="415.93" width="32.62" height="3.62"/><rect class="cls-46" x="93.67" y="434.81" width="32.62" height="3.62"/><rect class="cls-46" x="129.05" y="434.76" width="32.62" height="3.62"/><rect class="cls-46" x="164.6" y="434.7" width="32.62" height="3.62"/><rect class="cls-46" x="200.68" y="434.7" width="32.62" height="3.62"/><rect class="cls-46" x="236.06" y="434.66" width="32.62" height="3.62"/><rect class="cls-46" x="271.44" y="434.64" width="32.62" height="3.62"/><rect class="cls-46" x="306.99" y="434.59" width="32.62" height="3.62"/><rect class="cls-46" x="343.53" y="434.59" width="32.62" height="3.62"/><rect class="cls-46" x="378.91" y="434.59" width="32.62" height="3.62"/><rect class="cls-46" x="414.29" y="434.59" width="32.62" height="3.62"/><path class="cls-36" d="m492.86,419.55c-5.37,4.37-10.75,8.75-16.12,13.12"/><path class="cls-24" d="m498.1,419.66c-1.78,2.73-3.7,5.54-5.77,8.41-1.62,2.24-3.24,4.38-4.84,6.43-89.72.07-179.44.14-269.15.21,41.37-5.05,82.75-10.1,124.12-15.15,51.88.04,103.76.07,155.64.11Z"/><path class="cls-18" d="m133.28,421.45l3.05,4.11c7.77-.06,15.53-.12,23.3-.18l-4.54-3.93h-21.81Z"/><path class="cls-18" d="m139.2,427.07c.7,1.24,1.4,2.48,2.09,3.72,7.77-.05,15.53-.11,23.3-.16l-4.54-3.56h-20.85Z"/><polyline class="cls-37" points="349.11 414.63 349.11 280.63 259.03 280.63 259.03 414.63"/><path class="cls-27" d="m349.11,414.63v-134c-30.03,44.67-60.06,89.33-90.08,134"/><rect class="cls-67" x="259.03" y="377.44" width="90.08" height="37.19"/><path class="cls-55" d="m349.11,414.63h-90.08c8.33-12.4,16.67-24.79,25-37.19h65.08v37.19Z"/><rect class="cls-56" x="259.03" y="375.92" width="90.08" height="3.03"/><path class="cls-47" d="m349.11,378.95h-66.1c.68-1.01,1.36-2.02,2.04-3.03h64.06v3.03Z"/><rect class="cls-66" x="272.41" y="385.4" width="11.67" height="13.35"/><rect class="cls-66" x="298.24" y="385.4" width="11.67" height="13.35"/><rect class="cls-66" x="324.06" y="385.4" width="11.67" height="13.35"/><path class="cls-20" d="m278.54,385.71c-1.94,2.9-3.88,5.79-5.82,8.69v-8.69h5.82Z"/><rect class="cls-21" x="272.41" y="354.24" width="11.67" height="13.35"/><rect class="cls-66" x="298.24" y="354.24" width="11.67" height="13.35"/><rect class="cls-66" x="324.06" y="354.24" width="11.67" height="13.35"/><rect class="cls-21" x="272.71" y="335.08" width="11.67" height="13.35"/><rect class="cls-21" x="298.24" y="335.08" width="11.67" height="13.35"/><rect class="cls-66" x="324.06" y="335.08" width="11.67" height="13.35"/><rect class="cls-21" x="272.41" y="315.92" width="11.67" height="13.35"/><rect class="cls-21" x="298.24" y="316.32" width="11.67" height="13.35"/><rect class="cls-66" x="324.06" y="316.32" width="11.67" height="13.35"/><rect class="cls-21" x="272.41" y="296.76" width="11.67" height="13.35"/><rect class="cls-21" x="298.24" y="296.76" width="11.67" height="13.35"/><rect class="cls-21" x="324.06" y="296.76" width="11.67" height="13.35"/><path class="cls-20" d="m299.51,354.55c-.32.47-.64.94-.96,1.41v-1.41h.96Z"/><path class="cls-65" d="m303.65,348.12c1.98-2.95,3.96-5.91,5.94-8.86,0,2.96.01,5.91.02,8.87-1.99,0-3.97,0-5.96,0Z"/><path class="cls-65" d="m329.44,309.81c2-2.97,4-5.94,6-8.9,0,2.97,0,5.94,0,8.91-2,0-4,0-5.99,0Z"/><rect class="cls-58" x="259.03" y="408.49" width="13.69" height="6.14"/><rect class="cls-58" x="274.07" y="408.49" width="13.69" height="6.14"/><rect class="cls-58" x="289.25" y="408.49" width="13.69" height="6.14"/><rect class="cls-58" x="304.44" y="408.49" width="13.69" height="6.14"/><rect class="cls-58" x="319.74" y="408.49" width="13.69" height="6.14"/><rect class="cls-58" x="335.42" y="408.49" width="13.69" height="6.14"/><polygon class="cls-14" points="92.74 414.1 92.74 330.4 132.83 279.78 173.42 330.4 173.42 414.1 92.74 414.1"/><path class="cls-12" d="m106.88,414.1c18.89-33.33,37.78-66.67,56.67-100,3.29,5.43,6.58,10.87,9.87,16.3v83.7h-66.53Z"/><rect class="cls-39" x="92.74" y="400.93" width="8.43" height="4"/><rect class="cls-39" x="101.85" y="400.93" width="8.43" height="4"/><rect class="cls-39" x="110.96" y="400.93" width="8.43" height="4"/><rect class="cls-39" x="96.95" y="400.93" width="4.21" height="4"/><rect class="cls-39" x="97.63" y="405.51" width="8.43" height="4"/><rect class="cls-39" x="106.74" y="405.51" width="8.43" height="4"/><rect class="cls-39" x="92.74" y="405.51" width="4.21" height="4"/><rect class="cls-39" x="92.74" y="410.1" width="8.43" height="4"/><rect class="cls-39" x="101.85" y="410.1" width="8.43" height="4"/><rect class="cls-39" x="110.96" y="410.1" width="8.43" height="4"/><rect class="cls-39" x="96.95" y="410.1" width="4.21" height="4"/><rect class="cls-39" x="120.11" y="400.93" width="8.43" height="4"/><rect class="cls-39" x="129.22" y="400.93" width="8.43" height="4"/><rect class="cls-39" x="138.33" y="400.93" width="8.43" height="4"/><rect class="cls-39" x="115.89" y="405.51" width="8.43" height="4"/><rect class="cls-39" x="125" y="405.51" width="8.43" height="4"/><rect class="cls-39" x="134.11" y="405.51" width="8.43" height="4"/><rect class="cls-39" x="120.11" y="410.1" width="8.43" height="4"/><rect class="cls-39" x="129.22" y="410.1" width="8.43" height="4"/><rect class="cls-39" x="138.33" y="410.1" width="8.43" height="4"/><rect class="cls-39" x="147.46" y="400.93" width="8.43" height="4"/><rect class="cls-39" x="156.56" y="400.93" width="8.43" height="4"/><rect class="cls-39" x="165.67" y="400.93" width="7.74" height="4"/><rect class="cls-39" x="143.44" y="405.51" width="8.43" height="4"/><rect class="cls-39" x="152.55" y="405.51" width="8.43" height="4"/><rect class="cls-39" x="161.66" y="405.51" width="8.43" height="4"/><rect class="cls-39" x="147.46" y="410.1" width="8.43" height="4"/><rect class="cls-39" x="156.56" y="410.1" width="8.43" height="4"/><rect class="cls-39" x="165.67" y="410.1" width="7.74" height="4"/><rect class="cls-39" x="170.71" y="405.51" width="2.71" height="4"/><rect class="cls-79" x="102" y="412.1" width="35.5" height="1.86"/><rect class="cls-79" x="102.92" y="410.27" width="33.66" height="1.83"/><path class="cls-68" d="m110.96,408.29v-21.62c1.46-3.31,5.03-5.47,8.93-5.42,3.81.05,7.23,2.2,8.65,5.42v21.62h-17.58Z"/><path class="cls-52" d="m111.13,408.29c5.8-7.21,11.61-14.42,17.41-21.62v21.62h-17.41Z"/><rect class="cls-79" x="104.09" y="408.29" width="31.31" height="1.98"/><polygon class="cls-52" points="153.53 291.17 153.53 305.66 162.6 317.16 162.6 291.17 153.53 291.17"/><path class="cls-74" d="m158.85,395.75h-12.61v-17.45c.72-2.78,3.17-4.77,5.98-4.91,3.03-.15,5.84,1.9,6.63,4.91v17.45Z"/><rect class="cls-68" x="90.01" y="360.8" width="86.13" height="2.22"/><path class="cls-52" d="m176.14,363.02h-28.6c.59-.74,1.18-1.48,1.77-2.22h26.83v2.22Z"/><path class="cls-82" d="m139.62,354.7h-12.61v-17.45c.72-2.78,3.17-4.77,5.98-4.91,3.03-.15,5.84,1.9,6.63,4.91v17.45Z"/><path class="cls-81" d="m158.85,354.7h-12.61v-17.45c.72-2.78,3.17-4.77,5.98-4.91,3.03-.15,5.84,1.9,6.63,4.91v17.45Z"/><path class="cls-83" d="m119.83,354.7h-12.61v-17.45c.72-2.78,3.17-4.77,5.98-4.91,3.03-.15,5.84,1.9,6.63,4.91v17.45Z"/><path class="cls-73" d="m158.62,354.48c-4.05,0-8.1,0-12.15,0,0-3.41,0-6.83,0-10.24,2.18-3.88,4.36-7.77,6.54-11.65.58.05,1.99.24,3.34,1.28,1.62,1.24,2.12,2.88,2.26,3.41,0,5.73,0,11.46,0,17.2Z"/><polygon class="cls-12" points="97.18 330.99 105.11 330.99 138.32 287.31 132.21 281.07 97.18 330.99"/><polygon class="cls-68" points="90.08 330.99 99.58 330.99 133.32 286.39 133.32 273.77 90.08 330.99"/><polygon class="cls-52" points="176.55 330.99 167.05 330.99 133.32 286.39 133.32 273.77 176.55 330.99"/><path class="cls-23" d="m474.41,353.89h-68.48v-29.37c6.53-2.8,17.86-6.7,32.47-7,16.51-.33,29.25,4.1,36.01,7v29.37Z"/><path class="cls-75" d="m474.41,326.15c-7.96-2.54-20.13-5.44-35.16-5.32-14.11.11-25.6,2.85-33.32,5.32,0-1.58,0-3.16,0-4.74,5.58-1.87,17.51-5.26,33.62-5.35,16.81-.09,29.27,3.48,34.86,5.35v4.74Z"/><rect class="cls-3" x="404.46" y="344.6" width="71.25" height="70.41"/><path class="cls-3" d="m439.54,306.96c-11.69,12.55-23.39,25.1-35.08,37.65h71.25c-12.06-12.55-24.11-25.1-36.17-37.65Z"/><path class="cls-16" d="m475.71,415.01h-71.25c18.64-28.64,37.29-57.28,55.93-85.93,5.1,5.17,10.21,10.34,15.31,15.51v70.41Z"/><rect class="cls-19" x="411.73" y="381.46" width="56.79" height="33.52"/><rect class="cls-26" x="427.56" y="382.67" width="40.96" height="32.31"/><rect class="cls-78" x="429.31" y="388.66" width="37.45" height="20.34"/><path class="cls-50" d="m466.76,409h-37.45c6.77-8.13,13.55-16.26,20.32-24.38,5.71,1.35,11.42,2.7,17.12,4.05,0,6.78,0,13.56,0,20.34Z"/><path class="cls-50" d="m468.6,387.13c-18.96.07-37.91.14-56.87.22.02,2.05.04,4.1.05,6.16l3.66.36c.12-.15.58-.68,1.3-.72.83-.05,1.39.6,1.48.72,1.32,0,2.64,0,3.96,0,.05-.09.44-.82,1.17-.88.85-.07,1.34.83,1.36.88,1.36,0,2.73,0,4.09,0,.07-.1.58-.77,1.37-.71.65.06,1.05.58,1.14.71,1.32,0,2.64,0,3.96,0,.09-.12.65-.82,1.52-.8.83.02,1.34.67,1.45.8,1.23.01,2.46.02,3.69.03.08-.12.62-.91,1.52-.93.92-.02,1.49.78,1.56.89,1.24,0,2.49,0,3.73,0,.13-.15.61-.65,1.33-.69.82-.04,1.36.55,1.48.68,1.18,0,2.36,0,3.53,0,.15-.16.72-.75,1.58-.75.86,0,1.43.59,1.58.75,1.13,0,2.27,0,3.4,0,.12-.14.62-.71,1.4-.73.82-.02,1.36.6,1.47.73,1.35-2.24,2.7-4.48,4.05-6.72Z"/><path class="cls-50" d="m415.88,393.5c-.39.94-1.23,1.53-2.14,1.49-.84-.04-1.6-.62-1.95-1.49v-11.48c.05-.09.75-1.24,2.04-1.24,1.3,0,2,1.15,2.05,1.24v11.48Z"/><path class="cls-50" d="m422.27,393.82c-.39.98-1.23,1.6-2.14,1.55-.84-.04-1.6-.64-1.95-1.55v-11.96c.05-.09.75-1.29,2.04-1.29,1.3,0,2,1.2,2.05,1.29v11.96Z"/><path class="cls-50" d="m428.81,393.86c-.39.99-1.23,1.62-2.14,1.57-.84-.04-1.6-.65-1.95-1.57v-12.1c.05-.09.75-1.3,2.04-1.31,1.3,0,2,1.22,2.05,1.31v12.1Z"/><path class="cls-50" d="m435.28,393.86c-.31.97-1.14,1.6-2.05,1.58-.88-.03-1.67-.68-1.95-1.62,0-4,0-7.99,0-11.99.04-.08.74-1.33,2.05-1.32,1.32,0,2.01,1.3,2.05,1.37-.03,4-.06,7.99-.09,11.99Z"/><path class="cls-50" d="m442.17,393.6c-.28,1.08-1.17,1.8-2.14,1.76-.88-.04-1.67-.71-1.95-1.69v-11.8c.03-.06.72-1.3,2.04-1.3.85,0,1.63.53,2.05,1.36v11.67Z"/><path class="cls-50" d="m449.08,393.56c-.29,1.09-1.18,1.83-2.14,1.8-.85-.03-1.62-.64-1.95-1.56v-12.04c.42-.82,1.21-1.32,2.04-1.3.88.02,1.68.62,2.05,1.53v11.57Z"/><path class="cls-50" d="m455.72,393.37c-.12,1.4-1.18,2.4-2.25,2.32-.86-.06-1.63-.8-1.9-1.83-.02-4.03-.04-8.06-.06-12.09.41-.84,1.2-1.35,2.04-1.33.91.03,1.72.68,2.06,1.64.04,3.76.07,7.53.11,11.29Z"/><path class="cls-50" d="m462.36,393.3c-.23,1.19-1.14,2.02-2.14,2.01-.82,0-1.59-.58-1.96-1.46,0-4.05,0-8.09,0-12.14.42-.83,1.21-1.34,2.04-1.3.93.04,1.75.75,2.05,1.78v11.11Z"/><path class="cls-50" d="m468.52,393.59c-.14,1.04-1.06,1.79-2.07,1.77-.88-.02-1.67-.63-1.9-1.5-.02-4.03-.03-8.06-.05-12.1.03-.05.72-1.31,2.04-1.3.86,0,1.65.55,2.05,1.41-.02,3.91-.05,7.81-.07,11.72Z"/><path class="cls-11" d="m468.59,386.95c-1.24.91-2.48,1.82-3.72,2.74-2.34,1.27-4.68,2.54-7.02,3.82.33,0,.66.01,1,.02.09-.09.61-.62,1.45-.62.95,0,1.51.67,1.58.75.09-.1.46-.5,1.09-.57.86-.09,1.43.51,1.48.57.19-.15,1.02-.79,2.23-.74.95.05,1.6.5,1.83.67.02-2.21.05-4.43.07-6.64Z"/><path class="cls-11" d="m462.34,393.41c-.15,1.05-1.05,1.84-2.11,1.9-1.13.06-2.16-.71-2.37-1.81.14-3.9.27-7.8.41-11.69.4-.84,1.16-1.35,1.98-1.33.88.03,1.67.68,1.99,1.64.03,3.76.07,7.53.1,11.29Z"/><path class="cls-50" d="m458.58,393.1c-.24.13-.48.26-.72.4-.03-.15-.06-.32-.06-.51-.01-.31.02-.59.07-.8.24.18.49.35.73.53,0,.13,0,.25-.01.38Z"/><path class="cls-11" d="m468.51,393.6c-.18.87-.78,1.58-1.57,1.79-1.1.3-2.46-.38-2.91-1.7.14-3.9.27-7.8.41-11.69.4-.84,1.16-1.35,1.98-1.33.88.03,1.67.68,1.99,1.64.03,3.76.07,7.53.1,11.29Z"/><path class="cls-38" d="m471.37,386.15c-20.83,0-41.66,0-62.5,0v-4.71c.45-.02,1.03-.08,1.68-.25.73-.19,1.31-.46,1.73-.69,1.05,0,2.1,0,3.15,0,.12.13.58.59,1.3.63.83.04,1.39-.52,1.48-.63,1.32,0,2.64,0,3.96,0,.05.08.44.71,1.17.76.85.06,1.34-.72,1.36-.76,1.36,0,2.73,0,4.09,0,.07.08.58.67,1.37.61.65-.05,1.05-.51,1.14-.61,1.32,0,2.64,0,3.96,0,.09.11.65.72,1.52.7.83-.02,1.34-.58,1.45-.7,1.23,0,2.46-.02,3.69-.03.08.11.62.79,1.52.81.92.02,1.49-.68,1.56-.78,1.24,0,2.49,0,3.73,0,.13.13.61.57,1.33.6.82.03,1.36-.48,1.48-.6,1.18,0,2.36,0,3.53,0,.15.14.72.65,1.58.65.86,0,1.43-.51,1.58-.65,1.13,0,2.27,0,3.4,0,.12.12.62.62,1.4.64.82.02,1.36-.52,1.47-.63,1.26,0,2.53,0,3.79,0,.37.17.83.34,1.37.48.64.16,1.21.22,1.67.24v4.93Z"/><path class="cls-38" d="m471.37,386.17c-20.83,0-41.66,0-62.5-.01v5.51c.42-.01,1.01.02,1.68.2.78.21,1.37.55,1.73.8h3.15c.12-.15.58-.68,1.3-.72.83-.05,1.39.6,1.48.72,1.32,0,2.64,0,3.96,0,.05-.09.44-.82,1.17-.88.85-.07,1.34.83,1.36.88,1.36,0,2.73,0,4.09,0,.07-.1.58-.77,1.37-.71.65.06,1.05.58,1.14.71,1.32,0,2.64,0,3.96,0,.09-.12.65-.82,1.52-.8.83.02,1.34.67,1.45.8,1.23.01,2.46.02,3.69.03.08-.12.62-.91,1.52-.93.92-.02,1.49.78,1.56.89,1.24,0,2.49,0,3.73,0,.13-.15.61-.65,1.33-.69.82-.04,1.36.55,1.48.68,1.18,0,2.36,0,3.53,0,.15-.16.72-.75,1.58-.75.86,0,1.43.59,1.58.75,1.13,0,2.27,0,3.4,0,.12-.14.62-.71,1.4-.73.82-.02,1.36.6,1.47.73,1.26,0,2.53,0,3.79,0,.3-.18.76-.41,1.37-.55.7-.16,1.3-.11,1.67-.06v-5.88Z"/><path class="cls-2" d="m415.88,392.3c-.39.94-1.23,1.53-2.14,1.49-.84-.04-1.6-.62-1.95-1.49v-11.48c.05-.09.75-1.24,2.04-1.24,1.3,0,2,1.15,2.05,1.24v11.48Z"/><path class="cls-2" d="m422.27,392.62c-.39.98-1.23,1.6-2.14,1.55-.84-.04-1.6-.64-1.95-1.55v-11.96c.05-.09.75-1.29,2.04-1.29,1.3,0,2,1.2,2.05,1.29v11.96Z"/><path class="cls-2" d="m428.81,392.66c-.39.99-1.23,1.62-2.14,1.57-.84-.04-1.6-.65-1.95-1.57v-12.1c.05-.09.75-1.3,2.04-1.31,1.3,0,2,1.22,2.05,1.31v12.1Z"/><path class="cls-2" d="m435.28,392.66c-.31.97-1.14,1.6-2.05,1.58-.88-.03-1.67-.68-1.95-1.62,0-4,0-7.99,0-11.99.04-.08.74-1.33,2.05-1.32,1.32,0,2.01,1.3,2.05,1.37-.03,4-.06,7.99-.09,11.99Z"/><path class="cls-2" d="m442.17,392.4c-.28,1.08-1.17,1.8-2.14,1.76-.88-.04-1.67-.71-1.95-1.69v-11.8c.03-.06.72-1.3,2.04-1.3.85,0,1.63.53,2.05,1.36v11.67Z"/><path class="cls-2" d="m449.08,392.36c-.29,1.09-1.18,1.83-2.14,1.8-.85-.03-1.62-.64-1.95-1.56v-12.04c.42-.82,1.21-1.32,2.04-1.3.88.02,1.68.62,2.05,1.53v11.57Z"/><path class="cls-2" d="m455.72,392.17c-.12,1.4-1.18,2.4-2.25,2.32-.86-.06-1.63-.8-1.9-1.83-.02-4.03-.04-8.06-.06-12.09.41-.84,1.2-1.35,2.04-1.33.91.03,1.72.68,2.06,1.64.04,3.76.07,7.53.11,11.29Z"/><path class="cls-2" d="m462.36,392.1c-.23,1.19-1.14,2.02-2.14,2.01-.82,0-1.59-.58-1.96-1.46,0-4.05,0-8.09,0-12.14.42-.83,1.21-1.34,2.04-1.3.93.04,1.75.75,2.05,1.78v11.11Z"/><path class="cls-2" d="m468.59,392.47c-.32,1.04-1.2,1.72-2.14,1.68-.82-.04-1.57-.62-1.9-1.5-.02-4.03-.03-8.06-.05-12.1.03-.05.72-1.31,2.04-1.3.86,0,1.65.55,2.05,1.41v11.81Z"/><path class="cls-19" d="m397.09,352.2h7.49c11.66-15.08,23.31-30.16,34.97-45.25.07-2.86.13-5.72.2-8.58-14.22,17.94-28.44,35.89-42.65,53.83Z"/><path class="cls-54" d="m482.4,352.2h-7.49c-11.79-15.08-23.58-30.16-35.37-45.25.07-2.86.13-5.72.2-8.58,14.22,17.94,28.44,35.89,42.65,53.83Z"/><path class="cls-80" d="m425.16,369.81h-9.78v-12.06c.53-2.22,2.62-3.79,4.96-3.75,2.29.03,4.29,1.59,4.81,3.75v12.06Z"/><path class="cls-80" d="m438.53,369.81h-9.78v-12.06c.53-2.22,2.62-3.79,4.96-3.75,2.29.03,4.29,1.59,4.81,3.75v12.06Z"/><path class="cls-80" d="m451.96,369.81h-9.78v-12.06c.53-2.22,2.62-3.79,4.96-3.75,2.29.03,4.29,1.59,4.81,3.75v12.06Z"/><path class="cls-80" d="m464.95,369.81h-9.78v-12.06c.53-2.22,2.62-3.79,4.96-3.75,2.29.03,4.29,1.59,4.81,3.75v12.06Z"/><path class="cls-80" d="m448.07,344.9h-15.81v-12.06c.86-2.22,4.23-3.79,8.03-3.75,3.7.03,6.94,1.59,7.78,3.75v12.06Z"/><path class="cls-29" d="m438.24,369.55h-4.12c1.37-2.14,2.75-4.28,4.12-6.41v6.41Z"/><path class="cls-31" d="m406.57,414.84h-10.22c.64-9.01,1.04-18.73,1.04-29.08,0-10.34-.39-20.06-1.04-29.06h10.22c-.57,8.99-.91,18.59-.92,28.73,0,10.4.34,20.22.92,29.41Z"/><path class="cls-53" d="m398.39,304.23c.6-1.68,2.39-5.9,6.78-8.3,6.61-3.62,14.36-.52,18.51,2.92,1.62,1.35,5.43,4.5,5.58,9.62.13,4.35-2.46,7.46-3.25,8.35,1.07.19,8.31,1.63,12.44,8.58.43.73,4.11,7.16,1.59,14.7-.52,1.54-2.08,6.01-6.77,8.9-3.64,2.24-7.24,2.37-8.78,2.33.62,1.84,2.1,7.01.16,13.06-.23.73-2.06,6.19-6.99,10-9.06,7-25.28,5.88-34.38-3.42-5.79-5.92-6.9-13.32-7.16-16.64-.93-.28-2.22-.72-3.67-1.45-1.68-.84-6.24-3.13-8.68-7.68-2.68-5-2.35-11.86,1.38-16.96,3.94-5.4,9.95-6.44,11.23-6.63-.5-.94-2.47-4.89-1.04-9.39,1.36-4.24,4.87-6.23,7.04-7.45,1.22-.69,5.18-2.86,10.43-2.25,2.47.29,4.39,1.09,5.59,1.71Z"/><path class="cls-31" d="m257.36,414.75h-7.93c.5-8.36.8-17.38.8-26.98,0-9.6-.31-18.61-.8-26.96h7.93c-.44,8.34-.7,17.25-.71,26.65,0,9.64.26,18.76.71,27.29Z"/><path class="cls-35" d="m249.96,325.16c.85-.76,4.47-3.82,9.5-3.6,4.4.19,8.99,2.85,10.65,7.5,1.07,2.98.57,5.76.25,7.07.56.13,8.5,2.18,10.64,9.75.31,1.09,1.47,5.47-.95,10.16-2.29,4.42-6.21,6.09-7.16,6.47.51.95.96,2.24.8,3.71-.46,4.21-5.66,7.47-10.07,7.86-4.01.35-6.97-1.72-8.05-2.57-.65.81-1.72,1.95-3.28,2.84-5.69,3.27-13.22.66-17.55-3.24-1.07-.96-4.26-3.92-5.28-9.15-.81-4.16.18-7.62.72-9.16-.22,0-2.82.03-4.1-2.04-1.24-2.01-.33-4.53.66-5.9.96-1.34,2.23-1.92,2.82-2.15-.64-.72-1.53-1.91-2.09-3.58-1.49-4.43.34-9.44,3.11-12.63,3.67-4.23,8.53-4.71,9.5-4.78,5.58-.43,9.22,2.81,9.9,3.44Z"/><path class="cls-31" d="m234.21,414.63h-5.1c.32-4.41.52-9.16.52-14.23,0-5.06-.2-9.81-.52-14.22h5.1c-.28,4.4-.45,9.09-.46,14.05,0,5.09.17,9.89.46,14.39Z"/><path class="cls-51" d="m229.77,365.64c.44-.39,2.32-1.95,4.97-1.81,2.31.12,4.73,1.52,5.63,3.93.58,1.54.33,2.98.17,3.65.29.07,4.47,1.17,5.64,5.09.17.56.8,2.83-.44,5.24-1.18,2.27-3.23,3.11-3.73,3.3.27.5.52,1.16.44,1.92-.22,2.17-2.93,3.83-5.24,4-2.11.16-3.67-.93-4.24-1.37-.34.41-.89,1-1.71,1.45-2.97,1.66-6.94.27-9.23-1.77-.57-.5-2.26-2.05-2.82-4.75-.45-2.15.05-3.93.33-4.73-.12,0-1.48,0-2.16-1.07-.66-1.05-.2-2.34.31-3.04.5-.69,1.16-.98,1.47-1.09-.34-.38-.81-.99-1.11-1.86-.8-2.29.13-4.87,1.56-6.5,1.9-2.16,4.45-2.38,4.96-2.42,2.93-.19,4.85,1.5,5.22,1.83Z"/><path class="cls-31" d="m66.95,415.15h-5.1c.32-4.41.52-9.16.52-14.23,0-5.06-.2-9.81-.52-14.22h5.1c-.28,4.4-.45,9.09-.46,14.05,0,5.09.17,9.89.46,14.39Z"/><path class="cls-31" d="m88.52,414.75h-7.93c.5-8.36.8-17.38.8-26.98,0-9.6-.31-18.61-.8-26.96h7.93c-.44,8.34-.7,17.25-.71,26.65,0,9.64.26,18.76.71,27.29Z"/><path class="cls-63" d="m81.02,326.94c.85-.76,4.47-3.82,9.5-3.6,4.4.19,8.99,2.85,10.65,7.5,1.07,2.98.57,5.76.25,7.07.56.13,8.5,2.18,10.64,9.75.31,1.09,1.47,5.47-.95,10.16-2.29,4.42-6.21,6.09-7.16,6.47.51.95.96,2.24.8,3.71-.46,4.21-5.66,7.47-10.07,7.86-4.01.35-6.97-1.72-8.05-2.57-.65.81-1.72,1.95-3.28,2.84-5.69,3.27-13.22.66-17.55-3.24-1.07-.96-4.26-3.92-5.28-9.15-.81-4.16.18-7.62.72-9.16-.22,0-2.82.03-4.1-2.04-1.24-2.01-.33-4.53.66-5.9.96-1.34,2.23-1.92,2.82-2.15-.64-.72-1.53-1.91-2.09-3.58-1.49-4.43.34-9.44,3.11-12.63,3.67-4.23,8.53-4.71,9.5-4.78,5.58-.43,9.22,2.81,9.9,3.44Z"/><path class="cls-25" d="m59.09,362.38c.08-.83.41-2.96,2.28-4.62,2.81-2.51,7.08-2.16,9.6-1.17.99.39,3.29,1.29,4.05,3.56.64,1.93-.24,3.67-.52,4.17.56-.06,4.35-.39,7.32,2.17.31.27,2.99,2.66,2.73,6.37-.05.76-.24,2.97-2.2,4.89-1.51,1.49-3.29,2.03-4.06,2.22.55.74,1.97,2.86,1.8,5.83-.02.36-.21,3.05-2.16,5.41-3.58,4.34-11.81,6.02-17.56,3.08-3.66-1.87-5.19-5.04-5.76-6.49-.5,0-1.2-.03-2.02-.16-.95-.15-3.52-.57-5.33-2.28-1.99-1.88-2.73-4.99-1.55-7.77,1.25-2.94,4.1-4.21,4.71-4.47-.38-.36-1.88-1.86-1.76-4.06.12-2.08,1.6-3.44,2.52-4.28.52-.47,2.2-1.97,4.89-2.4,1.27-.2,2.33-.1,3.01.02Z"/><path class="cls-30" d="m159.96,425.38c-.35.09-.96.19-1.63-.01-1.52-.46-2.22-2.15-2.34-3.34-.04-.4-.05-1.39.55-2.39.37-.61.84-.98,1.13-1.18.13-.78.48-2.04,1.5-3.09,1.07-1.09,2.42-1.5,4.52-1.77,3.65-.47,6.44-.42,7.62-.42,2.04,0,4.93-.12,8.46-.73.69-1.02,1.71-2.4,3.1-3.9,1.57-1.7,2.68-2.89,4.37-3.74,1.55-.78,2.89-.94,5-1.11,6.47-.53,9.73-.8,15.24-.37,2.97.23,4.45.35,5.41.63,2.22.65,3.85,1.67,10.51,7.88,5.12,4.76,6.06,5.93,6.63,7.85.26.86,1.5,5.05-.82,6.88-1.93,1.52-4.97.35-5.3.22-.08-.97-.36-2.7-1.49-4.44-.28-.43-2.92-4.33-7.54-4.29-.66,0-3.18.1-5.38,2-3.44,2.98-2.83,7.58-2.78,7.95-10.31-.06-20.63-.13-30.94-.19.17-.62.81-3.28-.68-5.83-2.17-3.71-6.78-3.71-7.25-3.7-.73.01-3.69.11-5.88,2.5-1.65,1.8-1.93,3.86-2,4.59Z"/><path class="cls-34" d="m157.68,418.46c.12-.78.45-2.04,1.45-3.09,1.06-1.1,2.42-1.5,4.52-1.77,3.65-.47,6.44-.42,7.62-.42,2.04,0,4.93-.12,8.46-.73.69-1.02,1.71-2.4,3.1-3.9,0,0,2.03-2.14,4.37-3.74,4.67-3.21,17.46-6.03,27.44-.37,4.01,2.27,7.99,6.15,9.18,7.31,1.72,1.68,3.05,3.18,3.96,4.26-11.24-.66-23.6-.88-36.9-.35-11.93.47-23.03,1.48-33.21,2.8Z"/><path class="cls-48" d="m168.23,432.79h-.49c-3.67,0-6.68-2.98-6.68-6.62s3-6.62,6.68-6.62h.49c3.67,0,6.68,2.98,6.68,6.62s-3,6.62-6.68,6.62Z"/><ellipse class="cls-49" cx="167.98" cy="426.17" rx="4.21" ry="3.76"/><ellipse class="cls-42" cx="167.98" cy="426.17" rx="1.53" ry="1.52"/><rect class="cls-48" x="208.08" y="419.55" width="13.85" height="13.23" rx="6.62" ry="6.62"/><ellipse class="cls-49" cx="215" cy="426.17" rx="4.21" ry="3.76"/><ellipse class="cls-42" cx="215" cy="426.17" rx="1.53" ry="1.52"/><rect class="cls-71" x="194.33" y="417.05" width="4.95" height="1.17" rx=".59" ry=".59"/><path class="cls-4" d="m184.05,412.68h16.03c0-2.98,0-5.97,0-8.95-1.48-.03-3.62.06-6.09.7-1.29.34-3.15.81-5.02,2.04-3.1,2.04-4.4,4.85-4.91,6.2Z"/><path class="cls-4" d="m221.33,412.67c-6.18,0-12.36,0-18.54,0,0-2.98,0-5.97,0-8.95,1.48-.03,3.62.06,6.09.7.55.14,2.57.7,5.02,2.04,3.33,1.82,5.75,4.16,7.42,6.2Z"/><path class="cls-41" d="m185.33,409.91c-.11-.03-.91-.25-1.67.25-.06.04-.86.59-.89,1.59-.02.71.35,1.47,1.06,1.81.68.32,1.33.11,1.48.06l.02-3.71Z"/><path class="cls-17" d="m187.53,397.54c-.21.38.59,1.15.92,1.47.42.41,1.1.94,2.12,1.37,7.38.02,14.76.05,22.14.07.44-.19,1.06-.5,1.7-1.05.36-.31,1.34-1.15,1.13-1.61-.13-.27-.64-.33-.99-.28-.5.08-.7.4-1.34.87-.27.2-.68.47-1.23.72-7.14.02-14.28.05-21.42.07-.76-.39-1.18-.84-1.44-1.18-.18-.24-.33-.51-.67-.63-.33-.11-.79-.06-.92.17Z"/><path class="cls-17" d="m193.37,399.92c-.4.88-.8,1.77-1.21,2.65.36-.1.72-.2,1.08-.31.41-.74.82-1.48,1.23-2.22l-1.1-.12Z"/><path class="cls-17" d="m210.99,400.27c.32.96.65,1.92.97,2.89l1.33.59c-.44-1.27-.87-2.53-1.31-3.8-.33.11-.66.21-.99.32Z"/><path class="cls-28" d="m211.16,399.07c-6.58.03-13.16.06-19.74.1,0-2.28,0-4.55,0-6.83h19.73v6.73Z"/><path class="cls-61" d="m211.16,399.1l-19.74.07c6.58-2.28,13.16-4.55,19.74-6.83,0,2.25,0,4.51,0,6.76Z"/><rect class="cls-15" x="194.1" y="385.67" width="14.85" height="6.67"/><path class="cls-13" d="m208.95,392.34h-14.85c4.95-2.22,9.9-4.44,14.85-6.67v6.67Z"/><rect class="cls-6" x="198.48" y="380.52" width="8.48" height="5.16"/><path class="cls-1" d="m206.96,385.67h-8.48c2.83-1.72,5.66-3.44,8.48-5.16v5.16Z"/><path class="cls-7" d="m195.54,400.47c2.15-5.78,4.29-11.55,6.44-17.33.31-.82.61-1.64.92-2.46.28-.76-.93-1.08-1.21-.33-2.15,5.78-4.29,11.55-6.44,17.33-.31.82-.61,1.64-.92,2.46-.28.76.93,1.08,1.21.33h0Z"/><path class="cls-7" d="m210.5,400.12c-1.6-5.73-3.21-11.45-4.81-17.18-.23-.82-.46-1.64-.69-2.46-.22-.77-1.42-.44-1.21.33,1.6,5.73,3.21,11.45,4.81,17.18.23.82.46,1.64.69,2.46.22.77,1.42.44,1.21-.33h0Z"/><path class="cls-5" d="m324.12,85.45c.81,1.86,3.32,8.25.84,15.33-4.14,11.83-18.06,13.72-18.66,13.79-9.27,1.11-18.63-3.67-24.01-12.16-1.87,1.39-13.04,9.46-25.93,8.2-8.96-.88-16.52-6-19.86-13.55-.55-1.25-2.55-5.81-1.69-11.49,1.37-9.03,9.31-16.65,20.04-19.63-1.06-1.36-2.47-3.48-3.5-6.33-.58-1.6-2.21-6.28-1.05-11.69,1.66-7.72,7.91-11.88,9.43-12.89,10.5-6.98,22.86-2.35,24.29-1.79,1.31-1.76,3.98-4.8,8.36-6.67.6-.26,11.67-4.77,20.03,2.3,6.46,5.47,6.38,13.7,6.35,14.88.5-.1,12.31-2.23,20.09,6.64,5.73,6.53,6.47,15.85,2.87,23.16-5.2,10.57-16.94,11.83-17.6,11.89Z"/><path class="cls-5" d="m454.68,69.82c-2.3.39-6.74,1.5-10.72,5.08-8.16,7.33-7.07,18.45-6.92,19.73-4.52-.58-14.51-1.23-25.3,3.78-4.02,1.87-16.45,7.6-20.98,20.57-6.57,18.82,8.49,35.93,9.7,37.26,12.78,14.08,35.45,18,56.97,9.81.52,2.55,4.7,21.45,22.17,30.15,16.28,8.11,37.32,3.99,51.46-10.72-3.4-13.1-8.72-28.58-17.26-44.99-18.23-35-42.5-57.69-59.1-70.68Z"/><path class="cls-5" d="m68.2,145c-4.3-1.46-12.74-5.06-19.25-13.52-2.37-3.08-3.96-6.13-5.05-8.74,1.91-3.78,4.37-8.04,7.56-12.48,4-5.59,8.13-10.04,11.77-13.5,2.01-.71,6.07-1.84,11.12-1.08,3.99.6,6.96,2.14,8.66,3.2.74-3.02,4.91-18.72,20.12-26.97,1.32-.72,22.33-11.69,37.63.33,8.9,6.98,10.64,17.63,11.04,20.77,23.97-4.78,42.21,9.88,42.82,22.69.47,9.91-9.49,21.27-24.31,26.08,4.82,11.64,2.96,24.51-4.78,32.38-12.05,12.25-31.4,5.33-34.22,4.32-9.1-3.25-14.8-9.22-17.54-12.57-1.01,2.54-3.48,7.72-8.94,11.82-.95.71-5.17,3.78-12.41,5.12-4.02.74-23.47,4.32-30.79-7.74-5.01-8.25-2.7-21.07,6.56-30.12Z"/></svg>