<?xml version="1.0" encoding="UTF-8"?><svg id="Layer_8" xmlns="http://www.w3.org/2000/svg" width="548.72" height="539.2" viewBox="0 0 548.72 539.2"><defs><style>.cls-1{fill:#68bc73;}.cls-2{fill:#008048;}.cls-3{fill:#ecbe6f;}.cls-4{fill:#eaaf33;}.cls-5{fill:#e3a331;}.cls-6{fill:#fffffc;}.cls-7{fill:#fef5bb;}.cls-8{fill:#e69a26;}.cls-9{fill:#fec248;}.cls-10{fill:#6bb144;}.cls-11{fill:#8aca83;}.cls-12{fill:#b4d56a;}.cls-13{fill:#9cce75;}.cls-14{fill:#65b265;}.cls-15{fill:#321c17;}.cls-16{fill:#311f16;}.cls-17{fill:#a8dcde;}.cls-18{fill:#aec967;}.cls-19{fill:#ae7d2c;}.cls-20{fill:#d2962a;}.cls-21{fill:#1f4c25;}.cls-22{fill:#404a1f;}.cls-23{fill:#152916;}.cls-24{fill:#446844;}.cls-25{fill:#447e3c;}.cls-26{fill:#19301a;}.cls-27{fill:#1b3d1d;}.cls-28{fill:#0b603e;}.cls-29{fill:#a46427;}.cls-30{fill:#528d3f;}.cls-31{fill:#2a5429;}.cls-32{fill:#5c692e;}.cls-33{fill:#63b26a;}.cls-34{fill:#477249;}.cls-35{fill:#2c4c2d;}.cls-36{fill:#5b875b;}.cls-37{fill:#3a5f3b;}.cls-38{fill:#2e3618;}.cls-39{fill:#467744;}.cls-40{fill:#78bd7c;}.cls-41{fill:#5caf5c;}.cls-42{fill:#81c787;}.cls-43{fill:#4d8451;}.cls-44{fill:#4c914c;}.cls-45{fill:#26150e;}.cls-46{fill:#265127;}.cls-47{fill:#7aaf72;}.cls-48{fill:#50934d;}</style></defs><ellipse class="cls-7" cx="274.27" cy="269.55" rx="272.02" ry="269.55"/><path class="cls-12" d="m4.31,236.32c.88-8.27,74.2,4.93,108.94-35.6h0c1.8-2.75,3.8-3.6,4.29-3.79,1.68-.66,3.14-.57,4.06-.51,3.79.28,6.49,2.39,7.67,3.45-.01-.51-.04-3.42,2.21-5.56,2.33-2.22,5.38-1.94,6.05-1.89,2.04.16,2.26,1.03,4.34,1.45,4.03.81,5.74-1.95,7.59-1.08,3.55,1.66-.59,12.83,3.98,15.91,2.31,1.56,4.96-.05,6.51,1.81,1.23,1.49-.48,3.16.36,6.51.1.39,1.19,4.49,4.7,5.79,2.44.9,5.68.3,6.15-1.08.55-1.64-3.17-3.07-2.89-5.42.31-2.63,5.13-2.46,6.51-5.79,1.35-3.26-2.45-5.47-1.45-9.04,1.14-4.07,7.5-6.31,12.3-6.15,1.13.04,6.01.21,9.04,3.62,2.42,2.73,1.41,4.99,3.98,6.87,2.76,2.03,5.46.51,6.87,2.53,1.06,1.52-.1,2.88.36,5.79.51,3.19,2.43,4.83,3.62,6.51,3.64,5.17.15,10.5.72,18.44.49,6.79,3.92,15.15,10.48,19.89,8.71,6.28,19.61,3.79,23.51,2.9,13.96-3.19,22.22-13.83,23.51-15.55,7.75-10.28,6.19-18.56,14.83-23.14,3.25-1.73,6.24-2.01,9.04-5.42,2.73-3.31,3.01-6.81,6.51-8.32.34-.15,1.67-.34,4.34-.72,4.18-.6,6.29-.9,7.59-.72,1.92.26,3.76,1.06,6.15,2.89,6.22,4.76,9.25,11.16,11.77,14.24,7.6,9.28,27.45,9.06,40.65,2.17,12.34-6.45,20.68-19.68,18.17-24.32-.49-.9-1.86-2.37-3.07-5.41-.81-2.05-1.61-4.08-.72-5.41.88-1.31,2.44-.49,5.41-1.62,3.82-1.46,4.52-4.06,6.4-3.73,2.18.39,2.08,4.03,3.84,4.57,3.23,1,6.62-10.31,12.66-14.46,12.22-8.4,33.36,13.85,60.04,19.57,13.24,2.84,33.27,2.77,61-12.47,4.16,11.14,8.35,25.11,11.06,41.5,2.56,15.53,3.15,29.39,2.91,40.83-14.96,12.65-51.13,39.59-104,45.23-27.73,2.96-51.05-.91-67-5.03-19.17,1.48-47.11,2.82-80.84,1.44-8.91-.37-30.73-1.86-99.78-14.3-113.7-20.48-52.54-16.37-175.85-49.27,0,0-14.93-3.98-14.49-8.1Z"/><path class="cls-18" d="m354.51,230.43c7.44-13.83,34.71-22.11,32.24-27.45-.45-.97-1.82-2.27-3.07-5.41-.81-2.05-1.61-4.08-.72-5.41.88-1.31,2.44-.49,5.41-1.62,3.82-1.46,4.52-4.06,6.4-3.73,2.18.39,2.08,4.03,3.84,4.57,3.23,1,6.62-10.31,12.66-14.46,12.22-8.4,33.36,13.85,60.04,19.57,13.24,2.84,33.27,2.77,61-12.47,4.16,11.14,8.35,25.11,11.06,41.5,2.56,15.53,3.15,29.39,2.91,40.83-17.65,12.61-50.66,32.55-96.54,40.16-30.4,5.04-56.38,3-74.47.05-2.88-9.89-5.77-19.77-8.65-29.66-16.31-24.85-16.4-38.48-12.1-46.47Z"/><path class="cls-17" d="m450.62,365.48c13.36,70.84-116.84,162.82-210.52,162.24-26.69-.16-67.82-7.97-106.02-27.12-19.9-9.98-28.79-17.94-34.63-24.35-21.7-23.84-27.18-54.83-26.65-71.88,1.88-60.17,91.03-112.78,167.3-123.35,47.23-6.54,83.49.97,95.81,4.31,13.07,3.55,104.89,28.13,114.7,80.14Z"/><path class="cls-1" d="m162.56,221.17s1.59.1,3.75-1c0,0,0,0,0,0,0,0,0,0,0,0,2.06-2.34,2.2-3.02,3.08-3.15,1.81-.28,2.62,2.35,5.48,2.49.56.03,1.17-.09,2.4-.33,2.64-.51,3.02-1.07,3.77-.83,1.35.44,1.17,2.63,2.23,5.31,0,0,1.29,3.27,4.11,5.64,4.35,3.66,12.2,4.2,16.11,1,1.75-1.44,1.17-2.36,3.6-4.48,3.2-2.79,5.2-2.04,6.51-4.15,1.68-2.71-.97-5,.69-7.8,1.36-2.29,4.96-3.83,7.03-2.82,3.37,1.65,1.29,9.42,4.28,10.45,1.97.68,3.94-2.33,5.65-1.49,1.5.73,1.44,3.75,1.37,7.13-.11,5.17-1.18,6.82,0,8.13,1.65,1.83,4.73-.33,6.68,1.33,2.7,2.3-1.73,7.7.85,13.44.79,1.76,2.81,3.33,6.85,6.47,2.56,1.99,3.72,2.9,4.22,3.22,3.1,1.98,4.94,3.15,7.26,3.25,3.96.17,8.12-2.81,9.94-6.3,1.66-3.2.81-6.14,2.91-7.13,1.8-.85,3.7.7,5.14-.5,1.17-.98.59-2.58,1.54-2.99,1.23-.52,2.41,2.08,4.45,2.16,2.8.1,3.13-4.67,7.54-6.64,3.38-1.51,5.44.29,7.71-1.66,1.15-.99.87-1.66,2.4-5.14,1.14-2.59,2.63-6.62,4.97-7.13,1.37-.3,2.14.69,6.48,3.89,4.57,3.37,6.9,5.06,9.28,5.73,1.45.41,1.47.54,8.57.17,6.86-.36,8.67.56,9.77-.83,1.68-2.13-1.85-5.22-.17-8.79,1.36-2.89,4.23-2.07,5.83-4.81,2.51-4.31-3.05-8.96-.68-12.94,1.88-3.18,6.41-1.89,8.05-5.31,1.28-2.66-1.05-4.31-.34-7.47,1.31-5.85,11.58-10.15,14.91-7.63,2.6,1.97.45,7.71,2.23,8.3,1.61.53,3.25-4.21,7.03-5.47,4.79-1.61,10.61,3.19,14.39,6.47,13.81,11.99,17.92,18.95,23.98,24.22,4.83,4.21,12.2,9.19,34.27,11.29,37.3,3.55,85.4-3.1,95.38-4.53.82,4.78,1.5,9.99,1.93,15.6.58,7.59.59,14.57.3,20.81-50.84,46.81-85.85,53.29-109.15,49.37-16.49-2.77-34.34-11.97-63.21-7.9-13.72,1.94-22.53,5.83-40.25,6-17.71.17-29.21-3.59-39.24-5.83-34.8-7.76-62.22-.54-76.83,1.06-29.48,3.23-87.76-7.52-213.95-68.3.47-3.29.93-6.59,1.4-9.88,91.77-5.84,155.61-9.83,157.52-9.7Z"/><path class="cls-33" d="m338.35,236.59c.69-4.27-1.23-6.67.55-9.57,1.66-2.71,4.57-1.49,6.19-4,2.49-3.86-3.06-8.92-.68-12.94,1.88-3.18,6.41-1.89,8.05-5.31,1.28-2.66-1.05-4.31-.34-7.47,1.31-5.85,11.58-10.15,14.91-7.63,2.6,1.97.45,7.71,2.23,8.3,1.61.53,3.25-4.21,7.03-5.47,4.79-1.61,10.61,3.19,14.39,6.47,13.81,11.99,17.92,18.95,23.98,24.22,1.09.94,2.3,1.93,3.78,2.91,11.19,7.42,26.82,8.3,30.49,8.37,14.44.31,48.82-.53,94.65-4.54.76,4.14,1.32,9.35,1.06,15.36-.36,8.53-2.25,15.53-4.02,20.45-47.59,46.34-81.04,53.07-103.24,49.98-19.26-2.68-37.7-7.46-63.21-7.9-1.05-.02-2.91-.04-5.5-.29-3.65-.35-28.38-2.71-33.2-14.87-3.25-8.19,6.07-11.92,3.67-23.76-2.12-10.43-10.62-13.75-8.68-20.61,1.46-5.16,6.88-5.4,7.9-11.72Z"/><path class="cls-42" d="m125.77,254.99c.45-1.38,4.82-.2,19.93.46,4.47.19,50.58,1.86,57.97-14.12.7-1.52,2.09-5.43,5.96-8.26,2.79-2.05,7.08-3.69,9.01-2.11,1.61,1.31.49,3.97,1.9,4.66,1.44.71,3.94-1.43,6.73-3.82,2.79-2.38,3.07-3.27,5.34-4.64.91-.55,2.5-1.48,4.74-1.94,1.72-.34,5.25-1.11,7.57.76,2.74,2.21,1.27,5.47,4.22,7.46,1.79,1.21,2.98.44,4.33,1.95,1.38,1.55.6,2.89,2.05,4.33,1.3,1.28,2.29.58,3.79,1.95.15.13,1.82,1.71,1.84,4,.01,2.12-1.41,3.69-2.38,4.76-1.87,2.06-3.03,1.87-3.68,3.46-.55,1.35-.41,3.23.65,4.33.95.98,2.31.99,4.11.97,3.38-.03,4.02-1.05,6.06-.97,1.89.07,3.55,1.42,6.81,4.11,3.96,3.27,5.94,4.91,6.49,6.6,1.31,4.06-1.87,6.7,0,9.63.88,1.39,1.79.94,4.11,3.25,2.14,2.13,1.84,2.92,3.17,3.8,2.49,1.64,6,.45,8.69-.46,2.89-.98,4.99-2.36,7.94-4.32,2.39-1.58,2.72-2.05,4.77-3.23,3.06-1.76,4.59-2.64,6.16-2.77,1.14-.09,3.98.05,14.32,11.71,3.91,4.41,4.87,5.92,7.08,6.16,3.22.34,4.12-2.56,9.24-4.54,6.71-2.59,10.83.28,12.42-2.26,1.6-2.56-2.33-5.67-1.97-13.18.09-1.85.2-4.16,1.54-6.62,2.3-4.22,7.09-6.86,11.54-7.48,4.74-.66,7.51,1.08,8.87-.48,1.34-1.55-1.41-4.25.06-7.06.79-1.51,2.36-2.2,5.15-3.43,3.54-1.56,4.62-1.06,5.53-2.29,1.41-1.9-.53-3.79,0-7.06.77-4.73,6.18-8.74,11.05-9.36,3.12-.4,6.33.56,7.06.79,3.34,1.04,4.55,2.5,5.77,1.87,1.67-.87.34-4.13,2-7.33,1.48-2.85,4.48-3.97,7.33-4.99,12.35-4.43,24.97.67,24.97.67,4.53,6.84,12.6,16.75,25.64,23.98,32.77,18.17,67.87,3.21,72.79,1.02.13,3.16.21,6.41.23,9.75.03,3.62,0,7.14-.1,10.55-2.79,3.86-5.57,7.73-8.36,11.59-45.76,28.98-81.47,34.43-106.38,33.55-22.68-.79-31.89-6.67-55.95-2.53-17.9,3.08-35.95,10.33-61.17,5.3-3.83-.76-2.98-.85-10.13-2.52-26.28-6.16-46.33-7.07-51.25-7.4-44.06-2.92-127.58-42.13-125.59-48.22Z"/><path class="cls-43" d="m27.13,156.79c1.75-.49,5.31-1.19,8.41.58,4.22,2.42,5.18,7.39,5.82,10.91,1.1,6.14-.44,11.35-1.66,14.35,1.17-1.72,4.25-5.74,9.83-7.99,1.46-.59,9.21-3.51,16.59.31,8.89,4.6,11.06,15.77,10.16,23.16-.64,5.24-2.89,9.13-4.37,11.28,1.28-1.23,9.4-8.81,20.93-7.7,10.75,1.03,20.1,9.2,23.34,20.58,2.11-.28,21.2-2.51,34.55,11.71,4.65,4.95,13.33,16.94,9.57,22.71-5.41,8.29-32.39-3.79-69.04-11.91-20.64-4.57-50-9.13-86.94-8.46,1.45-11.7,3.92-25.28,8.13-40.09,4.35-15.29,9.59-28.49,14.69-39.44Z"/><path class="cls-40" d="m335.46,292.68c2.13-3.24,6.11-4.15,9.92-5.02,7.09-1.63,10.3.29,11.74-1.77,1.69-2.42-2.33-5.61-1.97-13.18.09-1.85.2-4.16,1.54-6.62,2.3-4.22,7.09-6.86,11.54-7.48,4.74-.66,7.51,1.08,8.87-.48,1.34-1.55-1.41-4.25.06-7.06.79-1.51,2.36-2.2,5.15-3.43,3.54-1.56,4.62-1.06,5.53-2.29,1.41-1.9-.53-3.79,0-7.06.77-4.73,6.18-8.74,11.05-9.36,3.12-.4,6.33.56,7.06.79,3.34,1.04,4.55,2.5,5.77,1.87,1.67-.87.34-4.13,2-7.33,1.48-2.85,4.48-3.97,7.33-4.99,12.35-4.43,24.97.67,24.97.67,4.57,6.86,12.64,16.74,25.64,23.98,32.79,18.27,67.94,3.6,72.98,1.4-.1,2.91-.11,6.05.05,9.38.18,3.96.55,7.63,1.03,10.97-3.16,3.72-6.32,7.44-9.49,11.17-45.76,28.98-81.47,34.43-106.38,33.55,0,0-34.13-10.52-55.95-2.53,0,0-6.26,2.29-6.26,2.29h0c-5.49,1.2-11.4,2.27-17.69,3.11-3.73.5-7.34.88-10.82,1.17-1.31-2.08-3.18-5.58-4.14-10.25-.86-4.19-1.68-8.21.47-11.48Z"/><path class="cls-31" d="m412.24,307.77c-15.93-6.85-21.84-22.09-18.13-29.61,3.79-7.7,20.13-12.37,35.47-2.96-5.03-7.85-6.01-16.59-2.16-22.43,3.37-5.11,9.38-6.4,14.44-7.49,10.66-2.3,19.91.42,25.17,2.54-5.82-8.06-5.5-18.73.37-25.54,6.69-7.76,19.42-9.17,26.17-3.25,3.55,3.11,4.58,7.49,4.92,9.91,1.99-6.97,5.18-10.95,7.77-13.32,3.95-3.6,6.83-3.75,8.51-7.4,1.63-3.55-.33-5.09,0-12.22.22-4.76.44-9.66,3.71-12.95,3.95-3.99,10.23-3.51,12.35-3.25,6.55,15.59,13.1,36.51,15.07,61.69.7,8.91.73,17.24.36,24.87-34.68,16.52-69.36,33.04-104.05,49.56l-29.98-8.15Z"/><path class="cls-34" d="m99.46,476.25c16.5-1.41,41.45-4.02,71.58-9.16,92.59-15.77,115.41-35.08,125.14-44.85,16.89-16.97,31.28-42.35,23.94-53.92-4.66-7.34-14.95-5.43-39.59-18.29-4.76-2.49-18.63-9.73-17.5-15,.75-3.47,7.38-3.54,22-8.5,12.15-4.12,22.4-7.6,22.49-11.24.14-5.63-23.95-9.44-44.21-14.51-45.45-11.37-44.01-22.13-98.9-41.82-20.14-7.22-50.54-17.92-91.33-22.27-28.03-2.99-51.76-1.99-68.77-.38-6.12,38.39-2.08,69.2,1.92,88.12.99,4.67,5.3,24.47,15.9,48.79,4.13,9.48,15.66,34.44,37.66,62.12,9.21,11.58,22.2,26.1,39.68,40.9Z"/><path class="cls-36" d="m1.32,266.85c.03-3.34.16-6.89.45-10.63.34-4.44.85-8.6,1.46-12.44,6.93,5.12,17.73,11.38,31.3,11.9,11.44.44,15.03-3.58,27.37-4.61,6.35-.53,15.1-.27,43.21,10.09,14.28,5.26,26.67,9.83,44.08,18.73,26.7,13.66,43.35,26.35,58.89,30.95,14.46,4.28,21.12,6.71,28.61,5.33,8.69-1.6,11.96-5.62,24.29-7.17,5.56-.7,11.38-1.37,18.15.87,9.18,3.03,14.6,9.58,16.92,12.81-4.19,1.62-8.61,3.21-13.25,4.73-5.89,1.94-11.56,3.58-16.97,4.98-3.28,1.35-8.27,3.21-14.5,4.83-42.95,11.13-80.93-6.3-105.57-16.93-34.94-15.08-80.52-32.67-144.43-53.44Z"/><path class="cls-44" d="m3.3,307.52c-1.3-5.69-2.44-12.64-2.81-20.6-.35-7.66.1-14.45.83-20.08,8.47.73,21.59,2.56,36.74,7.88,15.08,5.3,20.62,10,33.34,14.61,19.44,7.03,28.9,4.15,46.61,6.59,45.25,6.23,46.89,37.28,79.21,35.52,15.35-.84,24.11-7.93,45.9-5.09,9.79,1.28,17.61,3.96,22.7,6.04-.94.33-2.23.97-2.65,2.16-.93,2.66,3.15,6.26,4.89,7.8,8.87,7.83,36.54,17.79,45.02,20.77,1.83.67,4.91,2.11,7.02,5.21,3.05,4.47,2.19,9.58,1.38,14.36-.6,3.59-2.18,9.77-6.9,16.47-42.12-24.24-60.8-23.27-69.78-16.36-5.97,4.6-6.96,9.3-13.95,16.74-2.66,2.84-11.77,10.97-45.1,6.04-42.25-6.26-72.41-25.96-73.92-26.98-34.39-22.98-35.22-42.6-68.8-59.06-15.61-7.65-30-10.67-39.74-12.02Z"/><path class="cls-41" d="m.21,291.42c-.57-9.58.11-17.93,1.12-24.58,5.63,4.12,14.34,10.36,25.2,17.65,26.72,17.93,31.6,18.76,42.66,27.05,30.5,22.88,22.43,38.38,45.15,51.28,16.9,9.59,18.47-.63,67.99,5.59,33.94,4.26,60.74,12.51,72.06-.78,3.23-3.8,4.22-8.19,9.07-9.69,7.8-2.41,14.61,6.02,26.98,12.52,6.69,3.52,16.95,7.49,31.65,8.31-.46,3.4-1.23,7.11-2.49,10.99-5.39,16.63-16.59,27.16-23.42,32.5-2.97-2.72-7.81-6.27-14.02-6.64-12.08-.71-19.38,10.15-27.96,16.04-19.39,13.31-40.81-2.97-90.3-11.15-51.13-8.45-52.06,4.99-74.53-6.59-15.52-7.99-30.9-27.15-61.05-65.14-10.02-12.63-18.01-23.23-23.29-30.33-2.11-6.99-4.18-16.15-4.83-27.02Z"/><path class="cls-11" d="m3.02,310.86c16.04,13.6,27.86,25.86,35.67,34.52,22.97,25.46,38.59,47.62,38.59,47.62,9.41,13.27,20.15,18.45,25.27,20.47,9.34,3.67,17.65,3.71,28.14,3.67,14.43-.06,24.99-2.32,29.06-3.09,44.48-8.48,58.84,17.69,97.58,6.64,12.29-3.51,28.42-11.16,35.82-4.03,1.87,1.8,2.65,4.03,3.03,5.59-1.57,1.56-4.19,4.11-7.6,7.03-13.35,11.46-40.8,30.55-125.95,41.6-15.4,2-37,4.29-63.17,5.38-18.23-13.49-49.71-40.63-72.35-85.46-15.82-31.32-21.72-60.18-24.09-79.93Z"/><path class="cls-21" d="m546.27,266.35c-8.87.11-22.68,1-38.79,5.28-35.97,9.56-38.62,24.14-68.35,31.22-32.93,7.84-41.44-7.25-67.89,5.42-11.71,5.61-15.38,11.13-34.85,19.46-14.92,6.38-24.37,8.11-24.44,12.22-.08,4.64,11.93,8.44,26.31,12.88,15.42,4.76,20.33,4.08,27.97,5.98,3.19.79,3.6,1.19,8.56,2.85,15.16,5.08,16.28,3.52,22.2,6.88,5.45,3.09,5.46,4.95,11.57,7.78,0,0,4.69,2.17,10.33,3.21,9.24,1.71,57.48-17.15,120.52-49.53,2.59-7.58,5.11-17,6.56-27.99,1.85-14.05,1.37-26.27.29-35.66Z"/><path class="cls-37" d="m395.91,393.86c-7.1,8.7-12.03,7.79-22.79,16.46-3.22,2.59-17.42,14.04-15.36,19.52,3.22,8.55,45.07.1,49.72-.86,27.36-5.65,68.66-18.87,117.19-54.08,4.85-10.61,9.81-23.33,13.95-38,4.27-15.15,6.7-29,8.09-40.87-13.12-6.71-22.58-6.03-28.27-4.56-9.39,2.44-14.18,8.53-30.52,25.82-14.74,15.59-22.16,23.34-23.81,24.48-16.6,11.41-42.64,17.74-53.97,20.58,0,0-13.44,3.37-13.14,6.19.04.35.29.49,2.42,2.56,0,0,.66.39,3.01,3.41,1.94,2.51.32,10.97-6.51,19.35Z"/><path class="cls-39" d="m326.11,458.69c-.05-.17-.05-.31-.05-.44-.09-1.78,1.24-5.96,15.77-19.74,7.37-6.99,13.94-12.47,18.88-16.37,3.87,2.52,10.09,5.75,17.78,5.76,9.63,0,14.06-5.03,31.26-14.46,16.03-8.78,16.58-6.82,28.38-14.01,14.19-8.65,18.07-14.35,25.22-19.26,10.49-7.2,28.52-13.02,61.33-5.27-4.21,11.25-10.32,24.69-19.26,38.94-10.8,17.21-22.43,30.34-32.19,39.84-17.24,6.71-31.43,8.94-40.63,9.8-31.4,2.94-36.57-7.06-72.21-4.29-12.11.94-33.08,3.78-34.27-.5Z"/><path class="cls-48" d="m292.95,484.21c8.23-7.09,9.77-12.15,23.66-24.78,8.16-7.42,15.47-12.8,20.37-16.19,1.44,2.2,3.84,5.28,7.57,7.87,3.81,2.65,14.16,8.38,39.5,1.51,18.3-4.96,30.43-12.7,36.12-15.97,15.44-8.87,39.96-17.25,79.19-13.69-8.06,14.46-22.44,36.11-46.45,56.2-27.96,23.41-56.1,33.94-72.91,38.83-16.65,5.7-44.26,12.64-77.49,8.46-28.44-3.57-56.49-14.72-55.76-21.97.67-6.64,24.64-1.7,46.19-20.27Z"/><path class="cls-47" d="m134.09,500.6c24.87-6.72,44.94-7.14,59.07-6.13,21.3,1.52,36.45,6.79,61.77,3.51,11.72-1.52,21.18-4.29,27.49-6.47,14.2,13.08,33.02,26,50.65,21.47,9.67-2.49,10.03-7.93,25.44-15.9,16.26-8.4,43.87-16.82,55.79-5.2,3.28,3.2,4.62,7.19,5.23,9.9-17.24,9.73-41.7,21.21-72.57,28.87-32.43,8.05-60.67,9.1-81.01,8.31-18.96.19-46.5-1.77-77.66-12.18-22.77-7.61-40.9-17.54-54.2-26.2Z"/><path class="cls-9" d="m463.22,75.39c-9.79,27.4-34.79,45.68-61.66,45.58-33.54-.12-63.18-28.87-63.47-60.49-.24-25.97,19.41-43.5,23.07-46.65,15.6,5.32,34.87,13.43,55.45,25.97,19.59,11.94,35.02,24.63,46.62,35.58Z"/><path class="cls-6" d="m116.68,107.31c-.5-1.63-2.11-8.95,1.68-13.44,3.68-4.36,9.53-2.58,13.19-7.24,2.8-3.56,1.35-7.1,1.99-11.51,2.02-13.85,22.72-22.4,32.91-25.09,4.71-1.24,17.57-3.98,32.54,1.08,5.27,1.78,15.4,5.21,22.71,14.49,5.56,7.07,4.36,11.03,10.83,16.23,5.8,4.66,9.72,3.85,14.44,9.11,3.1,3.46,6.11,9.04,5.66,12.4-2.57,19.44-128.83,27.27-135.96,3.96Z"/><path class="cls-14" d="m94.27,243.73c6.66,2.3,12.32,3.13,16.14,3.46,7.65.66,15.7,1.35,21.08-3.46.89-.79,3.8-3.39,3.81-6.93.03-4.94-5.6-10.06-14.35-11.91.86-.44,6.55-3.41,7.58-9.11,1.12-6.23-3.77-13.33-12.18-15.71.75-2.43,1.57-6.15,1.32-10.68-.29-5.34-1.93-9.47-3.14-11.94l-10.69,3.45,8.89-9.11c-7.97-55.89-14.99-83.74-21.06-83.55-4.32.13-8.17,14.48-11.53,43.03l9.22,11.94-10.87-5.97-6.26,29.84,10.54,9.42-13.83-3.77c-1.04,1.8-4.96,9.13-2.31,17.59,1.07,3.4,2.86,5.91,4.28,7.54-1.04.28-4.98,1.49-7.57,5.34-.43.63-3.21,4.91-1.65,10.05,1.35,4.47,5.45,7.86,10.54,8.8-2.02.03-10.27.38-15.48,6.28-1.03,1.16-2.92,3.36-3.29,6.6,0,0-.58,5.09,3.95,10.05,5.65,6.18,20.57,5.7,36.88-1.25Z"/><path class="cls-16" d="m94.09,193.88c-1.05,0-2.01,9.2-2.9,27.58-14.34-8.17-21.7-12.04-22.09-11.61-.42.45,6.98,5.72,22.19,15.8-.07,3.75-.14,7.5-.22,11.26-9.74-5.54-14.84-8.06-15.31-7.59-.52.53,4.65,4.75,15.5,12.65-.52,17.45-1.04,34.9-1.56,52.34-13.39-4.47-20.28-6.38-20.66-5.73-.4.69,6.54,4.26,20.83,10.72-.42,10.57-.83,21.15-1.25,31.72,1.97,3.21,3.94,6.43,5.91,9.64.93-16.33,1.87-32.67,2.8-49,19.36-7.44,28.83-11.58,28.4-12.43-.41-.82-10.02,1.43-28.85,6.75.34-12.69.67-25.37,1.01-38.06,10.23-4.16,15.17-6.63,14.79-7.41-.35-.73-5.34.02-14.97,2.25.12-6.1.25-12.21.37-18.31,9.02-7.5,13.27-11.47,12.77-11.93-.46-.42-4.95,2.14-13.45,7.66-1.18-17.54-2.28-26.3-3.3-26.3Z"/><path class="cls-35" d="m154.68,265.15c-2.06,1.23-13.58,7.85-26.89,3.61-6.95-2.21-18.68-8.75-18.79-18.22-.11-9.16,10.66-19.44,26.58-20.2-6.44-.5-11.98-3.78-13.82-8.69-2.86-7.64,4.77-15.17,6.96-17.34,6.67-6.58,15.03-7.4,17.75-7.55-2.05-.95-5.18-2.42-8.96-4.33-4.4-2.22-6.6-3.33-7.3-3.99-5.58-5.25,3.56-24.08,7.44-31.53,5.39.67,10.78,1.35,16.17,2.02-4.3-3.37-8.59-6.74-12.89-10.11l4.66-22.55c3.75,1.92,7.51,3.85,11.26,5.77-3.17-4.81-6.34-9.63-9.51-14.44,5.34-21.91,10.41-32.8,15.22-32.68,5.93.14,11.45,17.03,16.56,50.65-2.9,2.89-5.79,5.77-8.69,8.66l8.69-2.88,8.62,36.44-14.47,10.97,19.09-2.29c6.94,10.01,8.41,22.06,3.43,31.23-2.82,5.18-7.02,8.2-9.84,9.82.75-.29,5.51-2.02,9.84.59.77.47,3.76,2.28,4.03,5.21.22,2.42-1.53,4.35-3.93,6.99-1.77,1.95-3.5,3.28-4.67,4.08,8.74-1.06,16.25,3.18,18.26,9.22,2.58,7.78-5.1,15.1-6.24,16.15-7.76,7.15-18.79,5.87-24.87,5.17-11.07-1.28-19.18-6.34-23.67-9.77Z"/><path class="cls-15" d="m158.38,366.29c-1.98-.01-3.97-.02-5.95-.04.1-57.99.46-126.86,1.68-132.37.18-.82.72-3.22,1.52-3.25.81-.02,1.49,2.41,1.73,3.25,1.53,5.48,1.41,73.68,1.02,132.4Z"/><path class="cls-15" d="m155.65,237.36c7.87-4.99,12.02-7.2,12.45-6.63.45.6-3.19,4.25-10.91,10.94l-1.54-4.31Z"/><path class="cls-15" d="m153.74,262.08c-19.71,8.94-23.79,11.6-23.53,12.27.35.9,8.69-1.3,14.91-3.64,5.52-2.07,9.88-4.44,12.92-6.3l-4.3-2.33Z"/><path class="cls-15" d="m157.51,295.53c17.21-6.78,26.14-9.74,26.76-8.88.68.92-8.24,6.26-26.76,16.02v-7.15Z"/><path class="cls-2" d="m478.13,267.94c1.33.79,8.74,5.03,17.31,2.31,4.47-1.42,12.02-5.6,12.09-11.66.07-5.86-6.86-12.44-17.11-12.93,4.14-.32,7.71-2.42,8.9-5.56,1.84-4.89-3.07-9.71-4.48-11.1-4.29-4.21-9.68-4.74-11.43-4.83,1.32-.61,3.33-1.55,5.76-2.77,2.83-1.42,4.25-2.13,4.7-2.56,3.59-3.36-2.29-15.41-4.79-20.18-3.47.43-6.94.86-10.41,1.29,2.77-2.16,5.53-4.31,8.3-6.47l-3-14.43c-2.42,1.23-4.83,2.46-7.25,3.69,2.04-3.08,4.08-6.16,6.12-9.24-3.44-14.02-6.7-20.99-9.79-20.92-3.81.09-7.37,10.9-10.66,32.42,1.86,1.85,3.73,3.7,5.59,5.54l-5.59-1.84-5.55,23.32,9.31,7.02-12.28-1.46c-4.47,6.41-5.41,14.12-2.21,19.99,1.81,3.31,4.52,5.25,6.33,6.28-.48-.18-3.54-1.29-6.33.38-.5.3-2.42,1.46-2.59,3.33-.14,1.55.99,2.79,2.53,4.47,1.14,1.25,2.25,2.1,3,2.61-5.62-.68-10.46,2.04-11.75,5.9-1.66,4.98,3.28,9.66,4.02,10.33,5,4.57,12.1,3.76,16.01,3.31,7.12-.82,12.34-4.06,15.23-6.26Z"/><path class="cls-45" d="m474.59,245.67c.74,0,1.43,5.7,2.06,17.1,10.18-5.07,15.41-7.47,15.68-7.2.3.28-4.95,3.55-15.75,9.8.05,2.33.1,4.65.15,6.98,6.92-3.43,10.54-5,10.87-4.7.37.33-3.3,2.94-11,7.85.37,10.82.74,21.64,1.11,32.47,9.51-2.77,14.4-3.96,14.67-3.56.29.43-4.64,2.64-14.78,6.65-.05,5.76-.1,11.52-.15,17.27-1.73,1.8-3.46,3.59-5.19,5.39.02-9.13.03-18.27.05-27.4-13.74-4.61-20.46-7.18-20.16-7.71.29-.51,7.12.89,20.48,4.18-.24-7.87-.48-15.74-.71-23.6-7.27-2.58-10.77-4.11-10.5-4.59.25-.45,3.79.01,10.63,1.4-.09-3.79-.18-7.57-.26-11.36-6.4-4.65-9.42-7.12-9.07-7.4.33-.26,3.51,1.33,9.55,4.75.84-10.88,1.62-16.32,2.34-16.31Z"/><path class="cls-28" d="m425.46,290.25c-7.27,2.51-13.46,3.41-17.63,3.76-8.36.72-17.15,1.47-23.03-3.76-.97-.86-4.15-3.7-4.17-7.55-.03-5.38,6.12-10.95,15.68-12.97-.94-.47-7.16-3.71-8.28-9.92-1.22-6.78,4.12-14.52,13.31-17.1-.82-2.65-1.71-6.69-1.44-11.63.32-5.81,2.1-10.32,3.43-13l11.69,3.76-9.72-9.92c8.71-60.85,16.38-91.17,23.02-90.97,4.72.14,8.93,15.76,12.6,46.85l-10.07,13,11.87-6.5,6.84,32.49-11.51,10.26,15.11-4.11c1.13,1.96,5.42,9.94,2.52,19.15-1.16,3.7-3.12,6.43-4.68,8.21,1.13.31,5.44,1.62,8.28,5.81.46.69,3.5,5.34,1.8,10.94-1.48,4.87-5.96,8.56-11.51,9.58,2.21.04,11.22.42,16.91,6.84,1.12,1.26,3.19,3.66,3.6,7.18,0,0,.64,5.54-4.32,10.94-6.17,6.73-22.48,6.2-40.3-1.36Z"/><path class="cls-45" d="m427.05,260.53c1.05,0,2.01,9.2,2.9,27.58,14.34-8.17,21.7-12.04,22.09-11.61.42.45-6.98,5.72-22.19,15.8.07,3.75.14,7.5.22,11.26,9.74-5.54,14.84-8.06,15.31-7.59.52.53-4.65,4.75-15.5,12.65.52,17.45,1.04,34.9,1.56,52.34,13.39-4.47,20.28-6.38,20.66-5.73.4.69-6.54,4.26-20.82,10.72-.1,12.49-.19,24.97-.29,37.46-3.18,1.39-6.35,2.77-9.53,4.16.78-16.42,1.57-32.84,2.35-49.26-19.36-7.44-28.83-11.58-28.4-12.43.41-.82,10.02,1.43,28.85,6.75-.34-12.69-.67-25.37-1.01-38.06-10.24-4.16-15.17-6.63-14.79-7.41.35-.73,5.34.02,14.97,2.25-.12-6.1-.25-12.21-.37-18.31-9.02-7.5-13.27-11.47-12.77-11.93.46-.42,4.95,2.14,13.45,7.66,1.18-17.54,2.28-26.3,3.3-26.3Z"/><path class="cls-6" d="m302.73,155.62c.25-.94,1.07-5.15-.85-7.73-1.86-2.51-4.82-1.49-6.68-4.16-1.42-2.05-.68-4.08-1.01-6.62-1.02-7.96-11.5-12.87-16.66-14.42-2.38-.71-8.89-2.29-16.47.62-2.67,1.02-7.8,2.99-11.49,8.33-2.82,4.07-2.21,6.34-5.48,9.33-2.94,2.68-4.92,2.21-7.31,5.24-1.57,1.99-3.09,5.2-2.87,7.13,1.3,11.18,65.2,15.68,68.81,2.28Z"/><path class="cls-32" d="m52,291.51v-13.56c-1.81-.32-3.17-1.22-3.39-2.34-.04-.19-.19-.95.34-1.48.57-.58,1.49-.42,1.57-.4-.31-.5-.72-1.26-1-2.25-.21-.76-.61-2.6-.16-2.81.3-.13,1.07.38,3.23,3.52,1.93-2.55,2.71-3.13,3-2.99.3.15.21,1.22-1.14,4.7,1.36-1.43,2.97-2.91,3.56-2.57.51.3.06,1.81,0,2.03-.78,2.63-3.43,4.06-4.68,4.63-.09,4.51-.19,9.01-.28,13.52h-1.05Z"/><path class="cls-46" d="m460.07,448.84c.64-.49,3.55-2.72,3.09-3.94-.34-.89-2.21-.55-2.58-1.61-.36-1.01,1.09-2.06.68-2.86-.31-.62-1.28-.2-2.24-.71-2.04-1.09-1.53-5.06-2.42-5.18-.83-.11-1.04,3.47-3.26,4.48-2.06.93-4.45-.97-4.99-.17-.49.74,1.42,2.53.86,3.4-.49.76-2.19-.28-3.1.54-1.07.97-.4,3.97.87,5.9,1.88,2.87,5.06,3.35,5.34,3.39,2.99.4,5.15-1.25,7.74-3.23Z"/><path class="cls-46" d="m429.44,461.49c.64-.49,3.55-2.72,3.09-3.94-.34-.89-2.21-.55-2.58-1.61-.36-1.01,1.09-2.06.68-2.86-.31-.62-1.28-.2-2.24-.71-2.04-1.09-1.53-5.06-2.42-5.18-.83-.11-1.04,3.47-3.26,4.48-2.06.93-4.45-.97-4.99-.17-.49.74,1.42,2.53.86,3.4-.49.76-2.19-.28-3.1.54-1.07.97-.4,3.97.87,5.9,1.88,2.87,5.06,3.35,5.34,3.39,2.99.4,5.15-1.25,7.74-3.23Z"/><path class="cls-23" d="m457.24,326.33c.64-.49,3.55-2.72,3.09-3.94-.34-.89-2.21-.55-2.58-1.61-.36-1.01,1.09-2.06.68-2.86-.31-.62-1.28-.2-2.24-.71-2.04-1.09-1.53-5.06-2.42-5.18-.83-.11-1.04,3.47-3.26,4.48-2.06.93-4.45-.97-4.99-.17-.49.74,1.42,2.53.86,3.4-.49.76-2.19-.28-3.1.54-1.07.97-.4,3.97.87,5.9,1.88,2.87,5.06,3.35,5.34,3.39,2.99.4,5.15-1.25,7.74-3.23Z"/><path class="cls-24" d="m240.16,283.26c-2.71-.45-8.08-1.72-13.03-5.97-3.1-2.66-7.4-6.35-7.04-11.58.46-6.64,8.02-10.17,8.4-10.34,1.53.29,3.06.57,4.6.86-1.17-1.86-2.66-4.64-3.69-8.22-1.47-5.1-1.62-10.54.1-18.63.28-1.3,5.88-26.89,12.38-26.49,5,.31,8.08,15.84,8.54,18.12.99,4.97,1.07,9.19.97,12.02-1.26,1.06-2.51,2.13-3.77,3.19,1.36.18,3.91.74,6.04,2.76,3.32,3.15,4.23,8.54,2.31,13.65-1.52.95-3.05,1.9-4.57,2.85l5.88,1.92c1.1,1.98,3.03,6.17,2.11,11.06-1.42,7.62-9.16,13.87-19.24,14.79Z"/><path class="cls-16" d="m243.84,363.95c-1.31.11-2.63.23-3.94.34.23-31.93.46-63.86.69-95.79.03-.27.3-2.25.64-2.25.31,0,.53,1.69.61,2.27.26,2,.8,17.83,2.01,95.42Z"/><path class="cls-16" d="m240.63,296.74c7.27-4.63,11.05-6.78,11.34-6.45.32.36-3.51,3.69-11.5,9.97l.16-3.53Z"/><path class="cls-16" d="m232.66,287.65c-.42.46,2.67,4.12,9.29,10.98v-4.78c-5.82-4.54-8.92-6.61-9.29-6.2Z"/><path class="cls-16" d="m240.85,303.5c5.24-2.3,7.96-3.31,8.15-3.01.21.32-2.51,2.14-8.15,5.47v-2.46Z"/><path class="cls-26" d="m375.06,246.06c2.71-.45,8.08-1.72,13.03-5.97,3.1-2.66,7.4-6.35,7.04-11.58-.46-6.64-8.02-10.17-8.4-10.34-1.53.29-3.06.57-4.6.86,1.17-1.86,2.66-4.64,3.69-8.22,1.47-5.1,1.62-10.54-.1-18.63-.28-1.3-5.88-26.89-12.38-26.49-5,.31-8.08,15.84-8.54,18.12-.99,4.97-1.07,9.19-.97,12.02,1.26,1.06,2.51,2.13,3.77,3.19-1.36.18-3.91.74-6.04,2.76-3.32,3.15-4.23,8.54-2.31,13.65,1.52.95,3.05,1.9,4.57,2.85l-5.88,1.92c-1.1,1.98-3.03,6.17-2.11,11.06,1.42,7.63,9.16,13.87,19.24,14.79Z"/><path class="cls-16" d="m372.4,332.93h4.69c-.45-30-.89-60.01-1.34-90.01-.03-.27-.3-2.25-.64-2.25-.34,0-.58,2.01-.61,2.27-.7,30-1.4,59.99-2.11,89.99Z"/><path class="cls-16" d="m374.6,259.53c-7.27-4.63-11.05-6.78-11.34-6.45-.32.36,3.51,3.69,11.5,9.97l-.16-3.53Z"/><path class="cls-16" d="m382.58,250.43c.32.34-2.03,3.03-7.07,8.07v-3.51c4.43-3.34,6.79-4.86,7.07-4.56Z"/><path class="cls-16" d="m374.38,266.29c-5.24-2.3-7.96-3.31-8.15-3.01-.21.32,2.51,2.14,8.15,5.47,0-.82,0-1.64,0-2.46Z"/><path class="cls-4" d="m219.35,379.92c-9.69.23-15.28-9.14-16.53-14-.13-.49-1.04-4.03.1-4.69.78-.46,2.31.59,3.62,1.47,1.06.72,1.86,1.47,2.4,2.04-1.96-2.7-2.28-5.05-2.31-6.31-.02-.8-.09-2.83.83-3.23.83-.36,2.05.8,3.12,1.85,1.16,1.13,2.73,2.94,4.09,5.66-.17-1.43-.25-3.93.92-6.57.2-.45,1.63-3.68,2.87-3.48,1.22.2,1.74,3.63,2.2,6.64.2,1.33.3,2.44.34,3.15,1.44-3.2,3.39-4.77,4.54-5.51.53-.34,2.79-1.8,3.64-1.09.51.43.24,1.43-.32,4.06-.48,2.24-.84,4.03-1.05,5.13.92-.58,2.33-1.34,4.17-1.84,1.5-.4,3.2-.86,3.84-.13.79.91-.4,3.19-.92,4.14-2.42,4.5-6.71,12.5-15.54,12.7Z"/><path class="cls-19" d="m126.64,463.72c-11.95.28-18.85-11.16-20.39-17.08-.16-.6-1.28-4.91.12-5.72.96-.56,2.85.71,4.46,1.8,1.31.88,2.29,1.79,2.97,2.49-2.42-3.3-2.81-6.17-2.85-7.7-.03-.97-.11-3.45,1.02-3.94,1.03-.44,2.53.98,3.85,2.25,1.43,1.38,3.36,3.58,5.05,6.91-.21-1.75-.31-4.8,1.13-8.02.25-.55,2.01-4.49,3.54-4.25,1.5.24,2.14,4.43,2.71,8.11.25,1.63.36,2.97.42,3.84,1.78-3.9,4.18-5.82,5.6-6.72.66-.42,3.44-2.2,4.48-1.33.63.52.3,1.75-.4,4.95-.6,2.73-1.03,4.92-1.29,6.26,1.14-.71,2.87-1.64,5.14-2.24,1.85-.49,3.94-1.05,4.73-.15.98,1.11-.5,3.89-1.13,5.05-2.98,5.49-8.28,15.25-19.17,15.5Z"/><path class="cls-5" d="m506.62,307.88c-6.61.18-10.42-7.15-11.27-10.94-.09-.38-.71-3.15.07-3.66.53-.36,1.58.46,2.47,1.15.73.57,1.27,1.15,1.64,1.6-1.34-2.11-1.55-3.95-1.58-4.93-.02-.62-.06-2.21.57-2.52.57-.28,1.4.63,2.13,1.44.79.88,1.86,2.3,2.79,4.42-.12-1.12-.17-3.07.63-5.14.14-.35,1.11-2.88,1.96-2.72.83.16,1.19,2.84,1.5,5.19.14,1.04.2,1.9.23,2.46.98-2.5,2.31-3.73,3.1-4.31.36-.27,1.9-1.41,2.48-.85.35.34.17,1.12-.22,3.17-.33,1.75-.57,3.15-.71,4.01.63-.46,1.59-1.05,2.84-1.43,1.02-.32,2.18-.67,2.62-.1.54.71-.28,2.49-.62,3.24-1.65,3.52-4.58,9.77-10.6,9.93Z"/><path class="cls-5" d="m530.84,298.25c-6.52.18-10.28-7.15-11.12-10.94-.08-.38-.7-3.15.06-3.66.53-.36,1.56.46,2.43,1.15.72.57,1.25,1.15,1.62,1.6-1.32-2.11-1.53-3.95-1.56-4.93-.02-.62-.06-2.21.56-2.52.56-.28,1.38.63,2.1,1.44.78.88,1.83,2.3,2.75,4.42-.11-1.12-.17-3.07.62-5.14.13-.35,1.1-2.88,1.93-2.72.82.16,1.17,2.84,1.48,5.19.14,1.04.2,1.9.23,2.46.97-2.5,2.28-3.73,3.05-4.31.36-.27,1.88-1.41,2.45-.85.34.34.16,1.12-.22,3.17-.33,1.75-.56,3.15-.7,4.01.62-.46,1.57-1.05,2.8-1.43,1.01-.32,2.15-.67,2.58-.1.53.71-.27,2.49-.62,3.24-1.62,3.52-4.51,9.77-10.45,9.93Z"/><path class="cls-4" d="m376.34,334.6c-5.98.14-9.42-5.47-10.19-8.37-.08-.29-.64-2.41.06-2.8.48-.27,1.43.35,2.23.88.66.43,1.15.88,1.48,1.22-1.21-1.62-1.4-3.02-1.43-3.77-.02-.48-.05-1.69.51-1.93.51-.21,1.26.48,1.92,1.1.72.68,1.68,1.76,2.52,3.38-.11-.86-.16-2.35.57-3.93.12-.27,1.01-2.2,1.77-2.08.75.12,1.07,2.17,1.35,3.97.12.8.18,1.46.21,1.88.89-1.91,2.09-2.85,2.8-3.29.33-.21,1.72-1.08,2.24-.65.31.26.15.86-.2,2.42-.3,1.34-.52,2.41-.65,3.07.57-.35,1.44-.8,2.57-1.1.92-.24,1.97-.51,2.37-.08.49.54-.25,1.9-.57,2.48-1.49,2.69-4.14,7.47-9.59,7.59Z"/><path class="cls-20" d="m351.54,340.75c-5.19.13-8.19-5.25-8.86-8.03-.07-.28-.55-2.31.05-2.69.42-.26,1.24.34,1.94.84.57.42,1,.84,1.29,1.17-1.05-1.55-1.22-2.9-1.24-3.62-.01-.46-.05-1.62.45-1.85.45-.21,1.1.46,1.67,1.06.62.65,1.46,1.68,2.19,3.25-.09-.82-.14-2.25.49-3.77.11-.26.88-2.11,1.54-2,.65.11.93,2.08,1.18,3.81.11.77.16,1.4.18,1.81.77-1.83,1.82-2.73,2.43-3.16.28-.2,1.5-1.04,1.95-.63.27.25.13.82-.17,2.33-.26,1.28-.45,2.31-.56,2.94.49-.33,1.25-.77,2.23-1.05.8-.23,1.71-.49,2.06-.07.43.52-.22,1.83-.49,2.38-1.29,2.58-3.6,7.17-8.33,7.29Z"/><path class="cls-29" d="m522.7,307.86c-6.64.15-10.47-5.83-11.33-8.92-.09-.31-.71-2.57.07-2.99.54-.29,1.59.37,2.48.94.73.46,1.27.94,1.65,1.3-1.34-1.72-1.56-3.22-1.59-4.02-.02-.51-.06-1.8.57-2.06.57-.23,1.4.51,2.14,1.18.8.72,1.87,1.87,2.8,3.61-.12-.91-.17-2.5.63-4.19.14-.29,1.12-2.35,1.97-2.22.83.13,1.19,2.31,1.51,4.23.14.85.2,1.55.23,2.01.99-2.04,2.32-3.04,3.11-3.51.36-.22,1.91-1.15,2.49-.7.35.27.17.91-.22,2.58-.33,1.42-.57,2.57-.72,3.27.63-.37,1.6-.85,2.86-1.17,1.03-.26,2.19-.55,2.63-.08.54.58-.28,2.03-.63,2.64-1.66,2.87-4.6,7.96-10.65,8.09Z"/><path class="cls-32" d="m68.8,420.16v-31.56c-5.1-.74-8.93-2.83-9.56-5.45-.11-.44-.53-2.21.95-3.45,1.62-1.35,4.2-.97,4.43-.93-.87-1.15-2.03-2.93-2.81-5.23-.6-1.77-1.73-6.05-.45-6.53.84-.31,3.01.88,9.1,8.19,5.45-5.93,7.66-7.29,8.46-6.95.85.36.6,2.83-3.2,10.93,3.84-3.33,8.37-6.78,10.05-5.98,1.44.69.18,4.21,0,4.72-2.2,6.13-9.67,9.45-13.2,10.77-.27,10.49-.54,20.98-.8,31.48h-2.97Z"/><path class="cls-22" d="m250.03,352.47v-11.05c-1.24-.26-2.17-.99-2.32-1.91-.03-.15-.13-.77.23-1.21.39-.47,1.02-.34,1.07-.33-.21-.4-.49-1.02-.68-1.83-.15-.62-.42-2.12-.11-2.29.2-.11.73.31,2.21,2.87,1.32-2.08,1.86-2.55,2.05-2.43.21.13.14.99-.78,3.83.93-1.17,2.03-2.37,2.44-2.09.35.24.04,1.47,0,1.65-.53,2.14-2.34,3.31-3.2,3.77-.06,3.67-.13,7.34-.19,11.02h-.72Z"/><path class="cls-22" d="m280.52,428.92v-18.47c-2.75-.43-4.81-1.66-5.14-3.19-.06-.26-.28-1.3.51-2.02.87-.79,2.26-.57,2.38-.55-.47-.67-1.09-1.71-1.51-3.06-.32-1.04-.93-3.54-.24-3.82.45-.18,1.62.52,4.9,4.79,2.93-3.47,4.12-4.27,4.55-4.07.46.21.32,1.66-1.72,6.4,2.07-1.95,4.5-3.97,5.41-3.5.78.41.1,2.47,0,2.76-1.18,3.58-5.2,5.53-7.1,6.3-.14,6.14-.29,12.28-.43,18.42h-1.6Z"/><path class="cls-22" d="m270.85,434.54v-11.05c-1.24-.26-2.17-.99-2.32-1.91-.03-.15-.13-.77.23-1.21.39-.47,1.02-.34,1.07-.33-.21-.4-.49-1.02-.68-1.83-.15-.62-.42-2.12-.11-2.29.2-.11.73.31,2.21,2.87,1.32-2.08,1.86-2.55,2.05-2.43.21.13.14.99-.78,3.83.93-1.17,2.03-2.37,2.44-2.09.35.24.04,1.47,0,1.65-.53,2.14-2.34,3.31-3.2,3.77-.06,3.67-.13,7.34-.19,11.02h-.72Z"/><path class="cls-38" d="m479.47,403.1v-14.32c-3.01-.33-5.26-1.28-5.63-2.47-.06-.2-.31-1,.56-1.57.95-.61,2.47-.44,2.61-.42-.51-.52-1.19-1.33-1.66-2.37-.35-.8-1.02-2.75-.26-2.96.49-.14,1.77.4,5.36,3.72,3.21-2.69,4.51-3.31,4.98-3.15.5.16.35,1.28-1.89,4.96,2.26-1.51,4.93-3.08,5.92-2.71.85.31.11,1.91,0,2.14-1.3,2.78-5.69,4.29-7.77,4.89-.16,4.76-.32,9.52-.47,14.28h-1.75Z"/><path class="cls-38" d="m200.01,513.27v-14.32c-3.01-.33-5.26-1.28-5.63-2.47-.06-.2-.31-1,.56-1.57.95-.61,2.47-.44,2.61-.42-.51-.52-1.19-1.33-1.66-2.37-.35-.8-1.02-2.75-.26-2.96.49-.14,1.77.4,5.36,3.72,3.21-2.69,4.51-3.31,4.98-3.15.5.16.35,1.28-1.89,4.96,2.26-1.51,4.93-3.08,5.92-2.71.85.31.11,1.91,0,2.14-1.3,2.78-5.69,4.29-7.77,4.89-.16,4.76-.32,9.52-.47,14.28h-1.75Z"/><path class="cls-38" d="m237.51,528.91v-14.32c-3.01-.33-5.26-1.28-5.63-2.47-.06-.2-.31-1,.56-1.57.95-.61,2.47-.44,2.61-.42-.51-.52-1.19-1.33-1.66-2.37-.35-.8-1.02-2.75-.26-2.96.49-.14,1.77.4,5.36,3.72,3.21-2.69,4.51-3.31,4.98-3.15.5.16.35,1.28-1.89,4.96,2.26-1.51,4.93-3.08,5.92-2.71.85.31.11,1.91,0,2.14-1.3,2.78-5.69,4.29-7.77,4.89-.16,4.76-.32,9.52-.47,14.28h-1.75Z"/><path class="cls-38" d="m271.93,504.78v-14.32c-3.01-.33-5.26-1.28-5.63-2.47-.06-.2-.31-1,.56-1.57.95-.61,2.47-.44,2.61-.42-.51-.52-1.19-1.33-1.66-2.37-.35-.8-1.02-2.75-.26-2.96.49-.14,1.77.4,5.36,3.72,3.21-2.69,4.51-3.31,4.98-3.15.5.16.35,1.28-1.89,4.96,2.26-1.51,4.93-3.08,5.92-2.71.85.31.11,1.91,0,2.14-1.3,2.78-5.69,4.29-7.77,4.89-.16,4.76-.32,9.52-.47,14.28h-1.75Z"/><path class="cls-38" d="m457.84,415.3v-14.32c-3.01-.33-5.26-1.28-5.63-2.47-.06-.2-.31-1,.56-1.57.95-.61,2.47-.44,2.61-.42-.51-.52-1.19-1.33-1.66-2.37-.35-.8-1.02-2.75-.26-2.96.49-.14,1.77.4,5.36,3.72,3.21-2.69,4.51-3.31,4.98-3.15.5.16.35,1.28-1.89,4.96,2.26-1.51,4.93-3.08,5.92-2.71.85.31.11,1.91,0,2.14-1.3,2.78-5.69,4.29-7.77,4.89-.16,4.76-.32,9.52-.47,14.28h-1.75Z"/><path class="cls-22" d="m265.54,365.78v-11.03c-1.83-.26-3.2-.99-3.42-1.9-.04-.15-.19-.77.34-1.21.58-.47,1.5-.34,1.58-.33-.31-.4-.73-1.02-1.01-1.83-.22-.62-.62-2.12-.16-2.28.3-.11,1.08.31,3.26,2.86,1.95-2.07,2.74-2.55,3.03-2.43.3.13.21.99-1.15,3.82,1.38-1.17,2.99-2.37,3.6-2.09.52.24.06,1.47,0,1.65-.79,2.14-3.46,3.3-4.72,3.76-.1,3.67-.19,7.33-.29,11h-1.06Z"/><path class="cls-32" d="m45.68,377.75v-18.62c-3.7-.44-6.47-1.67-6.92-3.21-.08-.26-.38-1.31.69-2.04,1.17-.8,3.04-.57,3.2-.55-.63-.68-1.47-1.73-2.03-3.09-.44-1.05-1.25-3.57-.32-3.85.61-.18,2.18.52,6.59,4.83,3.95-3.5,5.54-4.3,6.12-4.1.61.21.43,1.67-2.32,6.45,2.78-1.97,6.06-4,7.28-3.52,1.05.41.13,2.49,0,2.78-1.59,3.61-7,5.57-9.55,6.35-.19,6.19-.39,12.38-.58,18.57h-2.15Z"/><path class="cls-13" d="m109.6,349.59c7.31,9.88,11,21.89,9.51,34.17-.19,1.59,2.31,1.58,2.5,0,1.54-12.66-2.32-25.25-9.85-35.43-.95-1.28-3.12-.03-2.16,1.26h0Z"/><path class="cls-13" d="m129.67,344.18c-8.18,11.49-12.26,25.51-10.56,39.58.19,1.58,2.69,1.6,2.5,0-1.66-13.7,2.26-27.14,10.22-38.32.93-1.31-1.23-2.56-2.16-1.26h0Z"/><path class="cls-13" d="m22.89,265.65c3.16,1.96,6.94,5.21,5.83,9.37-.21.78,1,1.11,1.21.33,1.26-4.76-2.73-8.51-6.41-10.79-.69-.42-1.31.66-.63,1.08h0Z"/><path class="cls-13" d="m35.58,263.37c-4.03,2.59-8.23,6.76-6.86,11.99.2.78,1.41.45,1.21-.33-1.22-4.63,2.76-8.31,6.28-10.58.67-.43.05-1.52-.63-1.08h0Z"/><path class="cls-13" d="m178.86,318.48c2.67,5.65,3.69,11.95,3.21,18.16-.06.8,1.19.8,1.25,0,.5-6.44-.62-12.95-3.38-18.79-.34-.73-1.42-.09-1.08.63h0Z"/><path class="cls-13" d="m185.69,315.64c-2.99,6.57-4.17,13.81-3.62,21,.06.8,1.31.8,1.25,0-.53-6.95.56-14,3.45-20.36.33-.73-.75-1.36-1.08-.63h0Z"/><path class="cls-10" d="m351.07,442.22c7.31,9.88,11,21.89,9.51,34.17-.19,1.59,2.31,1.58,2.5,0,1.54-12.66-2.32-25.25-9.85-35.43-.95-1.28-3.12-.03-2.16,1.26h0Z"/><path class="cls-10" d="m371.14,436.81c-8.18,11.49-12.26,25.51-10.56,39.58.19,1.58,2.69,1.6,2.5,0-1.66-13.7,2.26-27.14,10.22-38.32.93-1.31-1.23-2.56-2.16-1.26h0Z"/><path class="cls-10" d="m372.61,449.7c3.85,4.81,5.87,10.8,5.06,16.96-.1.8,1.15.79,1.25,0,.85-6.5-1.39-12.79-5.43-17.84-.5-.63-1.38.26-.88.88h0Z"/><path class="cls-10" d="m383.4,446.87c-4.35,5.65-6.64,12.65-5.72,19.79.1.79,1.35.8,1.25,0-.9-6.95,1.31-13.65,5.55-19.16.49-.64-.59-1.26-1.08-.63h0Z"/><path class="cls-10" d="m328.38,472.75c5.21,4.65,9.16,11.12,7.84,18.33-.14.79,1.06,1.12,1.21.33,1.41-7.67-2.58-14.57-8.16-19.55-.6-.53-1.49.35-.88.88h0Z"/><path class="cls-10" d="m344.97,469.61c-6.09,5.65-10.29,13.32-8.75,21.81.14.79,1.35.46,1.21-.33-1.46-8.03,2.69-15.28,8.43-20.59.59-.55-.29-1.43-.88-.88h0Z"/><path class="cls-30" d="m459.19,342.46c4.46,3.75,8.1,9.08,6.91,15.16-.15.79,1.05,1.12,1.21.33,1.28-6.53-2.39-12.31-7.23-16.37-.61-.51-1.5.37-.88.88h0Z"/><path class="cls-30" d="m473.86,339.7c-5.29,4.61-9.15,11.04-7.76,18.25.15.79,1.36.45,1.21-.33-1.31-6.76,2.51-12.75,7.44-17.04.61-.53-.28-1.41-.88-.88h0Z"/><path class="cls-25" d="m152.14,419.27c-1.25-.81-7-4.5-6.09-6.52.66-1.48,4.35-.91,5.09-2.66.71-1.68-2.15-3.4-1.35-4.74.62-1.03,2.52-.33,4.41-1.18,4.02-1.81,3.02-8.38,4.76-8.58,1.64-.19,2.04,5.74,6.43,7.41,4.06,1.54,8.78-1.61,9.83-.28.97,1.22-2.79,4.19-1.7,5.62.96,1.26,4.32-.47,6.1.9,2.11,1.61.79,6.57-1.71,9.77-3.71,4.75-9.97,5.55-10.52,5.61-5.88.67-10.14-2.07-15.25-5.35Z"/><path class="cls-25" d="m204.46,436.6c-.92-.68-5.12-3.79-4.45-5.5.48-1.25,3.18-.76,3.72-2.24.52-1.41-1.57-2.87-.99-3.99.45-.87,1.84-.28,3.22-.99,2.94-1.53,2.21-7.06,3.48-7.23,1.2-.16,1.49,4.84,4.7,6.25,2.97,1.3,6.42-1.36,7.19-.24.71,1.03-2.04,3.53-1.25,4.74.7,1.06,3.15-.4,4.46.75,1.54,1.36.58,5.54-1.25,8.23-2.71,4-7.29,4.68-7.69,4.73-4.3.56-7.41-1.74-11.15-4.51Z"/><path class="cls-46" d="m300.04,516.91c-.92-.68-5.12-3.79-4.45-5.5.48-1.25,3.18-.76,3.72-2.24.52-1.41-1.57-2.87-.99-3.99.45-.87,1.84-.28,3.22-.99,2.94-1.53,2.21-7.06,3.48-7.23,1.2-.16,1.49,4.84,4.7,6.25,2.97,1.3,6.42-1.36,7.19-.24.71,1.03-2.04,3.53-1.25,4.74.7,1.06,3.15-.4,4.46.75,1.54,1.36.58,5.54-1.25,8.23-2.71,4-7.29,4.68-7.69,4.73-4.3.56-7.41-1.74-11.15-4.51Z"/><path class="cls-46" d="m421.42,435.27c-.92-.68-5.12-3.79-4.45-5.5.48-1.25,3.18-.76,3.72-2.24.52-1.41-1.57-2.87-.99-3.99.45-.87,1.84-.28,3.22-.99,2.94-1.53,2.21-7.06,3.48-7.23,1.2-.16,1.49,4.84,4.7,6.25,2.97,1.3,6.42-1.36,7.19-.24.71,1.03-2.04,3.53-1.25,4.74.7,1.06,3.15-.4,4.46.75,1.54,1.36.58,5.54-1.25,8.23-2.71,4-7.29,4.68-7.69,4.73-4.3.56-7.41-1.74-11.15-4.51Z"/><path class="cls-23" d="m373.79,341.32c.85-.59,4.75-3.31,4.14-4.81-.45-1.09-2.95-.67-3.46-1.96-.48-1.23,1.46-2.51.92-3.49-.42-.76-1.71-.24-2.99-.87-2.73-1.33-2.05-6.18-3.23-6.32-1.12-.14-1.39,4.23-4.37,5.46-2.75,1.13-5.96-1.19-6.68-.21-.66.9,1.9,3.09,1.16,4.14-.65.93-2.93-.35-4.14.66-1.43,1.19-.53,4.84,1.16,7.2,2.52,3.5,6.77,4.09,7.14,4.14,3.99.49,6.89-1.52,10.35-3.94Z"/><path class="cls-27" d="m185.37,459.62c1.58-1.25-1.9-6.39.35-9.56.67-.94.99-.52,2.55-2.16.89-.94,2.5-2.68,2.62-4.92.02-.36.09-1.65-.39-1.77-.98-.26-2.68,4.86-4.66,4.89-1.71.03-2.41-3.73-3.41-3.42-.66.21-.83,2-.84,2.14-.23,2.66,1.42,3.4,2.15,5.84,1.25,4.12-1.69,7.84-.08,8.95.46.32,1.25.39,1.72.02Z"/><path class="cls-27" d="m224.46,410.53c1.58-1.25-1.9-6.39.35-9.56.67-.94.99-.52,2.55-2.16.89-.94,2.5-2.68,2.62-4.92.02-.36.09-1.65-.39-1.77-.98-.26-2.68,4.86-4.66,4.89-1.71.03-2.41-3.73-3.41-3.42-.66.21-.83,2-.84,2.14-.23,2.66,1.42,3.4,2.15,5.84,1.25,4.12-1.69,7.84-.08,8.95.46.32,1.25.39,1.72.02Z"/><path class="cls-27" d="m259.37,391.8c1.22-.81-2.51-5.43-.95-7.7.46-.68.81-.29,1.96-1.41.66-.64,1.84-1.84,1.65-3.64-.03-.29-.14-1.32-.57-1.49-.9-.34-1.72,3.58-3.46,3.35-1.5-.2-2.61-3.34-3.45-3.22-.56.08-.47,1.51-.46,1.62.15,2.12,1.69,2.94,2.66,5.01,1.64,3.5-.45,6.13,1.11,7.24.44.32,1.15.48,1.52.24Z"/><path class="cls-27" d="m267.89,315.77c.94-.86-1.89-4.1-.68-6.22.36-.63.62-.36,1.51-1.47.51-.63,1.43-1.81,1.29-3.26-.02-.23-.1-1.07-.43-1.14-.69-.14-1.34,3.22-2.68,3.3-1.15.07-1.98-2.36-2.63-2.13-.43.15-.37,1.32-.36,1.41.1,1.73,1.28,2.17,2.01,3.73,1.24,2.64-.39,5.13.8,5.81.34.19.88.22,1.16-.03Z"/><path class="cls-27" d="m279.91,321.04c.94-.86-1.89-4.1-.68-6.22.36-.63.62-.36,1.51-1.47.51-.63,1.43-1.81,1.29-3.26-.02-.23-.1-1.07-.43-1.14-.69-.14-1.34,3.22-2.68,3.3-1.15.07-1.98-2.36-2.63-2.13-.43.15-.37,1.32-.36,1.41.1,1.73,1.28,2.17,2.01,3.73,1.24,2.64-.39,5.13.8,5.81.34.19.88.22,1.16-.03Z"/><path class="cls-23" d="m397.57,321.91c.94-.86-1.89-4.1-.68-6.22.36-.63.62-.36,1.51-1.47.51-.63,1.43-1.81,1.29-3.26-.02-.23-.1-1.07-.43-1.14-.69-.14-1.34,3.22-2.68,3.3-1.15.07-1.98-2.36-2.63-2.13-.43.15-.37,1.32-.36,1.41.1,1.73,1.28,2.17,2.01,3.73,1.24,2.64-.39,5.13.8,5.81.34.19.88.22,1.16-.03Z"/><path class="cls-23" d="m384.86,357.43c.94-.86-1.89-4.1-.68-6.22.36-.63.62-.36,1.51-1.47.51-.63,1.43-1.81,1.29-3.26-.02-.23-.1-1.07-.43-1.14-.69-.14-1.34,3.22-2.68,3.3-1.15.07-1.98-2.36-2.63-2.13-.43.15-.37,1.32-.36,1.41.1,1.73,1.28,2.17,2.01,3.73,1.24,2.64-.39,5.13.8,5.81.34.19.88.22,1.16-.03Z"/><path class="cls-23" d="m409.46,337.37c-.94-.86,1.89-4.1.68-6.22-.36-.63-.62-.36-1.51-1.47-.51-.63-1.43-1.81-1.29-3.26.02-.23.1-1.07.43-1.14.69-.14,1.34,3.22,2.68,3.3,1.15.07,1.98-2.36,2.63-2.13.43.15.37,1.32.36,1.41-.1,1.73-1.28,2.17-2.01,3.73-1.24,2.64.39,5.13-.8,5.81-.34.19-.88.22-1.16-.03Z"/><path class="cls-23" d="m503.02,337.71c-1.37-1.12,3.43-6.14,1.79-9.05-.49-.87-.92-.45-2.18-1.94-.72-.85-2-2.44-1.63-4.56.06-.34.28-1.56.81-1.7,1.09-.29,1.7,4.49,3.77,4.44,1.79-.04,3.36-3.64,4.35-3.39.65.17.42,1.86.4,1.99-.36,2.51-2.25,3.29-3.57,5.62-2.24,3.96,0,7.36-1.94,8.48-.55.32-1.4.43-1.81.09Z"/><path class="cls-23" d="m504.95,365.65c-1.4-.94,4.72-6.64,3.26-9.34-.43-.8-.99-.32-2.21-1.65-.7-.76-1.94-2.18-1.23-4.36.11-.35.53-1.6,1.15-1.82,1.27-.44,1.32,4.28,3.68,3.96,2.03-.28,4.31-4.12,5.39-4,.71.08.22,1.81.18,1.95-.75,2.57-3,3.61-4.82,6.14-3.08,4.29-1.01,7.4-3.35,8.79-.67.39-1.64.62-2.06.34Z"/><path class="cls-23" d="m377.57,412.57c-.94-.86,1.89-4.1.68-6.22-.36-.63-.62-.36-1.51-1.47-.51-.63-1.43-1.81-1.29-3.26.02-.23.1-1.07.43-1.14.69-.14,1.34,3.22,2.68,3.3,1.15.07,1.98-2.36,2.63-2.13.43.15.37,1.32.36,1.41-.1,1.73-1.28,2.17-2.01,3.73-1.24,2.64.39,5.13-.8,5.81-.34.19-.88.22-1.16-.03Z"/><path class="cls-23" d="m401.16,405.65c-.94-.86,1.89-4.1.68-6.22-.36-.63-.62-.36-1.51-1.47-.51-.63-1.43-1.81-1.29-3.26.02-.23.1-1.07.43-1.14.69-.14,1.34,3.22,2.68,3.3,1.15.07,1.98-2.36,2.63-2.13.43.15.37,1.32.36,1.41-.1,1.73-1.28,2.17-2.01,3.73-1.24,2.64.39,5.13-.8,5.81-.34.19-.88.22-1.16-.03Z"/><path class="cls-23" d="m412.52,383.31c-.94-.86,1.89-4.1.68-6.22-.36-.63-.62-.36-1.51-1.47-.51-.63-1.43-1.81-1.29-3.26.02-.23.1-1.07.43-1.14.69-.14,1.34,3.22,2.68,3.3,1.15.07,1.98-2.36,2.63-2.13.43.15.37,1.32.36,1.41-.1,1.73-1.28,2.17-2.01,3.73-1.24,2.64.39,5.13-.8,5.81-.34.19-.88.22-1.16-.03Z"/><path class="cls-27" d="m371.93,509.07c-1.68-1.31,4.57-7.63,2.63-11.12-.58-1.04-1.15-.51-2.66-2.28-.87-1.01-2.43-2.89-1.86-5.49.09-.41.42-1.91,1.09-2.11,1.38-.4,1.96,5.41,4.57,5.27,2.25-.12,4.39-4.58,5.62-4.31.81.18.45,2.25.42,2.41-.56,3.08-2.97,4.1-4.73,7.01-2.98,4.93-.31,8.99-2.79,10.43-.71.41-1.78.58-2.28.18Z"/><path class="cls-27" d="m397.91,494.46c-1.77-1.38,4.83-8.05,2.78-11.72-.61-1.09-1.21-.53-2.81-2.4-.91-1.06-2.56-3.05-1.96-5.79.09-.44.44-2.02,1.15-2.22,1.46-.42,2.06,5.7,4.82,5.55,2.38-.13,4.63-4.83,5.92-4.55.86.19.47,2.37.44,2.54-.59,3.25-3.14,4.33-4.99,7.39-3.15,5.2-.33,9.47-2.95,10.99-.75.43-1.87.61-2.4.2Z"/><path class="cls-3" d="m32.56,315.68c-5.19.13-8.19-5.25-8.86-8.03-.07-.28-.55-2.31.05-2.69.42-.26,1.24.34,1.94.84.57.42,1,.84,1.29,1.17-1.05-1.55-1.22-2.9-1.24-3.62-.01-.46-.05-1.62.45-1.85.45-.21,1.1.46,1.67,1.06.62.65,1.46,1.68,2.19,3.25-.09-.82-.14-2.25.49-3.77.11-.26.88-2.11,1.54-2,.65.11.93,2.08,1.18,3.81.11.77.16,1.4.18,1.81.77-1.83,1.82-2.73,2.43-3.16.28-.2,1.5-1.04,1.95-.63.27.25.13.82-.17,2.33-.26,1.28-.45,2.31-.56,2.94.49-.33,1.25-.77,2.23-1.05.8-.23,1.71-.49,2.06-.07.43.52-.22,1.83-.49,2.38-1.29,2.58-3.6,7.17-8.33,7.29Z"/><path class="cls-3" d="m46.34,331.62c-5.19.13-8.19-5.25-8.86-8.03-.07-.28-.55-2.31.05-2.69.42-.26,1.24.34,1.94.84.57.42,1,.84,1.29,1.17-1.05-1.55-1.22-2.9-1.24-3.62-.01-.46-.05-1.62.45-1.85.45-.21,1.1.46,1.67,1.06.62.65,1.46,1.68,2.19,3.25-.09-.82-.14-2.25.49-3.77.11-.26.88-2.11,1.54-2,.65.11.93,2.08,1.18,3.81.11.77.16,1.4.18,1.81.77-1.83,1.82-2.73,2.43-3.16.28-.2,1.5-1.04,1.95-.63.27.25.13.82-.17,2.33-.26,1.28-.45,2.31-.56,2.94.49-.33,1.25-.77,2.23-1.05.8-.23,1.71-.49,2.06-.07.43.52-.22,1.83-.49,2.38-1.29,2.58-3.6,7.17-8.33,7.29Z"/><path class="cls-3" d="m60.05,314.85c-5.19.13-8.19-5.25-8.86-8.03-.07-.28-.55-2.31.05-2.69.42-.26,1.24.34,1.94.84.57.42,1,.84,1.29,1.17-1.05-1.55-1.22-2.9-1.24-3.62-.01-.46-.05-1.62.45-1.85.45-.21,1.1.46,1.67,1.06.62.65,1.46,1.68,2.19,3.25-.09-.82-.14-2.25.49-3.77.11-.26.88-2.11,1.54-2,.65.11.93,2.08,1.18,3.81.11.77.16,1.4.18,1.81.77-1.83,1.82-2.73,2.43-3.16.28-.2,1.5-1.04,1.95-.63.27.25.13.82-.17,2.33-.26,1.28-.45,2.31-.56,2.94.49-.33,1.25-.77,2.23-1.05.8-.23,1.71-.49,2.06-.07.43.52-.22,1.83-.49,2.38-1.29,2.58-3.6,7.17-8.33,7.29Z"/><path class="cls-3" d="m115.09,309.53c-2.64.08-4.17-3.21-4.51-4.92-.03-.17-.28-1.41.03-1.65.21-.16.63.21.99.52.29.25.51.52.66.72-.53-.95-.62-1.78-.63-2.22,0-.28-.02-.99.23-1.13.23-.13.56.28.85.65.32.4.74,1.03,1.12,1.99-.05-.5-.07-1.38.25-2.31.05-.16.45-1.29.78-1.22.33.07.47,1.27.6,2.33.06.47.08.86.09,1.11.39-1.12.92-1.67,1.24-1.94.15-.12.76-.63.99-.38.14.15.07.5-.09,1.42-.13.79-.23,1.42-.29,1.8.25-.21.64-.47,1.14-.64.41-.14.87-.3,1.05-.04.22.32-.11,1.12-.25,1.45-.66,1.58-1.83,4.39-4.24,4.46Z"/><path class="cls-3" d="m125.78,318.16c-3.03.08-4.78-3.17-5.17-4.86-.04-.17-.32-1.4.03-1.63.24-.16.72.2,1.13.51.33.25.58.51.75.71-.61-.94-.71-1.75-.72-2.19,0-.28-.03-.98.26-1.12.26-.12.64.28.98.64.36.39.85,1.02,1.28,1.96-.05-.5-.08-1.36.29-2.28.06-.16.51-1.28.9-1.21.38.07.54,1.26.69,2.31.06.46.09.85.11,1.09.45-1.11,1.06-1.65,1.42-1.91.17-.12.87-.63,1.14-.38.16.15.08.5-.1,1.41-.15.78-.26,1.4-.33,1.78.29-.2.73-.47,1.3-.64.47-.14,1-.3,1.2-.04.25.31-.13,1.11-.29,1.44-.76,1.56-2.1,4.34-4.86,4.41Z"/><path class="cls-8" d="m109.38,320.08c-3.29.09-5.19-3.51-5.61-5.37-.04-.19-.35-1.54.03-1.8.27-.18.79.22,1.23.56.36.28.63.56.82.78-.67-1.04-.77-1.94-.79-2.42,0-.31-.03-1.09.28-1.24.28-.14.7.31,1.06.71.39.43.93,1.13,1.39,2.17-.06-.55-.09-1.51.31-2.52.07-.17.55-1.41.98-1.33.41.08.59,1.39.75,2.55.07.51.1.93.12,1.21.49-1.23,1.15-1.83,1.54-2.11.18-.13.95-.69,1.23-.42.17.16.08.55-.11,1.56-.16.86-.28,1.55-.36,1.97.31-.22.79-.51,1.41-.7.51-.16,1.08-.33,1.3-.05.27.35-.14,1.22-.31,1.59-.82,1.73-2.28,4.79-5.28,4.87Z"/><path class="cls-8" d="m170.94,347.52c-2.63.07-4.14-2.93-4.48-4.49-.03-.16-.28-1.29.03-1.5.21-.15.63.19.98.47.29.23.5.47.65.65-.53-.87-.62-1.62-.63-2.02,0-.26-.02-.91.23-1.03.23-.12.55.26.85.59.31.36.74.94,1.11,1.81-.05-.46-.07-1.26.25-2.11.05-.14.44-1.18.78-1.11.33.06.47,1.16.6,2.13.05.43.08.78.09,1.01.39-1.02.92-1.53,1.23-1.77.14-.11.76-.58.99-.35.14.14.07.46-.09,1.3-.13.72-.23,1.29-.28,1.64.25-.19.63-.43,1.13-.59.41-.13.87-.28,1.04-.04.22.29-.11,1.02-.25,1.33-.65,1.44-1.82,4-4.21,4.07Z"/><path class="cls-8" d="m199.98,331.77c-2.63.07-4.14-2.93-4.48-4.49-.03-.16-.28-1.29.03-1.5.21-.15.63.19.98.47.29.23.5.47.65.65-.53-.87-.62-1.62-.63-2.02,0-.26-.02-.91.23-1.03.23-.12.55.26.85.59.31.36.74.94,1.11,1.81-.05-.46-.07-1.26.25-2.11.05-.14.44-1.18.78-1.11.33.06.47,1.16.6,2.13.05.43.08.78.09,1.01.39-1.02.92-1.53,1.23-1.77.14-.11.76-.58.99-.35.14.14.07.46-.09,1.3-.13.72-.23,1.29-.28,1.64.25-.19.63-.43,1.13-.59.41-.13.87-.28,1.04-.04.22.29-.11,1.02-.25,1.33-.65,1.44-1.82,4-4.21,4.07Z"/></svg>