<?xml version="1.0" encoding="UTF-8"?><svg id="Layer_8" xmlns="http://www.w3.org/2000/svg" width="546.48" height="545.69" viewBox="0 0 546.48 545.69"><defs><style>.cls-1{fill:none;stroke:#2c592c;stroke-miterlimit:10;stroke-width:3px;}.cls-2{fill:#f3ebdf;}.cls-3{fill:#f9f3e8;}.cls-4{fill:#689365;}.cls-5{fill:#f0efef;}.cls-6{fill:#e8ded1;}.cls-7{fill:#e87031;}.cls-8{fill:#fff;}.cls-9{fill:#e84724;}.cls-10{fill:#e85b5b;}.cls-11{fill:#efe4d5;}.cls-12{fill:#fdfeff;}.cls-13{fill:#819179;}.cls-14{fill:#7da97b;}.cls-15{fill:#c1c6be;}.cls-16{fill:#b0d0ce;}.cls-17{fill:#bbe0e0;}.cls-18{fill:#cc4646;}.cls-19{fill:#df4e26;}.cls-20{fill:#d4edee;}.cls-21{fill:#dd9533;}.cls-22{fill:#e45e25;}.cls-23{fill:#435439;}.cls-24{fill:#9ac497;}.cls-25{fill:#54684b;}.cls-26{fill:#898989;}.cls-27{fill:#28351a;}.cls-28{fill:#2a4222;}.cls-29{fill:#2c592c;}.cls-30{fill:#474748;}.cls-31{fill:#383838;}.cls-32{fill:#3a3636;}.cls-33{fill:#3c602f;}.cls-34{fill:#576c4a;}.cls-35{fill:#506c4f;}.cls-36{fill:#516d50;}</style></defs><ellipse class="cls-20" cx="274.39" cy="270.31" rx="272.02" ry="269.55"/><path class="cls-8" d="m2.45,264.02c2.27-1.19,6.3-3.29,11.3-5.92,62.51-32.84,75.07-40.8,99.02-47.28,12.83-3.47,22.52-5.12,31.1-5.81,22.48-1.82,39.44-.53,48.15.37,0,0,24.91,2.58,82.34,5.04,60.55,2.59,111.63-16.48,135.97-27.27,6.95-3.08,6.39-3.24,10.82-5.03,40.53-16.36,81.67-6.4,111.08,5.3,2.46,7.35,4.82,15.46,6.89,24.27,2.31,9.84,3.91,19.06,5,27.5-105.64,79.24-203.02,105.82-260.84,116.14-18.29,3.27-240.67,41.43-277.8-40.18-7.44-16.36-6.08-33.63-3.03-47.13Z"/><path class="cls-3" d="m5.48,311.16c20.24-21.48,53.6-50.99,101.43-68.13,94.69-33.93,137.69,22.33,241.81-8.01,68.86-20.07,100.43-60.52,146.71-43.64,24.24,8.84,39.55,28.57,48.69,43.81.98,7.25,1.72,15.03,2.09,23.31.78,17.33-.24,32.97-2.03,46.43-.94,5.85-2.37,13.68-4.49,22.82,0,0-5.56,26.2-15.89,50.31-42.91,100.16-137.27,143.79-137.27,143.79-127.05,58.4-246.99-9.64-258.39-16.37-20.42-12.79-58.32-40.37-87.42-89.47-24.98-42.14-32.58-81.76-35.23-104.85Z"/><path class="cls-2" d="m14.19,354.59c14.39-3.45,35.92-10.71,55.7-27.77,21.99-18.97,23.63-34.36,42.44-42.33,8.87-3.75,19.8-5.11,66.21,8.92,65.01,19.66,71.63,30.82,95.32,28.39,32.71-3.36,29.78-26.82,66.28-37.88,31.15-9.44,56.21,6.49,128.26,17.06,31.68,4.65,58.18,4.68,75.79,3.95-2.72,22.62-9.65,57.39-29.37,94.9-9.6,18.27-50.27,90.57-138.94,126.62-10.92,4.44-132.89,51.36-247.74-20.98C48.19,455.13,21.17,377.28,14.19,354.59Z"/><path class="cls-11" d="m53.84,434.83c92.55,39.09,141.83,28.45,169.72,11.58,32.15-19.45,32.2-44.97,69.32-60.73,34.2-14.51,57.86-3.63,129.23.79,41.86,2.59,76.32,1.5,99.18.13-2.18,4.83-5.48,11.75-10.02,19.76-35.78,63.12-105.34,118.26-186.36,134.14-98.89,19.39-204.05-21.81-271.07-105.66Z"/><path class="cls-6" d="m201.28,535.61c42.02-5.11,72.09-17.55,91.19-27.5,39.91-20.79,64.85-43.58,64.85-43.58,24.78-22.66,34.92-40.92,57.88-43.38,12.68-1.36,16.46,3.48,32.34,4.74,25.39,2.02,46.98-7.85,61.76-17.04-11.71,20.77-48.14,79-122.78,113.01-85.78,39.08-164.06,19.74-185.25,13.76Z"/><path class="cls-17" d="m22.18,168.95c5.17,3.42,13.38,7.73,23.64,8.07,16.93.55,24.51-11.64,44.6-18.29,17.26-5.71,30.81-6.58,49.83-7.8,37.29-2.39,41.84,4.07,62.93.09,29.94-5.65,28.6-20.19,54.93-28.19,48.48-14.73,70.68,29.19,118.47,15.07,29.9-8.84,42.34-32.28,63.38-25.25,11.09,3.71,12.66,11.9,27.54,20.9,16.89,10.21,34.79,11.7,47.43,11.31-13.67-25.09-42.38-69.4-95.48-103.29-24.3-15.5-45.42-23.52-55.72-27.09-75.25-26.14-141.46-10.65-170.63-1.46-21.58,6.8-82.33,28.86-130.86,88.59-20.61,25.36-32.84,49.93-40.05,67.35Z"/><path class="cls-16" d="m77.26,84.62c4.11,5.74,10.74,12.92,20.65,16.36,7.34,2.55,14.14,2.23,49.94-7.38,19.69-5.29,29.62-7.98,34.29-10.39,22.68-11.67,21.24-23.18,35.81-26.78,19.69-4.87,26.19,15.23,52.89,14.98,18.48-.17,18.9-9.82,48.46-14.84,12.96-2.2,25.72-4.36,40.24.05,18.64,5.67,22.13,16.69,36.48,23.9,12.12,6.08,32.22,9.57,66.41-4.98-17.88-17.34-55.11-48.74-111.75-65.23-15.55-4.52-80.16-21.78-157.6,2.68-59.18,18.69-97.46,52.77-115.83,71.62Z"/><path class="cls-25" d="m121.34,230.63c-.73-3.23-.71-6.28-.69-10.37.01-2.2.21-4.58.58-9.24.63-7.89.75-7.61.9-10.66.12-2.49.07-5.87-.04-12.52-.2-11.05-.37-11.83-.06-14.87.25-2.49.33-1.57,1.67-9.85.96-5.96,1.2-8.15,1.62-8.12.38.02.65,1.57,1.5,8.41,1.01,8.07,1.54,12.14,1.61,15.14.08,3.35-.14,2.72-.35,10.8-.19,7.28-.28,10.92-.01,14.41.46,5.9,1.18,5.95,1.61,12.05.26,3.68.56,7.91-.24,12.33-.74,4.11-2.65,9.61-4.86,8.95-1.9-.56-2.99-5.37-3.24-6.45Z"/><path class="cls-33" d="m123.18,235.87c-1.57-1.44-2.36-2.18-2.83-3.25-.59-1.35-.83-2.75-1.18-4.77-.78-4.52-.33-5.85-.94-8.2-.68-2.61-1.41-1.67-3.3-4.78-.94-1.55-2.56-4.21-3.14-8.59-.3-2.23.02-2.3-.07-8.96-.06-4.37-.09-6.56-.39-8.77-.71-5.34-2.11-7.08-1.83-8.2.38-1.49,3.33-.36,5.06,4.21,1.17,3.11,1.53,7.16,1.73,9.35.45,5.09-.04,7.13.78,9.73.54,1.73,1.01,1.62,2.44,3.63.87,1.23,2.42,3.42,3.46,6.68.56,1.76.49,2.32,1.72,14.31.56,5.44.85,7.99.39,8.77-.14.24-.33.28-1.89-1.15Z"/><path class="cls-28" d="m109.25,180.76c3,2.13,3.73,5.77,3.92,9.21.26,4.58.47,9.17.9,13.74.13,1.31.28,2.59.76,3.83.59,1.53,1.52,2.44,2.81,3.38,3.15,2.3,2.96,6.84,3.27,10.33.47,5.31,1.62,10.61,3.67,15.55.3.73,1.51.41,1.21-.33-1.92-4.61-3.05-9.55-3.56-14.51-.37-3.6-.11-7.95-2.59-10.9-.99-1.18-2.49-1.72-3.25-3.11s-.94-2.94-1.08-4.48c-.43-4.63-.62-9.28-.91-13.92-.23-3.77-1.29-7.55-4.52-9.86-.66-.47-1.28.62-.63,1.08h0Z"/><path class="cls-23" d="m124.98,154.16c-.6,12.08-.69,24.15-.36,36.24.09,3.32.33,6.63.62,9.94.39,4.44.08,8.82-.23,13.25-.4,5.72-.64,11.24.32,16.94.13.79,1.34.46,1.21-.33-.87-5.16-.73-10.18-.36-15.36.32-4.55.72-9.07.39-13.63-.24-3.31-.56-6.59-.67-9.91-.17-5.53-.25-11.08-.25-16.61,0-6.84.25-13.69.59-20.52.04-.8-1.21-.8-1.25,0h0Z"/><path class="cls-13" d="m121.39,231.16c-.14-2.81,1.07-5.24,2.71-8.55,2.59-5.22,3.72-4.59,4.48-8.3.54-2.64.02-3.29.63-9.57.23-2.4.48-4.97,1.04-7.55.76-3.5,1.61-4.72,3.75-9.06,3.73-7.54,4.19-9.94,4.79-9.3,1.07,1.14,1.26,10.65-.63,16.12-.78,2.26-1.59,2.87-2.49,4.48-.63,1.13-.96,2-1.37,3.31-.86,2.77-.49,5.03-.49,7.98,0,1.13-.64,4.89-1.91,12.42-.21,1.22-.51,2.99-1.24,5.24-.39,1.19-.76,2.11-1.05,2.81-1.24,3.01-2.42,5.9-4.16,6.03-1.78.13-3.88-2.64-4.05-6.06Z"/><path class="cls-34" d="m137.61,178.39c-.02,2.46-.21,4.96-.89,7.34-.46,1.61-1.35,2.98-2.13,4.46-1.62,3.09-3.11,6.47-3.49,9.96-.45,4.13-.24,8.34-.47,12.48-.17,3.09-1,5.82-2.13,8.7-1.88,4.78-3.97,9.46-6.32,14.02-.37.71.71,1.35,1.08.63,2.05-3.99,3.93-8.06,5.61-12.21,1.25-3.1,2.59-6.2,2.9-9.56.36-4,.29-8.04.45-12.06s1.51-7.53,3.29-11.03c.8-1.58,1.79-3.05,2.32-4.75.8-2.56,1.01-5.32,1.03-7.99,0-.8-1.24-.81-1.25,0h0Z"/><path class="cls-25" d="m91.25,227.78c-.73-3.23-.71-6.28-.69-10.37.01-2.2.21-4.58.58-9.24.63-7.89.75-7.61.9-10.66.12-2.49.07-5.87-.04-12.52-.2-11.05-.37-11.83-.06-14.87.25-2.49.33-1.57,1.67-9.85.96-5.96,1.2-8.15,1.62-8.12.38.02.65,1.57,1.5,8.41,1.01,8.07,1.54,12.14,1.61,15.14.08,3.35-.14,2.72-.35,10.8-.19,7.28-.28,10.92-.01,14.41.46,5.9,1.18,5.95,1.61,12.05.26,3.68.56,7.91-.24,12.33-.74,4.11-2.65,9.61-4.86,8.95-1.9-.56-2.99-5.37-3.24-6.45Z"/><path class="cls-33" d="m93.09,233.01c-1.57-1.44-2.36-2.18-2.83-3.25-.59-1.35-.83-2.75-1.18-4.77-.78-4.52-.33-5.85-.94-8.2-.68-2.61-1.41-1.67-3.3-4.78-.94-1.55-2.56-4.21-3.14-8.59-.3-2.23.02-2.3-.07-8.96-.06-4.37-.09-6.56-.39-8.77-.71-5.34-2.11-7.08-1.83-8.2.38-1.49,3.33-.36,5.06,4.21,1.17,3.11,1.53,7.16,1.73,9.35.45,5.09-.04,7.13.78,9.73.54,1.73,1.01,1.62,2.44,3.63.87,1.23,2.42,3.42,3.46,6.68.56,1.76.49,2.32,1.72,14.31.56,5.44.85,7.99.39,8.77-.14.24-.33.28-1.89-1.15Z"/><path class="cls-28" d="m79.17,177.91c3,2.13,3.73,5.77,3.92,9.21.26,4.58.47,9.17.9,13.74.13,1.31.28,2.59.76,3.83.59,1.53,1.52,2.44,2.81,3.38,3.15,2.3,2.96,6.84,3.27,10.33.47,5.31,1.62,10.61,3.67,15.55.3.73,1.51.41,1.21-.33-1.92-4.61-3.05-9.55-3.56-14.51-.37-3.6-.11-7.95-2.59-10.9-.99-1.18-2.49-1.72-3.25-3.11s-.94-2.94-1.08-4.48c-.43-4.63-.62-9.28-.91-13.92-.23-3.77-1.29-7.55-4.52-9.86-.66-.47-1.28.62-.63,1.08h0Z"/><path class="cls-23" d="m94.89,151.31c-.6,12.08-.69,24.15-.36,36.24.09,3.32.33,6.63.62,9.94.39,4.44.08,8.82-.23,13.25-.4,5.72-.64,11.24.32,16.94.13.79,1.34.46,1.21-.33-.87-5.16-.73-10.18-.36-15.36.32-4.55.72-9.07.39-13.63-.24-3.31-.56-6.59-.67-9.91-.17-5.53-.25-11.08-.25-16.61,0-6.84.25-13.69.59-20.52.04-.8-1.21-.8-1.25,0h0Z"/><path class="cls-13" d="m91.3,228.31c-.14-2.81,1.07-5.24,2.71-8.55,2.59-5.22,3.72-4.59,4.48-8.3.54-2.64.02-3.29.63-9.57.23-2.4.48-4.97,1.04-7.55.76-3.5,1.61-4.72,3.75-9.06,3.73-7.54,4.19-9.94,4.79-9.3,1.07,1.14,1.26,10.65-.63,16.12-.78,2.26-1.59,2.87-2.49,4.48-.63,1.13-.96,2-1.37,3.31-.86,2.77-.49,5.03-.49,7.98,0,1.13-.64,4.89-1.91,12.42-.21,1.22-.51,2.99-1.24,5.24-.39,1.19-.76,2.11-1.05,2.81-1.24,3.01-2.42,5.9-4.16,6.03-1.78.13-3.88-2.64-4.05-6.06Z"/><path class="cls-34" d="m107.52,175.54c-.02,2.46-.21,4.96-.89,7.34-.46,1.61-1.35,2.98-2.13,4.46-1.62,3.09-3.11,6.47-3.49,9.96-.45,4.13-.24,8.34-.47,12.48-.17,3.09-1,5.82-2.13,8.7-1.88,4.78-3.97,9.46-6.32,14.02-.37.71.71,1.35,1.08.63,2.05-3.99,3.93-8.06,5.61-12.21,1.25-3.1,2.59-6.2,2.9-9.56.36-4,.29-8.04.45-12.06s1.51-7.53,3.29-11.03c.8-1.58,1.79-3.05,2.32-4.75.8-2.56,1.01-5.32,1.03-7.99,0-.8-1.24-.81-1.25,0h0Z"/><path class="cls-25" d="m71.41,251.05c-.73-3.23-.71-6.28-.69-10.37.01-2.2.21-4.58.58-9.24.63-7.89.75-7.61.9-10.66.12-2.49.07-5.87-.04-12.52-.2-11.05-.37-11.83-.06-14.87.25-2.49.33-1.57,1.67-9.85.96-5.96,1.2-8.15,1.62-8.12.38.02.65,1.57,1.5,8.41,1.01,8.07,1.54,12.14,1.61,15.14.08,3.35-.14,2.72-.35,10.8-.19,7.28-.28,10.92-.01,14.41.46,5.9,1.18,5.95,1.61,12.05.26,3.68.56,7.91-.24,12.33-.74,4.11-2.65,9.61-4.86,8.95-1.9-.56-2.99-5.37-3.24-6.45Z"/><path class="cls-33" d="m73.25,256.29c-1.57-1.44-2.36-2.18-2.83-3.25-.59-1.35-.83-2.75-1.18-4.77-.78-4.52-.33-5.85-.94-8.2-.68-2.61-1.41-1.67-3.3-4.78-.94-1.55-2.56-4.21-3.14-8.59-.3-2.23.02-2.3-.07-8.96-.06-4.37-.09-6.56-.39-8.77-.71-5.34-2.11-7.08-1.83-8.2.38-1.49,3.33-.36,5.06,4.21,1.17,3.11,1.53,7.16,1.73,9.35.45,5.09-.04,7.13.78,9.73.54,1.73,1.01,1.62,2.44,3.63.87,1.23,2.42,3.42,3.46,6.68.56,1.76.49,2.32,1.72,14.31.56,5.44.85,7.99.39,8.77-.14.24-.33.28-1.89-1.15Z"/><path class="cls-28" d="m59.33,201.18c3,2.13,3.73,5.77,3.92,9.21.26,4.58.47,9.17.9,13.74.13,1.31.28,2.59.76,3.83.59,1.53,1.52,2.44,2.81,3.38,3.15,2.3,2.96,6.84,3.27,10.33.47,5.31,1.62,10.61,3.67,15.55.3.73,1.51.41,1.21-.33-1.92-4.61-3.05-9.55-3.56-14.51-.37-3.6-.11-7.95-2.59-10.9-.99-1.18-2.49-1.72-3.25-3.11s-.94-2.94-1.08-4.48c-.43-4.63-.62-9.28-.91-13.92-.23-3.77-1.29-7.55-4.52-9.86-.66-.47-1.28.62-.63,1.08h0Z"/><path class="cls-23" d="m75.05,174.58c-.6,12.08-.69,24.15-.36,36.24.09,3.32.33,6.63.62,9.94.39,4.44.08,8.82-.23,13.25-.4,5.72-.64,11.24.32,16.94.13.79,1.34.46,1.21-.33-.87-5.16-.73-10.18-.36-15.36.32-4.55.72-9.07.39-13.63-.24-3.31-.56-6.59-.67-9.91-.17-5.53-.25-11.08-.25-16.61,0-6.84.25-13.69.59-20.52.04-.8-1.21-.8-1.25,0h0Z"/><path class="cls-13" d="m71.47,251.58c-.14-2.81,1.07-5.24,2.71-8.55,2.59-5.22,3.72-4.59,4.48-8.3.54-2.64.02-3.29.63-9.57.23-2.4.48-4.97,1.04-7.55.76-3.5,1.61-4.72,3.75-9.06,3.73-7.54,4.19-9.94,4.79-9.3,1.07,1.14,1.26,10.65-.63,16.12-.78,2.26-1.59,2.87-2.49,4.48-.63,1.13-.96,2-1.37,3.31-.86,2.77-.49,5.03-.49,7.98,0,1.13-.64,4.89-1.91,12.42-.21,1.22-.51,2.99-1.24,5.24-.39,1.19-.76,2.11-1.05,2.81-1.24,3.01-2.42,5.9-4.16,6.03-1.78.13-3.88-2.64-4.05-6.06Z"/><path class="cls-34" d="m87.69,198.81c-.02,2.46-.21,4.96-.89,7.34-.46,1.61-1.35,2.98-2.13,4.46-1.62,3.09-3.11,6.47-3.49,9.96-.45,4.13-.24,8.34-.47,12.48-.17,3.09-1,5.82-2.13,8.7-1.88,4.78-3.97,9.46-6.32,14.02-.37.71.71,1.35,1.08.63,2.05-3.99,3.93-8.06,5.61-12.21,1.25-3.1,2.59-6.2,2.9-9.56.36-4,.29-8.04.45-12.06s1.51-7.53,3.29-11.03c.8-1.58,1.79-3.05,2.32-4.75.8-2.56,1.01-5.32,1.03-7.99,0-.8-1.24-.81-1.25,0h0Z"/><path class="cls-25" d="m93.97,261.97c-.73-3.23-.71-6.28-.69-10.37.01-2.2.21-4.58.58-9.24.63-7.89.75-7.61.9-10.66.12-2.49.07-5.87-.04-12.52-.2-11.05-.37-11.83-.06-14.87.25-2.49.33-1.57,1.67-9.85.96-5.96,1.2-8.15,1.62-8.12.38.02.65,1.57,1.5,8.41,1.01,8.07,1.54,12.14,1.61,15.14.08,3.35-.14,2.72-.35,10.8-.19,7.28-.28,10.92-.01,14.41.46,5.9,1.18,5.95,1.61,12.05.26,3.68.56,7.91-.24,12.33-.74,4.11-2.65,9.61-4.86,8.95-1.9-.56-2.99-5.37-3.24-6.45Z"/><path class="cls-33" d="m95.81,267.2c-1.57-1.44-2.36-2.18-2.83-3.25-.59-1.35-.83-2.75-1.18-4.77-.78-4.52-.33-5.85-.94-8.2-.68-2.61-1.41-1.67-3.3-4.78-.94-1.55-2.56-4.21-3.14-8.59-.3-2.23.02-2.3-.07-8.96-.06-4.37-.09-6.56-.39-8.77-.71-5.34-2.11-7.08-1.83-8.2.38-1.49,3.33-.36,5.06,4.21,1.17,3.11,1.53,7.16,1.73,9.35.45,5.09-.04,7.13.78,9.73.54,1.73,1.01,1.62,2.44,3.63.87,1.23,2.42,3.42,3.46,6.68.56,1.76.49,2.32,1.72,14.31.56,5.44.85,7.99.39,8.77-.14.24-.33.28-1.89-1.15Z"/><path class="cls-28" d="m81.88,212.1c3,2.13,3.73,5.77,3.92,9.21.26,4.58.47,9.17.9,13.74.13,1.31.28,2.59.76,3.83.59,1.53,1.52,2.44,2.81,3.38,3.15,2.3,2.96,6.84,3.27,10.33.47,5.31,1.62,10.61,3.67,15.55.3.73,1.51.41,1.21-.33-1.92-4.61-3.05-9.55-3.56-14.51-.37-3.6-.11-7.95-2.59-10.9-.99-1.18-2.49-1.72-3.25-3.11s-.94-2.94-1.08-4.48c-.43-4.63-.62-9.28-.91-13.92-.23-3.77-1.29-7.55-4.52-9.86-.66-.47-1.28.62-.63,1.08h0Z"/><path class="cls-23" d="m97.61,185.5c-.6,12.08-.69,24.15-.36,36.24.09,3.32.33,6.63.62,9.94.39,4.44.08,8.82-.23,13.25-.4,5.72-.64,11.24.32,16.94.13.79,1.34.46,1.21-.33-.87-5.16-.73-10.18-.36-15.36.32-4.55.72-9.07.39-13.63-.24-3.31-.56-6.59-.67-9.91-.17-5.53-.25-11.08-.25-16.61,0-6.84.25-13.69.59-20.52.04-.8-1.21-.8-1.25,0h0Z"/><path class="cls-13" d="m94.02,262.5c-.14-2.81,1.07-5.24,2.71-8.55,2.59-5.22,3.72-4.59,4.48-8.3.54-2.64.02-3.29.63-9.57.23-2.4.48-4.97,1.04-7.55.76-3.5,1.61-4.72,3.75-9.06,3.73-7.54,4.19-9.94,4.79-9.3,1.07,1.14,1.26,10.65-.63,16.12-.78,2.26-1.59,2.87-2.49,4.48-.63,1.13-.96,2-1.37,3.31-.86,2.77-.49,5.03-.49,7.98,0,1.13-.64,4.89-1.91,12.42-.21,1.22-.51,2.99-1.24,5.24-.39,1.19-.76,2.11-1.05,2.81-1.24,3.01-2.42,5.9-4.16,6.03-1.78.13-3.88-2.64-4.05-6.06Z"/><path class="cls-34" d="m110.24,209.73c-.02,2.46-.21,4.96-.89,7.34-.46,1.61-1.35,2.98-2.13,4.46-1.62,3.09-3.11,6.47-3.49,9.96-.45,4.13-.24,8.34-.47,12.48-.17,3.09-1,5.82-2.13,8.7-1.88,4.78-3.97,9.46-6.32,14.02-.37.71.71,1.35,1.08.63,2.05-3.99,3.93-8.06,5.61-12.21,1.25-3.1,2.59-6.2,2.9-9.56.36-4,.29-8.04.45-12.06s1.51-7.53,3.29-11.03c.8-1.58,1.79-3.05,2.32-4.75.8-2.56,1.01-5.32,1.03-7.99,0-.8-1.24-.81-1.25,0h0Z"/><path class="cls-25" d="m119.85,285.73c-.73-3.23-.71-6.28-.69-10.37.01-2.2.21-4.58.58-9.24.63-7.89.75-7.61.9-10.66.12-2.49.07-5.87-.04-12.52-.2-11.05-.37-11.83-.06-14.87.25-2.49.33-1.57,1.67-9.85.96-5.96,1.2-8.15,1.62-8.12.38.02.65,1.57,1.5,8.41,1.01,8.07,1.54,12.14,1.61,15.14.08,3.35-.14,2.72-.35,10.8-.19,7.28-.28,10.92-.01,14.41.46,5.9,1.18,5.95,1.61,12.05.26,3.68.56,7.91-.24,12.33-.74,4.11-2.65,9.61-4.86,8.95-1.9-.56-2.99-5.37-3.24-6.45Z"/><path class="cls-33" d="m121.69,290.96c-1.57-1.44-2.36-2.18-2.83-3.25-.59-1.35-.83-2.75-1.18-4.77-.78-4.52-.33-5.85-.94-8.2-.68-2.61-1.41-1.67-3.3-4.78-.94-1.55-2.56-4.21-3.14-8.59-.3-2.23.02-2.3-.07-8.96-.06-4.37-.09-6.56-.39-8.77-.71-5.34-2.11-7.08-1.83-8.2.38-1.49,3.33-.36,5.06,4.21,1.17,3.11,1.53,7.16,1.73,9.35.45,5.09-.04,7.13.78,9.73.54,1.73,1.01,1.62,2.44,3.63.87,1.23,2.42,3.42,3.46,6.68.56,1.76.49,2.32,1.72,14.31.56,5.44.85,7.99.39,8.77-.14.24-.33.28-1.89-1.15Z"/><path class="cls-28" d="m107.76,235.86c3,2.13,3.73,5.77,3.92,9.21.26,4.58.47,9.17.9,13.74.13,1.31.28,2.59.76,3.83.59,1.53,1.52,2.44,2.81,3.38,3.15,2.3,2.96,6.84,3.27,10.33.47,5.31,1.62,10.61,3.67,15.55.3.73,1.51.41,1.21-.33-1.92-4.61-3.05-9.55-3.56-14.51-.37-3.6-.11-7.95-2.59-10.9-.99-1.18-2.49-1.72-3.25-3.11s-.94-2.94-1.08-4.48c-.43-4.63-.62-9.28-.91-13.92-.23-3.77-1.29-7.55-4.52-9.86-.66-.47-1.28.62-.63,1.08h0Z"/><path class="cls-23" d="m123.49,209.26c-.6,12.08-.69,24.15-.36,36.24.09,3.32.33,6.63.62,9.94.39,4.44.08,8.82-.23,13.25-.4,5.72-.64,11.24.32,16.94.13.79,1.34.46,1.21-.33-.87-5.16-.73-10.18-.36-15.36.32-4.55.72-9.07.39-13.63-.24-3.31-.56-6.59-.67-9.91-.17-5.53-.25-11.08-.25-16.61,0-6.84.25-13.69.59-20.52.04-.8-1.21-.8-1.25,0h0Z"/><path class="cls-13" d="m119.9,286.25c-.14-2.81,1.07-5.24,2.71-8.55,2.59-5.22,3.72-4.59,4.48-8.3.54-2.64.02-3.29.63-9.57.23-2.4.48-4.97,1.04-7.55.76-3.5,1.61-4.72,3.75-9.06,3.73-7.54,4.19-9.94,4.79-9.3,1.07,1.14,1.26,10.65-.63,16.12-.78,2.26-1.59,2.87-2.49,4.48-.63,1.13-.96,2-1.37,3.31-.86,2.77-.49,5.03-.49,7.98,0,1.13-.64,4.89-1.91,12.42-.21,1.22-.51,2.99-1.24,5.24-.39,1.19-.76,2.11-1.05,2.81-1.24,3.01-2.42,5.9-4.16,6.03-1.78.13-3.88-2.64-4.05-6.06Z"/><path class="cls-34" d="m136.12,233.49c-.02,2.46-.21,4.96-.89,7.34-.46,1.61-1.35,2.98-2.13,4.46-1.62,3.09-3.11,6.47-3.49,9.96-.45,4.13-.24,8.34-.47,12.48-.17,3.09-1,5.82-2.13,8.7-1.88,4.78-3.97,9.46-6.32,14.02-.37.71.71,1.35,1.08.63,2.05-3.99,3.93-8.06,5.61-12.21,1.25-3.1,2.59-6.2,2.9-9.56.36-4,.29-8.04.45-12.06s1.51-7.53,3.29-11.03c.8-1.58,1.79-3.05,2.32-4.75.8-2.56,1.01-5.32,1.03-7.99,0-.8-1.24-.81-1.25,0h0Z"/><path class="cls-25" d="m50.66,285.73c-.73-3.23-.71-6.28-.69-10.37.01-2.2.21-4.58.58-9.24.63-7.89.75-7.61.9-10.66.12-2.49.07-5.87-.04-12.52-.2-11.05-.37-11.83-.06-14.87.25-2.49.33-1.57,1.67-9.85.96-5.96,1.2-8.15,1.62-8.12.38.02.65,1.57,1.5,8.41,1.01,8.07,1.54,12.14,1.61,15.14.08,3.35-.14,2.72-.35,10.8-.19,7.28-.28,10.92-.01,14.41.46,5.9,1.18,5.95,1.61,12.05.26,3.68.56,7.91-.24,12.33-.74,4.11-2.65,9.61-4.86,8.95-1.9-.56-2.99-5.37-3.24-6.45Z"/><path class="cls-33" d="m52.5,290.96c-1.57-1.44-2.36-2.18-2.83-3.25-.59-1.35-.83-2.75-1.18-4.77-.78-4.52-.33-5.85-.94-8.2-.68-2.61-1.41-1.67-3.3-4.78-.94-1.55-2.56-4.21-3.14-8.59-.3-2.23.02-2.3-.07-8.96-.06-4.37-.09-6.56-.39-8.77-.71-5.34-2.11-7.08-1.83-8.2.38-1.49,3.33-.36,5.06,4.21,1.17,3.11,1.53,7.16,1.73,9.35.45,5.09-.04,7.13.78,9.73.54,1.73,1.01,1.62,2.44,3.63.87,1.23,2.42,3.42,3.46,6.68.56,1.76.49,2.32,1.72,14.31.56,5.44.85,7.99.39,8.77-.14.24-.33.28-1.89-1.15Z"/><path class="cls-28" d="m38.57,235.86c3,2.13,3.73,5.77,3.92,9.21.26,4.58.47,9.17.9,13.74.13,1.31.28,2.59.76,3.83.59,1.53,1.52,2.44,2.81,3.38,3.15,2.3,2.96,6.84,3.27,10.33.47,5.31,1.62,10.61,3.67,15.55.3.73,1.51.41,1.21-.33-1.92-4.61-3.05-9.55-3.56-14.51-.37-3.6-.11-7.95-2.59-10.9-.99-1.18-2.49-1.72-3.25-3.11s-.94-2.94-1.08-4.48c-.43-4.63-.62-9.28-.91-13.92-.23-3.77-1.29-7.55-4.52-9.86-.66-.47-1.28.62-.63,1.08h0Z"/><path class="cls-23" d="m54.3,209.26c-.6,12.08-.69,24.15-.36,36.24.09,3.32.33,6.63.62,9.94.39,4.44.08,8.82-.23,13.25-.4,5.72-.64,11.24.32,16.94.13.79,1.34.46,1.21-.33-.87-5.16-.73-10.18-.36-15.36.32-4.55.72-9.07.39-13.63-.24-3.31-.56-6.59-.67-9.91-.17-5.53-.25-11.08-.25-16.61,0-6.84.25-13.69.59-20.52.04-.8-1.21-.8-1.25,0h0Z"/><path class="cls-13" d="m50.71,286.25c-.14-2.81,1.07-5.24,2.71-8.55,2.59-5.22,3.72-4.59,4.48-8.3.54-2.64.02-3.29.63-9.57.23-2.4.48-4.97,1.04-7.55.76-3.5,1.61-4.72,3.75-9.06,3.73-7.54,4.19-9.94,4.79-9.3,1.07,1.14,1.26,10.65-.63,16.12-.78,2.26-1.59,2.87-2.49,4.48-.63,1.13-.96,2-1.37,3.31-.86,2.77-.49,5.03-.49,7.98,0,1.13-.64,4.89-1.91,12.42-.21,1.22-.51,2.99-1.24,5.24-.39,1.19-.76,2.11-1.05,2.81-1.24,3.01-2.42,5.9-4.16,6.03-1.78.13-3.88-2.64-4.05-6.06Z"/><path class="cls-34" d="m66.93,233.49c-.02,2.46-.21,4.96-.89,7.34-.46,1.61-1.35,2.98-2.13,4.46-1.62,3.09-3.11,6.47-3.49,9.96-.45,4.13-.24,8.34-.47,12.48-.17,3.09-1,5.82-2.13,8.7-1.88,4.78-3.97,9.46-6.32,14.02-.37.71.71,1.35,1.08.63,2.05-3.99,3.93-8.06,5.61-12.21,1.25-3.1,2.59-6.2,2.9-9.56.36-4,.29-8.04.45-12.06s1.51-7.53,3.29-11.03c.8-1.58,1.79-3.05,2.32-4.75.8-2.56,1.01-5.32,1.03-7.99,0-.8-1.24-.81-1.25,0h0Z"/><path class="cls-25" d="m83.16,299.32c-.73-3.23-.71-6.28-.69-10.37.01-2.2.21-4.58.58-9.24.63-7.89.75-7.61.9-10.66.12-2.49.07-5.87-.04-12.52-.2-11.05-.37-11.83-.06-14.87.25-2.49.33-1.57,1.67-9.85.96-5.96,1.2-8.15,1.62-8.12.38.02.65,1.57,1.5,8.41,1.01,8.07,1.54,12.14,1.61,15.14.08,3.35-.14,2.72-.35,10.8-.19,7.28-.28,10.92-.01,14.41.46,5.9,1.18,5.95,1.61,12.05.26,3.68.56,7.91-.24,12.33-.74,4.11-2.65,9.61-4.86,8.95-1.9-.56-2.99-5.37-3.24-6.45Z"/><path class="cls-33" d="m85,304.55c-1.57-1.44-2.36-2.18-2.83-3.25-.59-1.35-.83-2.75-1.18-4.77-.78-4.52-.33-5.85-.94-8.2-.68-2.61-1.41-1.67-3.3-4.78-.94-1.55-2.56-4.21-3.14-8.59-.3-2.23.02-2.3-.07-8.96-.06-4.37-.09-6.56-.39-8.77-.71-5.34-2.11-7.08-1.83-8.2.38-1.49,3.33-.36,5.06,4.21,1.17,3.11,1.53,7.16,1.73,9.35.45,5.09-.04,7.13.78,9.73.54,1.73,1.01,1.62,2.44,3.63.87,1.23,2.42,3.42,3.46,6.68.56,1.76.49,2.32,1.72,14.31.56,5.44.85,7.99.39,8.77-.14.24-.33.28-1.89-1.15Z"/><path class="cls-28" d="m71.07,249.45c3,2.13,3.73,5.77,3.92,9.21.26,4.58.47,9.17.9,13.74.13,1.31.28,2.59.76,3.83.59,1.53,1.52,2.44,2.81,3.38,3.15,2.3,2.96,6.84,3.27,10.33.47,5.31,1.62,10.61,3.67,15.55.3.73,1.51.41,1.21-.33-1.92-4.61-3.05-9.55-3.56-14.51-.37-3.6-.11-7.95-2.59-10.9-.99-1.18-2.49-1.72-3.25-3.11s-.94-2.94-1.08-4.48c-.43-4.63-.62-9.28-.91-13.92-.23-3.77-1.29-7.55-4.52-9.86-.66-.47-1.28.62-.63,1.08h0Z"/><path class="cls-23" d="m86.8,222.85c-.6,12.08-.69,24.15-.36,36.24.09,3.32.33,6.63.62,9.94.39,4.44.08,8.82-.23,13.25-.4,5.72-.64,11.24.32,16.94.13.79,1.34.46,1.21-.33-.87-5.16-.73-10.18-.36-15.36.32-4.55.72-9.07.39-13.63-.24-3.31-.56-6.59-.67-9.91-.17-5.53-.25-11.08-.25-16.61,0-6.84.25-13.69.59-20.52.04-.8-1.21-.8-1.25,0h0Z"/><path class="cls-13" d="m83.21,299.85c-.14-2.81,1.07-5.24,2.71-8.55,2.59-5.22,3.72-4.59,4.48-8.3.54-2.64.02-3.29.63-9.57.23-2.4.48-4.97,1.04-7.55.76-3.5,1.61-4.72,3.75-9.06,3.73-7.54,4.19-9.94,4.79-9.3,1.07,1.14,1.26,10.65-.63,16.12-.78,2.26-1.59,2.87-2.49,4.48-.63,1.13-.96,2-1.37,3.31-.86,2.77-.49,5.03-.49,7.98,0,1.13-.64,4.89-1.91,12.42-.21,1.22-.51,2.99-1.24,5.24-.39,1.19-.76,2.11-1.05,2.81-1.24,3.01-2.42,5.9-4.16,6.03-1.78.13-3.88-2.64-4.05-6.06Z"/><path class="cls-34" d="m99.43,247.08c-.02,2.46-.21,4.96-.89,7.34-.46,1.61-1.35,2.98-2.13,4.46-1.62,3.09-3.11,6.47-3.49,9.96-.45,4.13-.24,8.34-.47,12.48-.17,3.09-1,5.82-2.13,8.7-1.88,4.78-3.97,9.46-6.32,14.02-.37.71.71,1.35,1.08.63,2.05-3.99,3.93-8.06,5.61-12.21,1.25-3.1,2.59-6.2,2.9-9.56.36-4,.29-8.04.45-12.06s1.51-7.53,3.29-11.03c.8-1.58,1.79-3.05,2.32-4.75.8-2.56,1.01-5.32,1.03-7.99,0-.8-1.24-.81-1.25,0h0Z"/><path class="cls-25" d="m103.26,311.6c-.73-3.23-.71-6.28-.69-10.37.01-2.2.21-4.58.58-9.24.63-7.89.75-7.61.9-10.66.12-2.49.07-5.87-.04-12.52-.2-11.05-.37-11.83-.06-14.87.25-2.49.33-1.57,1.67-9.85.96-5.96,1.2-8.15,1.62-8.12.38.02.65,1.57,1.5,8.41,1.01,8.07,1.54,12.14,1.61,15.14.08,3.35-.14,2.72-.35,10.8-.19,7.28-.28,10.92-.01,14.41.46,5.9,1.18,5.95,1.61,12.05.26,3.68.56,7.91-.24,12.33-.74,4.11-2.65,9.61-4.86,8.95-1.9-.56-2.99-5.37-3.24-6.45Z"/><path class="cls-33" d="m105.1,316.83c-1.57-1.44-2.36-2.18-2.83-3.25-.59-1.35-.83-2.75-1.18-4.77-.78-4.52-.33-5.85-.94-8.2-.68-2.61-1.41-1.67-3.3-4.78-.94-1.55-2.56-4.21-3.14-8.59-.3-2.23.02-2.3-.07-8.96-.06-4.37-.09-6.56-.39-8.77-.71-5.34-2.11-7.08-1.83-8.2.38-1.49,3.33-.36,5.06,4.21,1.17,3.11,1.53,7.16,1.73,9.35.45,5.09-.04,7.13.78,9.73.54,1.73,1.01,1.62,2.44,3.63.87,1.23,2.42,3.42,3.46,6.68.56,1.76.49,2.32,1.72,14.31.56,5.44.85,7.99.39,8.77-.14.24-.33.28-1.89-1.15Z"/><path class="cls-28" d="m91.18,261.73c3,2.13,3.73,5.77,3.92,9.21.26,4.58.47,9.17.9,13.74.13,1.31.28,2.59.76,3.83.59,1.53,1.52,2.44,2.81,3.38,3.15,2.3,2.96,6.84,3.27,10.33.47,5.31,1.62,10.61,3.67,15.55.3.73,1.51.41,1.21-.33-1.92-4.61-3.05-9.55-3.56-14.51-.37-3.6-.11-7.95-2.59-10.9-.99-1.18-2.49-1.72-3.25-3.11s-.94-2.94-1.08-4.48c-.43-4.63-.62-9.28-.91-13.92-.23-3.77-1.29-7.55-4.52-9.86-.66-.47-1.28.62-.63,1.08h0Z"/><path class="cls-23" d="m106.9,235.13c-.6,12.08-.69,24.15-.36,36.24.09,3.32.33,6.63.62,9.94.39,4.44.08,8.82-.23,13.25-.4,5.72-.64,11.24.32,16.94.13.79,1.34.46,1.21-.33-.87-5.16-.73-10.18-.36-15.36.32-4.55.72-9.07.39-13.63-.24-3.31-.56-6.59-.67-9.91-.17-5.53-.25-11.08-.25-16.61,0-6.84.25-13.69.59-20.52.04-.8-1.21-.8-1.25,0h0Z"/><path class="cls-13" d="m103.31,312.13c-.14-2.81,1.07-5.24,2.71-8.55,2.59-5.22,3.72-4.59,4.48-8.3.54-2.64.02-3.29.63-9.57.23-2.4.48-4.97,1.04-7.55.76-3.5,1.61-4.72,3.75-9.06,3.73-7.54,4.19-9.94,4.79-9.3,1.07,1.14,1.26,10.65-.63,16.12-.78,2.26-1.59,2.87-2.49,4.48-.63,1.13-.96,2-1.37,3.31-.86,2.77-.49,5.03-.49,7.98,0,1.13-.64,4.89-1.91,12.42-.21,1.22-.51,2.99-1.24,5.24-.39,1.19-.76,2.11-1.05,2.81-1.24,3.01-2.42,5.9-4.16,6.03-1.78.13-3.88-2.64-4.05-6.06Z"/><path class="cls-34" d="m119.53,259.36c-.02,2.46-.21,4.96-.89,7.34-.46,1.61-1.35,2.98-2.13,4.46-1.62,3.09-3.11,6.47-3.49,9.96-.45,4.13-.24,8.34-.47,12.48-.17,3.09-1,5.82-2.13,8.7-1.88,4.78-3.97,9.46-6.32,14.02-.37.71.71,1.35,1.08.63,2.05-3.99,3.93-8.06,5.61-12.21,1.25-3.1,2.59-6.2,2.9-9.56.36-4,.29-8.04.45-12.06s1.51-7.53,3.29-11.03c.8-1.58,1.79-3.05,2.32-4.75.8-2.56,1.01-5.32,1.03-7.99,0-.8-1.24-.81-1.25,0h0Z"/><path class="cls-25" d="m31.71,315.99c-.73-3.23-.71-6.28-.69-10.37.01-2.2.21-4.58.58-9.24.63-7.89.75-7.61.9-10.66.12-2.49.07-5.87-.04-12.52-.2-11.05-.37-11.83-.06-14.87.25-2.49.33-1.57,1.67-9.85.96-5.96,1.2-8.15,1.62-8.12.38.02.65,1.57,1.5,8.41,1.01,8.07,1.54,12.14,1.61,15.14.08,3.35-.14,2.72-.35,10.8-.19,7.28-.28,10.92-.01,14.41.46,5.9,1.18,5.95,1.61,12.05.26,3.68.56,7.91-.24,12.33-.74,4.11-2.65,9.61-4.86,8.95-1.9-.56-2.99-5.37-3.24-6.45Z"/><path class="cls-33" d="m33.55,321.22c-1.57-1.44-2.36-2.18-2.83-3.25-.59-1.35-.83-2.75-1.18-4.77-.78-4.52-.33-5.85-.94-8.2-.68-2.61-1.41-1.67-3.3-4.78-.94-1.55-2.56-4.21-3.14-8.59-.3-2.23.02-2.3-.07-8.96-.06-4.37-.09-6.56-.39-8.77-.71-5.34-2.11-7.08-1.83-8.2.38-1.49,3.33-.36,5.06,4.21,1.17,3.11,1.53,7.16,1.73,9.35.45,5.09-.04,7.13.78,9.73.54,1.73,1.01,1.62,2.44,3.63.87,1.23,2.42,3.42,3.46,6.68.56,1.76.49,2.32,1.72,14.31.56,5.44.85,7.99.39,8.77-.14.24-.33.28-1.89-1.15Z"/><path class="cls-28" d="m19.63,266.12c3,2.13,3.73,5.77,3.92,9.21.26,4.58.47,9.17.9,13.74.13,1.31.28,2.59.76,3.83.59,1.53,1.52,2.44,2.81,3.38,3.15,2.3,2.96,6.84,3.27,10.33.47,5.31,1.62,10.61,3.67,15.55.3.73,1.51.41,1.21-.33-1.92-4.61-3.05-9.55-3.56-14.51-.37-3.6-.11-7.95-2.59-10.9-.99-1.18-2.49-1.72-3.25-3.11s-.94-2.94-1.08-4.48c-.43-4.63-.62-9.28-.91-13.92-.23-3.77-1.29-7.55-4.52-9.86-.66-.47-1.28.62-.63,1.08h0Z"/><path class="cls-23" d="m35.36,239.52c-.6,12.08-.69,24.15-.36,36.24.09,3.32.33,6.63.62,9.94.39,4.44.08,8.82-.23,13.25-.4,5.72-.64,11.24.32,16.94.13.79,1.34.46,1.21-.33-.87-5.16-.73-10.18-.36-15.36.32-4.55.72-9.07.39-13.63-.24-3.31-.56-6.59-.67-9.91-.17-5.53-.25-11.08-.25-16.61,0-6.84.25-13.69.59-20.52.04-.8-1.21-.8-1.25,0h0Z"/><path class="cls-13" d="m31.77,316.52c-.14-2.81,1.07-5.24,2.71-8.55,2.59-5.22,3.72-4.59,4.48-8.3.54-2.64.02-3.29.63-9.57.23-2.4.48-4.97,1.04-7.55.76-3.5,1.61-4.72,3.75-9.06,3.73-7.54,4.19-9.94,4.79-9.3,1.07,1.14,1.26,10.65-.63,16.12-.78,2.26-1.59,2.87-2.49,4.48-.63,1.13-.96,2-1.37,3.31-.86,2.77-.49,5.03-.49,7.98,0,1.13-.64,4.89-1.91,12.42-.21,1.22-.51,2.99-1.24,5.24-.39,1.19-.76,2.11-1.05,2.81-1.24,3.01-2.42,5.9-4.16,6.03-1.78.13-3.88-2.64-4.05-6.06Z"/><path class="cls-34" d="m47.99,263.75c-.02,2.46-.21,4.96-.89,7.34-.46,1.61-1.35,2.98-2.13,4.46-1.62,3.09-3.11,6.47-3.49,9.96-.45,4.13-.24,8.34-.47,12.48-.17,3.09-1,5.82-2.13,8.7-1.88,4.78-3.97,9.46-6.32,14.02-.37.71.71,1.35,1.08.63,2.05-3.99,3.93-8.06,5.61-12.21,1.25-3.1,2.59-6.2,2.9-9.56.36-4,.29-8.04.45-12.06s1.51-7.53,3.29-11.03c.8-1.58,1.79-3.05,2.32-4.75.8-2.56,1.01-5.32,1.03-7.99,0-.8-1.24-.81-1.25,0h0Z"/><path class="cls-25" d="m62.17,311.97c-.73-3.23-.71-6.28-.69-10.37.01-2.2.21-4.58.58-9.24.63-7.89.75-7.61.9-10.66.12-2.49.07-5.87-.04-12.52-.2-11.05-.37-11.83-.06-14.87.25-2.49.33-1.57,1.67-9.85.96-5.96,1.2-8.15,1.62-8.12.38.02.65,1.57,1.5,8.41,1.01,8.07,1.54,12.14,1.61,15.14.08,3.35-.14,2.72-.35,10.8-.19,7.28-.28,10.92-.01,14.41.46,5.9,1.18,5.95,1.61,12.05.26,3.68.56,7.91-.24,12.33-.74,4.11-2.65,9.61-4.86,8.95-1.9-.56-2.99-5.37-3.24-6.45Z"/><path class="cls-33" d="m64.01,317.21c-1.57-1.44-2.36-2.18-2.83-3.25-.59-1.35-.83-2.75-1.18-4.77-.78-4.52-.33-5.85-.94-8.2-.68-2.61-1.41-1.67-3.3-4.78-.94-1.55-2.56-4.21-3.14-8.59-.3-2.23.02-2.3-.07-8.96-.06-4.37-.09-6.56-.39-8.77-.71-5.34-2.11-7.08-1.83-8.2.38-1.49,3.33-.36,5.06,4.21,1.17,3.11,1.53,7.16,1.73,9.35.45,5.09-.04,7.13.78,9.73.54,1.73,1.01,1.62,2.44,3.63.87,1.23,2.42,3.42,3.46,6.68.56,1.76.49,2.32,1.72,14.31.56,5.44.85,7.99.39,8.77-.14.24-.33.28-1.89-1.15Z"/><path class="cls-28" d="m50.08,262.11c3,2.13,3.73,5.77,3.92,9.21.26,4.58.47,9.17.9,13.74.13,1.31.28,2.59.76,3.83.59,1.53,1.52,2.44,2.81,3.38,3.15,2.3,2.96,6.84,3.27,10.33.47,5.31,1.62,10.61,3.67,15.55.3.73,1.51.41,1.21-.33-1.92-4.61-3.05-9.55-3.56-14.51-.37-3.6-.11-7.95-2.59-10.9-.99-1.18-2.49-1.72-3.25-3.11s-.94-2.94-1.08-4.48c-.43-4.63-.62-9.28-.91-13.92-.23-3.77-1.29-7.55-4.52-9.86-.66-.47-1.28.62-.63,1.08h0Z"/><path class="cls-23" d="m65.81,235.51c-.6,12.08-.69,24.15-.36,36.24.09,3.32.33,6.63.62,9.94.39,4.44.08,8.82-.23,13.25-.4,5.72-.64,11.24.32,16.94.13.79,1.34.46,1.21-.33-.87-5.16-.73-10.18-.36-15.36.32-4.55.72-9.07.39-13.63-.24-3.31-.56-6.59-.67-9.91-.17-5.53-.25-11.08-.25-16.61,0-6.84.25-13.69.59-20.52.04-.8-1.21-.8-1.25,0h0Z"/><path class="cls-13" d="m62.22,312.5c-.14-2.81,1.07-5.24,2.71-8.55,2.59-5.22,3.72-4.59,4.48-8.3.54-2.64.02-3.29.63-9.57.23-2.4.48-4.97,1.04-7.55.76-3.5,1.61-4.72,3.75-9.06,3.73-7.54,4.19-9.94,4.79-9.3,1.07,1.14,1.26,10.65-.63,16.12-.78,2.26-1.59,2.87-2.49,4.48-.63,1.13-.96,2-1.37,3.31-.86,2.77-.49,5.03-.49,7.98,0,1.13-.64,4.89-1.91,12.42-.21,1.22-.51,2.99-1.24,5.24-.39,1.19-.76,2.11-1.05,2.81-1.24,3.01-2.42,5.9-4.16,6.03-1.78.13-3.88-2.64-4.05-6.06Z"/><path class="cls-34" d="m78.44,259.73c-.02,2.46-.21,4.96-.89,7.34-.46,1.61-1.35,2.98-2.13,4.46-1.62,3.09-3.11,6.47-3.49,9.96-.45,4.13-.24,8.34-.47,12.48-.17,3.09-1,5.82-2.13,8.7-1.88,4.78-3.97,9.46-6.32,14.02-.37.71.71,1.35,1.08.63,2.05-3.99,3.93-8.06,5.61-12.21,1.25-3.1,2.59-6.2,2.9-9.56.36-4,.29-8.04.45-12.06s1.51-7.53,3.29-11.03c.8-1.58,1.79-3.05,2.32-4.75.8-2.56,1.01-5.32,1.03-7.99,0-.8-1.24-.81-1.25,0h0Z"/><path class="cls-26" d="m439.18,297.72c-1.36-3.67,1.6-8.04,3.94-11.51,1.48-2.18,4.51-6.67,10.36-8.94,6.23-2.42,11.83-.86,17.48.72,3.84,1.07,7.99,2.29,11.41,6.06.92,1.02,2.55,3.06,3.56,6.05,1.2,3.55,2.02,9.94-1.09,13.61-3.06,3.61-9.89,2.8-23.43,1.02-13.76-1.81-20.67-2.8-22.23-7.01Z"/><path class="cls-15" d="m463.33,307.39c-1.78-3.32,2.84-8.69,3.46-9.42,4.99-5.81,12.39-6.56,14.04-6.73,8.91-.9,15.22,3.63,17.48,5.26,2.51,1.81,6.3,4.53,6.29,8.38,0,2.49-1.6,4.33-1.79,4.53-3.51,3.92-9.67,1.42-25.81.43-8.9-.55-12.42-.12-13.67-2.46Z"/><path class="cls-30" d="m447.34,307.31c-.61-2.06,2.8-4.55,4.41-5.49,3.03-1.76,7.66-2.68,11.41-.82,1.95.97,3.08,2.4,4.49,4.17,1.72,2.17,2.58,3.25,2.24,4.16-1.1,2.94-13.13,1.15-14.74.9-4.15-.65-7.3-1.17-7.81-2.92Z"/><path class="cls-26" d="m201.81,234.55c.97-3.11-1.14-6.82-2.82-9.76-1.06-1.85-3.22-5.65-7.4-7.58-4.45-2.05-8.45-.73-12.49.61-2.74.91-5.71,1.94-8.15,5.14-.66.86-1.82,2.6-2.54,5.13-.85,3.01-1.44,8.43.78,11.54,2.19,3.06,7.07,2.37,16.74.86,9.83-1.53,14.77-2.37,15.88-5.94Z"/><path class="cls-15" d="m184.56,242.75c1.27-2.81-2.03-7.37-2.47-7.98-3.57-4.93-8.86-5.56-10.03-5.7-6.37-.76-10.87,3.08-12.49,4.46-1.79,1.53-4.5,3.84-4.5,7.11,0,2.11,1.15,3.67,1.28,3.84,2.51,3.32,6.91,1.2,18.44.37,6.36-.46,8.87-.1,9.77-2.09Z"/><path class="cls-30" d="m195.98,242.68c.43-1.75-2-3.86-3.15-4.65-2.16-1.5-5.47-2.28-8.15-.69-1.39.82-2.2,2.03-3.21,3.53-1.23,1.84-1.84,2.76-1.6,3.53.79,2.49,9.38.97,10.53.76,2.97-.55,5.21-.99,5.58-2.48Z"/><path class="cls-26" d="m75.3,315.05c.97-3.11-1.14-6.82-2.82-9.76-1.06-1.85-3.22-5.65-7.4-7.58-4.45-2.05-8.45-.73-12.49.61-2.74.91-5.71,1.94-8.15,5.14-.66.86-1.82,2.6-2.54,5.13-.85,3.01-1.44,8.43.78,11.54,2.19,3.06,7.07,2.37,16.74.86,9.83-1.53,14.77-2.37,15.88-5.94Z"/><path class="cls-15" d="m58.05,323.25c1.27-2.81-2.03-7.37-2.47-7.98-3.57-4.93-8.86-5.56-10.03-5.7-6.37-.76-10.87,3.08-12.49,4.46-1.79,1.53-4.5,3.84-4.5,7.11,0,2.11,1.15,3.67,1.28,3.84,2.51,3.32,6.91,1.2,18.44.37,6.36-.46,8.87-.1,9.77-2.09Z"/><path class="cls-30" d="m69.47,323.17c.43-1.75-2-3.86-3.15-4.65-2.16-1.5-5.47-2.28-8.15-.69-1.39.82-2.2,2.03-3.21,3.53-1.23,1.84-1.84,2.76-1.6,3.53.79,2.49,9.38.97,10.53.76,2.97-.55,5.21-.99,5.58-2.48Z"/><path class="cls-26" d="m293.12,245.66c-1.11-3.11,1.3-6.82,3.21-9.76,1.2-1.85,3.68-5.65,8.44-7.58,5.08-2.05,9.64-.73,14.25.61,3.13.91,6.51,1.94,9.3,5.14.75.86,2.08,2.6,2.9,5.13.97,3.01,1.65,8.43-.89,11.54-2.5,3.06-8.06,2.37-19.1.86-11.21-1.53-16.85-2.37-18.12-5.94Z"/><path class="cls-15" d="m312.8,253.86c-1.45-2.81,2.31-7.37,2.82-7.98,4.07-4.93,10.1-5.56,11.44-5.7,7.26-.76,12.4,3.08,14.24,4.46,2.05,1.53,5.14,3.84,5.13,7.11,0,2.11-1.31,3.67-1.46,3.84-2.86,3.32-7.88,1.2-21.03.37-7.25-.46-10.12-.1-11.14-2.09Z"/><path class="cls-30" d="m299.77,253.79c-.49-1.75,2.28-3.86,3.59-4.65,2.47-1.5,6.24-2.28,9.3-.69,1.59.82,2.51,2.03,3.66,3.53,1.4,1.84,2.1,2.76,1.83,3.53-.9,2.49-10.7.97-12.01.76-3.38-.55-5.95-.99-6.37-2.48Z"/><path class="cls-10" d="m151.65,121.69c.26-3.43,1.76-5.79,2.25-6.54,3-4.6,8.58-6.95,13.09-5.69.87.24,2.4.69,3.66,2.2,1.81,2.15,2.25,5.48,1.45,8.09-.88,2.88-3.06,4.21-5.78,5.8-.91.54-10.52,6.06-13.72,2.04-1.29-1.62-1.09-4.21-.96-5.89Z"/><path class="cls-18" d="m150.92,123.44c-1.62-.78-3.12-.48-3.53-.38-.15.04-3.21.77-3.34,2.52-.1,1.39,1.7,2.55,2.69,2.97,1.36.58,2.6.34,3.17.18-.23.52-.72,1.83-.48,3.44.22,1.42,1.07,3.42,2.23,3.52,1.39.13,2.82-2.48,3.11-4.71.4-3.14-1.41-6.35-3.86-7.53Z"/><path class="cls-18" d="m166.21,120.73c-.33-.32-.97.07-2.23.85-1.48.91-2.21,1.37-2.7,2.19-1,1.72-1.2,4.75-.32,5.63.97.97,3.23-.66,4.4-2.74,1.19-2.12,1.56-5.27.85-5.94Z"/><path class="cls-18" d="m172.3,110.93c-.49-.07-1.18,1.1-1.29,2.21-.17,1.73,1.13,2.86,1.23,2.95.47.4,1.44.97,1.9.55.28-.26.27-.8.22-1.1-.15-.76-.88-1.34-1.85-1.45.13-.21.55-.94.44-1.86-.05-.41-.26-1.25-.65-1.3Z"/><ellipse class="cls-32" cx="164.41" cy="113.15" rx="2.06" ry="1.83" transform="translate(37.17 266.92) rotate(-84.93)"/><ellipse class="cls-5" cx="164.63" cy="112.61" rx="1.2" ry="1.07" transform="translate(37.91 266.65) rotate(-84.93)"/><path class="cls-10" d="m346.77,83.69c1.72-2.32,4.16-3.02,4.95-3.24,4.84-1.33,11.19.71,14.98,4.65.73.76,2,2.11,2.57,4.05.81,2.78-.19,5.49-2.07,6.85-2.07,1.5-4.73,1-8.01.34-1.11-.22-12.67-2.66-14.01-7.72-.54-2.04.76-3.79,1.6-4.93Z"/><path class="cls-18" d="m345.31,84.47c-1.22-1.66-2.78-2.44-3.21-2.64-.16-.07-3.4-1.6-4.28-.41-.69.94.54,2.99,1.3,3.96,1.06,1.33,2.35,1.99,2.96,2.26-.44.23-1.48.84-1.93,2.18-.39,1.18-.44,3.2.63,4.06,1.28,1.02,3.76.1,5-1.34,1.73-2.01,1.36-5.56-.48-8.07Z"/><path class="cls-18" d="m361.12,92.76c-.18-.46-.96-.6-2.5-.88-1.8-.33-2.71-.49-3.52-.21-1.69.58-3.18,2.64-2.72,3.87.51,1.36,3.38,1.68,5.38.96,2.05-.74,3.75-2.78,3.36-3.74Z"/><path class="cls-18" d="m371.15,89.73c-.44-.38-1.6,0-2.18.74-.9,1.14-.14,2.84-.08,2.97.28.61.96,1.67,1.59,1.68.38,0,.6-.39.68-.65.18-.65-.27-1.57-1.16-2.3.22-.06.93-.31,1.21-1.06.13-.33.29-1.08-.06-1.38Z"/><ellipse class="cls-32" cx="362.64" cy="86.05" rx="1.72" ry="2.14" transform="translate(61.18 305.22) rotate(-49.37)"/><ellipse class="cls-5" cx="363.08" cy="85.81" rx="1.01" ry="1.25" transform="translate(61.52 305.47) rotate(-49.37)"/><path class="cls-17" d="m253.82,172.84c-2.32,3.17-4.06,3.91-3.95,5.92.07,1.36.97,2.74,2.14,3.43,2.39,1.41,4.41-.9,7.51.21,1.86.66,1.48,1.61,3.95,3.24,2.61,1.72,6.79,3.13,8.6,1.57.95-.82.26-1.62,1.44-4.05.8-1.66,1.84-2.77,3.08-4.11,2.35-2.53,3.26-2.58,3.38-3.68.19-1.79-2-4.11-4.29-4.37-2.07-.24-2.74,1.37-5.02,1.24-1.84-.11-2.34-1.22-5.37-3.12-3.05-1.92-5.28-3.32-7.16-2.81-1.92.52-1.32,2.45-4.31,6.54Z"/><path class="cls-10" d="m259.11,172.91c.25-.48.65-1.21,1.24-2.02.54-.75,5.09-6.89,10.66-6.04.77.12,2.13.34,3.36,1.48,1.77,1.62,2.48,4.36,2.06,6.62-.54,2.9-2.88,4.41-4.37,5.41-2.24,1.49-4.44,1.92-5.67,2.07-.75-.14-3.58-.74-5.56-3.34-1.25-1.63-1.6-3.31-1.72-4.18Z"/><path class="cls-18" d="m271.48,174.34c-.32-.23-.82.15-1.83.93-1.17.91-1.76,1.36-2.09,2.1-.69,1.53-.56,4.08.29,4.74.93.72,2.7-.87,3.5-2.72.81-1.89.81-4.56.14-5.05Z"/><path class="cls-18" d="m275.72,165.56c-.42,0-.91,1.03-.89,1.97.03,1.46,1.26,2.28,1.35,2.35.44.29,1.33.67,1.69.27.22-.25.16-.69.07-.94-.2-.62-.89-1.03-1.74-1.03.09-.19.38-.84.19-1.6-.09-.34-.35-1.02-.69-1.03Z"/><ellipse class="cls-32" cx="269.17" cy="168.18" rx="1.58" ry="1.73" transform="translate(-5.76 9.6) rotate(-2.02)"/><ellipse class="cls-5" cx="269.31" cy="167.71" rx=".92" ry="1.01" transform="translate(-5.75 9.6) rotate(-2.02)"/><path class="cls-10" d="m265.2,28.61c1.49-2.47,3.86-3.41,4.62-3.69,4.69-1.78,11.21-.36,15.35,3.21.8.69,2.19,1.91,2.94,3.79,1.07,2.69.33,5.48-1.41,7.01-1.92,1.69-4.61,1.45-7.95,1.1-1.12-.12-12.86-1.45-14.68-6.36-.73-1.98.4-3.85,1.13-5.06Z"/><path class="cls-18" d="m263.83,29.53c-1.37-1.54-3-2.17-3.45-2.33-.16-.06-3.54-1.27-4.3,0-.6,1,.82,2.93,1.67,3.82,1.18,1.23,2.53,1.76,3.16,1.97-.42.27-1.39.98-1.71,2.35-.28,1.21-.13,3.23,1.01,3.98,1.37.9,3.76-.26,4.85-1.8,1.53-2.16.83-5.67-1.24-7.98Z"/><path class="cls-18" d="m280.35,36.28c-.23-.44-1.01-.5-2.57-.64-1.83-.16-2.74-.23-3.53.12-1.63.73-2.92,2.93-2.34,4.11.63,1.3,3.52,1.36,5.45.45,1.97-.93,3.47-3.12,2.99-4.04Z"/><path class="cls-18" d="m290.04,32.32c-.47-.33-1.59.15-2.1.94-.78,1.22.13,2.84.2,2.97.34.58,1.12,1.58,1.74,1.52.38-.04.56-.45.61-.71.12-.67-.42-1.53-1.37-2.18.21-.08.89-.4,1.11-1.17.1-.35.18-1.1-.19-1.37Z"/><ellipse class="cls-32" cx="281.22" cy="29.46" rx="1.72" ry="2.14" transform="translate(95.06 242.29) rotate(-54.8)"/><ellipse class="cls-5" cx="281.64" cy="29.18" rx="1.01" ry="1.25" transform="translate(95.47 242.51) rotate(-54.8)"/><path class="cls-27" d="m297.2,350.54c-1.69-.58-18.23-5.91-31.79,4.08-13.23,9.75-15.65,28.21-10.06,41.77,7.36,17.88,26.51,22.06,28.22,22.4-2.83,2.74-6.31,7.04-7.67,12.94-3.56,15.43,8.97,35.01,27.02,39.47,16.99,4.2,36.09-5.67,43.58-24.07,3.28,3.75,9.66,9.93,19.4,12.97,16.82,5.26,41.95.65,50.64-18.76,8.21-18.35-1.26-43.18-23.54-52.51,3.04-2.02,6.31-4.99,8.32-9.31,6.38-13.69-2.29-35.87-19.36-41.81-15.51-5.4-29.89,5.42-31.2,6.43-.14-17.24-14.92-30.05-29.73-28.73-15.36,1.37-27.85,17.68-23.83,35.13Z"/><path class="cls-27" d="m73.38,459.28c4.83-3.12,9.66-6.25,14.49-9.37,4.97-.31,13.76-1.61,22.11-7.48,14.42-10.14,26.07-32.87,15.98-51.59-9.54-17.69-35.01-25.31-55.98-13.33.44-5.83-.93-9.75-2.31-12.27-6.82-12.46-28.41-17.21-53.41-10.4,4.78,15.36,12.06,34.14,23.36,54.31,11.84,21.13,24.71,37.75,35.75,50.13Z"/><path class="cls-27" d="m297.2,350.54c-1.69-.58-18.23-5.91-31.79,4.08-13.23,9.75-15.65,28.21-10.06,41.77,7.36,17.88,26.51,22.06,28.22,22.4-2.83,2.74-6.31,7.04-7.67,12.94-3.56,15.43,8.97,35.01,27.02,39.47,16.99,4.2,36.09-5.67,43.58-24.07,3.28,3.75,9.66,9.93,19.4,12.97,16.82,5.26,41.95.65,50.64-18.76,8.21-18.35-1.26-43.18-23.54-52.51,3.04-2.02,6.31-4.99,8.32-9.31,6.38-13.69-2.29-35.87-19.36-41.81-15.51-5.4-29.89,5.42-31.2,6.43-.14-17.24-14.92-30.05-29.73-28.73-15.36,1.37-27.85,17.68-23.83,35.13Z"/><path class="cls-1" d="m444.3,425.55c.84-7.34,2.26-13.06,3.38-16.89,1.9-6.48,3.72-10.4,5.38-18.68.57-2.87.93-5.16,1.16-7.1.87-7.12,1.53-11.9,1.7-13.28.59-4.86,3.03-12.07,11.38-22.07"/><path class="cls-29" d="m464.04,345.7c-1-5.16,1.76-10.26,2.8-10.03,1.02.23.54,5.63,1.62,5.79.53.08.79-1.23,2.41-2.78,1.1-1.05,2.66-2.05,3.03-1.72.1.09.2.35-1.05,3.04-1.21,2.61-1.78,3.38-1.45,3.8.33.43,1.36.17,2.86-.23,2.69-.72,3.75-1.54,3.94-1.31.32.39-2.27,3.51-6.08,5.74-2.13,1.25-4.26,2.49-5.97,1.61-1.48-.76-1.89-2.71-2.12-3.9Z"/><path class="cls-29" d="m460.59,359.97c1.12-.79,2.27-1.1,3.57-1.46,1.41-.39,2.55-1.11,3.75-1.92.28-.19.55-.38.83-.56.05-.03.1-.05.15-.08-.11.06-.23.07-.04.02.15-.04.3-.08.46-.11.19-.04-.31.02.06,0,.11,0,.21-.02.32-.02.25-.01.5,0,.75,0,.68.03,1.35.14,2.03.27s1.35-.19,1.54-.87c.17-.61-.21-1.41-.87-1.54-2.05-.39-4.3-.75-6.12.49-1.14.77-2.18,1.55-3.52,1.92-1.49.41-2.89.81-4.17,1.71-.55.39-.81,1.09-.45,1.71.32.54,1.16.84,1.71.45h0Z"/><path class="cls-29" d="m456.49,375.56c1.12-.79,2.27-1.1,3.57-1.46,1.41-.39,2.55-1.11,3.75-1.92.28-.19.55-.38.83-.56.05-.03.1-.05.15-.08-.11.06-.23.07-.04.02.15-.04.3-.08.46-.11.19-.04-.31.02.06,0,.11,0,.21-.02.32-.02.25-.01.5,0,.75,0,.68.03,1.35.14,2.03.27s1.35-.19,1.54-.87c.17-.61-.21-1.41-.87-1.54-2.05-.39-4.3-.75-6.12.49-1.14.77-2.18,1.55-3.52,1.92-1.49.41-2.89.81-4.17,1.71-.55.39-.81,1.09-.45,1.71.32.54,1.16.84,1.71.45h0Z"/><path class="cls-29" d="m455.96,383.14c1.54-1.02,3.15-1.31,4.92-1.71s3.3-1.33,4.86-2.32c.33-.21.65-.44,1.01-.62-.28.14.16-.04.27-.06.27-.07.11-.04.37-.06,1.55-.13,3.11.22,4.61.58s2.23-2.03.66-2.41c-2.43-.59-5.45-1.32-7.72.12-1.53.97-2.92,1.96-4.72,2.36-1.97.44-3.8.82-5.52,1.96-1.34.88-.08,3.05,1.26,2.16h0Z"/><path class="cls-29" d="m451.31,401.8c1.54-1.02,3.15-1.31,4.92-1.71s3.3-1.33,4.86-2.32c.33-.21.65-.44,1.01-.62-.28.14.16-.04.27-.06.27-.07.11-.04.37-.06,1.55-.13,3.11.22,4.61.58s2.23-2.03.66-2.41c-2.43-.59-5.45-1.32-7.72.12-1.53.97-2.92,1.96-4.72,2.36-1.97.44-3.8.82-5.52,1.96-1.34.88-.08,3.05,1.26,2.16h0Z"/><path class="cls-29" d="m447.94,412.4c2.08-1.6,4.29-2.48,6.74-3.34s4.58-2.27,6.7-3.85c.94-.7,1.84-1.52,2.98-1.85,2.13-.62,4.5-.36,6.66-.11,1.59.19,1.58-2.31,0-2.5-2.31-.27-4.74-.44-7.03.12-1.33.33-2.31,1.01-3.38,1.81-2.16,1.61-4.19,3.14-6.77,4.03s-4.98,1.85-7.17,3.53c-1.26.97-.01,3.14,1.26,2.16h0Z"/><path class="cls-29" d="m461.11,358.68c-.18-1.59-.72-2.93-1.44-4.34-.65-1.27-.78-2.48-.96-3.85-.11-.81-.26-1.5-.73-2.19-.81-1.18-1.92-2.08-3.04-2.94-.54-.41-1.4-.08-1.71.45-.38.64-.09,1.3.45,1.71s1.06.86,1.54,1.34c.35.36.51.54.7.84.05.08.1.17.15.25.02.04.13.27.05.08-.07-.17.04.2.07.26.09.17-.03-.24-.01-.13,0,.06.01.12.02.17.03.23.06.47.09.7.19,1.47.39,2.82,1.04,4.17.55,1.16,1.15,2.17,1.29,3.47.07.67.52,1.25,1.25,1.25.62,0,1.33-.57,1.25-1.25h0Z"/><path class="cls-29" d="m456.65,369.29c-.56-1.47-1.42-2.63-2.47-3.79s-1.38-2.15-1.91-3.44c-.32-.77-.64-1.43-1.28-1.99-1.08-.94-2.39-1.53-3.71-2.08-.62-.26-1.37.28-1.54.87-.2.72.25,1.28.87,1.54s1.25.56,1.83.91c.21.13.41.27.62.4.28.19-.15-.15.08.06.07.06.14.12.21.18.12.11.22.23.32.35-.26-.29,0,.04.06.14.14.19-.07-.2-.04-.11.02.07.06.14.09.21.09.22.18.43.26.65.57,1.42,1.14,2.69,2.16,3.85.2.23.4.44.6.67.1.12.21.24.31.36-.03-.03.26.34.14.17.39.53.74,1.1.97,1.72s.84,1.06,1.54.87c.6-.17,1.12-.9.87-1.54h0Z"/><path class="cls-29" d="m454.62,379.27c-.98-1.14-2.18-1.88-3.48-2.59s-2.16-1.74-3.13-2.82c-1.45-1.62-3.72-1.82-5.77-1.93-.67-.04-1.25.6-1.25,1.25,0,.71.57,1.21,1.25,1.25,1.11.06,2.26.15,3.29.58-.28-.12.13.08.21.12.05.03.1.07.15.1.19.09-.14-.19-.05-.03.15.25.46.5.66.72.98,1.1,1.92,2.11,3.22,2.84,1.18.66,2.22,1.24,3.12,2.28.44.51,1.32.45,1.77,0,.51-.51.44-1.25,0-1.77h0Z"/><path class="cls-29" d="m452.83,393.11c-1.26-1.64-2.81-2.59-4.59-3.57-.91-.5-1.73-1.1-2.4-1.91-.53-.63-1.01-1.3-1.54-1.94-1.66-1.98-5.1-2.09-7.44-2.27-1.6-.13-1.6,2.38,0,2.5,1.51.12,3.06.27,4.5.77.12.04.24.08.35.13-.23-.1.08.04.1.05.16.09.31.18.46.28-.26-.17,0,0,.09.1.11.12.21.25.31.38,1.16,1.43,2.2,2.8,3.81,3.77,1.49.9,3.1,1.54,4.19,2.97.41.53,1.08.82,1.71.45.53-.31.86-1.17.45-1.71h0Z"/><path class="cls-29" d="m447.83,410.69c-1.59-2.25-3.61-3.73-5.89-5.22s-3.6-3.41-5.16-5.5c-.75-1.01-1.51-1.78-2.65-2.33-2.13-1.03-4.51-1.44-6.83-1.76-.67-.09-1.33.16-1.54.87-.17.58.2,1.45.87,1.54,2.08.28,4.32.59,6.23,1.51,1.23.59,1.38.92,2.13,1.94,1.52,2.06,2.92,3.98,5.05,5.47s4.12,2.63,5.62,4.75c.92,1.3,3.09.06,2.16-1.26h0Z"/><line class="cls-1" x1="449.64" y1="402.52" x2="449.64" y2="402.52"/><path class="cls-29" d="m442.79,398.13c.71.08,1.41.26,2.01.66.14.09.31.24.46.43.26.32.39.7.52,1.08.3.92.74,1.69,1.58,2.21.69.42,1.49.59,2.29.64s.8-1.19,0-1.25c-.68-.05-1.42-.22-1.95-.69-.68-.61-.72-1.55-1.14-2.31-.77-1.36-2.3-1.86-3.76-2.02-.34-.04-.62.31-.62.62,0,.37.29.59.62.62h0Z"/><circle class="cls-8" cx="442.84" cy="396.36" r=".73"/><circle class="cls-8" cx="442.84" cy="398.23" r=".73"/><circle class="cls-8" cx="446.21" cy="397.98" r=".73"/><circle class="cls-8" cx="444.76" cy="397.09" r=".73"/><circle class="cls-8" cx="444.76" cy="399.29" r=".73"/><circle class="cls-8" cx="447.56" cy="400.39" r=".73"/><circle class="cls-8" cx="446.02" cy="401.41" r=".73"/><path class="cls-29" d="m454.36,390.85c1.54-1.02,3.15-1.31,4.92-1.71s3.3-1.33,4.86-2.32c.33-.21.65-.44,1.01-.62-.28.14.16-.04.27-.06.27-.07.11-.04.37-.06,1.55-.13,3.11.22,4.61.58s2.23-2.03.66-2.41c-2.43-.59-5.45-1.32-7.72.12-1.53.97-2.92,1.96-4.72,2.36-1.97.44-3.8.82-5.52,1.96-1.34.88-.08,3.05,1.26,2.16h0Z"/><circle class="cls-8" cx="471.55" cy="384.58" r="1.44"/><circle class="cls-8" cx="468.58" cy="386.63" r="1.44"/><circle class="cls-8" cx="466.66" cy="383.32" r="1.44"/><circle class="cls-8" cx="464.03" cy="386.63" r="1.44"/><circle class="cls-8" cx="459.7" cy="386.25" r="1.44"/><circle class="cls-8" cx="456.65" cy="390.2" r="1.44"/><circle class="cls-8" cx="442.79" cy="371.96" r="1.44"/><circle class="cls-8" cx="445.49" cy="375.43" r="1.44"/><circle class="cls-8" cx="449.42" cy="374.81" r="1.44"/><circle class="cls-8" cx="451.2" cy="379.57" r="1.44"/><path class="cls-29" d="m446.21,381.94c.71.08,1.41.26,2.01.66.14.09.31.24.46.43.26.32.39.7.52,1.08.3.92.74,1.69,1.58,2.21.69.42,1.49.59,2.29.64s.8-1.19,0-1.25c-.68-.05-1.42-.22-1.95-.69-.68-.61-.72-1.55-1.14-2.31-.77-1.36-2.3-1.86-3.76-2.02-.34-.04-.62.31-.62.62,0,.37.29.59.62.62h0Z"/><path class="cls-29" d="m464.95,363.07c-.57.51-1.22.97-1.98,1.12-.61.12-1.19-.09-1.76-.34-.79-.34-1.58-.5-2.44-.29s-1.53.72-2.13,1.3.31,1.45.88.88c.55-.53,1.22-1.01,2.01-1.04s1.41.46,2.13.65c1.57.42,3.03-.37,4.17-1.4.6-.54-.29-1.42-.88-.88h0Z"/><circle class="cls-8" cx="460.69" cy="363.68" r=".73"/><circle class="cls-8" cx="462.28" cy="365.3" r=".73"/><circle class="cls-8" cx="463.82" cy="363.68" r=".73"/><circle class="cls-8" cx="466.12" cy="363.84" r=".73"/><circle class="cls-8" cx="453.07" cy="347.54" r="1.44"/><circle class="cls-8" cx="457.08" cy="346.88" r="1.44"/><circle class="cls-8" cx="455.86" cy="351.63" r="1.44"/><circle class="cls-8" cx="460.59" cy="353.87" r="1.44"/><circle class="cls-8" cx="458.41" cy="356.79" r="1.44"/><circle class="cls-8" cx="469.28" cy="400.54" r="1.44"/><circle class="cls-8" cx="467.14" cy="403.19" r="1.44"/><circle class="cls-8" cx="463.76" cy="401.12" r="1.44"/><circle class="cls-8" cx="461.85" cy="404.63" r="1.44"/><circle class="cls-8" cx="458.22" cy="404.1" r="1.44"/><circle class="cls-8" cx="457.73" cy="407.62" r="1.44"/><circle class="cls-8" cx="454" cy="406.54" r="1.44"/><circle class="cls-8" cx="452.38" cy="410.05" r="1.44"/><circle class="cls-8" cx="449.83" cy="407.98" r="1.44"/><circle class="cls-8" cx="426.44" cy="395.7" r="1.44"/><circle class="cls-8" cx="429.84" cy="398.71" r="1.44"/><circle class="cls-8" cx="434.24" cy="397.51" r="1.44"/><circle class="cls-8" cx="434.37" cy="401.41" r="1.44"/><circle class="cls-8" cx="438.86" cy="402.13" r="1.44"/><circle class="cls-8" cx="439.73" cy="407.02" r="1.44"/><circle class="cls-8" cx="472.8" cy="353.87" r="1.44"/><circle class="cls-8" cx="464.55" cy="358.68" r="1.44"/><circle class="cls-8" cx="467.14" cy="354.58" r="1.44"/><path class="cls-36" d="m204.73,414.85c-2.22-19.94-4.24-39.9-6.06-59.88-.52-5.68-1.02-11.36-1.5-17.04l-.93,1.62c12.49-6.79,21.85-18.61,25.7-32.28.87-3.08,1.43-6.24,1.76-9.43.1-1.01-.93-1.88-1.88-1.88-1.1,0-1.77.86-1.88,1.88-1.34,13.36-8.34,26.03-19.04,34.24-2.07,1.59-4.27,2.99-6.56,4.24-.54.29-.98.99-.93,1.62,1.71,19.97,3.61,39.93,5.71,59.87.6,5.69,1.22,11.38,1.85,17.06.11,1.01.78,1.88,1.88,1.88.93,0,1.99-.86,1.88-1.88h0Z"/><path class="cls-36" d="m180.48,294.31c1.08,15.62,5.57,30.87,13.19,44.55l2.57-2.57c-7.42-4.53-15.23-8.37-23.38-11.42-3.75-1.4-7.6-2.57-11.32-4.08-2.34-.95-4.82-2.17-6.37-4.25-2.82-3.78-2.03-8.82-.65-13,.76-2.3-2.86-3.28-3.62-1-1.46,4.41-2.08,9.32-.18,13.7,1.27,2.92,3.58,5.09,6.35,6.58,3.33,1.79,7.03,2.9,10.58,4.14,4.04,1.41,8.03,2.93,11.92,4.7,5.08,2.31,9.99,4.94,14.75,7.85,1.64,1,3.46-.96,2.57-2.57-7.29-13.09-11.65-27.71-12.68-42.66-.16-2.39-3.92-2.41-3.75,0h0Z"/><path class="cls-36" d="m202.62,396.22c-5.88-10.25-14.18-20.25-25.92-23.74-3.38-1-6.94-1.39-10.46-1.27-3.3.11-6.55.67-9.83,1.03-2.97.33-6.01.48-8.91-.35s-5.61-2.69-7.67-5.01c-4.65-5.22-6.49-12.54-7.57-19.27-.16-1-1.41-1.56-2.31-1.31-1.06.3-1.47,1.3-1.31,2.31,1,6.24,2.71,12.66,6.26,17.97,3.73,5.58,9.39,9.31,16.18,9.65,6.6.33,13.04-1.8,19.68-1.14,5.02.5,9.63,2.47,13.72,5.35,6.35,4.48,11.07,11,14.9,17.66,1.2,2.09,4.44.21,3.24-1.89h0Z"/><path class="cls-36" d="m201.93,389.96c2.42-4.1,5.52-7.85,9.42-10.62,2.33-1.66,4.87-3,7.6-3.87,2.21-.7,4.49-1.11,6.74-1.63,3.68-.85,7.08-2.32,9.95-4.79,2.45-2.1,4.38-4.82,5.85-7.68,2.64-5.14,4.02-10.82,4.88-16.51.15-1.01-.25-2-1.31-2.31-.88-.25-2.16.31-2.31,1.31-1.18,7.88-3.33,16.84-9.54,22.34-.84.74-1.63,1.31-2.78,1.96-1.94,1.09-4.06,1.68-6.22,2.17-2.28.51-4.58.95-6.8,1.7-2.83.96-5.51,2.33-7.95,4.07-4.43,3.16-8.01,7.29-10.76,11.97-1.23,2.08,2.01,3.97,3.24,1.89h0Z"/><path class="cls-35" d="m177.05,289.1c-2.35,1.05-5.76,3.7-5.32,6.36.47,2.85,5.01,4.39,7.78,4.61,1.76.14,2-.31,4.35-.1,3.52.31,4.37,1.45,5.65.87,1.93-.87,2.83-4.67,1.69-7.48-1.31-3.2-4.89-4.13-6.72-4.61-1.28-.34-4.26-1.07-7.43.34Z"/><path class="cls-35" d="m126.1,340.55c-1.88,1.76-4.23,5.38-2.95,7.75,1.38,2.54,6.17,2.51,8.86,1.82,1.71-.44,1.79-.94,4.08-1.52,3.43-.86,4.6-.06,5.63-1.03,1.54-1.45,1.15-5.34-.85-7.62-2.28-2.6-5.97-2.31-7.86-2.16-1.32.1-4.38.38-6.91,2.75Z"/><path class="cls-35" d="m215.84,288.77c-2.35,1.05-5.76,3.7-5.32,6.36.47,2.85,5.01,4.39,7.78,4.61,1.76.14,2-.31,4.35-.1,3.52.31,4.37,1.45,5.65.87,1.93-.87,2.83-4.67,1.69-7.48-1.31-3.2-4.89-4.13-6.72-4.61-1.28-.34-4.26-1.07-7.43.34Z"/><path class="cls-35" d="m158.64,295.47c2.35,1.05,5.76,3.7,5.32,6.36-.47,2.85-5.01,4.39-7.78,4.61-1.76.14-2-.31-4.35-.1-3.52.31-4.37,1.45-5.65.87-1.93-.87-2.83-4.67-1.69-7.48,1.31-3.2,4.89-4.13,6.72-4.61,1.28-.34,4.26-1.07,7.43.34Z"/><path class="cls-35" d="m239.36,338.32c-2.35,1.05-5.76,3.7-5.32,6.36.13.81.66,1.01,7.78,4.61,2.44,1.23,3.57,1.81,5.32,1.9,1.03.05,3.05.16,4.68-1.13,2.13-1.69,2.68-5.04,1.69-7.48-1.31-3.2-4.89-4.13-6.72-4.61-1.28-.34-4.26-1.07-7.43.34Z"/><path class="cls-4" d="m138.55,415.49c-7.14,2.61-12.21,2.16-15.5,1.29-3.4-.9-6.25-2.6-13.28-4.26-5.24-1.24-6.73-1.01-7.38-.19-1.02,1.28.3,3.66,2.2,7.94,1.32,2.95,3.11,7.26,4.97,12.74-2.33.92-5.81,2.08-10.16,2.75-15.13,2.34-23.49-3.98-27.87-.41-2.64,2.15-3.93,7.96,1.85,23.92,8.29,10.16,19.57,22.09,34.45,33.65,20.65,16.04,40.71,25.53,55.73,31.21,9-4,17.99-8.01,26.99-12.01,2.53-12.28,5.06-24.56,7.59-36.84,4.29.83,12.11,1.74,20.97-1.06,8.37-2.64,20.26-9.41,19.54-15.73-.19-1.66-1.24-3.25-10.9-9.37-6.8-4.3-12.58-7.5-16.56-9.61,3-4.26,7.44-9.43,13.91-13.87,3.51-2.41,5.44-3.11,5.76-5.05.87-5.24-10.83-14.26-22.56-13.99-10.23.23-17,7.14-18.67,8.95-16.13-26.22-23.88-31.16-27.93-29.76-3.66,1.27-3.54,7.46-10.22,16.82-4.37,6.12-9.25,10.24-12.91,12.87Z"/><path class="cls-4" d="m345.48,470.42c3.67,1.28,9.83,2.73,16.67.83,1.8-.5,9.4-2.62,9.77-6.58.2-2.15-1.84-3.6-7.95-9.31-3.78-3.53-6.74-6.47-8.55-8.3,2.31-3.05,6.05-7.48,11.48-11.82,9.06-7.25,16.19-8.98,15.88-11.09-.25-1.66-5.06-3.39-26.86-3.17.69-1.75,1.8-4.44,3.35-7.62,4.51-9.3,7.57-12.2,6.73-13.57-.91-1.49-6.34-1.03-27.22,8.42-1.23-1.04-3.22-2.89-5.09-5.61-4.12-6-3.65-10.4-5.55-11.12-1.96-.75-6.37,2.42-17.57,22.04-3.14.19-7.89.04-12.84-2.17-10.54-4.7-12.98-14.66-16.9-14.26-2.89.29-6.32,6.2-8.55,31.35-4.36.33-12.14,1.51-19.95,6.54-7.38,4.75-17.07,14.41-14.71,20.32.62,1.55,2.05,2.81,12.99,6.17,7.69,2.36,14.11,3.93,18.51,4.91-1.77,4.9-4.7,11.05-9.77,17.04-2.63,3.1-3.87,5.86-4.23,6.38-4.17,6.07-11.72,20.23-26.17,52.79,14.16,1.66,36.31,3.6,60.06,2.74,16.19-.59,26.88-2.25,31.39-3.02,8.01-1.36,14.69-2.95,19.57-4.24,3.5-14.79,6.1-32.27,6.09-51.89,0-5.45-.2-10.7-.56-15.72Z"/><path class="cls-4" d="m212.74,432.2c-.9,1.18-2.28,2.71-4.3,3.97-5.36,3.34-10.23,1.3-11.16,3.78-.76,2.02.83,3.96,5.22,11.07,2.72,4.4,4.8,8.02,6.07,10.25-3.03,2.33-7.8,5.62-14.19,8.39-10.65,4.61-17.99,4.4-18.24,6.52-.2,1.66,4,4.6,25.08,10.13-1.12,1.51-2.9,3.81-5.23,6.48-.25.28-5.28,6.3-10.07,11.32-8.6,9.02-18.26,16.8-22.38,20.04,9.94,4.27,21.59,8.54,34.81,12.11,11.02,2.98,21.3,4.97,30.55,6.31l20.14-29.93c-.66-1.87-1.51-4.81-.54-5.48,1.34-.92,5.33,2.97,6.33,3.79,8.93,7.31,8.67,17.56,12.55,18.21,2.86.48,7.73-4.32,16.5-27.99,4.29.83,12.11,1.74,20.97-1.06,8.37-2.64,20.26-9.41,19.54-15.73-.19-1.66-1.24-3.25-10.9-9.37-6.8-4.3-12.58-7.5-16.56-9.61,3-4.26,7.44-9.43,13.91-13.87,3.51-2.41,5.44-3.11,5.76-5.05.87-5.24-10.83-14.26-22.56-13.99-10.23.23-17,7.14-18.67,8.95-16.13-26.22-23.88-31.16-27.93-29.76-4.48,1.56-3.1,10.7-10.22,16.82-6.5,5.58-16.2,5.3-24.48,3.71Z"/><path class="cls-14" d="m311.2,501.93c3.59,1.2,9.59,2.53,16.08.47,1.71-.54,8.92-2.82,9.1-6.8.1-2.16-1.94-3.57-8.09-9.15-3.81-3.46-6.79-6.34-8.61-8.13,2.08-3.1,5.47-7.62,10.49-12.09,8.38-7.46,15.16-9.35,14.76-11.45-.32-1.66-5.03-3.28-26-2.6.87-2.52,1.82-5.1,2.86-7.71,3.76-9.43,8.05-17.77,12.42-25.05-4.98,5.14-12.27,11.36-22.26,16.24-3.55,1.73-6.95,3.06-10.11,4.08-1.25-1.03-3.25-2.85-5.16-5.52-4.24-5.92-4-10.34-5.86-11.02-1.92-.71-6.01,2.56-15.88,22.46-3.02.26-7.59.21-12.46-1.9-10.36-4.48-13.18-14.41-16.92-13.93-2.76.36-5.79,6.34-6.76,31.59-4.18.42-11.61,1.77-18.89,6.99-6.87,4.92-15.75,14.8-13.2,20.67.67,1.54,2.11,2.77,12.78,5.9,7.51,2.2,13.76,3.63,18.04,4.52-1.48,4.95-4,11.18-8.6,17.28-2.5,3.31-4.05,4.53-3.77,6.49.7,4.84,13.81,10.71,24.84,7.02,9.1-3.04,13.31-11.46,14.43-13.91,22.51,20.37,31.2,23.13,34.46,20.65,2.97-2.26,1.02-8.18,4.34-19.07,2.17-7.12,5.41-12.47,7.98-16.04Z"/><path class="cls-14" d="m153,444.44c-2.65-1.88-7.27-4.48-13.16-4.45-1.55,0-8.09.04-9.25,3.24-.63,1.74.69,3.39,4.33,9.49,2.26,3.77,3.98,6.87,5.03,8.79-2.51,2-6.47,4.82-11.76,7.19-8.83,3.95-14.91,3.77-15.12,5.59-.16,1.43,3.31,3.94,20.8,8.68-5.84,9.18-6.35,12.07-5.51,12.84,1.09,1,4.13-1.82,8.95-1.48,3.22.23,5.77,1.75,7.48,3.07,3.59,9.05,6.45,10.9,8.42,10.87,1.79-.02,2.78-1.61,5.97-3.97,3.59-2.66,7.02-4.11,9.34-4.92,2.59.59,6.37,1.79,9.8,4.69,7.41,6.26,7.19,15.05,10.4,15.6,2.37.41,6.41-3.7,13.68-23.99,4.06.66,10.33,1.11,17.39-.91,11.9-3.41,22.93-12.75,21.43-17.44-.85-2.68-5.16-1.85-11.86-6.08-4.9-3.1-7.99-6.95-9.75-9.52.82-2.51,2.29-5.75,5.13-8.59,2.73-2.72,4.52-2.76,4.77-4.33.72-4.49-8.98-12.22-18.71-11.99-8.48.2-14.1,6.12-15.48,7.67-13.37-22.48-19.81-26.71-23.16-25.5-3.03,1.09-2.94,6.4-8.47,14.41-3.62,5.24-7.67,8.78-10.7,11.03Z"/><path class="cls-24" d="m107.13,425.54c-1.93-1.44-5.28-3.41-9.56-3.39-1.13,0-5.88.03-6.72,2.47-.46,1.32.5,2.58,3.15,7.23,1.64,2.88,2.89,5.24,3.65,6.7-1.82,1.52-4.7,3.67-8.55,5.48-6.42,3.01-10.84,2.88-10.99,4.26-.12,1.09,2.41,3,15.11,6.61-.68.98-1.75,2.49-3.15,4.23-4.1,5.08-6.34,6.39-6.07,7.39.29,1.09,3.52,1.74,17.16-.63.55.87,1.41,2.37,2.07,4.41,1.44,4.48.48,7.18,1.46,7.96,1.02.81,4.09-.43,13.71-10.86,1.86.42,4.59,1.33,7.12,3.58,5.38,4.77,5.22,11.47,7.56,11.89,1.72.31,4.66-2.82,9.94-18.28,2.59.54,7.3,1.13,12.63-.69,5.04-1.73,12.21-6.14,11.77-10.27-.11-1.08-.75-2.12-6.57-6.12-4.1-2.81-7.58-4.9-9.98-6.27,1.81-2.78,4.48-6.16,8.38-9.06,2.12-1.57,3.28-2.03,3.47-3.3.52-3.42-6.53-9.31-13.6-9.13-6.16.15-10.24,4.66-11.25,5.84-9.72-17.13-14.39-20.35-16.83-19.43-2.2.83-2.14,4.87-6.16,10.98-2.63,3.99-5.57,6.69-7.78,8.4Z"/><path class="cls-24" d="m185.62,474c-1.93-1.44-5.28-3.41-9.56-3.39-1.13,0-5.88.03-6.72,2.47-.46,1.32.5,2.58,3.15,7.23,1.64,2.88,2.89,5.24,3.65,6.7-1.82,1.52-4.7,3.67-8.55,5.48-6.42,3.01-10.84,2.88-10.99,4.26-.12,1.09,2.41,3,15.11,6.61-.68.98-1.75,2.49-3.15,4.23-4.1,5.08-6.34,6.39-6.07,7.39.29,1.09,3.52,1.74,17.16-.63.55.87,1.41,2.37,2.07,4.41,1.44,4.48.48,7.18,1.46,7.96,1.02.81,4.09-.43,13.71-10.86,1.86.42,4.59,1.33,7.12,3.58,5.38,4.77,5.22,11.47,7.56,11.89,1.72.31,4.66-2.82,9.94-18.28,2.59.54,7.3,1.13,12.63-.69,5.04-1.73,12.21-6.14,11.77-10.27-.11-1.08-.75-2.12-6.57-6.12-4.1-2.81-7.58-4.9-9.98-6.27,1.81-2.78,4.48-6.16,8.38-9.06,2.12-1.57,3.28-2.03,3.47-3.3.52-3.42-6.53-9.31-13.6-9.13-6.16.15-10.24,4.66-11.25,5.84-1.01-1.95-2.47-4.56-4.48-7.49-3.34-4.88-8.88-12.99-12.35-11.94-2.09.63-1.55,3.99-6.16,10.98-2.63,3.99-5.57,6.69-7.78,8.4Z"/><path class="cls-4" d="m348.04,449.93c-3.38.51-8.77,1.92-13.29,6.23-1.19,1.13-6.21,5.91-4.85,9.15.74,1.76,2.93,2.04,10.04,3.97,4.41,1.19,7.92,2.26,10.09,2.93-.52,3.32-1.59,8.31-4,13.94-3.36,7.86-6.52,13.2-7.72,15.18-3.94,6.54-7.38,17.75-4.78,38.2,12.8-2.81,27.73-7.07,43.86-13.69,20.12-8.26,36.53-17.89,49.19-26.55-9.26-6.48-18.52-12.96-27.77-19.44,2.36-1.44,6.11-3.28,10.87-3.6,10.14-.69,16.17,6.06,19.04,4.14,2.12-1.42,2.33-7.43-6.39-27.93,3.25-2.05,8.8-6.18,12.77-13.32,3.75-6.74,7.26-18.25,2.98-21.88-1.12-.95-2.76-1.34-12.65.55-6.95,1.33-12.59,2.76-16.41,3.8-.66-4.54-.95-10.54.5-17.29.79-3.66,1.6-5.27.63-6.71-2.61-3.89-15.56-2.63-22.9,4.61-6.4,6.31-6.55,14.83-6.52,17-26.19-7.13-34.14-5.63-35.88-2.29-1.57,3.02,2.25,6.93,3.64,16.96.91,6.56.28,12.15-.47,16.04Z"/><path class="cls-4" d="m420.41,432.06c-2.33-1.19-6.27-2.68-10.66-1.71-1.16.26-6.04,1.34-6.32,4.27-.15,1.59,1.14,2.81,5,7.46,2.39,2.88,4.25,5.27,5.39,6.75-1.51,2.12-3.95,5.18-7.47,8.07-5.87,4.82-10.46,5.64-10.28,7.24.14,1.25,3.21,2.86,17.16,4.12-.46,1.26-1.2,3.19-2.22,5.47-2.98,6.64-4.97,8.61-4.45,9.69.57,1.17,4.05,1.18,17.51-4.5.78.85,2.03,2.36,3.2,4.52,2.57,4.74,2.23,8,3.44,8.66,1.24.69,4.1-1.39,11.48-15.3,1.4.04,3.3.26,5.39,1.06.78.3,1.44,1.26,2.22,1.05.72-.19,1.04-1.11,1.13-1.36,1.13-2.85,7.89-5.74,8.55-6.04,3.02-1.35,9.59-7.12,25.01-26.15-5.08-1.77-10.15-3.53-15.23-5.29,1.18-3.54,3.12-7.94,6.43-12.08,1.8-2.25,2.88-3.02,2.77-4.49-.29-3.98-8.98-9.06-16.21-7.3-6.31,1.54-9.41,7.53-10.16,9.08-14.16-17.18-19.76-19.78-22.04-18.21-2.07,1.42-1.01,5.97-3.67,13.76-1.74,5.09-4.11,8.78-5.97,11.21Z"/><path class="cls-4" d="m511.97,405.11c-2.07-.88-4.72-2.41-6.62-5.15-3.24-4.69-2.06-9.56-3.46-10.09-1.22-.46-3.75,1.94-9.58,15.34-1.15-.08-3.1-.31-5.44-1.07-5.13-1.66-7.13-4.25-8.46-3.9-1.37.36-2.01,3.84,2.24,18.99-1.5,1.34-3.99,3.13-7.63,3.87-7.74,1.58-14.04-2.91-15.83-1.15-1.32,1.3-.07,5.88,11.54,20.53-5.96,2.14-8.33,8.08-6.83,11.45,1.56,3.49,7.96,5.72,13.61,2.2,5.69-6.28,11.62-13.42,17.54-21.48,7.64-10.39,13.85-20.4,18.91-29.55Z"/><path class="cls-14" d="m353.22,511.15c2.14,2.89,6.08,7.15,12.18,8.85,1.61.45,8.37,2.33,10.59-.89,1.21-1.75.37-3.99-1.45-11.88-1.13-4.88-1.92-8.85-2.39-11.3,3.23-1.49,8.22-3.48,14.44-4.56,10.38-1.81,16.61.18,17.4-1.79.62-1.55-2.17-5.38-18.72-15.83,1.38-1.17,3.53-2.94,6.25-4.92,7.95-5.79,11.68-6.79,11.72-8.38.04-1.72-4.28-3.98-24.66-6.04-.42-1.49-1.02-4.05-1.1-7.31-.17-7.16,2.33-10.72,1.25-12.27-1.11-1.6-5.99-1.02-24.04,10.37-2.47-1.37-5.97-3.81-8.63-8.13-5.66-9.18-2.63-18.93-5.77-20.5-2.32-1.16-7.8,2.24-21.78,22.77-7.95,4.2-14.58,5.33-19.29,5.55-9.01.41-18.96-2.15-20,.63-.1.27-.07.5-.06.72.02,1.55,1.17,3.86,6.85,10.92,4.65,5.78,8.73,10.26,11.56,13.25-3.73,3.35-8.95,7.21-15.7,9.88-3.67,1.45-5.51,1.65-6.31,3.43-2.18,4.8,5.38,16.3,15.51,18.91,8.83,2.28,16.52-2.68,18.44-4,6.65,29.05,11.95,35.68,15.8,35.32,3.48-.32,5.08-6.28,13.35-13.61,5.41-4.79,10.72-7.54,14.57-9.17Z"/><path class="cls-14" d="m462.95,469.19c-2.4-1.8-4.8-3.61-7.21-5.41.31-.46.77-1.11,1.35-1.88,1.51-2,3.59-4.44,6.35-6.93,6.17-5.56,11.2-7.27,10.88-8.66-.25-1.09-3.78-1.88-19.39-.05.42-1.23,1.09-3.11,2.06-5.37,2.82-6.58,4.88-8.76,4.22-9.62-.72-.93-4.59-.2-19.13,7.75-.93-.6-2.44-1.69-3.9-3.37-3.21-3.7-3.08-6.69-4.47-7.03-1.43-.35-4.45,2.12-11.61,16.13-2.24.37-5.65.64-9.3-.46-7.5-2.26-9.58-8.63-12.74-8.25-2.31.28-5.21,4.15-7.26,21.21-2.53.02-9.25.44-14.68,5.37-4.71,4.26-8.59,12.01-6.43,15.77.1.17.19.32.24.37.66.82,2.37,1.54,9.34,2.76,5.61.99,10.28,1.54,13.48,1.86-1.05,3.42-2.88,7.77-6.24,12.17-1.83,2.39-2.97,3.31-2.74,4.61.62,3.5,10.66,6.21,18.57,3.1,6.89-2.71,9.9-8.74,10.61-10.29,2.1,3.24,4.19,6.48,6.29,9.72,7.42-4.59,15.57-10.24,23.99-17.17,6.75-5.56,12.64-11.1,17.72-16.33Z"/><path class="cls-24" d="m314.03,454.69c2.4-.09,6.25-.66,9.57-3.37.87-.71,4.55-3.72,3.68-6.14-.47-1.32-2.01-1.7-6.99-3.65-3.08-1.21-5.54-2.26-7.05-2.92.46-2.33,1.35-5.81,3.21-9.63,3.1-6.37,6.63-9.04,5.88-10.21-.59-.92-3.76-.83-15.91,4.34-.09-1.19-.2-3.03-.2-5.27,0-6.53.92-8.95.08-9.56-.92-.67-3.83.86-12.96,11.26-.97-.33-2.59-.96-4.38-2.13-3.94-2.58-4.88-5.29-6.14-5.28-1.3.01-2.91,2.9-3.85,17.06-1.71.84-4.41,1.85-7.79,1.69-7.19-.33-11.27-5.64-13.35-4.5-1.54.84-1.85,5.12,3.74,20.47-2.36,1.2-6.39,3.7-9.4,8.47-2.84,4.51-5.64,12.45-2.71,15.39.77.77,1.92,1.18,8.96.64,4.95-.39,8.98-.95,11.71-1.38.34,3.3.38,7.61-.83,12.31-.66,2.55-1.27,3.64-.63,4.74,1.74,2.99,10.93,3.15,16.32-1.43,4.7-3.99,5.04-10.06,5.08-11.61,18.32,7.23,23.98,6.8,25.3,4.55,1.19-2.03-1.4-5.13-2.1-12.41-.46-4.76.14-8.7.77-11.42Z"/><path class="cls-24" d="m347.21,530.18c2.4-.09,6.25-.66,9.57-3.37.87-.71,4.55-3.72,3.68-6.14-.47-1.32-2.01-1.7-6.99-3.65-3.08-1.21-5.54-2.26-7.05-2.92.46-2.33,1.35-5.81,3.21-9.63,3.1-6.37,6.63-9.04,5.88-10.21-.59-.92-3.76-.83-15.91,4.34-.09-1.19-.2-3.03-.2-5.27,0-6.53.92-8.95.08-9.56-.92-.67-3.83.86-12.96,11.26-.97-.33-2.59-.96-4.38-2.13-3.94-2.58-4.6-5.13-6.14-5.28-1.69-.16-4.26,2.62-8.18,14.87-1.73.19-4.32.37-7.45.17-5.97-.37-7.98-1.72-9.35-.79-1.72,1.16-2.09,5.71,3.74,20.47-2.25,1.25-6.16,3.82-9.4,8.47-4.23,6.08-4.87,12.2-4.99,14.84,10.63-.02,22.98-.73,36.58-2.82,12.57-1.93,23.73-4.65,33.31-7.54-1.01-1.7-2.02-3.4-3.04-5.1Z"/><path class="cls-24" d="m403.45,435.07c.41-2.37.66-6.25-1.29-10.06-.51-1-2.68-5.23-5.24-4.89-1.39.19-2.08,1.61-5.03,6.07-1.83,2.76-3.37,4.95-4.32,6.28-2.18-.94-5.4-2.54-8.75-5.15-5.58-4.36-7.46-8.37-8.76-7.88-1.02.38-1.59,3.5.92,16.47-1.18-.16-3.01-.44-5.2-.9-6.38-1.36-8.56-2.77-9.34-2.07-.84.76.04,3.93,8.3,15.03-.52.88-1.48,2.33-3,3.84-3.35,3.31-6.19,3.66-6.44,4.9-.26,1.27,2.23,3.45,15.88,7.33.46,1.85.89,4.7.03,7.97-1.83,6.96-7.87,9.84-7.19,12.11.5,1.68,4.62,2.88,20.8.62.34,1.93,1.56,7.33,6.32,10.96,4.02,3.06,10.49,4.82,12.7,2.46,1.28-1.36.27-3.18.64-6.72.48-4.57,2.85-8.05,4.73-10.23,3.3.36,7.52,1.22,11.86,3.39,2.36,1.18,3.29,2.01,4.51,1.61,3.29-1.08,5.36-10.03,2.01-16.26-2.92-5.43-8.79-7.03-10.29-7.4,10.89-16.4,11.66-22.03,9.74-23.79-1.74-1.59-5.31.3-12.58-.54-4.75-.54-8.48-1.95-11.01-3.14Z"/><path class="cls-24" d="m496.35,430.08c1.32-5.74,1.32-8.96-.01-9.66-1.83-.97-6.15,2.79-12.96,11.26-.97-.33-2.59-.96-4.38-2.13-3.94-2.58-4.88-5.29-6.14-5.28-1.3.01-2.91,2.9-3.85,17.06-1.71.84-4.41,1.85-7.79,1.69-7.19-.33-11.27-5.64-13.35-4.5-1.54.84-1.85,5.12,3.74,20.47-2.36,1.2-6.39,3.7-9.4,8.47-2.84,4.51-5.64,12.45-2.71,15.39.09.09.19.16.36.3,1.93,1.55,3.94,2.14,5.37,2.38,8.54-7.14,17.85-15.75,27.31-26,9.5-10.3,17.36-20.32,23.81-29.45Z"/><circle class="cls-8" cx="219.25" cy="290.23" r=".73"/><circle class="cls-8" cx="222.14" cy="291.79" r=".73"/><circle class="cls-8" cx="224.3" cy="290.03" r=".73"/><circle class="cls-8" cx="225.38" cy="293.11" r=".73"/><circle class="cls-8" cx="227.18" cy="291.06" r=".73"/><circle class="cls-8" cx="216.43" cy="289.7" r=".73"/><circle class="cls-8" cx="218.15" cy="292.38" r=".73"/><circle class="cls-8" cx="221.62" cy="288.98" r=".73"/><circle class="cls-8" cx="213.92" cy="291.18" r=".73"/><circle class="cls-8" cx="215.58" cy="293.03" r=".73"/><circle class="cls-8" cx="212.51" cy="293.58" r=".73"/><circle class="cls-8" cx="213.73" cy="296.71" r=".73"/><circle class="cls-8" cx="216.32" cy="295.61" r=".73"/><circle class="cls-8" cx="217.42" cy="298.34" r=".73"/><circle class="cls-8" cx="219.41" cy="294.77" r=".73"/><circle class="cls-8" cx="220.79" cy="296.71" r=".73"/><circle class="cls-8" cx="222.42" cy="298.55" r=".73"/><circle class="cls-8" cx="223.06" cy="294.92" r=".73"/><circle class="cls-8" cx="224.88" cy="297.16" r=".73"/><circle class="cls-8" cx="227.25" cy="299.46" r=".73"/><circle class="cls-8" cx="228.89" cy="297.09" r=".73"/><circle class="cls-8" cx="226.83" cy="295.31" r=".73"/><circle class="cls-8" cx="228.65" cy="293.58" r=".73"/><circle class="cls-8" cx="188.52" cy="299.15" r=".73"/><circle class="cls-8" cx="185.65" cy="297.71" r=".73"/><circle class="cls-8" cx="190.18" cy="295.98" r=".73"/><circle class="cls-8" cx="186.9" cy="293.96" r=".73"/><circle class="cls-8" cx="189.58" cy="292.81" r=".73"/><circle class="cls-8" cx="182.73" cy="298.67" r=".73"/><circle class="cls-8" cx="183.53" cy="295.47" r=".73"/><circle class="cls-8" cx="184.75" cy="292.45" r=".73"/><circle class="cls-8" cx="187.35" cy="291.48" r=".73"/><circle class="cls-8" cx="184.05" cy="289.86" r=".73"/><circle class="cls-8" cx="180.4" cy="289.29" r=".73"/><circle class="cls-8" cx="182.11" cy="291.71" r=".73"/><circle class="cls-8" cx="178.56" cy="298.55" r=".73"/><circle class="cls-8" cx="180.74" cy="296.59" r=".73"/><circle class="cls-8" cx="179.99" cy="293.73" r=".73"/><circle class="cls-8" cx="178.56" cy="291.32" r=".73"/><circle class="cls-8" cx="175.73" cy="290.98" r=".73"/><circle class="cls-8" cx="176.54" cy="293.23" r=".73"/><circle class="cls-8" cx="173.62" cy="293.6" r=".73"/><circle class="cls-8" cx="177.78" cy="295.59" r=".73"/><circle class="cls-8" cx="173.62" cy="296.2" r=".73"/><circle class="cls-8" cx="175.98" cy="297.54" r=".73"/><circle class="cls-8" cx="187.79" cy="296.56" r=".73"/><circle class="cls-8" cx="147.32" cy="298.59" r=".73"/><circle class="cls-8" cx="145.44" cy="300.87" r=".73"/><circle class="cls-8" cx="148.7" cy="301.01" r=".73"/><circle class="cls-8" cx="145.44" cy="303.64" r=".73"/><circle class="cls-8" cx="146.85" cy="306.08" r=".73"/><circle class="cls-8" cx="148.5" cy="303.96" r=".73"/><circle class="cls-8" cx="150.77" cy="305.13" r=".73"/><circle class="cls-8" cx="150.05" cy="296.78" r=".73"/><circle class="cls-8" cx="151.19" cy="299.32" r=".73"/><circle class="cls-8" cx="151.4" cy="302.22" r=".73"/><circle class="cls-8" cx="153.99" cy="304.92" r=".73"/><circle class="cls-8" cx="154.15" cy="302.47" r=".73"/><circle class="cls-8" cx="154.15" cy="299.26" r=".73"/><circle class="cls-8" cx="152.91" cy="297.19" r=".73"/><circle class="cls-8" cx="155.1" cy="295.67" r=".73"/><circle class="cls-8" cx="159.15" cy="297" r=".73"/><circle class="cls-8" cx="159.69" cy="299.26" r=".73"/><circle class="cls-8" cx="156.5" cy="297.5" r=".73"/><circle class="cls-8" cx="156.5" cy="300.58" r=".73"/><circle class="cls-8" cx="162.18" cy="302.91" r=".73"/><circle class="cls-8" cx="162.34" cy="300.02" r=".73"/><circle class="cls-8" cx="159.97" cy="301.67" r=".73"/><circle class="cls-8" cx="157.55" cy="302.75" r=".73"/><circle class="cls-8" cx="159.33" cy="304.57" r=".73"/><circle class="cls-8" cx="156.85" cy="304.92" r=".73"/><circle class="cls-8" cx="137.43" cy="339.6" r=".73"/><circle class="cls-8" cx="136.65" cy="342.23" r=".73"/><circle class="cls-8" cx="139.94" cy="341.12" r=".73"/><circle class="cls-8" cx="139.04" cy="343.79" r=".73"/><circle class="cls-8" cx="141.4" cy="345.64" r=".73"/><circle class="cls-8" cx="138.73" cy="346.91" r=".73"/><circle class="cls-8" cx="136.16" cy="345.34" r=".73"/><circle class="cls-8" cx="134.01" cy="347.84" r=".73"/><circle class="cls-8" cx="133.28" cy="345.34" r=".73"/><circle class="cls-8" cx="134.01" cy="342.23" r=".73"/><circle class="cls-8" cx="134.91" cy="339.4" r=".73"/><circle class="cls-8" cx="130.76" cy="339.22" r=".73"/><circle class="cls-8" cx="131.69" cy="341.49" r=".73"/><circle class="cls-8" cx="127.88" cy="340.62" r=".73"/><circle class="cls-8" cx="129.2" cy="342.87" r=".73"/><circle class="cls-8" cx="125.99" cy="342.6" r=".73"/><circle class="cls-8" cx="131.37" cy="343.79" r=".73"/><circle class="cls-8" cx="124.52" cy="344.71" r=".73"/><circle class="cls-8" cx="127.59" cy="345" r=".73"/><circle class="cls-8" cx="130.44" cy="345.97" r=".73"/><circle class="cls-8" cx="123.96" cy="347.54" r=".73"/><circle class="cls-8" cx="127.16" cy="349.25" r=".73"/><circle class="cls-8" cx="130.84" cy="349" r=".73"/><circle class="cls-8" cx="126.89" cy="347.12" r=".73"/><circle class="cls-8" cx="244.49" cy="339.15" r=".73"/><circle class="cls-8" cx="240.51" cy="339.15" r=".73"/><circle class="cls-8" cx="244.49" cy="341.74" r=".73"/><circle class="cls-8" cx="237.22" cy="340.86" r=".73"/><circle class="cls-8" cx="241.23" cy="341.64" r=".73"/><circle class="cls-8" cx="235.6" cy="343.44" r=".73"/><circle class="cls-8" cx="237.88" cy="345.82" r=".73"/><circle class="cls-8" cx="241.79" cy="345.3" r=".73"/><circle class="cls-8" cx="239.08" cy="343.44" r=".73"/><circle class="cls-8" cx="240.51" cy="347.54" r=".73"/><circle class="cls-8" cx="247.53" cy="339.47" r=".73"/><circle class="cls-8" cx="245.25" cy="344.84" r=".73"/><circle class="cls-8" cx="244" cy="347.93" r=".73"/><circle class="cls-8" cx="246.64" cy="349.68" r=".73"/><circle class="cls-8" cx="248" cy="342.97" r=".73"/><circle class="cls-8" cx="250.67" cy="341.42" r=".73"/><circle class="cls-8" cx="252.54" cy="344.45" r=".73"/><circle class="cls-8" cx="249.82" cy="345.55" r=".73"/><circle class="cls-8" cx="247.06" cy="346.91" r=".73"/><circle class="cls-8" cx="249.82" cy="349.26" r=".73"/><circle class="cls-8" cx="251.84" cy="347.54" r=".73"/><ellipse class="cls-21" cx="326.95" cy="328.31" rx="2.27" ry="3.05" transform="translate(-100.09 508.07) rotate(-67.95)"/><ellipse class="cls-21" cx="318.74" cy="328.73" rx="2.27" ry="3.05" transform="translate(-105.62 500.72) rotate(-67.95)"/><ellipse class="cls-21" cx="324.23" cy="335.02" rx="2.27" ry="3.05" transform="translate(-108.02 509.74) rotate(-67.95)"/><ellipse class="cls-21" cx="333.07" cy="334.54" rx="2.27" ry="3.05" transform="translate(-102.05 517.63) rotate(-67.95)"/><ellipse class="cls-21" cx="315.81" cy="335.97" rx="2.27" ry="3.05" transform="translate(-114.16 502.53) rotate(-67.95)"/><ellipse class="cls-21" cx="323.23" cy="342.78" rx="3.05" ry="2.27" transform="translate(-84.88 107.35) rotate(-16.7)"/><ellipse class="cls-21" cx="331.98" cy="342.52" rx="3.05" ry="2.27" transform="translate(-84.43 109.86) rotate(-16.7)"/><ellipse class="cls-21" cx="371.72" cy="354.04" rx="1.68" ry="2.31" transform="translate(-134.58 269.31) rotate(-34.1)"/><ellipse class="cls-21" cx="377.18" cy="356.17" rx="1.68" ry="2.31" transform="translate(-134.84 272.74) rotate(-34.1)"/><ellipse class="cls-21" cx="375.25" cy="349.89" rx="1.68" ry="2.31" transform="translate(-131.65 270.58) rotate(-34.1)"/><ellipse class="cls-21" cx="369.36" cy="347.63" rx="1.68" ry="2.31" transform="translate(-131.39 266.89) rotate(-34.1)"/><ellipse class="cls-21" cx="380.98" cy="351.69" rx="1.68" ry="2.31" transform="translate(-131.67 274.1) rotate(-34.1)"/><ellipse class="cls-21" cx="373.86" cy="343.31" rx="1.8" ry="2.15" transform="translate(-23.6 658.99) rotate(-81.02)"/><ellipse class="cls-21" cx="379.25" cy="345.18" rx="1.6" ry="2.42" transform="translate(-45.1 57.25) rotate(-8.15)"/><ellipse class="cls-21" cx="267.14" cy="390.8" rx="2.27" ry="3.05" transform="translate(-199.64 312.04) rotate(-46.07)"/><ellipse class="cls-21" cx="274.92" cy="393.47" rx="2.27" ry="3.05" transform="translate(-199.19 318.47) rotate(-46.07)"/><ellipse class="cls-21" cx="272.16" cy="385.58" rx="2.27" ry="3.05" transform="translate(-194.35 314.07) rotate(-46.07)"/><ellipse class="cls-21" cx="263.78" cy="382.74" rx="2.27" ry="3.05" transform="translate(-194.87 307.16) rotate(-46.07)"/><ellipse class="cls-21" cx="280.34" cy="387.85" rx="2.27" ry="3.05" transform="translate(-193.47 320.65) rotate(-46.07)"/><ellipse class="cls-21" cx="270.19" cy="377.31" rx="2.27" ry="3.05" transform="translate(-129.96 612.35) rotate(-84.82)"/><ellipse class="cls-21" cx="277.87" cy="379.67" rx="2.27" ry="3.05" transform="translate(-71.39 64.43) rotate(-11.73)"/><ellipse class="cls-21" cx="295.07" cy="362.31" rx="2.2" ry="1.61" transform="translate(-152.69 228.72) rotate(-34.23)"/><ellipse class="cls-21" cx="292.58" cy="367.48" rx="2.2" ry="1.61" transform="translate(-156.03 228.21) rotate(-34.23)"/><ellipse class="cls-21" cx="298.58" cy="366.08" rx="2.2" ry="1.61" transform="translate(-154.2 231.35) rotate(-34.23)"/><ellipse class="cls-21" cx="301.23" cy="360.5" rx="2.2" ry="1.61" transform="translate(-150.61 231.87) rotate(-34.23)"/><ellipse class="cls-21" cx="296.36" cy="371.55" rx="2.2" ry="1.61" transform="translate(-157.67 231.05) rotate(-34.23)"/><ellipse class="cls-21" cx="304.81" cy="365.24" rx="2.11" ry="1.68" transform="translate(-121.72 575.91) rotate(-76.44)"/><ellipse class="cls-21" cx="302.56" cy="370.37" rx="2.26" ry="1.57" transform="translate(-32.62 29.24) rotate(-5.25)"/><ellipse class="cls-21" cx="315.87" cy="397.67" rx="2.26" ry="1.55" transform="translate(-185.16 314.67) rotate(-42.13)"/><ellipse class="cls-21" cx="311.69" cy="403.15" rx="2.26" ry="1.55" transform="translate(-189.91 313.28) rotate(-42.13)"/><ellipse class="cls-21" cx="319.64" cy="392.21" rx="2.26" ry="1.55" transform="translate(-180.52 315.79) rotate(-42.13)"/><ellipse class="cls-21" cx="310.38" cy="397.14" rx="2.42" ry="1.45" transform="translate(-180.66 510.87) rotate(-65.03)"/><ellipse class="cls-21" cx="314.06" cy="392.06" rx="2" ry="1.75" transform="translate(-65.92 63.48) rotate(-10.45)"/><ellipse class="cls-21" cx="328.74" cy="365.87" rx="3.05" ry="2.27" transform="translate(-133.67 198.21) rotate(-28.13)"/><ellipse class="cls-21" cx="323.81" cy="372.45" rx="3.05" ry="2.27" transform="translate(-137.35 196.66) rotate(-28.13)"/><ellipse class="cls-21" cx="332.16" cy="372.26" rx="3.05" ry="2.27" transform="translate(-136.27 200.57) rotate(-28.13)"/><ellipse class="cls-21" cx="337.45" cy="365.16" rx="3.05" ry="2.27" transform="translate(-132.3 202.23) rotate(-28.13)"/><ellipse class="cls-21" cx="327.49" cy="379.34" rx="3.05" ry="2.27" transform="translate(-140.16 199.21) rotate(-28.13)"/><ellipse class="cls-21" cx="340.64" cy="372.93" rx="3.05" ry="2.27" transform="translate(-136.08 539.82) rotate(-66.88)"/><ellipse class="cls-21" cx="336.03" cy="379.51" rx="2.27" ry="3.05" transform="translate(-77.58 672.54) rotate(-83.79)"/><ellipse class="cls-21" cx="376.06" cy="407.74" rx="2.27" ry="3.05" transform="translate(-178.49 395.67) rotate(-46.07)"/><ellipse class="cls-21" cx="381.09" cy="402.52" rx="2.27" ry="3.05" transform="translate(-173.19 397.69) rotate(-46.07)"/><ellipse class="cls-21" cx="372.7" cy="399.68" rx="2.27" ry="3.05" transform="translate(-173.71 390.79) rotate(-46.07)"/><ellipse class="cls-21" cx="379.11" cy="394.24" rx="2.27" ry="3.05" transform="translate(-47.73 736.23) rotate(-84.82)"/><ellipse class="cls-21" cx="386.79" cy="396.6" rx="2.27" ry="3.05" transform="translate(-72.56 86.93) rotate(-11.73)"/><ellipse class="cls-21" cx="358.99" cy="373.93" rx="1.83" ry="1.36" transform="translate(-158.86 351.01) rotate(-43.63)"/><ellipse class="cls-21" cx="357.3" cy="378.52" rx="1.83" ry="1.36" transform="translate(-162.5 351.11) rotate(-43.63)"/><ellipse class="cls-21" cx="362.08" cy="376.97" rx="1.83" ry="1.36" transform="translate(-160.11 353.98) rotate(-43.63)"/><ellipse class="cls-21" cx="363.89" cy="372.02" rx="1.83" ry="1.36" transform="translate(-156.19 353.86) rotate(-43.63)"/><ellipse class="cls-21" cx="360.63" cy="381.8" rx="1.83" ry="1.36" transform="translate(-163.84 354.31) rotate(-43.63)"/><ellipse class="cls-21" cx="367.09" cy="375.89" rx="1.82" ry="1.37" transform="translate(-48.24 697.67) rotate(-83.45)"/><ellipse class="cls-21" cx="365.58" cy="380.42" rx="1.84" ry="1.35" transform="translate(-61.52 70.65) rotate(-10.19)"/><path class="cls-9" d="m457.3,246.81c-.33.37-.81.9-1.4,1.53-.99,1.06-1.14,1.18-1.28,1.27-.63.42-1.16.44-2.62.49-2.75.1-2.9.11-2.94.21-.17.45,1.95,2,4.57,2.11.71.03,1.58.06,2.63-.42,2.06-.93,3.1-3,3.38-3.58-.79-.54-1.57-1.08-2.36-1.61Z"/><path class="cls-9" d="m453.06,242.45c-.45.21-1.09.5-1.86.84-1.31.57-1.5.62-1.65.65-.74.13-1.23-.07-2.59-.63-2.57-1.04-2.71-1.09-2.78-1.01-.32.34,1.04,2.64,3.41,3.81.64.32,1.43.7,2.58.7,2.24,0,3.98-1.48,4.46-1.91-.52-.82-1.04-1.63-1.56-2.45Z"/><path class="cls-9" d="m452.47,237.52c-.48-.09-1.17-.22-1.99-.39-1.39-.29-1.57-.36-1.72-.43-.68-.32-.98-.77-1.82-2.03-1.57-2.36-1.66-2.48-1.77-2.46-.45.1-.54,2.8.79,5.15.36.64.81,1.42,1.77,2.08,1.86,1.3,4.1,1.09,4.72,1.01,0-.98.01-1.96.02-2.94Z"/><path class="cls-9" d="m472.42,246.86c.33.37.81.9,1.4,1.53.99,1.06,1.14,1.18,1.28,1.27.63.42,1.16.44,2.62.49,2.75.1,2.9.11,2.94.21.17.45-1.95,2-4.57,2.11-.71.03-1.58.06-2.63-.42-2.06-.93-3.1-3-3.38-3.58.79-.54,1.57-1.08,2.36-1.61Z"/><path class="cls-9" d="m476.65,242.5c.45.21,1.09.5,1.86.84,1.31.57,1.5.62,1.65.65.74.13,1.23-.07,2.59-.63,2.57-1.04,2.71-1.09,2.78-1.01.32.34-1.04,2.64-3.41,3.81-.64.32-1.43.7-2.58.7-2.24,0-3.98-1.48-4.46-1.91.52-.82,1.04-1.63,1.56-2.45Z"/><path class="cls-9" d="m477.24,237.57c.48-.09,1.17-.22,1.99-.39,1.39-.29,1.57-.36,1.72-.43.68-.32.98-.77,1.82-2.03,1.57-2.36,1.66-2.48,1.77-2.46.45.1.54,2.8-.79,5.15-.36.64-.81,1.42-1.77,2.08-1.86,1.3-4.1,1.09-4.72,1.01,0-.98-.01-1.96-.02-2.94Z"/><path class="cls-7" d="m482.63,223.56c.17.8.34,2.03.16,3.5-.27,2.15-1.14,3.59-1.99,4.97-1.6,2.58-2.61,4.23-4.14,4.22-1.81,0-3.65-2.33-3.29-3.62.19-.67.85-.65,2.39-1.57,1.08-.64,3.87-2.31,3.98-4.52.02-.39-.04-1.03-.52-1.83,1.14-.39,2.27-.77,3.41-1.16Z"/><path class="cls-9" d="m480.8,232.03c-.34.71-.92,1.77-1.89,2.84-.83.92-1.3,1.43-2.01,1.53-1.82.26-3.97-2.44-3.53-3.77.12-.35.37-.47,1.97-1.42.97-.58,1.75-1.06,2.23-1.36l3.23,2.17Z"/><path class="cls-22" d="m447.95,223.23c-.17.8-.34,2.03-.16,3.5.27,2.15,1.14,3.59,1.99,4.97,1.6,2.58,2.61,4.23,4.14,4.22,1.81,0,3.65-2.33,3.29-3.62-.19-.67-.85-.65-2.39-1.57-1.08-.64-3.87-2.31-3.98-4.52-.02-.39.04-1.03.52-1.83-1.14-.39-2.27-.77-3.41-1.16Z"/><path class="cls-9" d="m449.78,231.69c.34.71.92,1.77,1.89,2.84.83.92,1.3,1.43,2.01,1.53,1.82.26,3.97-2.44,3.53-3.77-.12-.35-.37-.47-1.97-1.42-.97-.58-1.75-1.06-2.23-1.36l-3.23,2.17Z"/><path class="cls-7" d="m451.47,237.85c.77-5.2,8.26-8.1,13.69-8.09,5.29,0,12.62,2.78,13.45,7.84.92,5.6-6.34,12.62-13.67,12.59-7.14-.03-14.31-6.75-13.48-12.34Z"/><ellipse class="cls-7" cx="460.8" cy="228.14" rx="2.45" ry="2.58"/><ellipse class="cls-7" cx="469.27" cy="228.14" rx="2.45" ry="2.58"/><ellipse class="cls-31" cx="460.8" cy="228.14" rx="1.81" ry="1.91"/><ellipse class="cls-31" cx="469.27" cy="228.14" rx="1.81" ry="1.91"/><ellipse class="cls-12" cx="461.24" cy="227.41" rx=".69" ry=".72"/><ellipse class="cls-12" cx="469.66" cy="227.34" rx=".69" ry=".72"/><path class="cls-19" d="m450.28,226.46c.14.06.36.15.62.22,2.21.63,4.16-.5,4.48-.69.46-.28,1.54-.95,2.25-2.33.2-.4.64-1.29.61-2.53-.04-1.35-.62-2.3-.87-2.67-1.92,1.45-3.85,2.89-5.77,4.34-.44,1.22-.88,2.44-1.31,3.67Z"/><path class="cls-7" d="m455.62,213.45c-.61-.16-2.19-.5-4.03.17-1.56.57-2.55,1.58-3.07,2.23-.34.43-1.54,2.02-1.66,4.43-.04.79-.12,2.43.91,4.04,1.06,1.66,2.63,2.21,3.12,2.36,1.58-4.41,3.15-8.83,4.73-13.24Z"/><path class="cls-19" d="m480.36,226.55c-.14.06-.36.15-.62.22-2.21.63-4.16-.5-4.48-.69-.46-.28-1.54-.95-2.25-2.33-.2-.4-.64-1.29-.61-2.53.04-1.35.62-2.3.87-2.67,1.92,1.45,3.85,2.89,5.77,4.34.44,1.22.88,2.44,1.31,3.67Z"/><path class="cls-7" d="m475.02,213.53c.61-.16,2.19-.5,4.03.17,1.56.57,2.55,1.58,3.07,2.23.34.43,1.54,2.02,1.66,4.43.04.79.12,2.43-.91,4.04-1.06,1.66-2.63,2.21-3.12,2.36-1.58-4.41-3.15-8.83-4.73-13.24Z"/><path class="cls-9" d="m411.81,273.46c-.33.37-.81.9-1.4,1.53-.99,1.06-1.14,1.18-1.28,1.27-.63.42-1.16.44-2.62.49-2.75.1-2.9.11-2.94.21-.17.45,1.95,2,4.57,2.11.71.03,1.58.06,2.63-.42,2.06-.93,3.1-3,3.38-3.58-.79-.54-1.57-1.08-2.36-1.61Z"/><path class="cls-9" d="m407.58,269.1c-.45.21-1.09.5-1.86.84-1.31.57-1.5.62-1.65.65-.74.13-1.23-.07-2.59-.63-2.57-1.04-2.71-1.09-2.78-1.01-.32.34,1.04,2.64,3.41,3.81.64.32,1.43.7,2.58.7,2.24,0,3.98-1.48,4.46-1.91-.52-.82-1.04-1.63-1.56-2.45Z"/><path class="cls-9" d="m406.99,264.17c-.48-.09-1.17-.22-1.99-.39-1.39-.29-1.57-.36-1.72-.43-.68-.32-.98-.77-1.82-2.03-1.57-2.36-1.66-2.48-1.77-2.46-.45.1-.54,2.8.79,5.15.36.64.81,1.42,1.77,2.08,1.86,1.3,4.1,1.09,4.72,1.01,0-.98.01-1.96.02-2.94Z"/><path class="cls-9" d="m426.94,273.51c.33.37.81.9,1.4,1.53.99,1.06,1.14,1.18,1.28,1.27.63.42,1.16.44,2.62.49,2.75.1,2.9.11,2.94.21.17.45-1.95,2-4.57,2.11-.71.03-1.58.06-2.63-.42-2.06-.93-3.1-3-3.38-3.58.79-.54,1.57-1.08,2.36-1.61Z"/><path class="cls-9" d="m431.17,269.15c.45.21,1.09.5,1.86.84,1.31.57,1.5.62,1.65.65.74.13,1.23-.07,2.59-.63,2.57-1.04,2.71-1.09,2.78-1.01.32.34-1.04,2.64-3.41,3.81-.64.32-1.43.7-2.58.7-2.24,0-3.98-1.48-4.46-1.91.52-.82,1.04-1.63,1.56-2.45Z"/><path class="cls-9" d="m431.76,264.22c.48-.09,1.17-.22,1.99-.39,1.39-.29,1.57-.36,1.72-.43.68-.32.98-.77,1.82-2.03,1.57-2.36,1.66-2.48,1.77-2.46.45.1.54,2.8-.79,5.15-.36.64-.81,1.42-1.77,2.08-1.86,1.3-4.1,1.09-4.72,1.01,0-.98-.01-1.96-.02-2.94Z"/><path class="cls-7" d="m437.15,250.21c.17.8.34,2.03.16,3.5-.27,2.15-1.14,3.59-1.99,4.97-1.6,2.58-2.61,4.23-4.14,4.22-1.81,0-3.65-2.33-3.29-3.62.19-.67.85-.65,2.39-1.57,1.08-.64,3.87-2.31,3.98-4.52.02-.39-.04-1.03-.52-1.83,1.14-.39,2.27-.77,3.41-1.16Z"/><path class="cls-9" d="m435.32,258.68c-.34.71-.92,1.77-1.89,2.84-.83.92-1.3,1.43-2.01,1.53-1.82.26-3.97-2.44-3.53-3.77.12-.35.37-.47,1.97-1.42.97-.58,1.75-1.06,2.23-1.36l3.23,2.17Z"/><path class="cls-22" d="m402.47,249.87c-.17.8-.34,2.03-.16,3.5.27,2.15,1.14,3.59,1.99,4.97,1.6,2.58,2.61,4.23,4.14,4.22,1.81,0,3.65-2.33,3.29-3.62-.19-.67-.85-.65-2.39-1.57-1.08-.64-3.87-2.31-3.98-4.52-.02-.39.04-1.03.52-1.83-1.14-.39-2.27-.77-3.41-1.16Z"/><path class="cls-9" d="m404.3,258.34c.34.71.92,1.77,1.89,2.84.83.92,1.3,1.43,2.01,1.53,1.82.26,3.97-2.44,3.53-3.77-.12-.35-.37-.47-1.97-1.42-.97-.58-1.75-1.06-2.23-1.36l-3.23,2.17Z"/><path class="cls-7" d="m405.99,264.49c.77-5.2,8.26-8.1,13.69-8.09,5.29,0,12.62,2.78,13.45,7.84.92,5.6-6.34,12.62-13.67,12.59-7.14-.03-14.31-6.75-13.48-12.34Z"/><ellipse class="cls-7" cx="415.32" cy="254.78" rx="2.45" ry="2.58"/><ellipse class="cls-7" cx="423.79" cy="254.78" rx="2.45" ry="2.58"/><ellipse class="cls-31" cx="415.32" cy="254.78" rx="1.81" ry="1.91"/><ellipse class="cls-31" cx="423.79" cy="254.78" rx="1.81" ry="1.91"/><ellipse class="cls-12" cx="415.75" cy="254.06" rx=".69" ry=".72"/><ellipse class="cls-12" cx="424.17" cy="253.98" rx=".69" ry=".72"/><path class="cls-19" d="m404.8,253.11c.14.06.36.15.62.22,2.21.63,4.16-.5,4.48-.69.46-.28,1.54-.95,2.25-2.33.2-.4.64-1.29.61-2.53-.04-1.35-.62-2.3-.87-2.67-1.92,1.45-3.85,2.89-5.77,4.34-.44,1.22-.88,2.44-1.31,3.67Z"/><path class="cls-7" d="m410.14,240.09c-.61-.16-2.19-.5-4.03.17-1.56.57-2.55,1.58-3.07,2.23-.34.43-1.54,2.02-1.66,4.43-.04.79-.12,2.43.91,4.04,1.06,1.66,2.63,2.21,3.12,2.36,1.58-4.41,3.15-8.83,4.73-13.24Z"/><path class="cls-19" d="m434.88,253.2c-.14.06-.36.15-.62.22-2.21.63-4.16-.5-4.48-.69-.46-.28-1.54-.95-2.25-2.33-.2-.4-.64-1.29-.61-2.53.04-1.35.62-2.3.87-2.67,1.92,1.45,3.85,2.89,5.77,4.34.44,1.22.88,2.44,1.31,3.67Z"/><path class="cls-7" d="m429.53,240.18c.61-.16,2.19-.5,4.03.17,1.56.57,2.55,1.58,3.07,2.23.34.43,1.54,2.02,1.66,4.43.04.79.12,2.43-.91,4.04-1.06,1.66-2.63,2.21-3.12,2.36-1.58-4.41-3.15-8.83-4.73-13.24Z"/></svg>