<?xml version="1.0" encoding="UTF-8"?>
<svg id="Layer_10" data-name="Layer 10" xmlns="http://www.w3.org/2000/svg" xmlns:xlink="http://www.w3.org/1999/xlink" viewBox="0 0 3000 3000">
  <defs>
    <style>
      .cls-1 {
        fill: url(#linear-gradient-2);
      }

      .cls-1, .cls-2 {
        stroke: #231f20;
      }

      .cls-1, .cls-2, .cls-3 {
        stroke-miterlimit: 10;
      }

      .cls-4 {
        fill: url(#linear-gradient);
      }

      .cls-4, .cls-5, .cls-6, .cls-7, .cls-8, .cls-9, .cls-10, .cls-11, .cls-12, .cls-13, .cls-14, .cls-15, .cls-16 {
        stroke-width: 0px;
      }

      .cls-5 {
        fill: #c12439;
      }

      .cls-6 {
        fill: #53352a;
      }

      .cls-7 {
        fill: #34070c;
      }

      .cls-8 {
        fill: #386833;
      }

      .cls-9 {
        fill: #366936;
      }

      .cls-10 {
        fill: #326938;
      }

      .cls-2 {
        fill: #231f20;
      }

      .cls-11 {
        fill: url(#linear-gradient-3);
      }

      .cls-12 {
        fill: #77a052;
      }

      .cls-13 {
        fill: url(#radial-gradient);
      }

      .cls-14 {
        fill: #c8a587;
      }

      .cls-15 {
        fill: #631f15;
      }

      .cls-3 {
        fill: #fff;
        stroke: #fff;
      }

      .cls-16 {
        fill: #805c3a;
      }
    </style>
    <radialGradient id="radial-gradient" cx="1670.67" cy="1138.81" fx="1670.67" fy="1138.81" r="407.62" gradientTransform="translate(94.58 263.7) rotate(4.9) scale(1 .59)" gradientUnits="userSpaceOnUse">
      <stop offset="0" stop-color="#b67252"/>
      <stop offset=".16" stop-color="#b77556"/>
      <stop offset=".33" stop-color="#bc8062"/>
      <stop offset=".51" stop-color="#c59176"/>
      <stop offset=".68" stop-color="#d1aa93"/>
      <stop offset=".85" stop-color="#e0c9b8"/>
      <stop offset="1" stop-color="#f1ebdf"/>
    </radialGradient>
    <linearGradient id="linear-gradient" x1="1581.48" y1="1686" x2="1549.04" y2="2590.67" gradientUnits="userSpaceOnUse">
      <stop offset="0" stop-color="#f6ede0"/>
      <stop offset="1" stop-color="#d6b59d"/>
    </linearGradient>
    <linearGradient id="linear-gradient-2" x1="1277.95" y1="1344.8" x2="1147.75" y2="1646.01" gradientTransform="translate(-86.2 33.42) rotate(-3.73)" gradientUnits="userSpaceOnUse">
      <stop offset="0" stop-color="#78a053"/>
      <stop offset=".25" stop-color="#7aa153"/>
      <stop offset=".43" stop-color="#84a656"/>
      <stop offset=".58" stop-color="#93af5a"/>
      <stop offset=".72" stop-color="#a9bc61"/>
      <stop offset=".86" stop-color="#c5cd69"/>
      <stop offset=".98" stop-color="#e8e173"/>
      <stop offset="1" stop-color="#efe575"/>
    </linearGradient>
    <linearGradient id="linear-gradient-3" x1="1002.75" y1="580.99" x2="1059.96" y2="1300.22" gradientTransform="translate(-86.2 33.42) rotate(-3.73)" gradientUnits="userSpaceOnUse">
      <stop offset="0" stop-color="#78a053"/>
      <stop offset=".22" stop-color="#7ba153"/>
      <stop offset=".41" stop-color="#86a856"/>
      <stop offset=".59" stop-color="#98b25b"/>
      <stop offset=".75" stop-color="#b0c062"/>
      <stop offset=".77" stop-color="#b3c263"/>
      <stop offset=".88" stop-color="#cfd36c"/>
      <stop offset=".89" stop-color="#dbdb6f"/>
      <stop offset=".91" stop-color="#e7e373"/>
      <stop offset=".93" stop-color="#eee775"/>
      <stop offset="1" stop-color="#f0e976"/>
    </linearGradient>
  </defs>
  <g id="Layer_8" data-name="Layer 8">
    <path class="cls-13" d="m2002.54,1287.44c41.57-8.23,45.61-12.73,78.69-22.56,16.72-4.97,32.22-13.3,47.4-21.89,49.76-28.13,81.78-55.05,105.24-108.76,11.86-27.15,10.46-71.1,5.09-100.24-3.59-19.48-7.34-39.13-15.34-57.25-15.02-33.97-47.09-68.22-77.11-90.11-63.59-46.37-125.59-79.76-202.29-97.4-44.48-10.23-93.54-12.79-138.92-17.75-36.71-4.01-77.72-2.05-114.64-1.51-52.85.78-105.06,10.89-156.95,20.96-28.73,5.58-52.56,16.07-80.02,26.21-49.76,18.37-97.95,45.96-139.4,79.06-25.96,20.73-51.85,42.16-71.7,68.8-32.62,43.76-46.94,100.73-38.91,154.71,3.2,21.46,16.45,37.91,29.62,55.15,9.8,12.84,16.25,27.83,29.01,37.73,15.61,12.12,31.22,24.25,46.83,36.37,21.11,16.39,52.88,17.25,72.56,20.31-20.67-28.63-16.94-67.73-10.01-102.36,12.84-64.21,31.2-135.42,79.21-179.95,28.05-26.03,65.89-44.91,101.95-57.71,87.35-31.01,184.69-30.24,275.44-11.41,16.4,3.4,32.88,7.72,47.3,16.24,12.97,7.67,23.76,18.45,34.41,29.11,16.35,16.38,32.9,33.01,44.41,53.1,19.98,34.87,33.36,65.45,35.82,105.56.46,7.42,1.6,21.82,2.05,29.25.55,8.92-3.71,22.49-3.16,31.41,2.4,39.19-2.01,80.23-20.48,114.88,10.51-6.17,52.46-4.09,33.9-9.96Z"/>
    <path class="cls-14" d="m1983.9,1204.4c5.88,40.41,46.34,84.7,90.3,73.44,10.59-2.71,6.1-19.11-4.52-16.39-16.46,4.22-32.66-3.55-44.53-14.72-13.17-12.4-22.25-28.9-24.87-46.85-.66-4.55-6.42-7.04-10.46-5.94-4.88,1.34-6.6,5.9-5.94,10.46h0Z"/>
    <path class="cls-14" d="m1998.13,1148.96c52.29,37.03,121.91,47.04,183.11,29.02,17.29-5.09,33.96-12.49,49.29-21.96,9.29-5.74.76-20.45-8.58-14.68-50.71,31.31-114.89,36.51-170.72,16.38-15.85-5.71-30.79-13.71-44.53-23.44-3.75-2.65-9.46-.67-11.63,3.05-2.49,4.26-.71,8.97,3.05,11.63h0Z"/>
    <path class="cls-14" d="m1967.73,1045c67.21-4.52,129.73-40.16,169.81-93.99,11.35-15.24,20.39-31.86,27.48-49.47,1.71-4.26-1.87-9.34-5.94-10.46-4.85-1.33-8.74,1.66-10.46,5.94-22.82,56.75-72.71,101.68-130.48,120.92-16.33,5.44-33.23,8.91-50.41,10.06-10.86.73-10.94,17.74,0,17h0Z"/>
    <path class="cls-14" d="m1913.62,966.71c42.7-41.39,67.19-100.06,66.62-159.52-.1-10.93-17.1-10.96-17,0,.53,55.14-22.05,109.13-61.64,147.5-7.87,7.63,4.16,19.64,12.02,12.02h0Z"/>
    <path class="cls-14" d="m1628.71,782.58c-5.78,41.36,6.25,83.14,33.58,114.82,7.16,8.3,19.14-3.77,12.02-12.02-22.94-26.58-34.08-63.43-29.21-98.28.63-4.54-1.11-9.13-5.94-10.46-3.98-1.09-9.82,1.36-10.46,5.94h0Z"/>
    <path class="cls-14" d="m1474.45,821.43c6.41,41.33,32.41,78.62,68.54,99.51,9.49,5.49,18.06-9.2,8.58-14.68-32.69-18.9-54.96-52.12-60.73-89.35-.7-4.54-6.39-7.05-10.46-5.94-4.85,1.33-6.64,5.9-5.94,10.46h0Z"/>
    <path class="cls-14" d="m1466.42,957.63c-57.02,35.01-129.45,38.46-189.12,7.83-16.27-8.35-31.24-18.85-44.57-31.37-7.97-7.49-20.02,4.51-12.02,12.02,52.45,49.26,127.65,68.83,197.36,50.55,20.02-5.25,39.3-13.52,56.94-24.35,9.31-5.71.78-20.42-8.58-14.68h0Z"/>
    <path class="cls-14" d="m1492.31,946.5c-56.07,2.93-112.12-25-142.89-72.12-5.96-9.13-20.68-.62-14.68,8.58,33.93,51.97,95.45,83.78,157.57,80.54,10.88-.57,10.95-17.57,0-17h0Z"/>
    <path class="cls-14" d="m1931.03,973.69c20.58-12.34,38.28-29.13,52.16-48.67,13.86-19.53,23.89-41.85,29.1-65.23,2.94-13.17,4.35-26.68,4.09-40.17-.04-1.93-3.04-1.93-3,0,.45,23.6-4.3,47.12-13.35,68.89s-22.47,41.75-39.24,58.3c-9.42,9.3-19.91,17.48-31.27,24.29-1.65.99-.15,3.59,1.51,2.59h0Z"/>
    <path class="cls-14" d="m1812.08,773.1c-11.56,22.84-20.54,47.11-26.45,72.02-5.84,24.63-9.06,50.49-6.12,75.75.53,4.56,3.53,8.5,8.5,8.5,4.18,0,9.04-3.91,8.5-8.5-2.78-23.86,0-47.96,5.51-71.23,5.57-23.51,13.82-46.41,24.73-67.96,4.93-9.74-9.73-18.35-14.68-8.58h0Z"/>
    <path class="cls-14" d="m1403.21,1041.06c-43.88,35.02-101.35,51.5-157.12,47.35-15.81-1.18-31.38-4.22-46.54-8.81-10.49-3.18-14.98,13.23-4.52,16.39,58.12,17.6,122.1,11.53,176.54-15.03,15.61-7.61,30.11-17.06,43.67-27.88,3.59-2.87,2.99-9.03,0-12.02-3.55-3.55-8.42-2.87-12.02,0h0Z"/>
    <path class="cls-14" d="m2000.27,1179.77c9.58,10.72,20.61,20.11,32.64,27.98s25.06,14.21,38.62,18.97,27.64,7.9,41.92,9.41,28.79,1.33,43.05-.6,28.1-5.6,41.3-11.11c1.67-.7,3.33-1.42,4.98-2.17,1.76-.8.23-3.38-1.51-2.59-12.85,5.84-26.5,9.89-40.42,12.2s-28.14,2.83-42.2,1.74-27.95-3.84-41.37-8.12c-13.46-4.3-26.4-10.17-38.45-17.55s-23.14-16.23-32.89-26.45c-1.2-1.26-2.38-2.54-3.54-3.84-1.29-1.44-3.4.68-2.12,2.12h0Z"/>
    <path class="cls-14" d="m1232.12,1168.45c26.09,12.57,55.91,16.67,84.44,11.85,26-4.39,50.35-16.58,69.85-34.27,10.69-9.7,19.87-21.05,27.07-33.57.96-1.68-1.63-3.19-2.59-1.51-12.55,21.83-31.24,39.91-53.32,51.97-23.92,13.06-51.48,18.39-78.57,15.67-15.7-1.58-31.15-5.87-45.36-12.72-1.73-.83-3.25,1.75-1.51,2.59h0Z"/>
    <path class="cls-14" d="m1981.71,1085.37c21.13,4.14,42.69,6.65,64.24,6.14,20.9-.49,41.88-3.89,61.41-11.5,18.88-7.35,35.94-18.72,51.14-32.04,14.65-12.83,27.48-27.74,38.09-44.06,10.61-16.32,18.98-34.13,24.66-52.75.7-2.29,1.36-4.59,1.97-6.91.5-1.87-2.39-2.66-2.89-.8-4.95,18.52-12.55,36.26-22.43,52.69-9.91,16.48-22.07,31.58-36.07,44.75-14.28,13.44-30.55,25.29-48.48,33.37-18.93,8.53-39.56,12.79-60.23,13.95-21.08,1.19-42.25-.69-63.01-4.33-2.54-.45-5.08-.92-7.62-1.42-1.89-.37-2.69,2.52-.8,2.89h0Z"/>
    <path class="cls-14" d="m1226.62,1006.63c12.73,9.2,26.43,17.04,40.79,23.41,14.36,6.38,29.33,11.34,44.66,14.8s31.01,5.47,46.73,5.96c15.71.49,31.46-.55,46.96-3.1s30.61-6.63,45.19-12.28c1.84-.71,3.67-1.45,5.49-2.21.75-.31,1.27-.99,1.05-1.85-.19-.71-1.1-1.36-1.85-1.05-14.38,6-29.37,10.49-44.67,13.42s-30.75,4.29-46.26,4.18-31.16-1.71-46.45-4.81-30.12-7.6-44.45-13.55c-14.38-5.97-28.16-13.42-41-22.22-1.57-1.08-3.13-2.18-4.68-3.3s-3.07,1.47-1.51,2.59h0Z"/>
    <path class="cls-14" d="m1413.31,835.99c5.89,19.03,14.64,37.31,25.38,54.08s24.27,33.21,41.04,44.77c8.46,5.83,17.92,10.38,28.02,12.42,1.89.38,2.69-2.51.8-2.89-18.31-3.7-33.87-15.49-46.45-28.82-14.03-14.87-25.22-32.42-34.11-50.76-4.64-9.56-8.64-19.44-11.78-29.59-.57-1.84-3.47-1.05-2.89.8h0Z"/>
    <path class="cls-14" d="m1790.83,776.11c-9.37,15.27-16.13,32.1-20.08,49.57s-5.13,35.45-3.41,53.21c.97,10.02,2.85,19.94,5.66,29.61.54,1.85,3.43,1.06,2.89-.8-4.91-16.9-6.93-34.55-6.15-52.12.78-17.57,4.38-34.99,10.62-51.43,3.51-9.23,7.89-18.11,13.06-26.53,1.01-1.65-1.58-3.16-2.59-1.51h0Z"/>
    <path class="cls-14" d="m1981.48,1128.73c41.19,17.34,87.87,20.78,131.27,10.3,38.49-9.29,73.96-30.18,101.31-58.75,15.24-15.92,28.04-34.21,37.59-54.07,4.72-9.81-9.94-18.45-14.68-8.58-15.7,32.66-40.22,60.64-70.76,80.2-33.35,21.37-72.54,31.62-112.09,29.96-23.47-.98-46.5-6.35-68.14-15.46-4.23-1.78-9.35,1.92-10.46,5.94-1.35,4.91,1.69,8.67,5.94,10.46h0Z"/>
    <path class="cls-5" d="m1965.25,1341.78c77.83,4.31,156.88-17.43,221.55-60.94,33.58-22.59,63.84-51.58,81.9-87.8,21.59-43.31,33.08-103.28,25.93-151.14-16.76-112.21-88.8-209.56-159.62-298.19-51.77-64.78-111.1-119.21-180.67-164.32-36.48-23.65-77.62-42.41-121.07-44.05-20.98-.79-43.6-4.83-64.51-2.9-63.19,5.82-130.09-.57-191.47,15.53-48.68,12.76-95.29,34.59-136.73,63.14-30.11,20.74-53.83,52.79-80.66,77.64-92.2,85.4-153.23,200.3-206.63,314.07-14.8,31.54-29.42,65.8-23.34,100.11,4.34,24.5,25.9,40.68,40.73,60.66,35.43,47.7,68.22,96.9,122.63,120.75,29,12.71,62.02,20.51,93.15,26.29,24.03-33.28-40.09-46.5-68.49-59.1-47.58-21.12-87.96-53.74-106.87-102.25-13.73-35.23-8.42-74.81-.27-111.73,9.78-44.33,33.83-81.06,68.8-110,27.3-22.59,54.43-41.17,84.3-60.23,28.91-18.45,57.59-38.34,89.78-50.16,19.01-6.98,34.35-15.64,54.23-19.46,19.81-3.8,38.49-12.36,58.3-16.16,147.89-28.38,275.71-4.22,428.44,27.73,55.98,11.71,108.67,39.86,151.84,77.38,27.21,23.65,50.12,46.96,70.91,76.41,11.4,16.15,21.72,38.65,26.97,57.71,9.02,32.74,3.48,70.74-6.94,103.05-10.63,32.97-27.02,63.72-51.66,88.07-19.94,19.71-46.43,31.19-72.63,41.18-65.49,24.97-272.39,48.71-147.93,88.72Z"/>
    <path class="cls-3" d="m2194.73,837.99c-5.61-6.82-16.24-8.32-24.14-4.39-7.91,3.93-12.97,12.44-14.01,21.21-.33,2.82-.28,5.77.84,8.38,1.18,2.76,3.43,4.89,5.62,6.95,10.92,10.23,22.06,20.62,35.51,27.18,3.29,1.61,6.79,3.03,9.38,5.63,6.05,6.09,5,16,7.31,24.27,2.92,10.48,12.23,18.89,22.96,20.73,3.65.63,7.58.5,10.79-1.34,6.58-3.77,7.57-12.83,6.66-20.35-1.03-8.49-3.74-17.19-9.88-23.15-2.19-2.13-4.75-3.85-6.88-6.03-2.64-2.71-4.53-6.03-6.39-9.32-6.79-12.03-13.7-24.3-23.82-33.7-5.23-4.86-9.34-10.46-13.95-16.06Z"/>
    <path class="cls-3" d="m2134.48,1302.48c-.24-10.02.07-21.38,7.51-28.1,2.39-2.16,5.33-3.61,8.25-4.97,20.01-9.32,43.23-17.37,53.19-37.07,1.59-3.15,7.24-11.42,7.24-11.42,0,0,5.97-9.41,8.54-10.39,6.43-2.47,10.26-3.18,15.64,1.11,5.9,4.72,7.71,6.75,7.58,11.89-.29,11.36-9.07,20.5-17.56,28.05-16.83,14.94-34.86,28.53-53.86,40.58-12.95,8.21-27.83,15.99-36.53,10.33Z"/>
    <path class="cls-3" d="m1188.58,1185.99c-5.28-6.99-10.81-14.75-10.46-23.51s10.14-17.2,17.72-12.8c2.35,1.37,4.01,3.66,5.5,5.94,7.31,11.18,12.53,23.73,15.28,36.8,1.54,7.32,2.38,14.96,5.96,21.53,2.7,4.96,7.05,9.85,6.04,15.41-15.97-10.95-27.42-26.68-40.02-43.38Z"/>
    <path class="cls-3" d="m1391.73,654.22c-5.34,14.73-10.77,30.14-8.91,45.7,1.87,15.64,10.84,29.37,16.67,44s7.96,32.92-2.38,44.81c-3.51,4.04-8.14,6.91-12.44,10.1-9.03,6.69-16.92,14.98-26.69,20.53-9.78,5.54-22.48,7.9-32.05,2-11.35-6.99-13.93-22.83-10.8-35.8,3.12-12.96,10.54-24.45,15.05-37,3.84-10.68,5.59-22.16,10.87-32.2,3.56-6.77,8.6-12.64,13.6-18.44,13.66-15.86,27.32-31.72,37.09-43.7Z"/>
    <path class="cls-3" d="m2037.89,637.14c-13.8,9.01-27.1,18.78-39.82,29.27-3.62,2.99-7.26,6.1-9.75,10.07-8.38,13.36-.91,31.53,10.65,42.25,10.8,10.01,27.77,16.12,40.2,8.22,3.4-2.16,6.21-5.22,9.81-7.03,7.6-3.82,17.05-1.14,23.96,3.82s12.1,11.9,18.19,17.84c11.47,11.18,26.36,18.79,42.14,21.55,6.53-10.16-1.29-23.34-9.56-32.14-16.25-17.29-35.43-31.73-50.85-49.76-12.78-14.95-22.9-32.26-37.44-45.5-1.79-1.63-3.84-3.28-6.26-3.39s-5.02,2.16,8.73,4.81Z"/>
    <path class="cls-3" d="m1553.41,558.75c-20.34,4.19-38.48,18.01-47.92,36.51-9.44,18.5-9.98,41.3-1.44,60.23,1.19,2.63,2.71,5.35,5.32,6.57,2.56,1.2,5.61.65,8.22-.44,9.32-3.91,14.62-13.78,17.88-23.35s5.35-19.83,11.35-27.97c9.53-12.91,26.5-17.47,42.24-20.56s32.67-6.07,44.12-17.32c3.98-3.91,7.24-9.29,6.34-14.8-.93-5.7-6.18-9.92-11.76-11.42s-11.49-.82-17.22-.12c-22.56,2.73-43.5,9.86-57.13,12.67Z"/>
    <path class="cls-3" d="m1749.26,597.72c-21.77,6.63-39.26,25.72-43.98,47.98-4.71,22.27,3.54,46.8,20.76,61.69,1.68,1.46,3.5,2.85,5.63,3.48,5.05,1.48,10.33-1.77,13.74-5.78,9.91-11.65,10.52-30.06,22.65-39.37,11.89-9.12,28.74-5.18,43.66-6.57,13.53-1.26,26.54-7.46,36.03-17.18,3.45-3.53,6.53-7.68,7.57-12.5,1.19-5.51-.41-11.24-2.53-16.47-4.35-10.73-11.72-21.1-22.65-24.94-19.05-6.69-38.63,8.63-58.77,9.95-6.67.43-13.39-.7-20.05-.12-6.66.58-13.73,3.38-2.06-.16Z"/>
    <path class="cls-15" d="m1347.94,1255.41c-29.33-17.1-58.99-34.81-84.39-57.52-26.44-23.64-45.02-55.38-52.56-90.09-16.22-74.67,33.75-138.38,86.32-184.9,54.9-48.58,120.11-85.04,189.23-109.09,73.87-25.7,151.77-37.21,229.86-37.66,84.61-.48,170.31,10.54,252.44,30.77,69.24,17.05,135.1,50.67,188.08,98.59,21.85,19.76,42.47,41.61,56.47,67.74,11.46,21.4,18.92,45.25,21.82,69.36,6.04,50.35-6.52,103.15-38.89,142.81-38.89,47.65-100.46,70.18-158.26,85.33-30.54,8-61.83,13.64-93.37,15.46-25.82,1.49-52.7,1.03-77.6-6.75-5.09-1.59-8.69-2.95-13.06-5.14-2.12-1.06-4.19-2.21-6.2-3.46-.97-.61-1.93-1.23-2.87-1.89-1.5-1.05-1.33-.93-1.96-1.44-3.58-2.87-8.53-3.49-12.02,0-2.97,2.97-3.6,9.13,0,12.02,19.13,15.37,43.83,20.78,67.76,23.08,30.99,2.99,62.44.2,93.08-4.73,33.49-5.39,66.53-14,98.41-25.58s60.76-24.32,86.51-44.28c45.18-35.01,72.13-87.91,76.37-144.67,3.96-53.02-11.99-107.56-45.29-149.14-45.84-57.26-110.69-99.63-178.57-126.01-37.62-14.62-76.96-23.07-116.57-30.36-43.85-8.07-88.16-13.95-132.66-16.81-84.02-5.39-169.23.32-250.79,21.93-73.37,19.44-143.91,51.48-205.11,96.58-30.6,22.55-59.89,47.96-83.98,77.49-23.69,29.04-42.7,62.75-47.86,100.34-5.37,39.14,5.23,78.89,25.71,112.33,19.33,31.57,48.24,54.15,78.78,74.26,13.91,9.16,28.19,17.72,42.58,26.11,9.47,5.52,18.04-9.16,8.58-14.68h0Z"/>
    <path class="cls-15" d="m1341.4,1270.95c10.4,2.41,20.79,4.81,31.19,7.22s15.19-13.92,4.52-16.39-20.79-4.81-31.19-7.22c-10.65-2.46-15.19,13.92-4.52,16.39h0Z"/>
    <path class="cls-15" d="m1141.22,1100.84c8.13,45.76,29.37,88.82,60.14,123.6,15.64,17.68,33.98,32.49,53.29,45.98s41.8,26.31,64.79,35.37c25.65,10.1,53.27,15.55,80.88,13.95,10.88-.63,10.95-17.63,0-17-47.13,2.72-91.5-16.5-130.01-42.17s-68.01-55.12-88.9-94.59c-11.55-21.83-19.48-45.35-23.79-69.66-.8-4.52-6.33-7.07-10.46-5.94-4.77,1.31-6.74,5.92-5.94,10.46h0Z"/>
    <path class="cls-15" d="m1951.91,1352.04c61.88-6.52,123.01-15.04,182.02-35.68,15.48-5.41,31.03-11.09,45.35-19.18,13.07-7.38,25.26-16.37,36.54-26.25,23.35-20.46,43.05-45.47,58.16-72.56,15.72-28.19,26.03-59.04,30.61-90.99,4.04-28.16,1.78-55.47-5.25-82.97-8.07-31.56-18.45-62.58-32.05-92.2-13.69-29.81-30.62-57.94-48.59-85.34-34.61-52.8-71.31-104.51-113.2-151.83-41.24-46.6-88.01-89.06-141.59-121.07-28.03-16.74-57.9-31.11-89.65-39.17-33.36-8.47-68-10.96-102.32-10.87-35.22.09-70.36,2.82-105.52,4.65-32.35,1.68-64.29,4.61-95.85,12.26-31.16,7.55-61.48,18.99-89.7,34.23-30.26,16.35-56.94,37.54-82.44,60.48-43.24,38.89-80.07,82.91-115.69,128.69-8.29,10.65-16.6,21.29-25.05,31.82-2.87,3.58-3.49,8.53,0,12.02,2.97,2.97,9.13,3.6,12.02,0,33.56-41.79,65.11-85.09,102.47-123.67,44.8-46.28,94.35-88.56,155.01-112.17,28.7-11.17,58.86-18.74,89.38-22.78,32.69-4.32,66.03-4.88,98.94-6.65,66.33-3.58,135.44-4.78,197.18,23.42,54.87,25.06,103.38,61.76,146.1,104.07,43.53,43.1,81.27,91.64,116.12,141.91,35.83,51.66,71.03,104.72,92.19,164.33,5.35,15.07,9.92,30.43,14.12,45.86,3.36,12.36,6.4,24.92,7.75,37.68,3.11,29.35-1.93,59.28-10.95,87.22-17.76,54.97-57.17,107.25-107.96,135.61-13.71,7.66-28.55,12.95-43.36,18.04-15.84,5.45-31.91,10.21-48.16,14.26-28.66,7.14-57.81,11.98-87.12,15.52-13.15,1.59-26.32,2.96-39.48,4.35-4.57.48-8.5,3.56-8.5,8.5,0,4.22,3.91,8.98,8.5,8.5h0Z"/>
    <path class="cls-15" d="m1257.66,796.05c-41.58,46.34-72.76,100.24-94.45,158.49-5.96,16.01-11.2,32.27-15.9,48.69-3.02,10.54,13.38,15.04,16.39,4.52,16.18-56.49,39.49-110.74,73.42-158.94,10.02-14.24,20.93-27.79,32.56-40.74,7.29-8.12-4.7-20.18-12.02-12.02h0Z"/>
  </g>
  <g id="Layer_4" data-name="Layer 4">
    <path class="cls-4" d="m1454.78,982.45c-52.97,61.04-88.7,140.15-85.11,220.89,3.59,80.75,40.5,180.78,109.05,208.75-87.37,33.5-149.99,124.96-225.94,179.63-41.15,29.62-88.64,52.11-121.21,90.98-32.56,38.87-44.04,102.78-7.38,137.81,31.5,30.11,82.38,25.33,123.65,11.34,45.15-15.31,87.35-39.25,123.66-70.16-21.24,19.53-21.7,52.31-20.6,81.15,4.14,108.9,8.29,217.8,12.43,326.7,2.01,52.91,8.1,122.35,37.23,153.46,11.28,12.06,22.69,10.86,26.94,26.81,1.76,6.61,16.81,9.83,21.25,15.02,5.5,6.43,14.71,13.45,23.11,12.44,31.11-3.74,62.22-7.48,93.32-11.22,8.76-1.05,17.77-2.19,25.45-6.54,21.86-12.38,14.19-38.34,9.13-62.95-5.06-24.61-4.32-56.93,8.43-78.59,19.12-32.49,66.95-27.09,103.39-17.42,19.73,46.65,6.76,120.41,34.06,147.3,50.1,31.65,108.4,31.67,153.2,4.95,37.55-22.39,43.34-73.45,44.98-117.14,2.3-60.9-3.84-120.25-1.55-181.16,51.46-12.69,84.17-67.66,98.62-115.28,14.45-47.61,13.75-98.63,7.2-147.96-3.04-22.88-14.59-31.84-8.14-54,1.67-5.72-3.37-20.21-4.32-26.1-.94-5.86-3.58-15.88-3.84-21.81-2.06-46.87-24.7-90.9-26.83-139.42-3.43-77.85-101.29-94.51-168.42-116.4,37.17-17.49,72.7-41.68,96.81-74.93,26.29-36.26,31.21-58.08,45.32-101.98,5.52-17.17,5.86-49.9,10.34-67.36,12.28-47.8-10.1-79.29-16.41-128.23-1.59-12.29-9.52-29.22-15.54-40.05-3.53-6.36-37.19-50.51-42.9-55-54.73-43.1-111.39-64.6-180.98-61.28-103.23,4.92-195.7,21.12-278.42,77.74Z"/>
    <path class="cls-14" d="m1435.04,985.12c-20.47,24.13-35.48,51.87-46.77,81.34-11.9,31.04-20.26,63.88-24.75,96.81-4.7,34.5-4.13,69.16,3.81,103.15,7.17,30.72,19.52,60.9,36.51,87.51s40.87,51.64,70.59,65.5c4.16,1.94,9.16,1.17,11.63-3.05,2.15-3.68,1.13-9.68-3.05-11.63-51.25-23.9-81.66-78.96-96.34-131.36-17.59-62.8-7.46-128.8,13.34-189.58,10.68-31.21,25.61-61.4,47.05-86.67,7.04-8.3-4.93-20.38-12.02-12.02h0Z"/>
    <path class="cls-14" d="m1474.43,1404.75c-55.53,23.47-101.38,64.34-144.91,105.06-43.71,40.89-86.59,84.33-138.8,114.5-26.91,15.55-57.46,28.69-73.52,56.98-8.55,15.05-12.47,32.18-15.51,49.06-2.79,15.51-4.84,31.42-3.74,47.2s4.95,31,13.98,43.73c9.52,13.41,23.12,22.7,38.57,28.07,34.41,11.94,73.02,1.61,105.51-11.57,33.75-13.7,65.66-32.05,96.62-51.13,30.97-19.09,60.87-39.86,89.65-62.11,7.29-5.64,14.51-11.37,21.66-17.2,3.56-2.9,3.01-9.01,0-12.02-3.52-3.52-8.45-2.91-12.02,0-53.94,43.96-112.74,83.42-175.09,114.48-30.11,15-64.37,29.15-98.64,27.58-14.62-.67-29.5-5.03-41.21-14.06s-18-21.74-20.75-35.75c-2.77-14.14-1.77-29.18.32-43.35,2.28-15.52,5.11-31.69,11.28-46.2,12.28-28.88,40.95-41.9,66.77-56.35,50.51-28.27,92.71-68.77,134.56-108.19,41.53-39.12,83.85-79.2,135.13-105.34,6.14-3.13,12.39-6.02,18.73-8.7,4.23-1.79,5.15-8.03,3.05-11.63-2.56-4.38-7.38-4.84-11.63-3.05h0Z"/>
    <path class="cls-14" d="m1347.67,1774.69c-5.86,37.7-7.8,75.81-5.39,113.89.69,10.87,17.69,10.94,17,0-2.31-36.5-.84-73.22,4.79-109.37.7-4.53-1.15-9.14-5.94-10.46-4.03-1.11-9.75,1.37-10.46,5.94h0Z"/>
    <path class="cls-14" d="m1361.78,2215.2c1.91,35.79,10.47,71.79,28.89,102.81,17.92,30.2,46.73,57.96,82.34,64.6,21.01,3.92,42.3,1.09,63.11-2.7,10.12-1.84,20.18-4.04,30.14-6.59,9.03-2.31,18.22-4.62,26.63-8.72,8.04-3.92,14.66-10.2,17.99-18.58s2.67-18.14,1.25-27.2c-3.14-19.98-6.6-39.64-7.88-59.87-.65-10.29-1.41-21.02,1.75-31,2.59-8.17,8.49-13.41,16.47-16.25,8.87-3.17,18.32-3.76,27.56-5.2,10.97-1.72,21.94-3.63,33.09-2.65s10.83-16.05,0-17c-9.6-.84-19.15.43-28.64,1.85-8.85,1.33-17.86,2.28-26.64,3.98-15.99,3.09-30.43,11.23-36.78,26.84-7.13,17.52-4.25,38.29-2.39,56.58,1.01,9.94,2.34,19.86,3.96,29.73,1.44,8.75,3.91,17.62,3.76,26.54-.3,17.91-20.84,21.04-34.65,24.58-19.28,4.94-39.21,9.25-59.13,10.4-18.37,1.07-35.91-1.88-51.94-11.15-14.53-8.4-27.04-20.43-36.91-33.96-22.58-30.97-32.96-69.12-34.98-107.02-.58-10.88-17.58-10.95-17,0h0Z"/>
    <path class="cls-14" d="m1685.38,2203.53c8.04-1.55,13.97,1.42,18.51,7.57,5.64,7.66,8.48,17.16,10.87,26.24,2.86,10.88,5.51,22.02,6.03,33.28.66,14.31-.72,28.68.97,42.94,1.74,14.66,6.77,28.35,17.17,39.12,9.82,10.18,23.06,16.92,36.68,20.36,15.53,3.92,31.75,4.04,47.64,3.18,16.89-.91,33.86-2.9,50.3-6.97,14.79-3.66,29.92-8.72,41.85-18.51s17.54-23.74,21.56-37.8c9.04-31.63,12.86-64.74,14.45-97.52,1.62-33.34.82-66.73.3-100.09-.55-34.91-1.09-69.82-1.64-104.73-1.1-70.15-2.2-140.31-3.3-210.46-.14-8.64-.27-17.29-.41-25.93-.17-10.93-17.17-10.96-17,0,1.07,68.49,2.15,136.98,3.22,205.48,1.06,67.82,3.39,135.75,2.72,203.58-.32,32.23-2,64.6-8.01,96.32-2.74,14.47-5.54,30.28-12.02,43.63s-16.89,20.2-30.17,24.88c-15.33,5.41-31.45,8.5-47.6,10.06-15.72,1.52-32.11,2.62-47.81.39-12.96-1.84-26.17-6.34-36.02-15.25-10.05-9.09-14.38-21.28-15.38-34.57-1.06-14.06.33-28.18-.75-42.24-.87-11.35-3.5-22.67-6.39-33.67-4.72-17.98-13.21-41.11-33.67-45.8-5.57-1.28-11.06-.97-16.63.11-10.73,2.07-6.19,18.46,4.52,16.39h0Z"/>
    <path class="cls-14" d="m1937.27,1000.98c33.25,59.03,47.58,127.57,42.64,195.03-4.69,64.06-27.14,130.06-69.91,178.86-22.71,25.91-51.21,46.55-84.73,55.67-10.54,2.87-6.07,19.27,4.52,16.39,64.36-17.51,111.29-72.47,137.51-131.6,29.13-65.68,37.22-139.33,24.9-210-6.9-39.56-20.54-77.93-40.25-112.92-5.37-9.53-20.06-.97-14.68,8.58h0Z"/>
    <path class="cls-14" d="m1948.09,2063.02c45.4-14.6,77.81-52.62,94.78-96.06,19.64-50.27,19.95-106.74,14.92-159.73-5.31-55.99-15.61-111.73-26.72-166.82-5.47-27.15-11.29-54.25-17.85-81.15-5.78-23.7-12.99-47.99-27.27-68.11-15.12-21.31-37.01-31.68-60.95-40.31-13.66-4.92-27.33-9.26-41.55-12.28-15.49-3.29-31.19-5.46-46.88-7.55-4.56-.61-8.5,4.34-8.5,8.5,0,5.1,3.93,7.89,8.5,8.5,25.36,3.39,50.73,7.45,74.93,16.01,18.74,6.63,38.7,13.01,52.96,27.58,15.85,16.19,23.61,39.15,29.39,60.54,6.72,24.9,11.99,50.26,17.27,75.5,10.94,52.3,20.82,105.1,27.32,158.16,6.22,50.79,8.9,103.94-4.52,153.85-12.53,46.62-42.51,91.6-90.36,106.99-10.37,3.34-5.94,19.75,4.52,16.39h0Z"/>
    <path class="cls-14" d="m1450.39,993.41c53.81-45.11,123.14-70.13,192.01-80,68.45-9.81,142.31-4.71,206.28,22.96,33.27,14.39,63.55,35.1,87.06,62.86,7.08,8.36,19.05-3.72,12.02-12.02-45.39-53.61-114.38-81.51-182.62-90.95-74-10.23-151.29-1.69-221.22,24.7-38.19,14.41-74.21,34.16-105.55,60.43-3.52,2.95-3.05,8.98,0,12.02,3.49,3.49,8.49,2.96,12.02,0h0Z"/>
  </g>
  <g id="Layer_5" data-name="Layer 5">
    <ellipse class="cls-2" cx="1797.85" cy="1134.43" rx="78.14" ry="40" transform="translate(513.86 2828.7) rotate(-85.1)"/>
    <ellipse class="cls-2" cx="1567.22" cy="1114.64" rx="78.14" ry="40" transform="translate(322.66 2580.82) rotate(-85.1)"/>
  </g>
  <g id="Layer_6" data-name="Layer 6">
    <path class="cls-12" d="m1595.92,1732.1c-44.18,46.31-88.37,92.62-132.55,138.93-7.55,7.91-15.29,15.97-25.03,20.94-28.58,14.58-64.08-2.45-85.31-26.51-7.84-8.88-15.42-19.28-26.84-22.42-10.47-2.88-21.61,1.21-31,6.67-40.06,23.3-60.71,69.83-70.37,115.16-12.77,59.9-1.38,124.24,30.73,176.39,32.11,52.15,89.57,87.32,148.22,69.66,8.09-2.44,16.16-5.93,21.95-12.08,9.41-10,11.02-24.82,12.14-38.51,5.65-68.73,11.29-137.45,16.94-206.18.69-8.44,1.44-17.09,5.06-24.75,3.24-6.87,8.58-12.48,13.84-17.96,15.11-15.79,30.23-31.58,45.34-47.36,32.68-34.14,65.37-68.29,99.58-100.89,29.56-28.18,60.3-55.23,87.61-85.59,17.84-19.82,34.17-41,52.8-60.07,17.91-18.34,37.82-34.6,57.67-50.82,44.61-36.44,80.53-73.17,125.14-109.61-2.27-17.66-16.52-25.64-33.37-19.86-16.85,5.77-28.75,20.44-40.41,33.91-87.87,101.54-196.92,182.13-272.15,260.98Z"/>
    <path class="cls-10" d="m1444.79,1902.97c58.63-64.09,118.72-126.84,180.23-188.17,61.29-61.1,123.99-120.79,188.03-179.01,36.1-32.81,72.62-65.15,109.55-97.02,8.3-7.16-3.77-19.14-12.02-12.02-65.76,56.75-130.22,115-193.3,174.71-62.85,59.5-124.33,120.45-184.37,182.78-33.84,35.13-67.22,70.71-100.15,106.7-7.37,8.06,4.62,20.11,12.02,12.02h0Z"/>
    <path class="cls-10" d="m1460.82,1939.45c59.41-67.05,120.78-132.35,184.06-195.77,63.04-63.18,127.95-124.5,194.61-183.85,18.69-16.64,37.51-33.12,56.47-49.44,9.36-8.06,18.75-16.07,28.17-24.05,4.6-3.89,9.84-7.54,13.89-12.01,3.28-3.61,5.56-8,9.19-11.3,8.11-7.38-3.94-19.38-12.02-12.02-3.18,2.89-5.39,6.52-8.02,9.88-2.94,3.75-6.97,6.59-10.59,9.65-8.69,7.34-17.35,14.71-25.98,22.11-17.02,14.59-33.93,29.32-50.72,44.16-33.43,29.54-66.42,59.58-98.96,90.09-65.11,61.06-128.41,124.04-189.79,188.84-34.73,36.66-68.83,73.9-102.31,111.69-7.23,8.16,4.75,20.23,12.02,12.02h0Z"/>
    <path class="cls-10" d="m1333.19,1846.51c9.35,19.95,24.49,37.4,43.76,48.3,19.61,11.1,42.02,14.4,64.09,10.35,4.52-.83,7.08-6.31,5.94-10.46-1.31-4.75-5.92-6.77-10.46-5.94-38.45,7.05-72.74-16.9-88.65-50.84-1.95-4.16-7.92-5.22-11.63-3.05-4.26,2.49-5,7.46-3.05,11.63h0Z"/>
    <path class="cls-10" d="m1334.95,1833.32c-31.69-4.06-61.51,14.66-80.11,39.06-20.85,27.36-28.19,62.28-34.99,95.24-2.2,10.68,14.18,15.24,16.39,4.52,6.22-30.16,12.54-61.74,30.52-87.43,15.28-21.83,40.89-37.88,68.18-34.39,4.56.58,8.5-4.32,8.5-8.5,0-5.08-3.93-7.91-8.5-8.5h0Z"/>
    <path class="cls-10" d="m1434.8,2199.46c13.58-68.1,22.45-137.16,26.37-206.5,1.12-19.83,1.82-39.67,2.15-59.53.18-10.94-16.82-10.95-17,0-1.11,68.25-6.87,136.42-17.57,203.83-3.06,19.29-6.52,38.52-10.34,57.67-2.13,10.68,14.25,15.26,16.39,4.52h0Z"/>
    <path class="cls-10" d="m1226.93,1976.44c13.31,20.71,26.62,41.43,39.93,62.14,10.44,16.25,21.3,40.42,43.56,41.4,21.82.96,35.68-18,44.48-35.32,9.08-17.88,18.06-36.35,32.39-50.72,14.73-14.77,36.36-24.28,56.99-17.05,10.34,3.63,14.79-12.79,4.52-16.39-18.48-6.48-38.92-2.38-55.5,7.32-17.18,10.05-29.8,26.22-39.76,43.14-4.95,8.41-9.24,17.16-13.68,25.84-4.1,8.02-8.64,16.96-16.34,22.12-6.84,4.58-15.03,5.84-21.59.15-7.06-6.13-11.63-15.45-16.61-23.19-14.57-22.67-29.14-45.35-43.71-68.02-5.9-9.17-20.62-.66-14.68,8.58h0Z"/>
    <path class="cls-10" d="m1422.31,2189.86c-26.14,17.36-63.16,23.79-92.13,10.22-33.01-15.46-53.6-46.54-72.98-76.01-5.99-9.1-20.71-.6-14.68,8.58,17.17,26.12,34.93,52.61,60.6,71.17,11.85,8.56,25.5,15.29,39.81,18.48,14.27,3.18,28.63,2.44,42.91-.28,15.76-3,31.62-8.55,45.04-17.47,9.07-6.03.57-20.76-8.58-14.68h0Z"/>
    <path class="cls-10" d="m1919.81,1440.5c8.04-2.48,15.94,6.54,13.18,14.25-3.7,10.32,12.72,14.76,16.39,4.52,7.11-19.83-14.25-41.3-34.09-35.17-10.42,3.22-5.97,19.64,4.52,16.39h0Z"/>
    <ellipse class="cls-7" cx="1281.39" cy="1976.16" rx="27.54" ry="13.86" transform="translate(-1007.66 2530.64) rotate(-70.66)"/>
  </g>
  <g id="Layer_3" data-name="Layer 3">
    <path class="cls-1" d="m1175.29,1633.55c14.69-.99,30.46-2.41,41.75-12.29,4.75-4.16,8.36-9.56,11.69-15.04,32.83-54.04,42.7-119.99,46.55-184.15,2.98-49.66,2.6-100.82-13.95-147.57-8.4,11.52-11.39,26.28-16.78,39.65-10.93,27.1-31.61,48.2-48.97,71.26-14.91,19.8-27.55,41.37-40.15,62.88-9.23,15.76-18.73,32.35-19.81,50.87-.81,13.91,3.22,27.6,7.21,40.92,7.24,24.18,14.48,48.36,21.72,72.54,2.58,8.61,5.61,17.88,10.74,20.93Z"/>
    <path class="cls-10" d="m1146.3,1503.98c6.22-35.5,24.75-65.57,45.84-94.12,21.74-29.43,45.1-58.8,61.01-91.94,9.67-20.15,16.02-41.67,15.93-64.17-.04-10.94-17.04-10.96-17,0,.16,39-21.49,72.99-42.97,103.93-19.47,28.04-42.1,54.37-58.51,84.41-9.78,17.9-17.16,37.24-20.68,57.37-.79,4.52,1.21,9.16,5.94,10.46,4.1,1.13,9.66-1.39,10.46-5.94h0Z"/>
    <path class="cls-10" d="m1176.6,1644.03c22.37-3.03,42.43-14.69,56.58-32.22,14.5-17.97,23.44-39.6,29.8-61.64s10.23-45,13.77-67.77c5.56-35.72,7.36-71.62,6.17-107.74-1.38-41.77-6.12-83.33-10.89-124.82-.52-4.56-3.53-8.5-8.5-8.5-4.19,0-9.03,3.91-8.5,8.5,8.12,70.63,16.33,142.26,7.47,213.25-2.9,23.21-6.86,46.58-12.4,69.31-5.1,20.91-11.86,41.82-23.67,59.99-12.67,19.51-31.18,32.12-54.35,35.26-4.55.62-7.04,6.46-5.94,10.46,1.35,4.91,5.89,6.56,10.46,5.94h0Z"/>
    <path class="cls-16" d="m1092.61,1263.52c75.4,375.43,151.16,752.2,273.88,1113.83,3.75,11.05,7.25,24.38.4,33.57-2.53,3.4-6.17,5.67-9.8,7.67-22.66,12.48-48.93,17.65-74.42,14.63-3.43-.41-7.08-1.07-9.62-3.55-2.92-2.86-3.61-7.37-4.14-11.53-10.31-81.81-20.63-163.62-30.94-245.43-18.41-145.98-36.88-292.35-71.16-435.23-8.7-36.27-16.96-43.84-21.51-81.92-7.36,7.96-2.18-26.05-5.84-36.52-12.17-34.83-12.14-71.63-39.55-95.05-49.84-42.58-124.98-39.41-174.08-82.93-26.55-23.53-42.54-59.72-42.47-96.13,31.64,48.96,80.92,85.02,135.49,99.15,32.09,8.31,61.93,10.9,85.23,35.64-23.33-71.14-35.22-144.28-48.46-218.17,9.37,8.45,24.7,8.26,37.01,1.97Z"/>
    <path class="cls-6" d="m1113.04,1555.46c27.49,112.63,51.75,226.05,72.78,340.06,20.91,113.33,38.68,227.25,53.26,341.57,8.24,64.62,15.48,129.36,21.74,194.2.44,4.57,3.59,8.5,8.5,8.5,4.25,0,8.94-3.9,8.5-8.5-11.22-116.19-25.6-232.08-43.16-347.49-17.45-114.67-38.09-228.86-61.96-342.38-13.4-63.72-27.83-127.23-43.27-190.48-2.59-10.62-18.99-6.12-16.39,4.52h0Z"/>
    <path class="cls-6" d="m1043.58,1265.93c9.13,35.93,18.37,71.83,27.16,107.85,4.44,18.2,8.21,36.58,12.62,54.79s8.66,35.53,12.51,53.41c2.3,10.69,18.69,6.17,16.39-4.52-3.84-17.88-8.2-35.64-12.51-53.41s-8.18-36.59-12.62-54.79c-8.79-36.02-18.03-71.92-27.16-107.85-2.69-10.6-19.09-6.11-16.39,4.52h0Z"/>
    <path class="cls-6" d="m1077.5,1263.71c18.83,82.6,36.7,165.41,54.1,248.33,15.19,72.37,30.03,144.81,45.47,217.13,14.53,68.05,29.64,135.98,46.22,203.56,17.09,69.65,35.77,138.91,56.34,207.62,23.1,77.13,48.53,153.55,75.84,229.29,3.69,10.24,7.42,20.47,11.18,30.69,3.74,10.18,20.18,5.78,16.39-4.52-28.33-77.03-54.82-154.73-78.9-233.19-21.26-69.25-40.6-139.08-58.24-209.34s-32.29-135.18-46.96-203.11c-15.42-71.42-30.11-142.99-45.05-214.5-16.98-81.29-34.29-162.5-52.52-243.52-2.47-10.99-4.96-21.97-7.47-32.95s-18.83-6.15-16.39,4.52h0Z"/>
    <path class="cls-6" d="m1267.05,2439.48c41.23,12.98,91.03.26,115.13-37.12,5.95-9.22-8.76-17.75-14.68-8.58-20.03,31.06-62.21,39.92-95.93,29.31-10.46-3.29-14.94,13.11-4.52,16.39h0Z"/>
    <path class="cls-6" d="m1111.4,1475.43c-22.09-29.53-58.44-34.8-92.07-42.48-18.05-4.12-36.79-8.59-53.36-17.07-18.07-9.24-34.09-22.02-47.92-36.8-15.68-16.76-28.04-36.3-37.01-57.4-1.8-4.23-8.03-5.16-11.63-3.05-4.37,2.56-4.85,7.39-3.05,11.63,16.07,37.83,43.69,71.13,78.51,93.13,31.9,20.16,68.99,24.34,104.69,33.8,17.57,4.65,35.9,11.75,47.16,26.82,2.75,3.67,7.35,5.55,11.63,3.05,3.62-2.12,5.82-7.93,3.05-11.63h0Z"/>
    <path class="cls-6" d="m865.1,1325.74c3.27,47.86,22.9,95.97,60.68,126.88,20.25,16.56,45.57,24.45,70.35,31.53,25.48,7.28,51.34,13.95,74.67,26.91,9.47,5.26,16.71,11.88,24.67,20.61,6.25,6.86,14.63,16.52,17.57,23.8,1.72,4.25,5.66,7.25,10.46,5.94,4.04-1.11,7.67-6.17,5.94-10.46-3.62-8.96-9.48-16.62-15.6-24.01s-12.73-14.53-20-20.82c-9.14-7.9-20.46-13.31-31.47-18.09-12.48-5.42-25.34-9.76-38.37-13.61-24.33-7.18-50.71-12.18-72.83-25.11-20.04-11.72-35.72-28.88-47.2-49.01-12.95-22.72-20.08-48.51-21.86-74.55-.74-10.86-17.75-10.94-17,0h0Z"/>
    <g id="Layer_1" data-name="Layer 1">
      <path class="cls-11" d="m953.82,536.02c-28.31,86.12-56.72,172.66-72.18,262.4-15.46,89.74-17.57,183.55,6.44,271.45,7.22,26.46,16.93,52.54,32.31,74.86,8.7,12.62,19.07,23.85,29.41,35.02,32.09,34.69,65.78,70.49,109.05,86.81,3.34,1.26,6.98,2.4,10.37,1.33,3.47-1.09,5.91-4.26,8.12-7.27,27.53-37.5,53.96-77.09,67.28-122.42,8.74-29.73,11.57-61.05,13.02-92.18,1.41-30.2,1.56-60.61-2.57-90.56-10.76-78.08-49.79-148.58-91.17-214.56-41.38-65.98-86.43-130.78-110.07-204.88Z"/>
      <path class="cls-10" d="m945.46,526.84c3.3,13.15,7.4,26.08,11.76,38.91,1.98,5.83,3.54,12.19,6.43,17.65.76,1.44,3.06,4.17,3.38,4.98.58,1.49.41,3.28.97,4.85.67,1.87,1.68,3.64,2.58,5.41,12.05,23.72,24.14,47.44,37.55,70.43,3.17,5.44,6.3,10.95,9.76,16.22,3.7,5.64,8.75,10.91,11.57,17.05,5.65,12.28,14.41,23.46,21.56,34.96,14.26,22.93,27.73,46.35,40.79,69.98,3.01,5.45,6.37,10.84,9,16.49,2.81,6.02,4.64,11.95,8.28,17.58,6.94,10.71,11.12,23.75,15.87,35.58,9.92,24.73,16.71,50.63,20.92,76.91,2.09,13.04,3.54,26.17,4.34,39.35s1.69,27.71.02,41.18-1.47,26.78-3.38,40.09-4.64,25.66-7.71,38.32c-3.34,13.73-8,27.39-12.67,40.73s-9.96,26.05-16.62,38.33c-1.75,3.23-3.78,6.32-5.22,9.7-1.25,2.94-2.05,5.74-3.72,8.49-3.79,6.21-7.61,12.4-11.57,18.51-7.68,11.86-15.88,23.31-25.24,33.91-7.22,8.17,4.76,20.24,12.02,12.02,8.54-9.68,16.31-20.01,23.51-30.71s15.59-21.83,19.99-33.91c2-5.5,5.6-10.56,8.23-15.8,3.1-6.18,5.89-12.5,8.52-18.89,4.89-11.87,8.97-24.06,12.78-36.31,7.77-25,14.02-50.68,16.15-76.85,2.28-28.09,3.47-55.85.7-83.97-1.38-14.06-3.43-28.06-6.04-41.94s-6.13-26.2-10.29-39.22-8.57-25.24-13.82-37.67c-2.57-6.07-4.92-12.25-7.55-18.3-2.28-5.25-6.07-9.59-8.44-14.78-2.95-6.49-5.37-12.84-8.81-19.12s-6.69-12.15-10.08-18.21c-6.73-12.03-13.57-23.99-20.59-35.85-7.08-11.96-14.34-23.81-21.81-35.53-3.46-5.43-7-10.8-10.52-16.18-1.96-3-2.98-6.21-4.73-9.29s-4.3-6.09-6.39-9.07c-17.43-24.79-31.1-52.47-44.86-79.41-1.71-3.34-3.41-6.68-5.11-10.02-.54-1.07-1.06-2.34-1.71-3.37-1.39-2.21-1-2.39-1.67-5.16-.8-3.27-2.89-5.9-4.48-8.76s-2.55-6.38-3.66-9.59c-5.03-14.59-9.83-29.27-13.59-44.25-2.66-10.6-19.06-6.11-16.39,4.52h0Z"/>
      <path class="cls-10" d="m945.46,522.32c-31.79,117.66-74.65,233.37-85.05,355.67-4.99,58.74-2.4,118.7,12.57,175.91,12.69,48.52,34.91,94.23,66.53,133.25,33.21,40.98,77.53,73.6,128.71,87.86,10.56,2.94,15.06-13.46,4.52-16.39-90.24-25.14-153.28-108.46-179.39-195.1-33.76-112.03-15.91-231.56,13.04-342.5,17-65.14,37.9-129.19,55.46-194.18,2.86-10.57-13.54-15.09-16.39-4.52h0Z"/>
      <path class="cls-10" d="m1070.28,1251.93c24.46-71.24,15.47-148.55-3.7-219.88-19.59-72.91-51.03-141.94-71.64-214.53-11.45-40.33-19.38-81.64-19.71-123.67-.09-10.93-17.09-10.96-17,0,.6,75.31,24.59,147.33,49.95,217.4,25.24,69.76,52.24,140.23,58.64,214.78,3.52,41,.48,82.31-12.93,121.39-3.56,10.37,12.86,14.82,16.39,4.52h0Z"/>
      <path class="cls-10" d="m1033.5,936.32c-35.29-52.72-77.89-100.38-126.81-140.8-3.54-2.92-8.56-3.46-12.02,0-3.01,3.01-3.56,9.08,0,12.02,47.81,39.49,89.66,85.83,124.16,137.36,6.06,9.05,20.79.55,14.68-8.58h0Z"/>
      <path class="cls-10" d="m1081.9,1115.38c-22.75-48.9-58.22-91.54-102.21-122.74-12.34-8.76-25.37-16.49-38.94-23.19-9.78-4.82-18.4,9.83-8.58,14.68,59.67,29.44,107.05,79.66,135.05,139.83,1.94,4.16,7.93,5.21,11.63,3.05,4.27-2.5,4.99-7.45,3.05-11.63h0Z"/>
      <path class="cls-9" d="m1032.65,925.04c-4.62-47.49,6.46-95.6,32.42-135.73,5.96-9.21-8.75-17.74-14.68-8.58-27.42,42.37-39.63,94.13-34.74,144.31.44,4.57,3.59,8.5,8.5,8.5,4.25,0,8.95-3.9,8.5-8.5h0Z"/>
      <path class="cls-8" d="m1082.95,1095.13c7.5-49.12,24.67-96.25,51.11-138.35,5.84-9.29-8.87-17.83-14.68-8.58-27.14,43.21-45.12,91.98-52.82,142.41-.69,4.53,1.15,9.14,5.94,10.46,4.02,1.11,9.76-1.37,10.46-5.94h0Z"/>
    </g>
  </g>
</svg>