<?xml version="1.0" encoding="UTF-8"?>
<svg xmlns="http://www.w3.org/2000/svg" xmlns:xlink="http://www.w3.org/1999/xlink" viewBox="0 0 3000 1864.38">
  <defs>
    <style>
      .cls-1 {
        fill: url(#linear-gradient);
      }

      .cls-1, .cls-2, .cls-3, .cls-4, .cls-5, .cls-6, .cls-7, .cls-8, .cls-9, .cls-10, .cls-11, .cls-12 {
        stroke-width: 0px;
      }

      .cls-2 {
        fill: #6d6e8a;
        mix-blend-mode: multiply;
        opacity: .56;
      }

      .cls-3 {
        fill: url(#New_swatch);
      }

      .cls-4 {
        fill: #98c76b;
      }

      .cls-13 {
        isolation: isolate;
      }

      .cls-5 {
        fill: url(#linear-gradient-5);
      }

      .cls-6 {
        fill: #ffefb4;
      }

      .cls-7 {
        fill: url(#linear-gradient-2);
      }

      .cls-8 {
        fill: #8cc47a;
      }

      .cls-9 {
        fill: url(#linear-gradient-3);
      }

      .cls-10 {
        fill: #472211;
      }

      .cls-11 {
        fill: #ffee68;
        mix-blend-mode: overlay;
        opacity: .35;
      }

      .cls-12 {
        fill: url(#linear-gradient-4);
      }
    </style>
    <linearGradient id="New_swatch" data-name="New swatch" x1="1605" y1="945.42" x2="1695" y2="945.42" gradientUnits="userSpaceOnUse">
      <stop offset="0" stop-color="#f8ca80"/>
      <stop offset=".02" stop-color="#e9bb77"/>
      <stop offset=".08" stop-color="#c99d65"/>
      <stop offset=".15" stop-color="#ae8356"/>
      <stop offset=".23" stop-color="#986e4a"/>
      <stop offset=".31" stop-color="#875e40"/>
      <stop offset=".42" stop-color="#7b5339"/>
      <stop offset=".58" stop-color="#744c36"/>
      <stop offset="1" stop-color="#734b35"/>
    </linearGradient>
    <linearGradient id="linear-gradient" x1="1176.82" y1="1101.71" x2="1266.82" y2="1101.71" gradientUnits="userSpaceOnUse">
      <stop offset="0" stop-color="#d2a66d"/>
      <stop offset=".02" stop-color="#c89d67"/>
      <stop offset=".09" stop-color="#ae8357"/>
      <stop offset=".17" stop-color="#986e4b"/>
      <stop offset=".27" stop-color="#875e41"/>
      <stop offset=".38" stop-color="#7b533a"/>
      <stop offset=".55" stop-color="#744c36"/>
      <stop offset="1" stop-color="#734b35"/>
    </linearGradient>
    <linearGradient id="linear-gradient-2" x1="822.4" y1="1261.79" x2="912.4" y2="1261.79" gradientUnits="userSpaceOnUse">
      <stop offset="0" stop-color="#daad71"/>
      <stop offset=".03" stop-color="#ca9e68"/>
      <stop offset=".1" stop-color="#b08558"/>
      <stop offset=".18" stop-color="#9a714b"/>
      <stop offset=".27" stop-color="#896141"/>
      <stop offset=".39" stop-color="#7d563a"/>
      <stop offset=".55" stop-color="#764f36"/>
      <stop offset="1" stop-color="#754e35"/>
    </linearGradient>
    <linearGradient id="linear-gradient-3" x1="1196.5" y1="982.49" x2="2426.77" y2="2317.05" gradientUnits="userSpaceOnUse">
      <stop offset="0" stop-color="#98cc6e"/>
      <stop offset="1" stop-color="#56c0a9"/>
    </linearGradient>
    <linearGradient id="linear-gradient-4" x1="2885" y1="896.79" x2="2975" y2="896.79" gradientUnits="userSpaceOnUse">
      <stop offset="0" stop-color="#b4895c"/>
      <stop offset=".02" stop-color="#ae8358"/>
      <stop offset=".11" stop-color="#986e4b"/>
      <stop offset=".21" stop-color="#875e41"/>
      <stop offset=".33" stop-color="#7b533a"/>
      <stop offset=".51" stop-color="#744c36"/>
      <stop offset="1" stop-color="#734b35"/>
    </linearGradient>
    <linearGradient id="linear-gradient-5" x1="2195" y1="831.71" x2="2285" y2="831.71" gradientUnits="userSpaceOnUse">
      <stop offset="0" stop-color="#d1a46c"/>
      <stop offset=".02" stop-color="#c89c67"/>
      <stop offset=".09" stop-color="#ae8357"/>
      <stop offset=".17" stop-color="#986e4a"/>
      <stop offset=".26" stop-color="#875e40"/>
      <stop offset=".38" stop-color="#7b533a"/>
      <stop offset=".54" stop-color="#744c36"/>
      <stop offset="1" stop-color="#734b35"/>
    </linearGradient>
  </defs>
  <g class="cls-13">
    <g id="Layer_4" data-name="Layer 4">
      <g>
        <path class="cls-3" d="m1605,759.05h45c24.84,0,45,20.16,45,45v282.73c0,24.84-20.16,45-45,45h-45v-372.73h0Z"/>
        <path class="cls-1" d="m1176.82,981.71h45c24.84,0,45,20.16,45,45v150c0,24.84-20.16,45-45,45h-45v-240h0Z"/>
        <path class="cls-7" d="m822.4,1191.79h45c24.84,0,45,20.16,45,45v50c0,24.84-20.16,45-45,45h-45v-140h0Z"/>
        <path class="cls-11" d="m1605.01,1030.18c.78-77.42-.53-150.2.25-227.62.07-6.63,13.3-12.62,18.3-7.92,5.01,4.69,5.32,11.6,5.32,18.23.04,72.74.07,145.48.11,218.22-8.45-.33-15.45-.31-23.99-.9Z"/>
        <path class="cls-11" d="m1176.83,1191.09c.59-59.68-.4-115.79.19-175.47.05-5.11,9.97-9.73,13.73-6.11,3.75,3.62,3.99,8.94,3.99,14.05.03,56.07.06,112.15.08,168.22-6.34-.26-11.58-.24-17.99-.7Z"/>
        <path class="cls-11" d="m822.41,1354.21c.46-42.27-.31-82,.15-124.27.04-3.62,7.76-6.89,10.68-4.33,2.92,2.56,3.1,6.33,3.11,9.95.02,39.71.04,79.42.06,119.13-4.93-.18-9.01-.17-13.99-.49Z"/>
        <path class="cls-9" d="m3000,759.05S606.23,1076.77,0,1864.38h204.3c1.65-.5,3.37-.72,5.11-.59,4.48.34,8.99.43,13.48.59h65.16c.64-.11,1.29-.19,1.99-.18,2.39.02,4.97-.34,7.13,0,.77.12,1.59.16,2.41.19h16.97c5.76-.2,11.74-.65,17.48,0h2665.97v-698.21c-.17-1.87-.15-3.8,0-5.71v-401.41Z"/>
        <path class="cls-2" d="m2652.2,814.63c-106.38,46.68-337.48,172.31-453.83,288.66l86.63-1.59c-1.98-.49,295.66-218.12,427.1-297.51,10.33-6.24-56.63,11.53-59.9,10.44Z"/>
        <path class="cls-2" d="m3000.98,1229.79c-.96-5.57-.54-10.55,1.35-15.28-.27-4.05-.5-8.15-.15-12.1-.19-1.43-.17-2.81,0-4.15-.41-6.1-.64-12.22-.65-18.32-.19-1.83-.34-3.66-.41-5.52-.04-1.12-.11-2.25-.12-3.37h0c-.96-2.71-1.22-5.9-1.09-9.08-43.64,31.76-83.55,64.33-114.91,95.69l86.63-1.59c-.39-.1,10.5-10.05,29.35-26.27Z"/>
        <path class="cls-10" d="m834.76,1312.78c35.85-30.46,71.59-60.08,113.3-82.22,65.68-34.87,132.23-67.92,199.12-100.38,31.19-15.13,62.47-28.66,94.27-42.32,17.99-7.73,35.86-15.57,54.32-22.14,7.53-2.68,13.94-6.89,21.28-9.94,9.99-4.15,20.44-7.36,30.59-11.13,17.95-6.68,35.78-13.68,53.66-20.57,16.79-6.47,33.36-14.05,50.17-20.05,37.62-13.41,75.78-25.46,113.81-37.62,35.32-11.3,70.62-23.04,106.4-32.28,17.96-4.64,34.83-12.87,52.75-17.77s36.5-9.97,54.86-14.54c74.58-18.58,149.27-35.7,225.1-48.4,38.17-6.39,76.3-12.96,114.51-19.08,35.7-5.72,71.6-8.86,107.39-12.94,79.88-9.09,160.1-15.32,240.46-18.01,159.18-5.32,319.38,3.68,476.93,26.9,18.35,2.7,36.64,5.79,54.82,9.48,1.88.38,2.69-2.51.8-2.89-36.79-7.46-73.74-11.21-110.85-16.15-40.28-5.36-80.68-9.75-121.17-13.13-80.41-6.72-161.13-9.48-241.81-8.54-80.07.94-160.07,5.51-239.78,13.12-20.53,1.96-41.04,4.12-61.52,6.46-9.16,1.05-18.11,2.25-27.33,2.25-8.41,0-16.6,2.79-25.04,3.7-36.23,3.91-72.06,9.63-107.97,15.83-38.08,6.57-76.28,12.49-114.28,19.55-39.1,7.26-77.75,16.47-116.43,25.67-37.28,8.87-74.45,18.08-111.36,28.34-17.76,4.94-34.52,13.44-52.45,17.66-17.08,4.02-34.06,9.37-50.85,14.7-38.61,12.26-77.23,24.49-115.69,37.2-19.38,6.41-39.1,12.36-58.15,19.69-16.63,6.4-33.15,13.7-49.88,20.17-18.51,7.15-36.99,14.38-55.63,21.2-17.66,6.46-34.21,14.22-51.64,21.09-16.53,6.51-32.78,13.3-49.14,20.25-7.65,3.25-15.79,5.71-23.23,9.4s-14.59,6-21.69,9.67c-7.38,3.81-15,6.04-22.36,9.87-9,4.68-18.09,9.18-27.22,13.59-17.13,8.29-34.41,16.27-51.53,24.61-34.49,16.8-68.29,35.02-102.42,52.55-28.87,14.83-59.15,28.52-85.65,47.46-20.34,14.54-39.56,30.75-58.74,46.76-4.3,3.59-8.59,7.19-12.86,10.81-1.47,1.25.66,3.37,2.12,2.12h0Z"/>
        <path class="cls-10" d="m834.46,1313.01c25.2-16.97,50.15-35.27,76.72-50.04,32.88-18.27,67.51-33.55,101.76-49.01,35-15.8,69.44-32.54,104.64-48.03,143.06-62.97,289.84-117.94,439.42-163.38,36.66-11.14,73.49-21.67,110.55-31.38,18.43-4.83,36.9-9.48,55.4-13.99,16.83-4.1,35.07-6.19,51.23-11.97,18.95-6.79,40.22-9.58,59.92-13.82,19.27-4.14,38.56-8.16,57.9-12,38.12-7.57,76.39-14.43,114.83-20.16,39.57-5.9,79.32-10.6,119.2-13.72,38.24-2.99,76.56-6.93,114.88-8.55,79.08-3.34,158.11-5.99,237.26-3.16,156.52,5.6,314.02,25.59,465.68,65.15,18.57,4.84,37.07,9.48,55.74,13.88,1.88.44,2.68-2.45.8-2.89-76.27-17.99-151.64-37.7-229.13-50.27-75.85-12.3-152.24-19.88-228.85-25.43-80.38-5.83-161.07-5.65-241.57-2.81-78.32,2.77-156.99,7.89-234.85,16.93-76.83,8.91-152.93,23.06-228.53,39.25-74.94,16.05-149.58,34.13-223.39,55.02-149.8,42.4-298.04,94.52-441.12,155.93-71.45,30.66-142.12,62.83-212.32,96.2-22.89,10.88-45.76,21.87-67.1,35.57-16.89,10.85-33.58,21.99-50.26,33.16-3.45,2.31-6.89,4.62-10.33,6.94-1.59,1.07-.09,3.67,1.51,2.59h0Z"/>
        <path class="cls-10" d="m855.51,1304.23c48.97-29.71,103.44-49.64,156.17-71.58,69.47-28.9,139.43-56.6,209.5-83.99,34.89-13.64,69.59-28.18,105.05-40.28s70.24-21.7,104.39-34.96,70.56-21.48,105.78-31.97c34.61-10.31,68.85-21.3,103.73-30.71,8.8-2.37,17.39-3.75,26.33-5.29,7.6-1.3,14.03-5.27,21.68-6.5,17.79-2.86,35.31-6.97,52.84-11.07,36.93-8.63,74.11-16.17,111.48-22.63,75.25-13.01,151.25-21.59,227.48-26.09,74.49-4.41,149.18-4.94,223.75-2.28,37.34,1.33,74.28,5.14,111.49,8.29s77.58,6.04,116.1,11.46c72.28,10.17,144.51,23.58,215.94,38.63,35.03,7.38,69.78,15.92,104.37,25.21,32.47,8.72,65.9,16.31,97.85,26.28,16.28,5.08,33.01,9.02,49.35,14.04,1.85.57,2.64-2.33.8-2.89-17.54-5.39-35.22-10.84-52.81-15.81-14.67-4.15-30.05-6.81-44.86-10.84-35.26-9.59-71.21-17.87-106.14-28.16-33.79-9.95-69.67-15.45-104.27-21.9-36.31-6.76-72.65-13.64-109.08-19.72-74.01-12.35-148.5-16.67-223.03-24.48-37.47-3.92-75.64-4.04-113.29-4.53-37.62-.49-75.26-.13-112.86,1.19-73.55,2.57-146.98,8.78-219.87,19.03-37.92,5.33-75.69,11.76-113.24,19.29-37.03,7.43-73.61,17.59-110.88,23.77-8.2,1.36-15.18,5.21-23.19,6.66-9.06,1.63-17.78,3.02-26.73,5.43-16.84,4.54-34.11,8.57-50.67,14.01-35.77,11.75-71.92,21.56-108.05,32.08s-69.2,22.75-103.57,34.5-70.83,23.87-105.8,37.49c-71.5,27.84-142.98,55.77-214.03,84.75-34.29,13.99-68.49,28.21-102.54,42.79-25.17,10.77-50.78,20.38-74.88,33.45-8.71,4.72-17.34,9.59-25.8,14.73-1.65,1-.14,3.6,1.51,2.59h0Z"/>
        <path class="cls-10" d="m841.39,1307.19c16.46-14.46,32.14-29.85,48.09-44.87,8.15-7.68,16.29-15.38,24.64-22.86,10.48-9.39,23.16-16.1,34.7-24.15,30.56-21.31,60.12-42.83,92.92-60.67,33.34-18.13,67.26-35.16,101.47-51.58s67.17-33.32,101.33-48.94c35.09-16.04,69.96-33.66,106.22-46.44,7.25-2.55,13.91-7.38,20.73-10.9,9.14-4.72,18.87-6.87,28.41-10.52,17.99-6.89,35.63-14.82,53.53-21.99,35.8-14.34,71.88-27.99,108.15-41.09,36.94-13.33,74.09-26.08,111.38-38.42,35.96-11.89,71.5-24.94,107.94-35.05,74.46-20.66,149.4-38.65,224.51-56.88,36.81-8.94,74.03-16.22,111.39-22.45,37.28-6.21,74.51-12.92,111.95-18.1,80.3-11.11,161.05-19.04,242-23.5,155.81-8.59,311.58-3.68,466.46,13.87,20.64,2.34,41.23,5.08,61.76,8.23,1.89.29,2.7-2.6.8-2.89-37.91-5.82-76.02-10.15-114.23-13.48-38.43-3.35-76.46-7.4-114.96-9.35-79.63-4.03-159.42-4.75-239.1-2.07-80.76,2.72-161.39,8.92-241.63,18.37-38.23,4.5-76.64,9.06-114.45,16.3-37.5,7.18-75.42,12.02-112.91,19.48-76.01,15.12-150.83,35.67-225.93,54.26-75.79,18.76-149.46,44.77-223.22,70.24-37.06,12.8-73.94,26.1-110.58,40.06-18.7,7.12-37.33,14.42-55.89,21.89-17.61,7.1-35.01,15.47-53,21.53-7.02,2.37-14,4.12-20.7,7.36-8.73,4.22-17.12,10.54-26.55,13.09-17,4.6-33.08,13.63-49.14,20.97-18.8,8.59-37.59,17.19-56.39,25.78-16.27,7.44-33.42,15.05-48.83,23.92-16.6,9.55-35.08,16.69-52.38,25.01-17.01,8.18-33.96,16.51-50.79,25.05-34.76,17.65-69.68,35.49-101.73,57.79-15.07,10.49-29.77,21.52-44.92,31.9-10,6.85-20.72,12.58-29.78,20.66-17.93,15.99-35.13,32.8-52.64,49.24-6.85,6.43-13.68,12.88-20.74,19.08-1.45,1.28.68,3.39,2.12,2.12h0Z"/>
        <path class="cls-12" d="m2885,531.79h45c24.84,0,45,20.16,45,45v640c0,24.84-20.16,45-45,45h-45v-730h0Z"/>
        <path class="cls-5" d="m2195,561.71h45c24.84,0,45,20.16,45,45v450c0,24.84-20.16,45-45,45h-45v-540h0Z"/>
        <path class="cls-11" d="m2194.49,1102.97c.85-166.83-.58-323.67.27-490.5.07-14.28,14.41-27.19,19.83-17.07s5.76,25,5.77,39.28c.04,156.75.08,313.49.12,470.24-9.15-.72-16.73-.67-25.99-1.95Z"/>
        <path class="cls-11" d="m2885.01,1269.49c1.12-231-.76-448.15.36-679.14.1-19.77,18.94-37.65,26.07-23.64,7.13,14.01,7.58,34.61,7.58,54.39.05,217.03.11,434.06.16,651.09-12.03-1-21.99-.92-34.16-2.7Z"/>
        <path class="cls-8" d="m1533.73,1067.81c4.66-11.57,1.28-30.37-14.85-19.04-5.08,3.54-6.08,9.9-9.13,14.9-4.5,7.42-11.81,13.42-19.49,17.02-.72.35-5.5,1.81-10.03,3.41-2.27.79-4.5,1.56-6.16,2.14-1.66.6-2.74,1.02-2.74,1.11-.27-7.28.15-13.31-8.68-9.25-9.68,4.46-6.19,15.72-15.98,20.62-11.41,5.9-23.91,10.34-35.65,15.55,11.69-5.19,25.39-7.67,37.6-11.51,13.45-4,26.81-8.22,40.15-12.52,6.7-2.07,13.39-4.18,20.08-6.33,3.34-1.08,6.68-2.17,10.02-3.25l5.01-1.65,5.03-1.58c6.63-2.09,16.58-5.23,28.92-9.13,6.17-1.96,12.99-3.92,20.27-6.12,7.29-2.16,15.03-4.55,23.19-6.89,32.61-9.43,71.32-19.78,108.56-28.92,9.33-2.21,18.55-4.4,27.55-6.54,2.25-.53,4.48-1.06,6.7-1.59,2.23-.5,4.44-.99,6.63-1.48,4.39-.98,8.7-1.94,12.93-2.89,16.89-3.87,32.5-7.02,45.73-9.82,6.61-1.42,12.66-2.59,18-3.64,5.34-1.05,9.97-1.96,13.77-2.71,7.6-1.49,11.88-2.34,11.88-2.34,0,0-8.41,1.67-9.98,1.99-1.56.35,3.67-.85,31.11-5.88,12.67-2.36,23.97-4.47,34.45-6.43,10.47-2.05,20.13-3.94,29.53-5.78,4.7-.96,9.33-1.91,13.96-2.86,4.63-.97,9.27-1.94,13.99-2.92,9.43-1.95,19.15-4.02,29.73-6.3-10.77.94-20.67,1.84-30.27,2.76-4.8.44-9.52.97-14.22,1.51-4.71.56-9.41,1.12-14.17,1.69-4.76.59-9.59,1.2-14.55,1.88-4.95.74-10.03,1.5-15.31,2.29-5.28.84-10.76,1.71-16.52,2.63-5.76.93-11.76,2.06-18.12,3.21-27.53,4.98-32.78,6.18-31.21,5.84,1.58-.3,10.02-1.94,10.02-1.94,0,0-5.52,1.08-15.14,2.97,5.68-1.68,11.13-3.8,14.45-6.35,3.33-2.51,4.51-5.46,1.6-8.87-3.75-4.42-14.22.48-17.49,3.13,2.22-1.81,4.38-6.4,1.17-8.76-4.1-3.4-14.68,1.6-27.64,9.82-10.12,7.59-19.68,12.42-28.6,15.37-8.91,3-17.15,4.21-24.65,4.31,23.13-8.17,33.97-26.03,25.81-32.05-9.42-7.65-24.56-.65-28.83,4.2.95-5.82-5.65-8.01-10.83-7.95-3.39.05-6.95.47-10.55,2.48-3.59,2.03-7.23,5.61-10.76,11.89-5.23,11.32-10.28,17.76-14.94,21.99-4.66,4.2-8.87,6.36-12.38,8.85-7.21,5.09-11.23.45-4.75-3.01,5.03-3.71,8.73-7.03,11.42-10.02,2.7-2.96,4.38-5.56,5.35-7.87,1.94-4.62,1.04-8.05-.19-10.54-1.31-2.51-4.76-3.95-8.7-4.16-3.94-.19-8.35.94-11.58,3.45,1.14-10.67-2.67-16.8-15.12-17.03-7.9.24-13.21,2.97-16.27,7.43-3.05,4.51-3.86,10.71-2.83,17.83-8.44-6.4-21.14,1.38-18.45,14.51,3.57,19.39-1,21.61-5.39,28.72-4.36,7.07-11.7,8.42-7.56,2.65,9.12-13.59,5.16-24.9-3.16-25.26-8.39-.57-14.04,2.66-18.81,11.08-2.98-3.62-8.31-4.27-12.33-2.36-4.01,1.94-6.72,6.35-4.52,12.71,3.84,22.13-9.61,29.24-14,30.13,3.07-1.81,6.16-4.92,7.69-10.55,1.92-7.01-7.05-14.04-13.56-12.03-8.59,2.61-7.54,16.3-12.18,22.48-8.94,11.93-27.78,12.85-40.42,18.21-1.24.52-6.61,2.51-12.84,4.75"/>
        <path class="cls-4" d="m505.73,1475.11c1.68-11.18-5.33-27-17.11-13.57-3.68,4.26-3.29,10-4.93,15.05-2.44,7.47-7.69,14.28-13.75,19.06-.57.44-4.46,2.82-8.2,5.11-1.86,1.16-3.69,2.29-5.05,3.14-1.36.86-2.24,1.45-2.21,1.53-1.68-6.37-2.51-11.78-9.53-6.43-7.7,5.88-2.4,15.13-10.15,21.46-9.08,7.42-19.39,13.78-28.9,20.67,9.47-6.86,21.22-11.7,31.41-17.48,11.17-6.3,22.25-12.68,33.26-19.24,11.02-6.51,22.01-13.07,32.94-19.8,5.42-3.27,13.55-8.18,23.64-14.26,2.52-1.52,5.16-3.11,7.92-4.78,2.77-1.63,5.64-3.32,8.62-5.08,5.95-3.51,12.29-7.24,18.93-11.16,26.64-15.47,58.24-33.25,88.83-49.4,30.61-16.1,60.27-30.5,82.3-40.82,11.04-5.11,20.19-9.17,26.52-12.06,3.17-1.43,5.65-2.57,7.36-3.29,1.7-.73,2.6-1.12,2.6-1.12,0,0-1.77.77-3.7,1.61-1.93.84-4,1.81-4.66,2.11-.65.3.12-.05,3.91-1.76,3.82-1.65,10.68-4.62,22.19-9.6,2.66-1.16,5.24-2.28,7.76-3.37,2.54-1.06,5.01-2.1,7.42-3.11,4.81-2.05,9.4-4.01,13.81-5.89,8.78-3.86,16.96-7.27,24.87-10.71,15.77-6.99,30.77-13.44,48.56-21.41-18.63,5.67-34.33,10.37-50.61,16.18-8.16,2.85-16.55,5.81-25.49,9.37-4.48,1.77-9.13,3.61-14.01,5.54-2.44.98-4.93,1.99-7.49,3.02-2.54,1.08-5.14,2.2-7.81,3.34-11.57,4.97-18.47,7.94-22.31,9.59-3.81,1.72-4.58,2.07-3.92,1.78.66-.29,2.75-1.25,4.69-2.09,1.95-.83,3.72-1.6,3.72-1.6,0,0-1.16.5-3.34,1.44-2.18.93-5.33,2.39-9.35,4.2,2.31-1.32,4.56-2.73,6.52-4.17,1.96-1.45,3.68-2.86,4.88-4.31,2.41-2.88,2.86-5.72-.39-8.14-2.08-1.55-5.2-.76-8.09.79-2.87,1.6-5.5,3.96-6.66,5.47,1.57-2.05,2.53-6.55-.77-7.96-4.31-2.17-12.57,4.48-22.29,14.32-7.31,8.79-14.66,15.07-21.86,19.54-3.61,2.21-7.13,4.07-10.59,5.56-3.46,1.49-6.84,2.61-10.11,3.46,4.64-3.02,8.47-6.43,11.46-9.89,2.98-3.5,5.21-6.9,6.56-10.14,2.71-6.44,2.04-11.86-2.19-13.63-4.93-2.32-10.42-1.26-14.95,1.17-4.53,2.43-8.17,6.07-9.53,8.67-.41-5.32-6.69-5.82-11.24-4.64-2.97.78-6.02,1.92-8.76,4.45-2.72,2.57-5.14,6.51-6.87,12.8-2.13,11.08-5.15,17.84-8.3,22.57-3.15,4.73-6.37,7.54-8.9,10.49-5.2,6.06-9.75,2.86-4.83-1.6,3.59-4.36,6.11-8.09,7.81-11.31,1.7-3.22,2.62-5.84,2.96-8.09.69-4.48-.85-7.3-2.48-9.21-1.7-1.91-5.05-2.43-8.56-1.74-3.49.73-7.12,2.67-9.41,5.59-1.35-9.62-6.04-14.16-17.04-11.61-13.83,3.88-16.15,14.39-11.17,26.42-8.83-3.75-18.25,5.87-12.97,16.8,3.71,8.1,4.7,12.9,4.46,16.57-.22,3.69-1.66,6.26-2.81,9.85-2.27,7.16-8.43,9.96-6.06,3.99,5.02-13.92-.97-22.97-8.36-21.45-7.49,1.34-11.73,5.42-14.07,13.85-6.86-5.08-19.14,2.64-12.5,12.82,8.22,18.58-2.1,27.76-5.77,29.5,2.31-2.25,4.36-5.66,4.49-10.94.16-6.57-9.25-10.79-14.54-7.62-6.95,4.22-3.08,16.01-5.86,22.43-2.69,6.19-8.12,10.52-14.16,14.2-6.02,3.72-12.64,6.83-17.72,10.45-1,.72-5.34,3.59-10.39,6.87"/>
        <g>
          <path class="cls-6" d="m505.73,1601.89c1.68-11.18-5.33-27-17.11-13.57-3.68,4.26-3.29,10-4.93,15.05-2.44,7.47-7.69,14.28-13.75,19.06-.57.44-4.46,2.82-8.2,5.11-1.86,1.16-3.69,2.29-5.05,3.14-1.36.86-2.24,1.45-2.21,1.53-1.68-6.37-2.51-11.78-9.53-6.43-7.7,5.88-2.4,15.13-10.15,21.46-9.08,7.42-19.39,13.78-28.9,20.67,9.47-6.86,21.22-11.7,31.41-17.48,11.17-6.3,22.25-12.68,33.26-19.24,11.02-6.51,22.01-13.07,32.94-19.8,5.42-3.27,13.55-8.18,23.64-14.26,2.52-1.52,5.16-3.12,7.92-4.78,2.77-1.63,5.64-3.32,8.62-5.08,5.95-3.51,12.29-7.24,18.93-11.16,26.64-15.47,58.24-33.25,88.83-49.4,30.61-16.1,60.27-30.5,82.3-40.82,11.04-5.11,20.19-9.17,26.52-12.06,3.17-1.43,5.65-2.57,7.36-3.29,1.7-.73,2.6-1.12,2.6-1.12,0,0-1.77.77-3.7,1.61-1.93.84-4,1.81-4.66,2.11-.65.3.12-.05,3.91-1.76,3.82-1.65,10.68-4.62,22.19-9.6,2.66-1.16,5.24-2.28,7.76-3.37,2.54-1.06,5.01-2.1,7.42-3.11,4.81-2.05,9.4-4.01,13.81-5.89,8.78-3.86,16.96-7.27,24.87-10.71,15.77-6.99,30.77-13.44,48.56-21.41-18.63,5.67-34.33,10.37-50.61,16.18-8.16,2.85-16.55,5.81-25.49,9.37-4.48,1.77-9.13,3.61-14.01,5.54-2.44.98-4.93,1.99-7.49,3.02-2.54,1.08-5.14,2.2-7.81,3.34-11.57,4.97-18.47,7.94-22.31,9.59-3.81,1.72-4.58,2.07-3.92,1.78.66-.29,2.75-1.25,4.69-2.09,1.95-.83,3.72-1.6,3.72-1.6,0,0-1.16.5-3.34,1.44-2.18.93-5.33,2.39-9.35,4.2,2.31-1.32,4.56-2.73,6.52-4.18,1.96-1.45,3.68-2.86,4.88-4.31,2.41-2.88,2.86-5.72-.39-8.14-2.08-1.55-5.2-.76-8.09.79-2.87,1.6-5.5,3.96-6.66,5.47,1.57-2.05,2.53-6.55-.77-7.96-4.31-2.17-12.57,4.48-22.29,14.32-7.31,8.79-14.66,15.07-21.86,19.54-3.61,2.21-7.13,4.07-10.59,5.56-3.46,1.49-6.84,2.61-10.11,3.46,4.64-3.02,8.47-6.43,11.46-9.89,2.98-3.5,5.21-6.9,6.56-10.14,2.71-6.44,2.04-11.86-2.19-13.63-4.93-2.32-10.42-1.26-14.95,1.17-4.53,2.43-8.17,6.07-9.53,8.67-.41-5.32-6.69-5.82-11.24-4.64-2.97.78-6.02,1.92-8.76,4.45-2.72,2.57-5.14,6.51-6.87,12.8-2.13,11.08-5.15,17.84-8.3,22.57-3.15,4.73-6.37,7.54-8.9,10.49-5.2,6.06-9.75,2.86-4.83-1.6,3.59-4.36,6.11-8.09,7.81-11.31,1.7-3.22,2.62-5.84,2.96-8.09.69-4.48-.85-7.3-2.48-9.21-1.7-1.91-5.05-2.43-8.56-1.74-3.49.73-7.12,2.67-9.41,5.59-1.35-9.62-6.04-14.16-17.04-11.61-13.83,3.88-16.15,14.39-11.17,26.42-8.83-3.75-18.25,5.87-12.97,16.8,3.71,8.1,4.7,12.9,4.46,16.57-.22,3.69-1.66,6.26-2.81,9.85-2.27,7.16-8.43,9.96-6.06,3.99,5.02-13.92-.97-22.97-8.36-21.45-7.49,1.34-11.73,5.42-14.07,13.85-6.86-5.08-19.14,2.64-12.5,12.82,8.22,18.58-2.1,27.76-5.77,29.5,2.31-2.25,4.36-5.66,4.49-10.94.16-6.57-9.25-10.79-14.54-7.62-6.95,4.22-3.08,16.01-5.86,22.43-2.69,6.19-8.12,10.52-14.16,14.2-6.02,3.72-12.64,6.83-17.72,10.45-1,.72-5.34,3.59-10.39,6.87"/>
          <path class="cls-6" d="m184.73,1827.62c1.68-11.18-5.33-27-17.11-13.57-3.68,4.26-3.29,10-4.93,15.05-2.44,7.47-7.69,14.28-13.75,19.06-.57.44-4.46,2.82-8.2,5.11-1.86,1.16-3.69,2.29-5.05,3.14-1.36.86-2.24,1.45-2.21,1.53-1.68-6.37-2.51-11.78-9.53-6.43-7.7,5.88-2.4,15.13-10.15,21.46-9.08,7.42-19.39,13.78-28.9,20.67,9.47-6.86,21.22-11.7,31.41-17.48,11.17-6.29,22.25-12.68,33.26-19.24,11.02-6.51,22.01-13.07,32.94-19.8,5.42-3.27,13.55-8.18,23.64-14.26,2.52-1.52,5.16-3.12,7.92-4.78,2.77-1.63,5.64-3.32,8.62-5.08,5.95-3.51,12.29-7.24,18.93-11.16,26.64-15.47,58.24-33.25,88.83-49.4,30.61-16.1,60.27-30.5,82.3-40.82,11.04-5.11,20.19-9.17,26.52-12.06,3.17-1.43,5.65-2.57,7.36-3.29,1.7-.73,2.6-1.12,2.6-1.12,0,0-1.77.77-3.7,1.61-1.93.84-4,1.81-4.66,2.11-.65.3.12-.05,3.91-1.76,3.82-1.65,10.68-4.62,22.19-9.6,2.66-1.16,5.24-2.28,7.76-3.37,2.54-1.06,5.01-2.1,7.42-3.11,4.81-2.05,9.4-4.01,13.81-5.89,8.78-3.86,16.96-7.27,24.87-10.71,15.77-6.99,30.77-13.44,48.56-21.41-18.63,5.67-34.33,10.37-50.61,16.18-8.16,2.85-16.55,5.81-25.49,9.37-4.48,1.77-9.13,3.61-14.01,5.54-2.44.98-4.93,1.99-7.49,3.02-2.54,1.08-5.14,2.2-7.81,3.34-11.57,4.97-18.47,7.94-22.31,9.59-3.81,1.72-4.58,2.07-3.92,1.78.66-.29,2.75-1.25,4.69-2.09,1.95-.83,3.72-1.6,3.72-1.6,0,0-1.16.5-3.34,1.44-2.18.93-5.33,2.39-9.35,4.2,2.31-1.32,4.56-2.73,6.52-4.18,1.96-1.45,3.68-2.86,4.88-4.31,2.41-2.88,2.86-5.72-.39-8.14-2.08-1.55-5.2-.76-8.09.79-2.87,1.6-5.5,3.96-6.66,5.47,1.57-2.05,2.53-6.55-.77-7.96-4.31-2.17-12.57,4.48-22.29,14.32-7.31,8.79-14.66,15.07-21.86,19.54-3.61,2.21-7.13,4.07-10.59,5.56-3.46,1.49-6.84,2.61-10.11,3.46,4.64-3.02,8.47-6.43,11.46-9.89,2.98-3.5,5.21-6.9,6.56-10.14,2.71-6.44,2.04-11.86-2.19-13.63-4.93-2.32-10.42-1.26-14.95,1.17-4.53,2.43-8.17,6.07-9.53,8.67-.41-5.32-6.69-5.82-11.24-4.64-2.97.78-6.02,1.92-8.76,4.45-2.72,2.57-5.14,6.51-6.87,12.8-2.13,11.08-5.15,17.84-8.3,22.57-3.15,4.73-6.37,7.54-8.9,10.49-5.2,6.06-9.75,2.86-4.83-1.6,3.59-4.36,6.11-8.09,7.81-11.31,1.7-3.22,2.62-5.84,2.96-8.09.69-4.48-.85-7.3-2.48-9.21-1.7-1.91-5.05-2.43-8.56-1.74-3.49.73-7.12,2.67-9.41,5.59-1.35-9.62-6.04-14.16-17.04-11.61-13.83,3.88-16.15,14.39-11.17,26.42-8.83-3.75-18.25,5.87-12.97,16.8,3.71,8.1,4.7,12.9,4.46,16.57-.22,3.69-1.66,6.26-2.81,9.85-2.27,7.16-8.43,9.96-6.06,3.99,5.02-13.92-.97-22.97-8.36-21.45-7.49,1.34-11.73,5.42-14.07,13.85-6.86-5.08-19.14,2.64-12.5,12.82,8.22,18.58-2.1,27.76-5.77,29.5,2.31-2.25,4.36-5.66,4.49-10.94.16-6.57-9.25-10.79-14.54-7.62-6.95,4.22-3.08,16.01-5.86,22.43-2.69,6.19-8.12,10.52-14.16,14.2-6.02,3.72-12.64,6.83-17.72,10.45-1,.72-5.34,3.59-10.39,6.87"/>
          <path class="cls-6" d="m568.89,1658.51c-55.05,11.94-109.22,27.92-161.94,47.77-20.34,7.66-40.47,15.9-60.04,25.36-39.47,19.1-76.36,43.05-113.13,66.94-32.91,21.38-65.83,42.76-97.58,65.83-.58.42,259.45.37,269.7-.03,71.57-77.2,302.79-238.54,302.79-238.54.22-5.78-101.37,38.82-94.63,27.46-15.18-.96-30.32,1.99-45.19,5.21Z"/>
          <path class="cls-6" d="m785.68,1462.54c20.24-7.46,41.6-15.74,54.62-32.94,9.14-12.08,13.14-27.36,21.67-39.88,9.61-14.1,31.82-9.21,34.59,7.62,1.33,8.13,6.46,3.52,10.9-2.46,7.67-10.33,17.2-19.16,28.37-25.55,3.68-2.11,7.63-4.17,11.66-5.96,15.37-6.82,31.69,7.95,26.17,23.84-.03.09-.06.18-.09.27,23.53,4.11,45.54-10.89,66.13-22.99,2.94-1.73,6.02-3.4,9.18-4.97,14.35-7.08,25.4,14.11,11.46,21.96-3.1,1.75-6.32,3.32-9.27,5.32-152.48,102.98-168.89,112.48-381.54,266.83-9.29,6.75-306.53,88.53-317.08,84.01s-18.96-16.15-15.97-27.24c4.36-16.18,27.74-19.97,34.28-35.4.92-2.18,2.95-6.69,5.23-11.69,4.46-9.8,16.54-13.7,25.71-8.06,3.44,2.11,6.7,3.43,8.92,2.8,2.51-.71,5.18-3.99,7.6-7.98,6.06-9.98,16.53-16.49,28.19-17.1,10.34-.55,22.28-2.82,29.43-9.62,44.26-42.04,93.78-55.4,146.2-86.68,54.89-32.77,120.72-58.33,163.64-74.15Z"/>
        </g>
      </g>
    </g>
  </g>
</svg>