<?xml version="1.0" encoding="UTF-8"?>
<svg xmlns="http://www.w3.org/2000/svg" xmlns:xlink="http://www.w3.org/1999/xlink" viewBox="0 0 3000 2075.71">
  <defs>
    <style>
      .cls-1 {
        fill: url(#linear-gradient);
      }

      .cls-1, .cls-2, .cls-3, .cls-4 {
        stroke-width: 0px;
      }

      .cls-2 {
        fill: #addae8;
      }

      .cls-5 {
        isolation: isolate;
      }

      .cls-3 {
        fill: #938fb0;
      }

      .cls-4 {
        fill: #b3e3f2;
      }

      .cls-6 {
        mix-blend-mode: multiply;
      }
    </style>
    <linearGradient id="linear-gradient" x1="1503.04" y1="1547.32" x2="1503.04" y2="2158.8" gradientUnits="userSpaceOnUse">
      <stop offset="0" stop-color="#8cceec"/>
      <stop offset="1" stop-color="#00a3de"/>
    </linearGradient>
  </defs>
  <g class="cls-5">
    <g id="Layer_2_copy" data-name="Layer 2 copy">
      <g class="cls-6">
        <path class="cls-3" d="m1868.67,1397.52c9.12-13.59,12.87-32.85-1.18-41.25-14.05-8.4-35.21,2.2-36.9,18.48-3.02,29.16-15.84,57.22-35.9,78.6-5.47,5.83,2.41,17.26,9.8,14.22,32.74-13.46,48.7-47,64.17-70.05Z"/>
        <path class="cls-3" d="m1468.42,1093.83c7.65-6.07,15.46-12.31,20.63-20.59s7.3-19.15,2.91-27.87c-4.39-8.72-16.58-13.44-24.62-7.9-21.06,14.51-34.41,39.61-34.68,65.19s12.56,50.95,33.31,65.89c-16.78-23.27-15.49-60.49,2.44-74.72Z"/>
        <path class="cls-3" d="m2359.33,1460.92c10.84-6.13,27.82-22.14,29.65-34.46,1.83-12.32-6.94-25.3-19.05-28.2-12.11-2.91-25.81,4.68-29.77,16.48-10.67,31.78-33.05,59.48-61.88,76.58,38.44-7.21,63.21-20.31,81.06-30.4Z"/>
        <path class="cls-3" d="m2281.44,1046.38c8.8-9.96,42.89-29.85,25.4-54.71-5.35-7.6-16.88-10.91-24.45-5.53-45.77,32.54-64.7,98.02-43.35,149.97-1.28-41.07,19.64-63.96,42.4-89.73Z"/>
        <path class="cls-3" d="m2277.7,761.51c5.16-67.6-31.92-136.64-91.14-169.65-12.23-6.82-29.25-3.2-37.65,8.01s-7.09,28.56,2.89,38.38c36.91,36.33,54.45,91.29,45.43,142.29-2.63-13.55-8.41-27.05-19.04-35.86s-26.79-11.78-38.51-4.49c-11.72,7.29-15.56,25.87-5.69,35.53,66.75,65.36,86.92,173.65,48.16,258.65,75.61-76.93,89.17-189.33,95.55-272.86Z"/>
        <path class="cls-3" d="m2110.96,663.08c-4.57-17.8-16.23-36.1-34.07-31.7-17.84,4.41-26.58,29.33-15.4,43.92,6.57,8.57,11.37,18.43,18.34,26.67s17.04,14.99,27.8,14.07c10.76-.92,20.52-12.41,16.56-22.46-5.43-13.77-12.28-26.84-13.23-30.51Z"/>
        <path class="cls-3" d="m2307.76,887.65c5.18-5.28,10.45-10.63,16.76-14.13,6.31-3.5,13.91-4.95,20.28-2.06,6.37,2.88,10.78,10.89,8.66,18.17-3.73,12.78-14.18,22.21-25.2,28.49-11.02,6.27-23.04,10.17-34.01,16.55-10.97,6.37-21.3,16.02-24.73,28.9,8.89-30.44,23.02-60.39,38.24-75.91Z"/>
        <path class="cls-3" d="m653.77,1469.69c22.09-7.5,40.86-18.08,40.91-27.92s-7.19-24.72-16.47-28c-20.77-7.36-45.24,2.17-58.56,19.72-13.32,17.55-16.38,41.45-11.69,62.98,4.7,21.53,16.43,40.94,30.29,58.07-6.09-20.04-9.16-76.48,15.51-84.85Z"/>
        <path class="cls-3" d="m459.48,1435c-9.1-20.01,2.06-46.62,22.71-54.16,20.65-7.53,46.33,5.65,52.25,26.81,12.56,44.92,25.12,89.83,37.68,134.75,1.81,6.46-7.04,12.8-12.58,9.02-45.17-30.82-81.31-75.21-100.06-116.43Z"/>
        <path class="cls-3" d="m1614.24,1531.31c7.3-9.92,43.44-37.72,61.29-43.18,11.78-3.6,41.96-3.03,49.54-12.73,7.58-9.71.62-28.66-11.37-25.86-56.97,13.27-108.33,49.22-140.3,98.21-42.26,64.76-101.09,118.6-169.32,154.97-21.23,11.31-27.43,43.45-11.94,61.85,15.49,18.4,48.21,17.77,62.98-1.22,70.69-90.9,99.09-150.5,159.12-232.04Z"/>
        <path class="cls-3" d="m1095.78,1370.59c11.56-56.58,60.06-117.85,109.64-135.8,58.6-21.21,121.29-5.8,157.08,40.52s43,97.2,40.72,155.69-31.27,122.63-62.22,172.31c14.98-56.7,10.2-95.24-12.53-144.01-20.2-43.36-36.88-67.85-80.92-95.46-40.1-25.15-94.12-50.9-151.77,6.75Z"/>
        <path class="cls-3" d="m328.86,1617.1c25.94,14,51.89,28,77.83,42,15.92,8.59,37.47-.92,45.48-17.14,8.02-16.22,4.46-36.32-5-51.74-9.47-15.41-24.06-26.93-38.93-37.24-68.5-47.5-149.84-76.29-232.97-82.46-14.59-1.08-29.23,9.21-33.14,23.3s3.31,30.46,16.37,37.06c55.1,27.85,110.99,54.18,170.36,86.21Z"/>
        <path class="cls-3" d="m843.67,1810.37c8.67,6.4,20.1,11.58,27.1,3.39,7-8.19,2.71-23.04-7.57-26.24-77.49-24.14-136.9-97.97-143.9-178.83-.8-9.27-15.15-11.65-21.64-4.99-6.49,6.66-6.44,17.32-4.25,26.37s6.09,17.87,5.87,27.17c-.5,20.37-20.95,35.26-41.07,38.5s-40.53-1.7-60.86-3.06-43.03,1.98-56.21,17.52-8.11,45.43,11.94,49.09c97.76,17.86,213.14-6.14,290.61,51.1Z"/>
        <path class="cls-3" d="m648.94,1811.19c-13.07-19.23-60.26-20.02-83.5-20.71s-48.43-4.3-64.72-20.9-15.91-49.94,5.55-58.9c18.32-7.65,24.91-34.52,12.2-49.78-12.71-15.25-40.34-13.62-51.16,3.02-16.65,25.6-55.71,32.98-80.55,15.22-109.79-78.46-199.49-108.67-328.67-69.66-13.91,4.2-38.04,18.21-56.24,34.22.7,10.82,1.37,21.65,2,32.48.15,2.56-.64,4.97-2.02,7.02.19,6.24.29,12.49.35,18.73,21.51,4.41,51.33-2.15,66.87-12.49,61.75-41.09,118.99-14.44,184.98,19.44,65.99,33.88,122.58,70.08,188.05,111.76,66.2,42.15,140.76,50.04,170.35,42.53,33.43-8.47,52.31-28.77,36.51-52.01Z"/>
        <path class="cls-3" d="m2027.14,1153.48c0,63.29-17.14,136.95-56.8,186.27,22.99-74.7,27.92-158.55,2.03-232.29s-83.81-135.63-159.66-154.49c10.64-12.28,60.92-8.72,76.49-4.1,48.48,14.39,71.68,37.94,100.14,79.74,28.46,41.8,37.81,85.21,37.81,124.88Z"/>
        <path class="cls-3" d="m2247.88,1346.01c56.3-55.63,96.69-127.18,115.22-204.13,2.46-10.21,6.56-56.34-3.92-55.72-20.54,1.21-38.06,73.23-44.98,89.03-49.38,112.55-94.29,136.36-201.31,204.76-13.41,8.57-122.22,68.55-116.4,83.37s67.15,10.11,82.12,4.72c69.79-25.13,124.27-77.56,169.27-122.02Z"/>
        <path class="cls-3" d="m2964.9,1504.8c-218.11-22.92-426.95,42.17-597.32,180.27-17.46,14.15-5.11,48.7,17.36,48.58,55.68-.29,106.47-30.48,152.13-62.36,45.65-31.88,91.08-67.24,145.16-80.51,54.08-13.27,120.3,2.91,145.49,52.57,31.13,61.39,79.85,93.85,138.38,57.63"/>
        <path class="cls-3" d="m2967.85,2077.27c-.9-211.21-1.8-422.42-3.4-634.89-161.02-24.61-332.45,19.9-457.47,118.76-31.31,24.76-69.05,42.23-109.35,50.98-34.4,11.46-72.07,14.06-107.87,7.46,8.14-19.86,29.67-29.6,49.95-38.92,14.66-6.74,25.93-18.88,24.74-31.57-1.19-12.68-16.04-19.61-29.54-19.64-62.88-.15-125.5,22.78-173.53,60.8,146.86-132.72,254.75-307.18,225.4-497.05-1.59-10.31-11.87-51.67-25.91-48.71-18.03,3.8-25.33,34.8-29.23,47.96-23.41,79.05-34.96,100.85-88.21,155.62,1.04-7.15-5.21-15.5-12.85-15.06-4.88.28-10.22,3.64-17.38,10.09,14.97-15.55,14.72-52.01-3.52-62.12-19.71-10.92-49.24-1.13-67.49,12.08-18.13,13.12-34.55,30.99-47.19,49.31,12.08-55.26,9.45-113.32-5.24-168.51-22.11-70.18-77.33-130.44-147.74-161.22-70.41-30.78-152.8-29.32-225.86-2.09-21.27,7.93-25.85,35.77-2.87,37.46,58.1,4.26,91.09-5.95,141.03,19.83,49.95,25.78,87.2,70.27,109.87,119.55,22.67,49.28,27.57,103.83,27.57,157.58-18.51,126.67-75.92,260.43-194.46,324.33-20.79,11.21-65.37,37.79-86.03,41.34-15.91,2.74-33.73-.26-45.15-11.07-11.42-10.81-10.27-22.9-2.66-41.27,13.87-33.51,52.71-52,79.06-78,8.16-8.05,9.85-21.28,3.95-30.92-5.89-9.65-18.67-13.88-30.34-12.26-71.4,9.87-126.5,52.76-157.4,115.33-33.23-122.12-97.28-271.79-161.26-341.61-63.64-69.45-216.04-166.36-355.97-152.67-137.54,8.75-248.91,112.31-283.66,233.49-10.92,38.09,6.77,81.91,41.78,103.48s84.64,19.24,117.21-5.51c3.43,21.63,22.83,40.13,45.71,43.59,22.88,3.47,50.99-7.06,61.42-26.58,4.68,18.47,30.64,19.23,46.13,7.11s16.23-35.16,30.47-48.59c16.41-15.48,27.2-23.21,48.71-27.52,60.71-12.17,117.46,29.91,155.06,76.51,37.59,46.6,52.94,108.59,42.05,168.81-14.28,66.5-59.14,129.42-124.31,158.08-63.26,27.82-125.76,32.85-205.35,27.46-68.02-4.61-126.71-22.16-188.67-43.71-60.9-21.18-100.79-93.97-85.47-155.28,5.72-22.91-12.88-44.88-36.71-37.92-25.77,7.53-46.77,54.39-50.04,77.73-4,28.55.48,40.56,4.7,45.6-88.6-58.44-176.92-128.28-279.79-181.91-93.1-60.89-225.4-84.79-317.05-36.86-25.64,13.41-66.45,73.04-66.7,78.1.35.48,10.22,112.87,10.28,560.74,314.09-.35,2541.51-2.57,2957.71,4.85-.55-.03-.71-.26,2.9-2.56Z"/>
      </g>
    </g>
    <g id="Layer_2_copy_2" data-name="Layer 2 copy 2">
      <path class="cls-1" d="m98.84,1441.49c-53.22,27.83-95.81,110.25-95.81,110.25l2.56,528.64s2547.3-3.18,2994.74,4.81c-.66,0-1.33,0,2.7-2.57-.9-211.21-1.8-422.42-3.4-634.89-161.02-24.61-332.45,19.9-457.47,118.76-31.31,24.76-69.05,42.23-109.35,50.98-34.4,11.46-72.07,14.06-107.87,7.46,8.14-19.86,29.67-29.6,49.95-38.92,14.66-6.74,25.93-18.88,24.74-31.57-1.19-12.68-16.04-19.61-29.54-19.64-62.88-.15-125.5,22.78-173.53,60.8,146.86-132.72,254.75-307.18,225.4-497.05-1.59-10.31-11.87-51.67-25.91-48.71-18.03,3.8-25.33,34.8-29.23,47.96-23.41,79.05-34.96,100.85-88.21,155.62,1.04-7.15-5.21-15.5-12.85-15.06-5.44.31-11.45,4.43-19.91,12.42,17.49-13.88,18.22-53.8-1-64.45-19.7-10.92-49.24-1.13-67.49,12.08-18.13,13.12-34.55,30.99-47.19,49.31,12.08-55.26,9.45-113.32-5.24-168.51-22.11-70.18-77.33-130.44-147.74-161.22-70.41-30.78-152.8-29.32-225.86-2.09-21.27,7.93-25.85,35.77-2.87,37.46,58.1,4.26,91.09-5.95,141.03,19.83,49.95,25.78,87.2,70.27,109.87,119.55,22.67,49.28,27.57,103.83,27.57,157.58-18.51,126.67-75.92,260.43-194.46,324.33-20.79,11.21-65.37,37.79-86.03,41.34-15.91,2.74-33.73-.26-45.15-11.07-11.42-10.81-10.27-22.9-2.66-41.27,13.87-33.51,52.71-52,79.06-78,8.16-8.05,9.85-21.28,3.95-30.92-5.89-9.65-18.67-13.88-30.34-12.26-71.4,9.87-126.5,52.76-157.4,115.33-33.23-122.12-97.28-271.79-161.26-341.61-63.64-69.45-216.04-166.36-355.97-152.67-137.54,8.75-248.91,112.31-283.66,233.49-10.92,38.09,6.77,81.91,41.78,103.48,35.01,21.57,84.64,19.24,117.21-5.51,3.43,21.63,22.83,40.13,45.71,43.59s50.99-7.06,61.42-26.58c4.68,18.47,30.64,19.23,46.13,7.11,15.49-12.12,16.23-35.16,30.47-48.59,16.41-15.48,27.2-23.21,48.71-27.52,60.71-12.17,117.46,29.91,155.06,76.51,37.59,46.6,52.94,108.59,42.05,168.81-14.28,66.5-59.14,129.42-124.31,158.08-63.26,27.82-125.76,32.85-205.35,27.46-68.02-4.61-126.71-22.16-188.67-43.71-60.9-21.18-100.79-93.97-85.47-155.28,5.72-22.91-12.88-44.88-36.71-37.92-25.77,7.53-46.77,54.39-50.04,77.73-6.66,47.56,10.2,49.22,10.2,49.22-90.45-59.15-180.3-130.79-285.29-185.53-93.1-60.89-225.4-84.79-317.05-36.86Z"/>
      <g id="Layer_4_copy" data-name="Layer 4 copy">
        <path class="cls-4" d="m1903.85,1402.88c9.12-13.59,12.87-32.85-1.18-41.25-14.05-8.4-35.21,2.2-36.9,18.48-3.02,29.16-15.84,57.22-35.9,78.6-5.47,5.83,2.41,17.26,9.8,14.22,32.74-13.46,48.7-47,64.17-70.05Z"/>
        <path class="cls-4" d="m1503.61,1099.18c7.65-6.07,15.46-12.31,20.63-20.59s7.3-19.15,2.91-27.87-16.58-13.44-24.62-7.9c-21.06,14.51-34.41,39.61-34.68,65.19-.27,25.58,12.56,50.95,33.31,65.89-16.78-23.27-15.49-60.49,2.44-74.72Z"/>
        <path class="cls-4" d="m2394.52,1466.27c10.84-6.13,27.82-22.14,29.65-34.46,1.83-12.32-6.94-25.3-19.05-28.2-12.11-2.91-25.81,4.68-29.77,16.48-10.67,31.78-33.05,59.48-61.88,76.58,38.44-7.21,63.21-20.31,81.06-30.4Z"/>
        <path class="cls-4" d="m2316.62,1051.74c8.8-9.96,42.89-29.85,25.4-54.71-5.35-7.6-16.88-10.91-24.45-5.53-45.77,32.54-64.7,98.02-43.35,149.97-1.28-41.07,19.64-63.96,42.4-89.73Z"/>
        <path class="cls-4" d="m2312.88,766.86c5.16-67.6-31.92-136.64-91.14-169.65-12.23-6.82-29.25-3.2-37.65,8.01-8.4,11.21-7.09,28.56,2.89,38.38,36.91,36.33,54.45,91.29,45.43,142.29-2.63-13.55-8.41-27.05-19.04-35.86-10.63-8.81-26.79-11.78-38.51-4.49-11.72,7.29-15.56,25.87-5.69,35.53,66.75,65.36,86.92,173.65,48.16,258.65,75.61-76.93,89.17-189.33,95.55-272.86Z"/>
        <path class="cls-4" d="m2146.15,668.43c-4.57-17.8-16.23-36.1-34.07-31.7s-26.58,29.33-15.4,43.92c6.57,8.57,11.37,18.43,18.34,26.67,6.97,8.25,17.04,14.99,27.8,14.07s20.52-12.41,16.56-22.46c-5.43-13.77-12.28-26.84-13.23-30.51Z"/>
        <path class="cls-4" d="m2342.95,893c5.18-5.28,10.45-10.63,16.76-14.13,6.31-3.5,13.91-4.95,20.28-2.06,6.37,2.88,10.78,10.89,8.66,18.17-3.73,12.78-14.18,22.21-25.2,28.49-11.02,6.27-23.04,10.17-34.01,16.55-10.97,6.37-21.3,16.02-24.73,28.9,8.89-30.44,23.02-60.39,38.24-75.91Z"/>
        <path class="cls-4" d="m688.95,1475.04c22.09-7.5,40.86-18.08,40.91-27.92.06-9.84-7.19-24.72-16.47-28-20.77-7.36-45.24,2.17-58.56,19.72s-16.38,41.45-11.69,62.98,16.43,40.94,30.29,58.07c-6.09-20.04-9.16-76.48,15.51-84.85Z"/>
        <path class="cls-4" d="m494.67,1440.35c-9.1-20.01,2.06-46.62,22.71-54.16,20.65-7.53,46.33,5.65,52.25,26.81,12.56,44.92,25.12,89.83,37.68,134.75,1.81,6.46-7.04,12.8-12.58,9.02-45.17-30.82-81.31-75.21-100.06-116.43Z"/>
      </g>
      <g id="Layer_3_copy" data-name="Layer 3 copy">
        <path class="cls-2" d="m1649.43,1536.66c7.3-9.92,43.44-37.72,61.29-43.18,11.78-3.6,41.96-3.03,49.54-12.73,7.58-9.71.62-28.66-11.37-25.86-56.97,13.27-108.33,49.22-140.3,98.21-42.26,64.76-101.09,118.6-169.32,154.97-21.23,11.31-27.43,43.45-11.94,61.85s48.21,17.77,62.98-1.22c70.69-90.9,99.09-150.5,159.12-232.04Z"/>
        <path class="cls-2" d="m1130.97,1375.95c11.56-56.58,60.06-117.85,109.64-135.8,58.6-21.21,121.29-5.8,157.08,40.52,37.33,48.32,43,97.2,40.72,155.69s-31.27,122.63-62.22,172.31c14.98-56.7,10.2-95.24-12.53-144.01-20.2-43.36-36.88-67.85-80.92-95.46-40.1-25.15-94.12-50.9-151.77,6.75Z"/>
        <path class="cls-2" d="m364.05,1622.45c25.94,14,51.89,28,77.83,42,15.92,8.59,37.47-.92,45.48-17.14,8.02-16.22,4.46-36.32-5-51.74-9.47-15.41-24.06-26.93-38.93-37.24-68.5-47.5-149.84-76.29-232.97-82.46-14.59-1.08-29.23,9.21-33.14,23.3-3.92,14.09,3.31,30.46,16.37,37.06,55.1,27.85,110.99,54.18,170.36,86.21Z"/>
        <path class="cls-2" d="m878.86,1815.72c8.67,6.4,20.1,11.58,27.1,3.39s2.71-23.04-7.57-26.24c-77.49-24.14-136.9-97.97-143.9-178.83-.8-9.27-15.15-11.65-21.64-4.99s-6.44,17.32-4.25,26.37,6.09,17.87,5.87,27.17c-.5,20.37-20.95,35.26-41.07,38.5s-40.53-1.7-60.86-3.06-43.03,1.98-56.21,17.52-8.11,45.43,11.94,49.09c97.76,17.86,213.14-6.14,290.61,51.1Z"/>
        <path class="cls-2" d="m477.26,1826.01c-65.46-41.68-122.06-77.88-188.05-111.76-65.99-33.88-123.23-60.54-184.98-19.44-23.16,15.41-78.01,22.42-89.87-2.74s52.27-69.17,78.91-77.21c129.18-39.02,218.88-8.8,328.67,69.66,24.84,17.75,63.9,10.37,80.55-15.22,10.83-16.64,38.45-18.27,51.16-3.02,12.71,15.25,6.12,42.13-12.2,49.78-21.46,8.96-21.84,42.3-5.55,58.9,16.29,16.6,41.48,20.21,64.72,20.9,23.25.69,70.43,1.47,83.5,20.71,15.79,23.23-3.08,43.53-36.51,52.01-29.59,7.5-104.15-.38-170.35-42.53Z"/>
        <path class="cls-2" d="m2062.33,1158.83c0,63.29-17.14,136.95-56.8,186.27,22.99-74.7,27.92-158.55,2.03-232.29-25.14-71.59-83.81-135.63-159.66-154.49,10.64-12.28,60.92-8.72,76.49-4.1,48.48,14.39,71.68,37.94,100.14,79.74,28.46,41.8,37.81,85.21,37.81,124.88Z"/>
        <path class="cls-2" d="m2283.06,1351.36c56.3-55.63,96.69-127.18,115.22-204.13,2.46-10.21,6.56-56.34-3.92-55.72-20.54,1.21-38.06,73.23-44.98,89.03-49.38,112.55-94.29,136.36-201.31,204.76-13.41,8.57-122.22,68.55-116.4,83.37,5.81,14.82,67.15,10.11,82.12,4.72,69.79-25.13,124.27-77.56,169.27-122.02Z"/>
        <path class="cls-2" d="m3000.09,1510.16c-218.11-22.92-426.95,42.17-597.32,180.27-17.46,14.15-5.11,48.7,17.36,48.58,55.68-.29,106.47-30.48,152.13-62.36,45.65-31.88,91.08-67.24,145.16-80.51,54.08-13.27,120.3,2.91,145.49,52.57,31.13,61.39,79.85,93.85,138.38,57.63"/>
      </g>
    </g>
  </g>
</svg>