<?xml version="1.0" encoding="UTF-8"?>
<svg xmlns="http://www.w3.org/2000/svg" viewBox="0 0 3000 3000">
  <defs>
    <style>
      .cls-1 {
        fill: #51b8dd;
      }

      .cls-1, .cls-2, .cls-3 {
        stroke-width: 0px;
      }

      .cls-2 {
        fill: #00a8d4;
      }

      .cls-3 {
        fill: #0090b5;
      }
    </style>
  </defs>
  <g id="Layer_3" data-name="Layer 3">
    <rect class="cls-1" y="1911.05" width="3000" height="310.26"/>
    <rect class="cls-1" x="2647.25" y="1099.74" width="302.75" height="811.31"/>
    <rect class="cls-1" x="2669.08" y="838.73" width="140" height="280"/>
    <rect class="cls-1" x="1868.76" y="856.88" width="520" height="1054.17"/>
    <rect class="cls-1" x="1367.78" y="1407.29" width="620" height="503.76"/>
    <rect class="cls-1" x="1367.78" y="963.56" width="220" height="443.73"/>
    <rect class="cls-1" x="471.32" y="1315.48" width="410" height="595.57"/>
    <rect class="cls-1" x="559.31" y="1118.73" width="300" height="196.75"/>
    <rect class="cls-1" x="604.31" y="1043" width="105" height="75.73"/>
  </g>
  <g id="Layer_1" data-name="Layer 1">
    <rect class="cls-2" y="2214.69" width="3000" height="699.8"/>
    <rect class="cls-2" x="2288.16" y="1982" width="661.84" height="290"/>
    <rect class="cls-2" x="2288.16" y="1530.02" width="240" height="460"/>
    <rect class="cls-2" x="1428.23" y="1831.29" width="720" height="383.4"/>
    <rect class="cls-2" x="1520.43" y="1760.02" width="450" height="71.28"/>
    <rect class="cls-2" x="2082.49" y="1505.05" width="65.74" height="340"/>
    <rect class="cls-2" x="195.96" y="1364.98" width="260" height="849.71"/>
    <polygon class="cls-2" points="455.86 1365.21 445.29 1105.53 195.97 1366.6 455.86 1365.21"/>
    <rect class="cls-2" x="400.32" y="1594.17" width="142" height="620.52"/>
    <rect class="cls-2" x="499.31" y="1968.83" width="210" height="245.86"/>
    <rect class="cls-2" x="1037.78" y="1582.32" width="330" height="632.37"/>
    <rect class="cls-2" x="1086.76" y="1400.67" width="246" height="181.64"/>
    <rect class="cls-2" x="1086.76" y="1308.86" width="56" height="112.25"/>
  </g>
  <g id="Layer_1_copy" data-name="Layer 1 copy">
    <rect class="cls-3" y="2694.68" width="3000" height="300"/>
    <rect class="cls-3" x="2338.16" y="2461.99" width="661.84" height="290"/>
    <rect class="cls-3" x="2338.16" y="2010.01" width="240" height="460"/>
    <rect class="cls-3" x="1478.23" y="2311.29" width="720" height="383.4"/>
    <rect class="cls-3" x="1570.43" y="2240.01" width="450" height="71.28"/>
    <rect class="cls-3" x="2132.49" y="1985.04" width="65.74" height="340"/>
    <rect class="cls-3" x="245.96" y="1844.97" width="260" height="849.71"/>
    <polygon class="cls-3" points="505.86 1845.2 495.29 1585.52 245.97 1846.59 505.86 1845.2"/>
    <rect class="cls-3" x="450.32" y="2074.16" width="142" height="620.52"/>
    <rect class="cls-3" x="549.31" y="2448.82" width="210" height="245.86"/>
    <rect class="cls-3" x="1094.15" y="2248.4" width="330" height="632.37"/>
    <rect class="cls-3" x="1129.15" y="2091.76" width="260" height="181.64"/>
    <rect class="cls-3" x="1174.78" y="2010.05" width="56" height="112.25"/>
  </g>
</svg>