<?xml version="1.0" encoding="UTF-8"?>
<svg xmlns="http://www.w3.org/2000/svg" viewBox="0 0 3000 3000">
  <defs>
    <style>
      .cls-1 {
        fill: #46272c;
      }

      .cls-1, .cls-2 {
        stroke-width: 0px;
      }

      .cls-2, .cls-3 {
        fill: #fff;
      }

      .cls-3 {
        stroke: #46272c;
        stroke-miterlimit: 10;
        stroke-width: 20px;
      }
    </style>
  </defs>
  <g id="Layer_1" data-name="Layer 1">
    <rect class="cls-3" x="591.71" y="2007.31" width="2280" height="510" rx="128.74" ry="128.74"/>
  </g>
  <g id="Layer_3" data-name="Layer 3">
    <path class="cls-2" d="m604.85,1956.53c-2.85,23.86-5.7,47.88-4.09,71.86,1.1,16.41,4.29,32.61,7.92,48.65,2.17,9.6,4.54,19.24,8.73,28.15,1.22,2.59,2.88,5.36,5.65,6.12,2.2.61,4.53-.23,6.6-1.2,13.35-6.23,23.33-17.81,35.35-26.32,11.8-8.34,25.46-13.65,37.77-21.21,12.31-7.56,23.79-18.32,27.02-32.41,2.25-.63,3.53,2.85,2.5,4.95s-3.14,3.6-3.8,5.85c.6-.67,1.19-1.35,1.81-1.86l.03.69"/>
  </g>
  <g id="Layer_2" data-name="Layer 2">
    <path class="cls-1" d="m612.6,2084.17c2.64-44.41-.93-88.94,1.71-133.35-5.02,2.88-10.03,5.76-15.05,8.63,31.47,18.83,62.93,37.66,94.4,56.49,11.07,6.63,21.14-10.66,10.09-17.27-31.47-18.83-62.93-37.66-94.4-56.49-6.83-4.09-14.61,1.27-15.05,8.63-2.64,44.41.93,88.94-1.71,133.35-.77,12.86,19.24,12.81,20,0h0Z"/>
  </g>
</svg>