<?xml version="1.0" encoding="UTF-8"?><svg id="Layer_1" xmlns="http://www.w3.org/2000/svg" width="123.73" height="228.17" xmlns:xlink="http://www.w3.org/1999/xlink" viewBox="0 0 123.73 228.17"><defs><style>.cls-1{font-size:19.9px;}.cls-1,.cls-2,.cls-3,.cls-4,.cls-5{fill:#fff;}.cls-1,.cls-2,.cls-5{font-family:DINAlternate-Bold, 'DIN Alternate';font-weight:700;}.cls-2{font-size:15.19px;}.cls-6{stroke-width:.5px;}.cls-6,.cls-3,.cls-7{stroke:#231f20;stroke-miterlimit:10;}.cls-6,.cls-8{fill:#231f20;}.cls-7{fill:none;stroke-width:2px;}.cls-8,.cls-9,.cls-10,.cls-4{stroke-width:0px;}.cls-9{fill:#14a84e;}.cls-10{fill:#80a940;}.cls-5{font-size:22.41px;}</style></defs><path class="cls-7" d="m94.41,137.39l23.45-5.4c2.45-.56,3.53-2.87,4.25-5.94.99-4.21.5-9.34.44-12.85-.03-1.7-.45-3.37-1.19-4.9l-23.03-47.49"/><path class="cls-7" d="m30.58,138.67l-23.45-5.4c-3.71-.2-4.79-2.51-5.51-5.57-.99-4.21-.5-9.34-.44-12.85.03-1.7.45-3.37,1.19-4.9l23.03-47.49"/><path class="cls-7" d="m47.46,188.25c-1.74,3.05-15.12,3.7-14.89,7.18s-.5,8.98-.67,12.56c-2.12-.02-5.86.07-7.97.05"/><path class="cls-7" d="m82.65,188.25c1.74,3.05,15.12,3.7,14.89,7.18s.5,8.98.67,12.56c2.12-.02,5.86.07,7.97.05"/><rect class="cls-9" x="9.84" y="208.61" width="110.96" height="19.57" rx="5.14" ry="5.14"/><text class="cls-2" transform="translate(22.54 223.65) scale(1.24 1)"><tspan x="0" y="0">FOR BØRN</tspan></text><image width="765" height="748" transform="translate(-29.26 63.06) scale(.24)" xlink:href="../../../var/folders/qp/h7pttzds07s0x0_3h19txv0h0000gn/T/TemporaryItems/NSIRD_Illustrator_bY7T3K/AI_27_8/Adobe/AISVG/1/LOGO/LOGO1.png"/><ellipse class="cls-3" cx="49.81" cy="135.04" rx="11.7" ry="7.39" transform="translate(-88.75 174.01) rotate(-85.46)"/><path class="cls-8" d="m53.7,134.08l-.34-.76c-.08-.18-.19-.35-.33-.5l-.85-.89c-.23-.24-.52-.41-.83-.5l-.94-.26c-.35-.09-.71-.09-1.05.02l-.56.17c-.34.1-.64.3-.86.57l-1.12,1.33c-.13.15-.23.33-.3.52l-.61,1.61c-.05.13-.08.26-.1.4l-.4,3.09-.34,2.68c0,.07,0,.15.02.22l.09,1.68s-.02.36-.04.66.07.56.24.79l.44.58c.06.08.13.15.2.21l1.07.85c.09.19.29.32.51.34l.61.06c.1,0,.19,0,.29-.03l1.48-.49c.07-.02.53-.12.59-.16l2.25-1.1s.24-.61.27-.65l1.59-2.55c.08-.1.13-.22.14-.34l.18-3.33c.02-.35-.29-.64-.66-.62l-1.36.05-1.58.09c-.16,0-.31-.04-.43-.13l-.37-.27c-.16-.12-.25-.29-.24-.48h0c0-.2.12-.39.31-.5l.63-.36,1.63-.99s.04-.02.06-.03l.42-.2c.3-.15.43-.48.31-.77Z"/><ellipse class="cls-3" cx="68.92" cy="134.5" rx="10.8" ry="7.35" transform="translate(-67.2 200.16) rotate(-88.62)"/><path class="cls-6" d="m72.86,133.37l-.37-.68c-.09-.17-.22-.33-.36-.46l-.88-.79c-.24-.22-.53-.37-.85-.43l-.97-.21c-.33-.07-.68-.05-1,.05l-.56.18c-.33.11-.62.31-.84.58l-1.01,1.23c-.13.16-.23.34-.3.53l-.51,1.46c-.05.13-.07.27-.09.41l-.23,2.85-.2,2.48c0,.07,0,.14.03.2l.17,1.52s0,.04,0,.06c0,.08,0,.31,0,.53,0,.3.1.59.3.81l.44.48c.06.07.14.13.21.19l1.11.75c.1.17.3.28.52.29l.61.03c.1,0,.19,0,.28-.04l1.44-.5c.07-.03.52-.13.58-.17l2.18-1.1s.21-.57.23-.6l1.45-2.41c.08-.09.12-.21.12-.32v-3.08c.01-.32-.31-.58-.68-.55l-1.35.1-1.56.14c-.16.01-.31-.02-.44-.1l-.38-.24c-.16-.1-.26-.26-.27-.44h0c0-.19.1-.37.28-.47l.6-.36,1.57-.97s.04-.02.05-.03l.41-.2c.29-.14.41-.46.26-.72Z"/><path class="cls-8" d="m46.4,149.92c-.31-.29-1.61.35-2.57,1.71-.4.57-.91,1.28-.87,2.25.05,1.12.81,2.25,1.33,2.15.52-.09.41-1.32,1.32-3.74.69-1.85,1.02-2.16.8-2.37Z"/><path class="cls-8" d="m76.49,148.23c.4-.19,1.31.83,1.79,2.39.2.65.45,1.48.1,2.39-.41,1.05-1.5,1.92-1.97,1.68-.46-.23.03-1.38-.04-3.93-.06-1.96-.16-2.4.12-2.54Z"/><path class="cls-8" d="m44.73,155.32c5.6,1.1,11.28,1.75,17,1.43,1.3-.07,2.63-.13,3.9-.39.98-.2,1.92-.53,2.91-.71,2.78-.51,5.35-1.55,8.12-2.13,2.36-.49,1.36-4.11-1-3.62-2.56.53-4.94,1.6-7.51,2.03-.98.16-1.92.42-2.88.66-1.16.3-2.35.34-3.54.41-5.39.3-10.72-.26-16-1.3-2.36-.46-3.37,3.15-1,3.62h0Z"/><path class="cls-8" d="m49.07,156.04c.36,1.51.66,3.06,1.17,4.53s1.34,2.79,2.44,3.98c1.34,1.45,3.64,3.78,5.86,2.82,1.39-.6,1.04-2.55,0-3.24-.2-.13-.47-.25-.71-.29-1.23-.23-2.9.86-2.31,2.31s2.61,2.11,4.07,2.49c1.65.43,3.4.55,5.1.45,1.87-.11,3.73-.44,5.56-.82.64-.13,1.44-.45,1.76-.58.77-.3,1.46-.7,1.65-1.59l-.86,1.12.08-.05c.69-.46,1.1-1.29.86-2.12-.03-.09-.05-.17-.07-.26l-.19,1.44c.63-1.06.04-2.04-.24-3.09s-.39-2.03-.4-3.08c0-.99.08-1.98.3-2.95.26-1.15.68-2.16.38-3.36-.27-1.08-1.78-1.84-2.75-1.12-.78.58-1.29,1.23-1.56,2.17-.1.37-.14.76-.2,1.14-.08.51.09.31-.22.52-.53.35-1.34.52-1.92.81-.85.43-1.67.12-2.6.16-1.02.05-2.01.32-3.03.4-.88.07-1.76-.01-2.63-.12-2.13-.26-4.26-.57-6.4-.86-1-.13-2.01.24-2.31,1.31-.25.9.31,2.13,1.31,2.31-.42-.07-.27-.39-.19-.15.05.17.24.35.35.5.35.48.74.89,1.27,1.17,1.19.63,2.62.31,3.91.4s2.61.36,3.92.45c1.42.09,2.83-.03,4.24-.23.66-.09,1.31-.2,1.96-.33.17-.03,1.7-.24,1.73-.39l-.68-.72c0,.13,0,.26.01.4,0,.27.06.19.21-.25l.63-.22c-.05-.22-1.86-.33-2-.33-1.36-.04-2.7.33-3.94.85-.59.25-1.16.52-1.73.82-.27.15-.54.3-.81.46l-.32.19c-.45.2-.34.24.33.15l.67.67c.35.53-.25.55.11.53.15,0,.73-.33.87-.37.71-.24,1.45-.38,2.19-.49s1.5-.21,2.26-.31c.34-.05.68-.09,1.03-.14.21-.03.98-.06.83-.15l.95-3.49c-2.46-.29-5.35-.31-7.71.54-.98.35-2.2,1.13-2.44,2.23-.13.6-.35-.09.55-.03.46.03.37.32.58.57.01.38.06.36.13-.04l.06-.16.15-.29c.28-.38.21-.39-.21-.03l-1.44-.19.15.11-.86-1.12c-.15-.58-.01-.26-.23.04l1.12-.86-.16.03h1c-2.13-.43-3.88-1.21-6.1-.75-1.37.29-1.83,2.21-.83,3.13.59.55,1.24.94,2.04,1.1l-1.31-2.31c-.25,1.1-.33,2.32.24,3.33.43.77,1.3,1.01,2.12.86,1.23-.23,1.73-1.59,2.26-2.57l-3.43-.45c.16.54.21,1,.19,1.56-.07,2.41,3.68,2.41,3.75,0,.03-.87-.08-1.73-.32-2.56-.43-1.5-2.65-1.9-3.43-.45-.21.39-.4.96-.67,1.29l.83-.48-.17.03,2.12.86c.12.21.11-.33.14-.44.21-.93-.28-2.1-1.31-2.31-.23-.04-.26-.02-.39-.14l-.83,3.13c1.42-.3,2.75.48,4.11.75,1.83.36,2.9-1.37,2.97-3.01s-1.68-2.83-3.19-2.01c-1.19.64-2.01,2.4-2.14,3.7-.31,3.1,3.88,4.67,5.57,1.96.18-.3.23-.73.49-.93.37-.29,1.32-.32,1.75-.38,1.61-.22,3.25-.18,4.87,0,1.96.23,2.4-2.6.95-3.49-.81-.5-1.61-.5-2.52-.39-1.13.15-2.25.3-3.37.45-1.8.24-3.79.52-5.32,1.57s-2.39,3.33-.9,4.82c1.62,1.62,3.55.25,5.13-.58.73-.39,1.47-.72,2.27-.92.95-.24,1.68-.07,2.61.1,1.98.37,3.6-1.13,3.64-3.08.04-1.84-1.09-3.56-3.09-3.56-.9,0-1.85.35-2.73.52-1.01.2-2.01.35-3.04.41-2.26.14-4.43-.41-6.67-.47-.45-.01-1,.12-1.44.03-.23-.05.1.26-.19-.12-.59-.75-1.1-1.5-2.12-1.68l-1,3.62c2.34.31,4.68.64,7.02.94,1.06.14,2.12.25,3.19.15s2.14-.4,3.22-.39,2.03.22,3.08-.18c.84-.32,1.65-.74,2.48-1.09.93-.39,1.66-1,2.09-1.93.23-.5.31-.97.4-1.5.04-.22.32-.87-.04-.61l-2.75-1.12c.03.11-.25.79-.3,1-.12.47-.21.95-.29,1.44-.15.95-.24,1.9-.23,2.86.02,1.91.36,3.83,1.03,5.62l.19-1.44c-.35.58-.37,1.18-.18,1.82l.86-2.12c-.48.32-.84.72-.97,1.29l.86-1.12c.22-.16-.08.03-.19.07-.23.09-.47.22-.7.3-.49.17-1.04.25-1.55.35-1.24.24-2.49.45-3.76.53-2.15.13-4.55-.05-6.4-1.29l.86,1.12v-.02c-.78.77-1.55,1.54-2.32,2.31.22.04-.37-.21-.19-.08v-3.24h-.02c.48-.05.96-.12,1.44-.18-.15-.03-.21-.1-.09,0,.23.17-.21-.09-.28-.12-.3-.14-.64-.25-.92-.42-.21-.13-.32-.29-.64-.63-.43-.46-.88-.9-1.29-1.38-1.43-1.68-1.68-4.26-2.18-6.33-.57-2.35-4.18-1.35-3.62,1h0Z"/><path class="cls-8" d="m63.51,164.23c.02.17.33.24,1.1.59.6.28,1.12.47,1.34.34.21-.12.03-.53-.01-.63-.06-.12-.14-.53-.49-.81-.02-.02-.11-.08-.2-.13-.61-.3-1.77.26-1.73.64Z"/><path class="cls-4" d="m51.86,155.49c-.31-.01.15.67.18.9.02.17.13.75.26,1.25,0,.03.02.06.04.07.07.07.28.06.32.05.19-.02.73.16.91.15.44,0,.77.1,1.93.22,2.57.26,2.44.45,3.94.49.63.02,2.26.03,3.49-.14,1.35-.19.82-.16,1.79-.22.69-.04,1.52.22,2.07.12.55-.1.19-.35,1.3-.73.33-.12.67-.24,1-.36.46-.16.5-.17.58-.24.32-.27.23-.64.41-1.33.23-.9.63-1.25.49-1.41-.12-.14-.57.1-1.18.19-.8.12-.71.13-1.88.35-1.2.23-1.65.46-2.68.67-.32.07-.42.1-2.67.28-1.39.11-2.08.07-3.04.07-1.76,0-2.64,0-3.6-.12-2.33-.27-3.26-.25-3.66-.26Z"/><path class="cls-8" d="m59.68,161.36s-.08.09-.13.13l.51-.39c-.05.04-.11.08-.17.1l.6-.25s-.1.04-.15.04c-.33.08-.61.23-.85.45-.27.18-.49.41-.64.7-.18.29-.28.6-.3.93-.07.33-.06.66.04,1l.25.6c.22.38.52.67.9.9l.6.25c.44.12.89.12,1.33,0,.04,0,.09-.02.13-.04.22-.09.44-.17.66-.28.02-.01.04-.02.06-.03s.04-.02.06-.04c0,0,0,0,.01,0,.16-.12.35-.27.51-.4,0,0,.02-.02.03-.02.04-.03.07-.07.1-.1.24-.23.42-.49.52-.8.16-.3.23-.62.22-.96.01-.34-.06-.67-.22-.96-.1-.31-.27-.58-.52-.8l-.51-.39c-.39-.23-.81-.34-1.26-.34l-.66.09c-.42.12-.79.33-1.1.64h0Z"/><path class="cls-4" d="m62.14,165.02c-.49.25-.63.4-1.24.64-.33.13-.48.16-.48.21,0,.19,1.57.33,2.92.34.57,0,.84-.02,3.03-.2,2.04-.16,3.38-.27,3.41-.56,0-.06-.05-.07-.34-.42-.3-.36-.28-.4-.44-.55-.19-.19-.4-.29-.82-.49-.26-.13-.46-.22-.75-.3-.16-.04-.51-.14-.91-.13-.04,0-.16-.01-.19,0-.07.05-.77-.02-.9.07-.07.05.25.29.34.49.11.24.3.65.27.83,0,.03.1.16-.1.18-.39.04-.65-.01-1.34-.34-.38-.18-.7-.72-1.1-.59-.18.06-.41.31-1.38.79Z"/><path class="cls-10" d="m60.42,106.07c-3.44.87-8.51-.15-27.62-2.69-2.68-.36-6.58-5.26-10.21-8.63-2.97-2.76-6.75-6.28-6.13-6.91.56-.56,4.15,1.67,12.97,5.41,1.69.72,2.94,1.22,4.93,2.16,1.87.88,2.74,1.37,4.57,2.16,2.64,1.14,4.63,2,5.12,1.54.45-.42-.58-1.75-1.46-2.93,0,0-4.35-5.83-6.94-10.5-2.08-3.74-3.09-7.53-2.56-7.72.59-.22,2.32,4.4,7.86,8.96,1.58,1.3,3.49,2.51,7.31,4.94,4.62,2.94,4.85,2.74,7.12,4.48,2.47,1.89,1.74,3.28,2.47,2.98.62-.26,2.18-1.52,2.1-4.37-.1-3.74.47-3.49.18-5.25-.64-3.96-2.45-4.04-1.43-5.54.58-.85.72-1.63,1.72-1.31.5.16,1.37-.45,2.09,1.6.67,1.92.52,2.67.91,4.94.53,3.03,1.06,3.27,1.1,5.41.01.61,0,2.63,0,2.63h0s-.26,2.19.18,2.32c.47.13,1.13-2.24,3.29-4.17,1.94-1.75,3.47-1.67,6.39-3.09,2.84-1.37,4.47-2.93,6.76-5.1,4.89-4.64,6.52-8.86,7.12-8.65.49.17-.46,3.02-1.1,4.94-1.09,3.27-2.29,5.47-3.11,6.95-.69,1.24-1.27,2.15-2.01,3.09-.38.47-.87,1.1-1.64,1.85-.78.76-1.01.84-1.64,1.54-.72.8-.68.97-1.28,1.54-.89.85-1.7,1.15-1.64,1.24.07.11,1.51-.35,4.02-1.39,3.95-1.63,3.94-1.96,5.85-2.63,2.97-1.04,3.26-.34,7.31-1.39,1.71-.45,3.89-1.01,6.21-2.32,3.3-1.85,4.67-3.95,5.12-3.71.4.22-.46,2.08-1.46,3.55-1.57,2.3-3.5,3.68-5.3,4.94-2.23,1.56-4.12,2.47-6.03,3.4-2.22,1.07-3.33,1.61-4.93,2.01-3.26.81-5.58.4-5.66.77-.13.63-19.45,2.66-20.54,2.93Z"/><path class="cls-9" d="m95.21,16.01L67.53,1.39c-3.51-1.86-7.71-1.85-11.22.03l-28.04,14.98c-3.9,2.08-6.34,6.15-6.37,10.58l-.15,27.82c-.02,4.5,2.45,8.64,1.66,8.22l27.68,14.62c8.27,4.37,12.47,4.36,15.97,2.49l28.04-14.98c3.9-2.08,6.34-6.15,5.6-6.18l.15-27.82c.79-8.91-1.69-13.05-5.65-15.14Z"/><text class="cls-1" transform="translate(37.33 56.73) scale(1.31 1)"><tspan x="0" y="0">MAD</tspan></text><text class="cls-5" transform="translate(33.72 38.15) scale(1.27 1)"><tspan x="0" y="0">VILD</tspan></text></svg>