<?xml version="1.0" encoding="UTF-8"?>
<svg xmlns="http://www.w3.org/2000/svg" xmlns:xlink="http://www.w3.org/1999/xlink" viewBox="0 0 3000 3000">
  <defs>
    <style>
      .cls-1 {
        fill: url(#linear-gradient);
      }

      .cls-1, .cls-2, .cls-3, .cls-4, .cls-5, .cls-6, .cls-7 {
        stroke-width: 0px;
      }

      .cls-2 {
        fill: #75a051;
      }

      .cls-3 {
        fill: #c12439;
      }

      .cls-8 {
        font-size: 200px;
      }

      .cls-8, .cls-9 {
        font-family: Bahnschrift-Bold, Bahnschrift;
        font-variation-settings: 'wght' 700, 'wdth' 100;
        font-weight: 700;
      }

      .cls-8, .cls-10 {
        fill: #fff;
      }

      .cls-11 {
        fill: #231f20;
        stroke: #231f20;
      }

      .cls-11, .cls-10 {
        stroke-miterlimit: 10;
      }

      .cls-4 {
        fill: url(#radial-gradient);
      }

      .cls-5 {
        fill: #c8a587;
      }

      .cls-6 {
        fill: #631f15;
      }

      .cls-7 {
        fill: #306e3e;
      }

      .cls-9 {
        fill: #eff0f1;
        font-size: 192.44px;
      }

      .cls-10 {
        stroke: #fff;
      }
    </style>
    <radialGradient id="radial-gradient" cx="1670.67" cy="1138.81" fx="1670.67" fy="1138.81" r="407.62" gradientTransform="translate(63.23 341.51) rotate(2.21) scale(1 .59)" gradientUnits="userSpaceOnUse">
      <stop offset="0" stop-color="#b67252"/>
      <stop offset=".16" stop-color="#b77556"/>
      <stop offset=".33" stop-color="#bc8062"/>
      <stop offset=".51" stop-color="#c59176"/>
      <stop offset=".68" stop-color="#d1aa93"/>
      <stop offset=".85" stop-color="#e0c9b8"/>
      <stop offset="1" stop-color="#f1ebdf"/>
    </radialGradient>
    <linearGradient id="linear-gradient" x1="1662.61" y1="1689.12" x2="1630.16" y2="2594.03" gradientTransform="translate(-43.65 82.55) rotate(-2.7)" gradientUnits="userSpaceOnUse">
      <stop offset="0" stop-color="#f6ede0"/>
      <stop offset="1" stop-color="#d6b59d"/>
    </linearGradient>
  </defs>
  <g id="Layer_10" data-name="Layer 10">
    <g id="Layer_8" data-name="Layer 8">
      <path class="cls-4" d="m2017.24,1274.37c41.13-10.18,44.96-14.86,77.54-26.24,16.47-5.75,31.56-14.81,46.32-24.1,48.38-30.44,79.1-58.84,100.01-113.59,10.57-27.68,7.1-71.52.37-100.37-4.5-19.28-9.17-38.74-18.02-56.46-16.6-33.23-50.25-65.93-81.26-86.38-65.7-43.33-129.2-73.76-206.65-87.77-44.92-8.13-94.04-8.37-139.6-11.2-36.86-2.28-77.73,1.61-114.58,3.89-52.75,3.26-104.44,15.82-155.79,28.32-28.44,6.92-51.75,18.52-78.69,29.94-48.84,20.69-95.68,50.52-135.52,85.53-24.95,21.92-49.81,44.56-68.38,72.09-30.52,45.24-42.15,102.82-31.58,156.37,4.2,21.29,18.22,37.09,32.18,53.7,10.39,12.36,17.54,27.03,30.75,36.33,16.16,11.38,32.33,22.75,48.49,34.13,21.85,15.38,53.63,14.75,73.44,16.88-22-27.63-20.1-66.86-14.82-101.78,9.8-64.74,24.8-136.74,70.65-183.48,26.8-27.32,63.7-47.96,99.12-62.44,85.79-35.08,183.06-38.89,274.6-24.35,16.54,2.63,33.21,6.16,48.01,14,13.31,7.05,24.61,17.31,35.74,27.46,17.11,15.59,34.42,31.43,46.86,50.95,21.59,33.89,36.4,63.81,40.74,103.76.8,7.4,2.62,21.72,3.43,29.12.97,8.89-2.64,22.64-1.68,31.52,4.24,39.04,1.77,80.24-15.06,115.72,10.21-6.65,52.21-6.55,33.39-11.55Z"/>
      <path class="cls-5" d="m1994.6,1191.91c7.72,39.83,49.95,82.94,93.39,69.61,10.43-3.2,5.98-19.62-4.52-16.39-34.7,10.65-66.54-27.1-72.48-57.74-2.08-10.73-18.47-6.19-16.39,4.52h0Z"/>
      <path class="cls-5" d="m2005.97,1136.06c53.94,34.51,123.92,41.58,184.24,20.68,17.06-5.91,33.35-13.96,48.25-24.16,8.97-6.14.48-20.88-8.58-14.68-49.16,33.65-112.96,42.19-169.71,24.7-16.14-4.97-31.39-12.12-45.62-21.22-9.24-5.91-17.78,8.79-8.58,14.68h0Z"/>
      <path class="cls-5" d="m1970.65,1033.84c66.96-7.68,128.07-45.95,165.58-101.8,10.5-15.63,18.84-32.63,25.04-50.41,3.61-10.35-12.81-14.8-16.39-4.52-20.06,57.58-67.28,105.03-123.98,127.05-16.11,6.26-33.05,10.71-50.24,12.68-4.56.52-8.5,3.53-8.5,8.5,0,4.19,3.91,9.03,8.5,8.5h0Z"/>
      <path class="cls-5" d="m1913.05,958.47c40.69-43.34,62.69-102.95,59.33-162.37-.62-10.88-17.62-10.95-17,0,3.12,55.01-16.59,110.14-54.35,150.35-7.48,7.97,4.51,20.02,12.02,12.02h0Z"/>
      <path class="cls-5" d="m1619.86,789.52c-3.73,40.48,10.94,81.53,38.86,110.96,7.55,7.95,19.55-4.08,12.02-12.02-25.04-26.39-37.21-62.8-33.88-98.94.42-4.58-4.21-8.5-8.5-8.5-4.95,0-8.08,3.91-8.5,8.5h0Z"/>
      <path class="cls-5" d="m1467.7,833.33c8.33,40.92,35.82,77.19,72.92,96.36,9.7,5.02,18.31-9.65,8.58-14.68-33.53-17.33-57.57-49.23-65.1-86.2-2.18-10.71-18.57-6.18-16.39,4.52h0Z"/>
      <path class="cls-5" d="m1466.53,969.93c-55,37.44-126.95,44.9-187.88,17.41-16.85-7.6-32.66-17.45-46.71-29.46-8.28-7.07-20.36,4.9-12.02,12.02,54.91,46.91,131.18,63.26,200.24,41.34,19.48-6.18,38.06-15.14,54.95-26.64,8.99-6.12.5-20.86-8.58-14.68h0Z"/>
      <path class="cls-5" d="m1491.93,957.8c-55.75,5.55-113.35-19.33-146.31-64.97-2.68-3.72-7.4-5.53-11.63-3.05-3.67,2.15-5.75,7.89-3.05,11.63,36.32,50.29,98.98,79.56,160.99,73.39,4.57-.45,8.5-3.58,8.5-8.5,0-4.24-3.9-8.96-8.5-8.5h0Z"/>
      <path class="cls-5" d="m1930.99,964.37c20.05-13.35,37.03-31.01,49.99-51.29,12.88-20.15,21.82-42.91,25.89-66.48,2.29-13.23,3.07-26.71,2.18-40.11-.13-1.92-3.13-1.93-3,0,1.56,23.53-2.05,47.21-10.05,69.37-8,22.14-20.4,42.73-36.34,60.06-9,9.78-19.12,18.51-30.19,25.87-1.6,1.06-.1,3.66,1.51,2.59h0Z"/>
      <path class="cls-5" d="m1802.98,769.21c-20.8,46.4-33.85,100.5-25.48,151.35.75,4.53,6.37,7.06,10.46,5.94,4.81-1.32,6.69-5.91,5.94-10.46-3.8-23.07-1.85-47.15,2.51-69.99,4.46-23.41,11.5-46.51,21.25-68.26,1.88-4.19,1.21-9.14-3.05-11.63-3.63-2.12-9.74-1.16-11.63,3.05h0Z"/>
      <path class="cls-5" d="m1407.26,1056.16c-42.08,36.96-98.32,56.39-154.16,54.98-16.02-.41-31.82-2.6-47.35-6.52-10.61-2.68-15.14,13.72-4.52,16.39,58.94,14.86,122.78,6.06,175.99-23.17,15.07-8.28,29.15-18.31,42.07-29.66,8.24-7.23-3.83-19.22-12.02-12.02h0Z"/>
      <path class="cls-5" d="m2009.85,1166.87c10.05,10.24,21.48,19.1,33.84,26.39,12.36,7.29,25.64,13.03,39.38,17.15s28.05,6.64,42.41,7.49,28.77,0,42.9-2.58,27.89-6.93,40.86-13.04c1.64-.77,3.27-1.57,4.88-2.4,1.72-.88.2-3.47-1.51-2.59-12.55,6.43-25.94,11.12-39.72,14.09s-27.91,4.18-41.99,3.77c-14.18-.42-28.29-2.5-41.99-6.19s-26.8-8.9-39.16-15.69-23.85-15.09-34.04-24.82c-1.27-1.21-2.51-2.44-3.74-3.69-1.35-1.38-3.48.74-2.12,2.12h0Z"/>
      <path class="cls-5" d="m1242.01,1191.72c26.73,11.36,56.82,14.1,85.18,7.86,25.7-5.66,49.42-18.96,68.01-37.54,10.17-10.16,18.79-21.89,25.36-34.68.88-1.71-1.71-3.23-2.59-1.51-11.46,22.3-29.16,41.21-50.55,54.29-23.22,14.2-50.41,20.91-77.57,19.55-15.89-.8-31.68-4.33-46.33-10.56-.75-.32-1.6-.22-2.05.54-.38.63-.21,1.74.54,2.05h0Z"/>
      <path class="cls-5" d="m1986.85,1073.49c20.97,3.09,42.25,4.61,63.43,3.2,20.69-1.37,41.23-5.57,60.33-13.76,18.67-8,35.32-20.06,50-33.99,14.27-13.55,26.63-29.14,36.64-46.08,10-16.94,17.68-35.3,22.56-54.37.61-2.4,1.18-4.81,1.71-7.23.41-1.88-2.48-2.69-2.89-.8-4.14,19-11.01,37.34-20.3,54.42s-20.85,32.75-34.4,46.59c-13.79,14.09-29.63,26.64-47.35,35.42-18.35,9.09-38.52,14.15-58.84,16.18-20.8,2.08-41.82,1.18-62.52-1.44-2.53-.32-5.05-.67-7.57-1.04-1.89-.28-2.7,2.61-.8,2.89h0Z"/>
      <path class="cls-5" d="m1228.9,1030.33c13.19,8.62,27.29,15.8,41.97,21.53s29.81,9.92,45.26,12.65,31.33,4.02,47.1,3.75,31.37-2.03,46.71-5.32,30.46-8.17,44.86-14.55c1.77-.78,3.52-1.59,5.26-2.42s.22-3.41-1.51-2.59c-14.06,6.67-28.83,11.81-43.97,15.43s-30.49,5.7-45.97,6.3-31.05-.26-46.37-2.62-30.54-6.21-45.17-11.5-28.6-12.01-41.78-20.15c-1.64-1.01-3.27-2.05-4.89-3.11s-3.13,1.54-1.51,2.59h0Z"/>
      <path class="cls-5" d="m1407.4,851.07c6.8,18.77,16.38,36.64,27.93,52.91s25.75,31.99,43.01,42.73c8.72,5.43,18.39,9.54,28.58,11.11,1.89.29,2.7-2.6.8-2.89-18.55-2.85-34.73-13.94-47.96-26.75-14.67-14.2-26.64-31.16-36.37-49.05-5.05-9.29-9.5-18.91-13.1-28.85-.65-1.8-3.55-1.02-2.89.8h0Z"/>
      <path class="cls-5" d="m1781.74,773.5c-8.62,15.65-14.59,32.73-17.72,50.32-3.13,17.61-3.47,35.65-.96,53.36,1.42,10,3.77,19.85,7.04,29.4.62,1.82,3.52,1.04,2.89-.8-5.68-16.61-8.55-34.09-8.61-51.64-.06-17.61,2.68-35.21,8.15-51.95,3.07-9.41,7.02-18.51,11.8-27.18.93-1.69-1.66-3.21-2.59-1.51h0Z"/>
      <path class="cls-5" d="m1988.34,1116.73c41.9,15.37,88.77,16.83,131.62,4.33,38.02-11.09,72.55-33.43,98.55-63.27,14.51-16.65,26.46-35.38,35.09-55.72,1.79-4.22,1.27-9.11-3.05-11.63-3.57-2.09-9.83-1.2-11.63,3.05-14.12,33.29-37.21,62.63-66.76,83.58-32.28,22.9-70.92,35.2-110.49,35.4-23.53.12-46.71-4.03-68.8-12.13-4.31-1.58-9.31,1.77-10.46,5.94-1.3,4.74,1.61,8.87,5.94,10.46h0Z"/>
      <path class="cls-3" d="m1982.54,1330.4c77.94.65,155.88-24.79,218.44-71.29,32.48-24.15,61.34-54.52,77.67-91.55,19.53-44.27,28.19-104.73,18.8-152.19-22.02-111.3-98.55-205.15-173.47-290.35-54.76-62.27-116.58-113.85-188.2-155.64-37.55-21.91-79.53-38.71-123-38.3-20.99.2-43.78-2.77-64.57.14-62.84,8.79-129.97,5.55-190.53,24.52-48.03,15.04-93.55,39.04-133.61,69.5-29.1,22.14-51.29,55.26-76.92,81.34-88.08,89.64-143.64,207.29-191.63,323.44-13.3,32.2-7.03,61.86.66,95.84,5.49,24.27,8.52,44.68,24.28,63.93,37.63,45.98,72.7,93.58,128.18,114.85,29.56,11.33,62.92,17.57,94.29,21.88,22.43-34.38-42.24-44.57-71.19-55.82-48.53-18.86-90.39-49.54-111.56-97.11-15.37-34.54-11.92-74.33-5.52-111.6,7.69-44.74,29.98-82.56,63.55-113.11,26.21-23.85,52.43-43.69,81.37-64.13,28.01-19.79,55.72-41.01,87.32-54.33,18.66-7.87,33.57-17.24,53.26-21.99,19.61-4.73,37.86-14.15,57.48-18.88,146.39-35.3,275.21-17.18,429.27,7.54,56.47,9.06,110.43,34.7,155.31,70.15,28.3,22.34,52.27,44.55,74.43,72.99,12.15,15.6,23.51,37.58,29.66,56.38,10.55,32.28,6.81,70.5-2.08,103.27-9.07,33.43-24,64.92-47.46,90.4-18.99,20.63-44.91,33.34-70.61,44.55-64.24,28.02-269.8,61.47-143.59,95.58Z"/>
      <path class="cls-10" d="m2188.07,816.38c-5.93-6.54-16.61-7.55-24.32-3.25-7.71,4.3-12.37,13.04-12.99,21.84-.2,2.83,0,5.78,1.24,8.33,1.31,2.7,3.66,4.73,5.94,6.67,11.39,9.71,23.01,19.56,36.75,25.48,3.37,1.45,6.93,2.71,9.63,5.18,6.33,5.8,5.75,15.75,8.44,23.9,3.41,10.33,13.11,18.3,23.91,19.63,3.67.45,7.6.14,10.72-1.85,6.39-4.07,6.96-13.17,5.69-20.65-1.43-8.44-4.55-16.99-10.95-22.66-2.29-2.02-4.93-3.62-7.16-5.7-2.76-2.58-4.81-5.81-6.82-9.01-7.35-11.7-14.83-23.63-25.38-32.54-5.45-4.61-9.82-10-14.69-15.38Z"/>
      <path class="cls-10" d="m2149.73,1283.18c-.71-9.99-.94-21.36,6.18-28.42,2.29-2.27,5.15-3.86,8.01-5.35,19.55-10.25,42.37-19.39,51.39-39.54,1.44-3.22,6.7-11.75,6.7-11.75,0,0,5.52-9.68,8.04-10.78,6.3-2.77,10.1-3.66,15.68.38,6.12,4.43,8.02,6.38,8.13,11.52.24,11.36-8.09,20.91-16.22,28.84-16.1,15.72-33.48,30.14-51.9,43.07-12.55,8.81-27.05,17.28-36,12.04Z"/>
      <path class="cls-10" d="m1199.4,1211.32c-5.6-6.73-11.49-14.23-11.56-22.99s9.32-17.66,17.09-13.62c2.42,1.26,4.17,3.47,5.77,5.68,7.83,10.82,13.63,23.11,17,36.04,1.89,7.24,3.08,14.83,6.96,21.22,2.93,4.83,7.51,9.51,6.75,15.11-16.47-10.19-28.65-25.36-42.02-41.44Z"/>
      <path class="cls-10" d="m1377.31,670.58c-4.64,14.97-9.34,30.61-6.75,46.06,2.6,15.53,12.21,28.83,18.72,43.17s9.5,32.51-.27,44.87c-3.32,4.2-7.8,7.29-11.95,10.67-8.71,7.1-16.2,15.76-25.7,21.76-9.5,6-22.09,8.94-31.92,3.51-11.67-6.45-14.99-22.15-12.48-35.25,2.51-13.1,9.38-24.92,13.29-37.67,3.33-10.85,4.54-22.4,9.34-32.68,3.24-6.93,8-13.03,12.72-19.05,12.9-16.48,25.8-32.97,35-45.4Z"/>
      <path class="cls-10" d="m2021.96,623.13c-13.36,9.65-26.19,20.04-38.4,31.11-3.48,3.15-6.96,6.43-9.27,10.52-7.74,13.74.57,31.54,12.63,41.7,11.26,9.49,28.5,14.79,40.55,6.32,3.3-2.32,5.96-5.51,9.47-7.48,7.41-4.17,16.98-1.94,24.11,2.69s12.65,11.32,19.01,16.96c11.98,10.63,27.22,17.53,43.11,19.54,6.05-10.46-2.38-23.25-11.06-31.66-17.05-16.51-36.88-30.03-53.13-47.32-13.47-14.33-24.39-31.15-39.54-43.69-1.87-1.55-3.99-3.09-6.41-3.09s-4.91,2.39,8.95,4.4Z"/>
      <path class="cls-10" d="m1534.33,567.61c-20.12,5.14-37.59,19.8-46.15,38.72-8.56,18.92-8.03,41.72,1.4,60.23,1.31,2.57,2.96,5.22,5.62,6.31,2.61,1.07,5.64.39,8.19-.83,9.13-4.34,13.96-14.45,16.76-24.16,2.8-9.71,4.41-20.06,10.02-28.47,8.91-13.34,25.65-18.7,41.23-22.52s32.35-7.6,43.25-19.37c3.79-4.09,6.8-9.62,5.64-15.08-1.19-5.65-6.64-9.62-12.29-10.86s-11.51-.27-17.21.69c-22.41,3.78-42.99,11.9-56.47,15.34Z"/>
      <path class="cls-10" d="m1731.79,597.32c-21.43,7.65-38.01,27.54-41.67,50-3.66,22.46,5.74,46.58,23.63,60.64,1.75,1.37,3.63,2.69,5.79,3.21,5.11,1.24,10.24-2.26,13.45-6.42,9.35-12.11,9.09-30.52,20.77-40.39,11.45-9.67,28.46-6.53,43.3-8.62,13.45-1.9,26.16-8.7,35.18-18.86,3.28-3.69,6.16-7.97,6.97-12.84.93-5.56-.94-11.21-3.3-16.33-4.85-10.51-12.7-20.53-23.8-23.85-19.34-5.79-38.18,10.44-58.24,12.7-6.65.75-13.41-.07-20.04.83-6.63.89-13.55,4.02-2.07-.06Z"/>
      <path class="cls-6" d="m1362.21,1273.37c-29.72-15.51-59.95-31.58-86.16-52.68-27.22-21.9-47.46-51.79-57.08-85.48-9.99-35-5.61-71.36,9.92-104.06,15.6-32.85,39.34-60.88,65.15-86.15,51.89-50.82,114.43-90.48,181.58-117.91,71.74-29.31,148.32-45.03,225.56-49.64,84.96-5.06,171.03,1.99,254.64,17.52,70.47,13.08,138.74,43,194.62,88.13,23.25,18.78,45.77,39.9,61.45,65.58,13.06,21.39,21.74,45.15,26.14,69.81,9.02,50.62-2.09,104.07-32.62,145.67-17.19,23.42-40.18,41.37-65.54,55.2-28.26,15.41-58.27,27.48-88.99,37.01s-61.09,16.45-92.44,19.63c-25.65,2.6-52.54,3.36-77.46-3.38-9.64-2.6-17.22-5.67-25.47-11.68-3.71-2.71-9.48-.63-11.63,3.05-2.52,4.3-.67,8.92,3.05,11.63,19.27,14.04,44.9,17.86,68.12,18.88,30.9,1.36,62.11-2.83,92.3-9.21,33.2-7.01,65.76-17.22,97.06-30.32s59.93-27.37,84.88-48.79c43.48-37.34,67.81-92.46,68.7-149.51.83-53.33-18.11-107.41-54.23-146.96-50.41-55.21-117.74-94.78-188.65-117.36-38.75-12.34-79.01-18.47-119.23-23.74-44.1-5.78-88.52-9.28-133-9.68-83.28-.75-167.2,9.48-246.58,35.24-71.91,23.33-139.78,58.86-198.41,106.73-29.44,24.04-57.03,51.08-79.56,81.78s-38.89,65.54-41.61,103.45,10.52,77.87,32.64,109.49c20.76,29.68,50.17,50.42,81,68.66,14.16,8.38,28.66,16.16,43.24,23.77,9.69,5.06,18.29-9.61,8.58-14.68h0Z"/>
      <path class="cls-6" d="m1355.66,1288.9c10.5,1.91,20.99,3.83,31.49,5.74,4.51.82,9.16-1.24,10.46-5.94,1.13-4.13-1.4-9.63-5.94-10.46-10.5-1.91-20.99-3.83-31.49-5.74-4.51-.82-9.16,1.24-10.46,5.94-1.13,4.13,1.4,9.63,5.94,10.46h0Z"/>
      <path class="cls-6" d="m1147.98,1128.11c10.06,44.4,32.45,85.75,63.8,118.75,16.21,17.06,34.95,31.22,54.72,43.89,21.14,13.55,43.63,25.21,67.38,33.47,26.52,9.22,54.91,13.7,82.93,10.75,4.57-.48,8.5-3.56,8.5-8.5,0-4.22-3.91-8.98-8.5-8.5-47.65,5.01-93.43-12.44-133.57-36.82-19.09-11.59-37.39-24.49-53.37-40.16-15.23-14.93-28.34-31.82-39.09-50.24-12.21-20.94-21.05-43.52-26.4-67.16-2.42-10.67-18.81-6.15-16.39,4.52h0Z"/>
      <path class="cls-6" d="m1971.56,1340.99c28.38-4.35,56.77-8.74,84.81-15.02,32.58-7.29,64.55-17.11,95.46-29.73,14.95-6.11,29.86-12.4,43.49-21.14,12.52-8.02,24.19-17.5,34.84-27.87,22.22-21.64,40.68-47.51,54.35-75.32,14.22-28.92,22.72-59.78,26-91.82,2.84-27.7-.77-54.77-8.86-81.32-9.37-30.76-20.93-61.03-35.61-89.66-15.01-29.28-33.2-56.72-52.47-83.34-37.24-51.44-76.43-101.77-120.74-147.36-43.61-44.88-92.59-85.47-147.97-115.01-29.1-15.52-59.88-28.57-92.33-35.02-34.71-6.9-70.28-7.58-105.52-5.62-35.8,1.99-71.39,6.56-107.07,9.99-31.51,3.02-62.62,8-92.97,17.23-30.15,9.17-59.32,21.98-86.2,38.45-28.97,17.75-54.27,39.96-78.33,63.82-41.53,41.18-76.4,87.28-110.02,134.95-7.74,10.98-15.5,21.94-23.41,32.8-2.7,3.71-.63,9.48,3.05,11.63,4.3,2.52,8.92.67,11.63-3.05,31.43-43.15,60.76-87.7,96.21-127.77,21.88-24.74,45.27-48.86,70.68-70,23.67-19.69,50.22-35.92,78.28-48.56s56.92-21.05,86.64-26.6c32.26-6.01,65.33-8.11,97.95-11.43,68-6.93,137.89-11.16,202.61,14.95,55.99,22.59,106.31,57.8,150.76,98.29,45.54,41.48,85.68,88.63,122.94,137.58,38.16,50.14,75.55,101.74,98.9,160.71,10.36,26.16,20.75,53.91,24.57,81.94s-.22,58.29-8.01,85.74c-15.66,55.17-52.34,108.85-101.7,139.02-13.4,8.19-28.01,14.21-42.58,19.96-15.78,6.23-31.83,11.76-48.1,16.57-28.43,8.41-57.45,14.51-86.67,19.44-13.02,2.2-26.08,4.18-39.13,6.18-4.54.7-7.05,6.4-5.94,10.46,1.33,4.85,5.9,6.63,10.46,5.94h0Z"/>
      <path class="cls-6" d="m1250.34,818.27c-26.82,32.88-47.74,70.77-65.27,109.28-19.52,42.88-35.62,88.32-41.04,135.34-2.49,21.63-2.41,44.23,3.94,65.22,3.16,10.44,19.57,5.99,16.39-4.52-11.26-37.21-2.15-79.74,8.66-116.4,12.84-43.56,31.64-85.51,54.35-124.8,10.45-18.08,22.05-36.24,34.99-52.1,2.9-3.55,3.48-8.54,0-12.02-2.99-2.99-9.1-3.58-12.02,0h0Z"/>
    </g>
    <g id="Layer_4" data-name="Layer 4">
      <path class="cls-5" d="m1849.53,1442.23c10.94,0,10.96-17,0-17s-10.96,17,0,17h0Z"/>
      <path class="cls-5" d="m1849.53,1442.23c10.94,0,10.96-17,0-17s-10.96,17,0,17h0Z"/>
      <path class="cls-1" d="m1976.69,1049.63c-2.16-12.2-10.89-28.74-17.41-39.28-3.82-6.18-39.52-48.7-45.44-52.93-56.7-40.47-114.31-59.29-183.66-52.7-102.89,9.77-194.49,30.3-274.45,90.75-50.04,63.47-82.01,144.17-74.63,224.65,7.29,79.47,47.92,176.19,116.12,202.41.69.03,1.4-.04,2.07.16,94.75,28.06,173.08,37.62,307.42,25.3,2.11-.19,117.09-35.19,135.66-79.83,17.87-42.94,44.29-76.95,49.57-123.45,2.04-17.92,3.5-50.12,7.16-67.77,10.02-48.32-13.81-78.73-22.42-127.32Z"/>
      <path class="cls-5" d="m1435.09,1000.51c-19.37,25.15-32.94,54.21-42.63,84.33-10.31,32.05-17,65.73-19.75,99.28-5.39,65.74,11.95,132.69,50.76,186.39,19.2,26.56,43.57,48.67,74.12,61.2,4.25,1.74,9.34-1.89,10.46-5.94,1.34-4.88-1.67-8.71-5.94-10.46-51.2-21.01-83.93-75.31-100.62-125.65-20.58-62.06-13.72-128.55,4.33-190.4,9.44-32.37,23.29-63.36,43.95-90.18,2.8-3.64.56-9.52-3.05-11.63-4.39-2.57-8.82-.6-11.63,3.05h0Z"/>
      <path class="cls-5" d="m1938.35,990.96c35.92,57.28,53.65,124.82,51.98,192.33-1.59,64.33-20.67,131.68-61.22,182.57-21.39,26.85-48.87,49.02-81.84,59.68-10.37,3.35-5.93,19.77,4.52,16.39,64.25-20.77,108.09-78.06,131.91-138.93,25.97-66.35,30.22-140.67,14.67-210.01-8.76-39.04-24.08-76.69-45.34-110.6-5.8-9.25-20.51-.72-14.68,8.58h0Z"/>
      <path class="cls-5" d="m1451.59,1006.93c51.69-47.65,119.55-76.03,188.01-89.14,68.38-13.1,141.84-11.27,207.54,13.2,33.72,12.56,64.93,31.93,89.52,58.35,7.47,8.02,19.47-4.02,12.02-12.02-48.12-51.69-118.11-76.02-187.01-82.57-74.65-7.1-151.58,5.9-220.39,35.4-37.1,15.91-71.98,37.34-101.72,64.75-8.06,7.43,3.98,19.43,12.02,12.02h0Z"/>
      <path class="cls-5" d="m1492.11,1429.34c91,37.28,190.7,47.32,287.46,30.26,26.93-4.75,53.46-11.59,79.42-20.17,10.34-3.42,5.91-19.84-4.52-16.39-89.84,29.69-186.39,36.73-278.87,15.22-26.97-6.27-53.35-14.81-78.97-25.31-4.25-1.74-9.34,1.89-10.46,5.94-1.34,4.87,1.67,8.71,5.94,10.46h0Z"/>
    </g>
    <g id="Layer_5" data-name="Layer 5">
      <ellipse class="cls-11" cx="1805.57" cy="1131.16" rx="78.14" ry="40" transform="translate(605.68 2891.8) rotate(-87.79)"/>
      <ellipse class="cls-11" cx="1574.26" cy="1122.24" rx="78.14" ry="40" transform="translate(392.19 2652.09) rotate(-87.79)"/>
    </g>
  </g>
  <g id="Layer_9" data-name="Layer 9">
    <path class="cls-2" d="m1079.69,1594.77c-22.74-81.13,13.85-260.04,13.85-260.04,0,0,302.16,130.72,441.4,151.3,96.73,14.3,255.64,21.21,406.83,8.29,40.44-3.46,208.81-39.46,264.67-62.93,49.62-20.84,95.52-42.73,145.39-67.82,42.54,188.68,19.3,261.14,19.3,261.14,0,0-100.08,66.91-463.51,139.26-46.96,9.35-253.42,10.67-298.69,1.24-88.05-18.33-165.64-30.5-274.6-61.72-97.89-28.05-165.81-73.91-254.63-108.71Z"/>
    <path class="cls-2" d="m1093.85,393.45c-5.79,86.82,13.85,260.04,13.85,260.04,0,0,302.16-130.72,441.4-151.3,96.73-14.3,255.64-21.21,406.83-8.29,40.44,3.46,208.81,39.46,264.67,62.93,49.62,20.84,95.52,42.73,145.39,67.82,42.54-188.68,19.3-261.14,19.3-261.14,0,0-100.08-66.91-463.51-139.26-46.96-9.35-253.42-10.67-298.69-1.24-88.05,18.33-165.64,30.5-274.6,61.72-97.89,28.05-165.81,73.91-254.63,108.71Z"/>
    <text class="cls-9" transform="translate(1390.79 484.41) rotate(-18.86)"><tspan x="0" y="0">V</tspan></text>
    <text class="cls-9" transform="translate(1495.69 450.31) rotate(-12.67)"><tspan x="0" y="0">I</tspan></text>
    <text class="cls-9" transform="translate(1544.39 438.03) rotate(-7.65)"><tspan x="0" y="0">L</tspan></text>
    <text class="cls-9" transform="translate(1650.22 423.33) rotate(-1.36)"><tspan x="0" y="0">D</tspan></text>
    <text class="cls-9" transform="translate(1771.25 419.68) rotate(4.69)"><tspan x="0" y="0">M</tspan></text>
    <text class="cls-9" transform="translate(1915.17 431.6) rotate(11.3)"><tspan x="0" y="0">A</tspan></text>
    <text class="cls-9" transform="translate(2032.96 453.94) rotate(20.01)"><tspan x="0" y="0">D</tspan></text>
    <g id="Layer_13" data-name="Layer 13">
      <text class="cls-8" transform="translate(1253.2 1632.01) rotate(15.04)"><tspan x="0" y="0">F</tspan></text>
      <text class="cls-8" transform="translate(1364.85 1662.06) rotate(12.51)"><tspan x="0" y="0">O</tspan></text>
      <text class="cls-8" transform="translate(1492.88 1690.5) rotate(9.87)"><tspan x="0" y="0">R</tspan></text>
      <text class="cls-8" transform="translate(1625.32 1712.75) rotate(7.26)"><tspan x="0" y="0"> </tspan></text>
      <text class="cls-8" transform="translate(1689.95 1723.96) rotate(-.33)"><tspan x="0" y="0">B</tspan></text>
      <text class="cls-8" transform="translate(1827.07 1721.6) rotate(-7.48)"><tspan x="0" y="0">Ø</tspan></text>
      <text class="cls-8" transform="translate(1960.15 1703.84) rotate(-12.15)"><tspan x="0" y="0">R</tspan></text>
      <text class="cls-8" transform="translate(2095.44 1674.81) rotate(-17.39)"><tspan x="0" y="0">N</tspan></text>
    </g>
  </g>
  <g id="Layer_7" data-name="Layer 7">
    <path class="cls-7" d="m1117.77,662.85c72.99-41.75,149.84-76.48,229.43-103.59,79.66-27.13,161.89-46.75,245.22-58.48,83.66-11.77,168.55-15.15,252.9-10.52,85.1,4.67,169.64,17.7,252.25,38.62,82.61,20.92,163.27,49.68,240.3,86.15,9.64,4.56,19.22,9.26,28.75,14.05,11.47,5.77,21.61-11.48,10.09-17.27-77.35-38.89-158.43-70.35-241.8-93.68-83.39-23.33-169.08-38.55-255.39-45.54-86.04-6.96-172.72-5.46-258.46,4.53s-168.76,27.67-250.26,53.37c-81.41,25.68-160.49,59.08-235.56,99.73-9.25,5.01-18.44,10.14-27.57,15.36-11.17,6.39-1.11,23.68,10.09,17.27h0Z"/>
    <path class="cls-7" d="m1099.57,402.08c74.99-42.89,154.13-78.29,235.78-106.46,82.94-28.61,168.49-49.96,255.28-62.91s171.52-16.38,257.49-10.93c87.89,5.58,175.13,20.14,260.34,42.25,84.64,21.96,167.49,51.36,246.56,88.76,9.66,4.57,19.25,9.26,28.8,14.06,11.47,5.77,21.61-11.48,10.09-17.27-79.34-39.89-162.66-71.88-248.07-96.13-86.2-24.47-174.72-41.11-263.98-49.1-86.8-7.76-174.09-6.49-260.59,4.17-88.59,10.91-176.03,30.47-261.01,57.74s-165.56,61.21-243.06,103.1c-9.31,5.03-18.54,10.18-27.73,15.44-11.17,6.39-1.11,23.68,10.09,17.27h0Z"/>
    <path class="cls-7" d="m2381.31,621.66c16.27-66.99,23.66-136.2,21.58-205.12-.59-19.49-1.95-38.94-4.02-58.32-.57-5.37-4.19-10-10-10-4.96,0-10.58,4.6-10,10,7.17,67.08,5.61,135.19-5.35,201.78-3.11,18.92-6.97,37.71-11.49,56.34-3.04,12.5,16.25,17.84,19.29,5.32h0Z"/>
    <path class="cls-7" d="m1121.37,651.56c-15.94-65.65-22.96-133.22-20.84-200.76.6-19.17,1.95-38.3,3.99-57.36.57-5.38-5.01-10-10-10-5.88,0-9.42,4.61-10,10-7.34,68.65-5.21,138.02,5.91,206.15,3.14,19.24,7.05,38.34,11.65,57.29,3.04,12.5,22.33,7.21,19.29-5.32h0Z"/>
  </g>
  <g id="Layer_7_copy" data-name="Layer 7 copy">
    <path class="cls-7" d="m1086.11,1332.91c74.12,42.4,152.33,77.65,233.14,105.24,80.71,27.56,164.05,47.42,248.52,59.15,85.53,11.88,172.03,15.68,258.26,10.79,86.44-4.9,172.48-18.16,256.39-39.48,83.9-21.33,165.73-50.82,243.97-87.88,9.64-4.57,19.22-9.26,28.75-14.05,11.5-5.78,1.39-23.04-10.09-17.27-76.18,38.3-155.99,69.06-238.12,91.97-82.07,22.89-166.31,37.97-251.25,44.7-84.54,6.7-169.69,5.21-253.94-4.45-83.45-9.57-165.99-27.39-246.11-52.58-80.2-25.21-157.92-58.03-231.85-98.05-9.25-5.01-18.44-10.14-27.57-15.36-11.19-6.4-21.28,10.87-10.09,17.27h0Z"/>
    <path class="cls-7" d="m1067.9,1593.69c76.46,43.73,157.32,79.76,240.56,108.48,84,28.98,170.68,50.51,258.62,63.4,86.32,12.66,173.5,16.67,260.59,11.08,89.63-5.76,178.75-20.56,265.65-43.18,85.94-22.37,169.94-52.51,250.23-90.49,9.66-4.57,19.25-9.26,28.8-14.06,11.5-5.78,1.39-23.04-10.09-17.27-77.83,39.13-159.51,70.33-243.29,94.11-84.84,24.09-171.92,40.7-259.79,48.48-86.06,7.62-172.59,6.37-258.35-4.13-86.76-10.62-172.51-30.18-255.72-56.82-82.65-26.45-163.01-60.15-239.36-101.44-9.31-5.03-18.54-10.18-27.73-15.44-11.19-6.4-21.28,10.87-10.09,17.27h0Z"/>
    <path class="cls-7" d="m2340.45,1362.16c15.94,65.65,22.96,133.22,20.84,200.76-.6,19.17-1.95,38.3-3.99,57.36-.57,5.38,5.01,10,10,10,5.88,0,9.42-4.61,10-10,7.34-68.65,5.21-138.02-5.91-206.15-3.14-19.24-7.05-38.34-11.65-57.29-3.04-12.5-22.33-7.21-19.29,5.32h0Z"/>
    <path class="cls-7" d="m1080.51,1321.62c-16.27,66.99-23.66,136.2-21.58,205.12.59,19.49,1.95,38.94,4.02,58.32.57,5.37,4.19,10,10,10,4.96,0,10.58-4.6,10-10-7.17-67.08-5.61-135.19,5.35-201.78,3.11-18.92,6.97-37.71,11.49-56.34,3.04-12.5-16.25-17.84-19.29-5.32h0Z"/>
  </g>
</svg>