<?xml version="1.0" encoding="UTF-8"?><svg id="Layer_1" xmlns="http://www.w3.org/2000/svg" width="403.92" height="378.63" xmlns:xlink="http://www.w3.org/1999/xlink" viewBox="0 0 403.92 378.63"><defs><style>.cls-1{clip-path:url(#clippath);}.cls-2,.cls-3{fill:#c49a6c;}.cls-4,.cls-5{fill:url(#radial-gradient);}.cls-4,.cls-6,.cls-7,.cls-8,.cls-9,.cls-10{stroke-width:0px;}.cls-3,.cls-11,.cls-12,.cls-13{stroke-miterlimit:10;}.cls-3,.cls-12{stroke:#8b5e3c;stroke-width:2px;}.cls-14{clip-path:url(#clippath-1);}.cls-11,.cls-13{stroke:#231f20;}.cls-11,.cls-8{fill:#231f20;}.cls-12{fill:none;}.cls-13{stroke-width:3px;}.cls-13,.cls-10{fill:#fff;}.cls-6{fill:#603913;}.cls-7{fill:#754c29;}.cls-9{fill:#8b5e3c;}</style><clipPath id="clippath"><path class="cls-3" d="m280.12,361.99c-2.59,8.22-7.48,12.65-18.48,13.54-36.79,2.97-41.66,1.43-54.34,1.96-17.51.74-30.68-1.48-68.01-3.41-12.95-.67-16.63-2.42-19.59-14.99,2.02-21.92,4.63-44.83,7.76-68.67,3.21-24.47,4.72-52.82,9.16-75.06,20.45,0,42.85,4.77,63.29,3.97,21.58-.84,44.33-2.78,65.68-6.3,4.81,23.21,3.95,50.54,7.88,72.55,5.17,29.02,5.28,48.02,6.65,76.41Z"/></clipPath><radialGradient id="radial-gradient" cx="179.85" cy="72.73" fx="241.58" fy="16.26" r="153.74" gradientTransform="translate(189.74 252.95) rotate(-120.22) scale(.93 1) skewX(-.6)" gradientUnits="userSpaceOnUse"><stop offset=".04" stop-color="#c49a6c"/><stop offset="1" stop-color="#8b5e3c"/></radialGradient><clipPath id="clippath-1"><path class="cls-4" d="m71.91,46.79C113.13,22.08,154.34-2.62,213.19.22c9.99.48,19.41,1.71,28.32,3.5,43.15,8.7,73.94,30.78,96.07,46.64,26.66,19.12,59.26,42.49,65.21,81.19.93,6.03,4.68,30.44-9.66,51.34-11.56,16.85-29.35,23.35-42.27,27.46-93.09,29.59-193.88,17.41-199.25,16.72-24.94-3.22-44.81-8.52-84.53-19.1-39.71-10.58-48.58-15.28-55.55-23.88-22.82-28.16-4.95-73.2-3.62-76.41,2.66-6.46,13.46-30.6,64-60.89Z"/></clipPath></defs><path class="cls-8" d="m96.97,307.96c.21,6.05.52,12.89,4.31,17.92,4.29,5.7,12.35,7.59,19.11,6.59.64-.09,1.56.1,2.05.55.02.02.03.04.05.06.02.23.03.46.05.69-.08.05-.19.09-.33.11-7.69,1.14-16.8-.91-22.37-6.62-5.12-5.25-5.52-13.16-5.76-20.07-.02-.69,2.86-.24,2.9.78Z"/><path class="cls-9" d="m95.26,307.79c.64,0,1.53-.15,2.05-.55.38-.3.47-.58-.16-.58s-1.53.15-2.05.55c-.38.3-.47.58.16.58h0Z"/><path class="cls-9" d="m95.67,308.16c.62,0,1.61-.18,1.9-.84.26-.6-.23-1.03-.83-1.03s-1.61.18-1.9.84c-.26.6.23,1.03.83,1.03h0Z"/><path class="cls-8" d="m94.38,306.74c3.69-1.1,6.65-4.06,7.88-7.69l2.82.87c-1.36,1.52-2.72,3.04-4.09,4.56-1.15,1.28-2.23,2.81-3.98,3.25-.34.09-2.92-.36-2.64-.93,1.56-3.2,2.24-6.74,1.98-10.3l2.82.87c-1.34,1.02-.77,3.21-.89,4.65-.16,2.02-.92,3.94-2.16,5.55l-2.82-.87c1.15-.97,1.19-2.72.53-3.99-.72-1.38-2.08-1.94-3.53-2.16l1.15-.24c1.25,2.58,3,4.84,5.18,6.7l-2.76-.51c-.1-2.47-2-4.31-3.7-5.87l2.73.39c.91,1.49,1.82,2.98,2.73,4.48.77,1.26,1.52,2.57,1.42,4.09-.03.46-2.95-.02-2.9-.78.1-1.52-.75-2.82-1.52-4.07-.86-1.42-1.73-2.83-2.59-4.25-.24-.4.89-.27.97-.26.57.08,1.32.25,1.76.65,1.87,1.72,3.88,3.7,3.99,6.4.02.62-2.53-.32-2.76-.51-2.27-1.93-4.12-4.3-5.42-6.98-.22-.46,1.06-.25,1.15-.24,2.34.37,5.04,1.16,6.56,3.1,1.14,1.47,1.22,3.77-.27,5.02-.49.41-3.05-.57-2.82-.87,1.28-1.66,2.06-3.68,2.17-5.78.08-1.55-.4-3.53,1.03-4.61.49-.37,2.77.18,2.82.87.26,3.55-.43,7.09-1.98,10.3l-2.64-.93c1.61-.41,2.76-2.16,3.81-3.33,1.3-1.45,2.61-2.91,3.91-4.36.36-.4,3,.33,2.82.87-1.32,3.87-4.5,6.83-8.39,8-.6.18-1.48-.13-2.02-.38-.27-.13-.97-.52-.37-.71h0Z"/><path class="cls-8" d="m97.4,306.11c1.04,6.9,2.7,13.79,5.23,20.3.54,1.39,1.2,2.72,2.68,3.27,1.56.58,3.26.94,4.89,1.24,3.48.65,6.99.84,10.52.65.5-.03,1.29.32,1.7.69.02.22.03.44.04.66-.13.05-.31.09-.57.11-3.99.21-8.01-.06-11.93-.85-3.06-.61-7.27-1.21-9.14-4.03-.9-1.35-1.38-2.95-1.91-4.47-.67-1.95-1.29-3.92-1.84-5.9-1.1-3.97-1.95-8.01-2.56-12.09-.14-.96,2.75-.44,2.88.42Z"/><path class="cls-8" d="m101.76,322.38c.19,1.97,1.73,3.33,3.07,4.63,1.37,1.32,2.85,2.63,4.64,3.36,1.97.8,4.17.85,6.27.79,2.22-.07,4.43-.31,6.62-.71,0,.68.04,1.36.09,2.03-4.65.77-9.83,1.13-14.18-.69-2.15-.9-3.99-2.4-5.66-4-1.64-1.57-3.53-3.32-3.76-5.7-.13-1.32,2.81-.83,2.91.3Z"/><path class="cls-8" d="m96.97,310.24c.57.02,1.54.23,1.93.71,1.61,1.97,1.86,4.94,2.69,7.29.91,2.56,1.95,5.35,3.49,7.61.76,1.11,1.98,1.65,3.13,2.25,1.29.67,2.62,1.33,4.04,1.7,2.92.75,6.06.3,9.01-.04.33-.04.73,0,1.11.11,0,.09-.01.18-.01.27,0,.33,0,.65.02.97-3.03.34-6.1.58-9.13,0-3.13-.61-6.11-2.03-8.83-3.66-2.51-1.51-3.64-4.55-4.72-7.14-.64-1.53-1.2-3.09-1.68-4.68-.48-1.59-.68-3.5-1.76-4.82-.41-.5.36-.57.71-.56Z"/><path class="cls-8" d="m105.83,327.73c2.65.63,5.22,1.57,7.67,2.76.22.11.58.34.57.62s-.29.38-.53.4c-2.25.2-4.48-.12-6.6-.9-.29-.1-1.24-.59-.81-1.01s1.44-.11,1.89.06c.04.01.37.13.17.06-.18-.06.08.03.11.03.18.06.37.11.55.15.1.03.21.05.31.07.23.05-.36-.06.05,0,.19.03.38.06.57.09.08.01.17.02.25.03.23.03-.32-.02.08,0,.19.01.38.02.57.03s.38,0,.58,0c.05,0,.19,0,.06,0,.13,0,.25-.02.38-.03l.04,1.02c-.16-.08-.31-.15-.47-.22.26.12-.13-.06-.14-.06-.28-.12-.55-.24-.83-.36-.54-.22-1.09-.44-1.64-.63-.14-.05-.29-.1-.43-.15-.04-.01-.45-.16-.11-.04-.28-.1-.58-.18-.87-.27-.58-.17-1.17-.32-1.76-.46-.35-.08-1.43-.46-1.29-.99s1.29-.29,1.61-.21h0Z"/><path class="cls-8" d="m107.78,330.55c.66,0,1.59-.18,1.89-.86.27-.6-.24-1.11-.85-1.11-.66,0-1.59.18-1.89.86-.27.6.24,1.11.85,1.11h0Z"/><path class="cls-8" d="m96.63,311.94c-.13-1.89-.35-3.77-.67-5.63-.1-.61.85-.6,1.23-.54s.77.16,1.1.37c.2.13.52.31.56.57.32,1.87.55,3.74.67,5.63.04.61-.8.6-1.23.54-.38-.06-.77-.16-1.1-.37-.19-.12-.54-.32-.56-.57h0Z"/><path class="cls-8" d="m98.17,302.68c-.11.05-.04.02.03-.02.07-.04.13-.07.2-.11.14-.09.28-.19.41-.3.14-.11-.09.09.05-.04.05-.05.11-.11.16-.16.1-.11.2-.23.29-.35.19-.27.33-.56.49-.85.19-.34.45-.61.76-.84.24-.18.52-.31.75-.51.14-.11-.08.08.05-.05.05-.06.11-.12.16-.18.12-.13.23-.27.35-.4.75-.77,1.69-1,2.74-.77.51.11,1.7.91,1.08,1.58-1.18,1.26-1.49,2.81-2.53,4.18s-2.78,2.09-4.11,3.22c-.23.2-.71.23-.98.2-.36-.03-.8-.17-1.09-.39-.52-.41-.72-.97-.17-1.44.63-.54,1.34-.95,2.03-1.41.36-.24.71-.48,1.04-.75.09-.07.15-.13.3-.29s.27-.31.4-.48c.95-1.3,1.31-2.86,2.46-4.09l1.08,1.58c.2.06.39.06.58.02.11-.06.11-.06-.02.01-.06.04-.12.08-.18.13.07-.06.06-.04-.04.05-.18.21-.36.42-.56.62-.27.26-.55.45-.86.65-.03.02-.35.25-.24.15-.1.09-.18.2-.25.32-.31.5-.53,1-.94,1.43-.51.52-1.07.88-1.73,1.18-.62.28-1.64-.04-2.05-.55-.45-.56-.25-1.06.36-1.34h0Z"/><path class="cls-8" d="m96.32,302.11c-.1-1.28-.19-2.6.11-3.86.14-.6.46-1.11.65-1.68.07-.22.1-.41.06-.63-.03-.13-.03-.09-.07-.21-.08-.11-.09-.13-.02-.07-.24-.23-.07-.16.5.21l.76.08h-.1c.2-.04.4-.09.6-.14.12-.2.15-.22.09-.06-.02.06-.03.12-.04.18-.04.18-.08.37-.12.55-.07.32-.13.64-.19.95-.13.72-.25,1.44-.35,2.16-.19,1.42-.31,2.85-.36,4.28,0,.25-.4.42-.58.47-.33.09-.76.06-1.09-.03-.59-.18-1.25-.53-1.23-1.22.06-1.68.21-3.35.46-5.01.12-.8.27-1.6.43-2.39.08-.37.12-.8.35-1.12.35-.47,1.09-.5,1.61-.4,1.01.19,1.86.85,2.2,1.83.24.71,0,1.34-.3,1.98-.65,1.41-.57,2.92-.46,4.43.05.67-.77.81-1.28.75s-1.58-.39-1.63-1.06h0Z"/><path class="cls-8" d="m95.62,302.38c-1.53.11-2.98-.39-4.29-1.15-.5-.29-.98-.64-1.51-.87.2.09-.2-.03.09.04,0,0,.34.04.34.04,0,0-.12.04-.18.08-.09.05-.19.14-.25.23-.3.44.02.95.28,1.33.31.45.62.89,1.05,1.2.54.38,1.06.71,1.53,1.17.37.36.7.74,1.13,1.03.12.08-.01-.01-.03-.02.08.05.16.1.24.14.11.06.23.13.34.19.24.13.49.27.73.41.58.36,1.15.76,1.55,1.32.59.83-1.14.65-1.49.55-2.01-.57-3.85-1.56-5.38-2.98-.65-.61-1.23-1.28-1.71-2.03-.53-.83-1.02-1.72-1.19-2.7-.1-.58.86-.51,1.21-.45.38.06.77.17,1.1.36.19.11.53.29.57.53.28,1.58,1.31,3.03,2.43,4.13.2.2.47.43.77.66.15.12.31.23.47.34,0,0,.27.18.16.11-.12-.08.14.08.16.1.17.1.33.19.51.28.1.05.21.1.31.15-.18-.09-.09-.04.04.01.18.08.36.15.54.21s.18.08,0,0c.1.05.23.07.33.1l-1.49.55c-.07-.1-.15-.2-.24-.3-.04-.04-.07-.08-.11-.12.1.09-.04-.03-.05-.03-.1-.08-.2-.15-.31-.22-.12-.08.02.01.04.02-.08-.05-.16-.09-.24-.14-.51-.29-1.04-.57-1.53-.9-.56-.37-.99-.88-1.47-1.35-.42-.4-.95-.65-1.4-1.02-.53-.42-.93-.95-1.3-1.51-.34-.51-.76-1.18-.5-1.81.65-1.54,3.01-1.07,4.18-.58.71.3,1.35.72,2.02,1.11.15.09.3.17.45.25.06.03.11.06.17.09-.23-.13.01,0,.07.03s.12.04.17.07c-.44-.17.16.03-.11-.03-.2-.05.03,0,.04,0-.14-.01-.16-.01-.06,0,.08,0,.08,0,0,0,.69-.05,1.49.11,2.05.55.15.12.37.31.31.53s-.36.29-.54.3h0Z"/><path class="cls-8" d="m94.9,303.77c.28-.13.54-.3.79-.48l-.51.39c.07-.06.15-.12.22-.18.23-.24.49-.42.8-.52.3-.16.62-.23.96-.22.34-.01.67.06.96.22.31.1.58.27.8.52l.39.51c.23.39.34.81.34,1.26l-.09.66c-.12.42-.33.79-.64,1.1-.23.2-.48.39-.73.57-.08.06-.17.12-.25.18-.17.11-.35.21-.53.3-.29.18-.6.28-.93.3-.33.07-.66.06-1-.04-.33-.08-.61-.23-.85-.45-.27-.18-.49-.41-.64-.7l-.25-.6c-.12-.44-.12-.89,0-1.33l.25-.6c.22-.38.52-.67.9-.9h0Z"/><path class="cls-8" d="m105.57,298.89c.59.7.22,1.63-.06,2.38-.33.87-.83,1.62-1.5,2.25-1.37,1.29-3.04,2.24-4.65,3.2-.24.14-.7.11-.95.08-.36-.05-.79-.17-1.1-.37-.42-.27-.85-.73-.27-1.07,1.42-.84,2.85-1.69,4.09-2.79.57-.51,1.06-1.07,1.36-1.78.15-.36.29-.74.4-1.12.05-.16.11-.36.1-.53,0-.03-.02-.08-.02-.11-.04-.15.02-.02-.08-.14-.44-.52.38-.8.77-.79.68,0,1.46.24,1.92.78h0Z"/><path class="cls-8" d="m104.92,298.5c.15.05.29.13.44.2.02,0,.04.02.06.03.1.06.21.13.31.21,0,0,.01.01.02.02.07.06.15.14.2.21.01.02.02.03.03.05.03.06.09.14.11.21,0,.01,0,.02,0,.03,0,0,0,.02,0,.03,0,.06,0,.15,0,.21,0,.03,0,.06-.02.09-.04.09-.09.16-.14.24-.04.06-.09.11-.13.18l.1-.16s-.04.07-.04.11v-.19s0,.03,0,.04l-.1-.2s.01.02.02.03l-2.69-.55s.05-.08.08-.12l-.1.16c.1-.17.19-.35.19-.55v.19c0-.09-.02-.17-.06-.25l.1.2s-.04-.07-.07-.09l.19.19s-.03-.03-.04-.04c-.11-.08-.19-.17-.24-.29-.06-.08-.08-.18-.06-.29.03-.1.1-.18.19-.22.1-.08.22-.12.36-.13l.32-.02c.26,0,.51.04.76.11.35.1.68.24.97.47.1.08.2.18.28.28.05.07.09.16.13.24.01.02.02.04.03.06.02.04.03.09.03.14.01.1.02.21,0,.32s-.05.21-.1.31c-.08.15-.17.3-.27.44l-.19.12-.26.07-.32.02c-.19,0-.38-.02-.56-.07-.13-.02-.26-.05-.39-.1-.12-.03-.24-.08-.35-.14-.11-.04-.21-.1-.3-.17-.13-.07-.23-.17-.32-.28,0,0-.01-.02-.02-.02-.02-.04-.04-.07-.06-.11-.02-.03-.04-.07-.06-.11-.02-.07-.02-.16-.01-.23,0-.04.01-.07.03-.1.05-.09.1-.17.16-.25.03-.04.06-.08.09-.12l-.1.16s.05-.1.05-.16v.19s0-.05-.01-.08l.1.2s-.03-.04-.05-.06l.19.19s-.03-.02-.04-.03l.27.18s-.05-.03-.07-.04l.33.16s-.07-.03-.11-.04c-.17-.06-.32-.14-.46-.25-.13-.07-.23-.17-.32-.28-.08-.08-.12-.18-.11-.29-.02-.1.01-.18.1-.25l.19-.12c.19-.07.38-.1.58-.1l.36.03c.27.04.52.11.77.21h0Z"/><path class="cls-8" d="m99.39,295.63c.1,2.09.04,4.19-.18,6.27-.03.27-.39.47-.6.55-.33.11-.77.1-1.1,0-.62-.18-1.27-.6-1.2-1.32.2-1.91.25-3.79.15-5.75-.03-.69.74-.94,1.32-.88.38.04.78.15,1.09.39.22.17.5.43.52.74h0Z"/><path class="cls-8" d="m96.32,300.14c-.03-.73.06-1.43.31-2.11.11-.3.23-.59.29-.9.06-.33.06-.67.06-1,0-.23.41-.36.56-.39.33-.07.76-.03,1.08.06s.71.23.97.49l.19.21c.1.12.13.26.1.42,0,.3,0,.6-.05.9s-.15.59-.26.88c-.23.59-.36,1.19-.37,1.82v-.21c0,.07,0,.14,0,.21,0,.25-.06.39-.29.51-.27.14-.67.14-.95.1-.38-.06-.77-.16-1.1-.37-.19-.13-.54-.35-.55-.61h0Z"/><path class="cls-8" d="m93.15,301.25c-.02-1.66.26-3.31.85-4.86.26-.67.61-1.4,1.28-1.74.47-.24.99-.29,1.51-.22.44.06.86.17,1.27.34.32.13.69.31.85.63.24.47-1.01.32-1.16.29-.38-.07-.76-.17-1.1-.34-.21-.11-.48-.23-.59-.45l.03.04.81.44-.07-.03.77.21h-.08c.22,0,.45.02.67.04-.1,0-.11,0-.02,0-.03.01-.07.02-.1.03-.11.07-.23.12-.33.21-.22.18-.38.4-.52.65-.29.54-.49,1.15-.66,1.74-.36,1.24-.52,2.52-.5,3.81,0,.46-2.89.07-2.9-.78h0Z"/><path class="cls-8" d="m118.62,333.77c.55,0,1.64-.21,1.92-.75s-.26-.69-.74-.69c-.55,0-1.64.21-1.92.75s.26.69.74.69h0Z"/><path class="cls-8" d="m114.65,331.14c.37.59,1.26.8,1.91.8.67,0,1.34-.06,2.01-.14.44.34,1.08.46,1.59.47.65.02,1.35-.12,1.92-.43.11-.06.2-.13.3-.19-.03-.51-.05-1.01-.04-1.52,0-.32.03-.65.04-.97-.2-.02-.4-.01-.59.03-.48.11-.97.23-1.45.34-.02,0-.03,0-.05,0-.26.02-.52.08-.76.18-.33.07-.65.15-.98.21-.54.11-1.08.2-1.62.27-.06,0-.21.02-.21.02-.13.01-.26.02-.38.03-.3.02-.6.03-.9.03-.49,0-1.15.31-.79.88Zm4.1-.94s0,0,0,0c0,0,0,0,0,0Z"/><path class="cls-8" d="m303.77,303.23c-.21,6.05-.52,12.89-4.31,17.92-4.29,5.7-12.35,7.59-19.11,6.59-.64-.09-1.56.1-2.05.55-.02.02-.03.04-.05.06-.02.23-.03.46-.05.69.08.05.19.09.33.11,7.69,1.14,16.8-.91,22.37-6.62,5.12-5.25,5.52-13.16,5.76-20.07.02-.69-2.86-.24-2.9.78Z"/><path class="cls-9" d="m303.59,303.07c.64,0,1.53-.15,2.05-.55.38-.3.47-.58-.16-.58s-1.53.15-2.05.55c-.38.3-.47.58.16.58h0Z"/><path class="cls-9" d="m304,303.43c.62,0,1.61-.18,1.9-.84.26-.6-.23-1.03-.83-1.03s-1.61.18-1.9.84c-.26.6.23,1.03.83,1.03h0Z"/><path class="cls-8" d="m306.36,302.02c-3.69-1.1-6.65-4.06-7.88-7.69l-2.82.87c1.36,1.52,2.72,3.04,4.09,4.56,1.15,1.28,2.23,2.81,3.98,3.25.34.09,2.92-.36,2.64-.93-1.56-3.2-2.24-6.74-1.98-10.3l-2.82.87c1.34,1.02.77,3.21.89,4.65.16,2.02.92,3.94,2.16,5.55l2.82-.87c-1.15-.97-1.19-2.72-.53-3.99.72-1.38,2.08-1.94,3.53-2.16l-1.15-.24c-1.25,2.58-3,4.84-5.18,6.7l2.76-.51c.1-2.47,2-4.31,3.7-5.87l-2.73.39c-.91,1.49-1.82,2.98-2.73,4.48-.77,1.26-1.52,2.57-1.42,4.09.03.46,2.95-.02,2.9-.78-.1-1.52.75-2.82,1.52-4.07.86-1.42,1.73-2.83,2.59-4.25.24-.4-.89-.27-.97-.26-.57.08-1.32.25-1.76.65-1.87,1.72-3.88,3.7-3.99,6.4-.02.62,2.53-.32,2.76-.51,2.27-1.93,4.12-4.3,5.42-6.98.22-.46-1.06-.25-1.15-.24-2.34.37-5.04,1.16-6.56,3.1-1.14,1.47-1.22,3.77.27,5.02.49.41,3.05-.57,2.82-.87-1.28-1.66-2.06-3.68-2.17-5.78-.08-1.55.4-3.53-1.03-4.61-.49-.37-2.77.18-2.82.87-.26,3.55.43,7.09,1.98,10.3l2.64-.93c-1.61-.41-2.76-2.16-3.81-3.33-1.3-1.45-2.61-2.91-3.91-4.36-.36-.4-3,.33-2.82.87,1.32,3.87,4.5,6.83,8.39,8,.6.18,1.48-.13,2.02-.38.27-.13.97-.52.37-.71h0Z"/><path class="cls-8" d="m303.34,301.38c-1.04,6.9-2.7,13.79-5.23,20.3-.54,1.39-1.2,2.72-2.68,3.27-1.56.58-3.26.94-4.89,1.24-3.48.65-6.99.84-10.52.65-.5-.03-1.29.32-1.7.69-.02.22-.03.44-.04.66.13.05.31.09.57.11,3.99.21,8.01-.06,11.93-.85,3.06-.61,7.27-1.21,9.14-4.03.9-1.35,1.38-2.95,1.91-4.47.67-1.95,1.29-3.92,1.84-5.9,1.1-3.97,1.95-8.01,2.56-12.09.14-.96-2.75-.44-2.88.42Z"/><path class="cls-8" d="m298.98,317.65c-.19,1.97-1.73,3.33-3.07,4.63-1.37,1.32-2.85,2.63-4.64,3.36-1.97.8-4.17.85-6.27.79-2.22-.07-4.43-.31-6.62-.71,0,.68-.04,1.36-.09,2.03,4.65.77,9.83,1.13,14.18-.69,2.15-.9,3.99-2.4,5.66-4,1.64-1.57,3.53-3.32,3.76-5.7.13-1.32-2.81-.83-2.91.3Z"/><path class="cls-8" d="m303.77,305.51c-.57.02-1.54.23-1.93.71-1.61,1.97-1.86,4.94-2.69,7.29-.91,2.56-1.95,5.35-3.49,7.61-.76,1.11-1.98,1.65-3.13,2.25-1.29.67-2.62,1.33-4.04,1.7-2.92.75-6.06.3-9.01-.04-.33-.04-.73,0-1.11.11,0,.09.01.18.01.27,0,.33,0,.65-.02.97,3.03.34,6.1.58,9.13,0,3.13-.61,6.11-2.03,8.83-3.66,2.51-1.51,3.64-4.55,4.72-7.14.64-1.53,1.2-3.09,1.68-4.68.48-1.59.68-3.5,1.76-4.82.41-.5-.36-.57-.71-.56Z"/><path class="cls-8" d="m294.91,323c-2.65.63-5.22,1.57-7.67,2.76-.22.11-.58.34-.57.62s.29.38.53.4c2.25.2,4.48-.12,6.6-.9.29-.1,1.24-.59.81-1.01s-1.44-.11-1.89.06c-.04.01-.37.13-.17.06.18-.06-.08.03-.11.03-.18.06-.37.11-.55.15-.1.03-.21.05-.31.07-.23.05.36-.06-.05,0-.19.03-.38.06-.57.09-.08.01-.17.02-.25.03-.23.03.32-.02-.08,0-.19.01-.38.02-.57.03s-.38,0-.58,0c-.05,0-.19,0-.06,0-.13,0-.25-.02-.38-.03l-.04,1.02c.16-.08.31-.15.47-.22-.26.12.13-.06.14-.06.28-.12.55-.24.83-.36.54-.22,1.09-.44,1.64-.63.14-.05.29-.1.43-.15.04-.01.45-.16.11-.04.28-.1.58-.18.87-.27.58-.17,1.17-.32,1.76-.46.35-.08,1.43-.46,1.29-.99s-1.29-.29-1.61-.21h0Z"/><path class="cls-8" d="m291.92,325.82c.66,0,1.59-.18,1.89-.86.27-.6-.24-1.11-.85-1.11-.66,0-1.59.18-1.89.86-.27.6.24,1.11.85,1.11h0Z"/><path class="cls-8" d="m304.11,307.22c.13-1.89.35-3.77.67-5.63.1-.61-.85-.6-1.23-.54s-.77.16-1.1.37c-.2.13-.52.31-.56.57-.32,1.87-.55,3.74-.67,5.63-.04.61.8.6,1.23.54.38-.06.77-.16,1.1-.37.19-.12.54-.32.56-.57h0Z"/><path class="cls-8" d="m302.57,297.96c.11.05.04.02-.03-.02-.07-.04-.13-.07-.2-.11-.14-.09-.28-.19-.41-.3-.14-.11.09.09-.05-.04-.05-.05-.11-.11-.16-.16-.1-.11-.2-.23-.29-.35-.19-.27-.33-.56-.49-.85-.19-.34-.45-.61-.76-.84-.24-.18-.52-.31-.75-.51-.14-.11.08.08-.05-.05-.05-.06-.11-.12-.16-.18-.12-.13-.23-.27-.35-.4-.75-.77-1.69-1-2.74-.77-.51.11-1.7.91-1.08,1.58,1.18,1.26,1.49,2.81,2.53,4.18s2.78,2.09,4.11,3.22c.23.2.71.23.98.2.36-.03.8-.17,1.09-.39.52-.41.72-.97.17-1.44-.63-.54-1.34-.95-2.03-1.41-.36-.24-.71-.48-1.04-.75-.09-.07-.15-.13-.3-.29s-.27-.31-.4-.48c-.95-1.3-1.31-2.86-2.46-4.09l-1.08,1.58c-.2.06-.39.06-.58.02-.11-.06-.11-.06.02.01.06.04.12.08.18.13-.07-.06-.06-.04.04.05.18.21.36.42.56.62.27.26.55.45.86.65.03.02.35.25.24.15.1.09.18.2.25.32.31.5.53,1,.94,1.43.51.52,1.07.88,1.73,1.18.62.28,1.64-.04,2.05-.55.45-.56.25-1.06-.36-1.34h0Z"/><path class="cls-8" d="m304.42,297.38c.1-1.28.19-2.6-.11-3.86-.14-.6-.46-1.11-.65-1.68-.07-.22-.1-.41-.06-.63.03-.13.03-.09.07-.21.08-.11.09-.13.02-.07.24-.23.07-.16-.5.21l-.76.08h.1c-.2-.04-.4-.09-.6-.14-.12-.2-.15-.22-.09-.06.02.06.03.12.04.18.04.18.08.37.12.55.07.32.13.64.19.95.13.72.25,1.44.35,2.16.19,1.42.31,2.85.36,4.28,0,.25.4.42.58.47.33.09.76.06,1.09-.03.59-.18,1.25-.53,1.23-1.22-.06-1.68-.21-3.35-.46-5.01-.12-.8-.27-1.6-.43-2.39-.08-.37-.12-.8-.35-1.12-.35-.47-1.09-.5-1.61-.4-1.01.19-1.86.85-2.2,1.83-.24.71,0,1.34.3,1.98.65,1.41.57,2.92.46,4.43-.05.67.77.81,1.28.75s1.58-.39,1.63-1.06h0Z"/><path class="cls-8" d="m305.12,297.65c1.53.11,2.98-.39,4.29-1.15.5-.29.98-.64,1.51-.87-.2.09.2-.03-.09.04,0,0-.34.04-.34.04,0,0,.12.04.18.08.09.05.19.14.25.23.3.44-.02.95-.28,1.33-.31.45-.62.89-1.05,1.2-.54.38-1.06.71-1.53,1.17-.37.36-.7.74-1.13,1.03-.12.08.01-.01.03-.02-.08.05-.16.1-.24.14-.11.06-.23.13-.34.19-.24.13-.49.27-.73.41-.58.36-1.15.76-1.55,1.32-.59.83,1.14.65,1.49.55,2.01-.57,3.85-1.56,5.38-2.98.65-.61,1.23-1.28,1.71-2.03.53-.83,1.02-1.72,1.19-2.7.1-.58-.86-.51-1.21-.45-.38.06-.77.17-1.1.36-.19.11-.53.29-.57.53-.28,1.58-1.31,3.03-2.43,4.13-.2.2-.47.43-.77.66-.15.12-.31.23-.47.34,0,0-.27.18-.16.11.12-.08-.14.08-.16.1-.17.1-.33.19-.51.28-.1.05-.21.1-.31.15.18-.09.09-.04-.04.01-.18.08-.36.15-.54.21s-.18.08,0,0c-.1.05-.23.07-.33.1l1.49.55c.07-.1.15-.2.24-.3.04-.04.07-.08.11-.12-.1.09.04-.03.05-.03.1-.08.2-.15.31-.22.12-.08-.02.01-.04.02.08-.05.16-.09.24-.14.51-.29,1.04-.57,1.53-.9.56-.37.99-.88,1.47-1.35.42-.4.95-.65,1.4-1.02.53-.42.93-.95,1.3-1.51.34-.51.76-1.18.5-1.81-.65-1.54-3.01-1.07-4.18-.58-.71.3-1.35.72-2.02,1.11-.15.09-.3.17-.45.25-.06.03-.11.06-.17.09.23-.13-.01,0-.07.03s-.12.04-.17.07c.44-.17-.16.03.11-.03.2-.05-.03,0-.04,0,.14-.01.16-.01.06,0-.08,0-.08,0,0,0-.69-.05-1.49.11-2.05.55-.15.12-.37.31-.31.53s.36.29.54.3h0Z"/><path class="cls-8" d="m305.84,299.04c-.28-.13-.54-.3-.79-.48l.51.39c-.07-.06-.15-.12-.22-.18-.23-.24-.49-.42-.8-.52-.3-.16-.62-.23-.96-.22-.34-.01-.67.06-.96.22-.31.1-.58.27-.8.52l-.39.51c-.23.39-.34.81-.34,1.26l.09.66c.12.42.33.79.64,1.1.23.2.48.39.73.57.08.06.17.12.25.18.17.11.35.21.53.3.29.18.6.28.93.3.33.07.66.06,1-.04.33-.08.61-.23.85-.45.27-.18.49-.41.64-.7l.25-.6c.12-.44.12-.89,0-1.33l-.25-.6c-.22-.38-.52-.67-.9-.9h0Z"/><path class="cls-8" d="m295.17,294.16c-.59.7-.22,1.63.06,2.38.33.87.83,1.62,1.5,2.25,1.37,1.29,3.04,2.24,4.65,3.2.24.14.7.11.95.08.36-.05.79-.17,1.1-.37.42-.27.85-.73.27-1.07-1.42-.84-2.85-1.69-4.09-2.79-.57-.51-1.06-1.07-1.36-1.78-.15-.36-.29-.74-.4-1.12-.05-.16-.11-.36-.1-.53,0-.03.02-.08.02-.11.04-.15-.02-.02.08-.14.44-.52-.38-.8-.77-.79-.68,0-1.46.24-1.92.78h0Z"/><path class="cls-8" d="m295.82,293.78c-.15.05-.29.13-.44.2-.02,0-.04.02-.06.03-.1.06-.21.13-.31.21,0,0-.01.01-.02.02-.07.06-.15.14-.2.21-.01.02-.02.03-.03.05-.03.06-.09.14-.11.21,0,.01,0,.02,0,.03,0,0,0,.02,0,.03,0,.06,0,.15,0,.21,0,.03,0,.06.02.09.04.09.09.16.14.24.04.06.09.11.13.18l-.1-.16s.04.07.04.11v-.19s0,.03,0,.04l.1-.2s-.01.02-.02.03l2.69-.55s-.05-.08-.08-.12l.1.16c-.1-.17-.19-.35-.19-.55v.19c0-.09.02-.17.06-.25l-.1.2s.04-.07.07-.09l-.19.19s.03-.03.04-.04c.11-.08.19-.17.24-.29.06-.08.08-.18.06-.29-.03-.1-.1-.18-.19-.22-.1-.08-.22-.12-.36-.13l-.32-.02c-.26,0-.51.04-.76.11-.35.1-.68.24-.97.47-.1.08-.2.18-.28.28-.05.07-.09.16-.13.24-.01.02-.02.04-.03.06-.02.04-.03.09-.03.14-.01.1-.02.21,0,.32s.05.21.1.31c.08.15.17.3.27.44l.19.12.26.07.32.02c.19,0,.38-.02.56-.07.13-.02.26-.05.39-.1.12-.03.24-.08.35-.14.11-.04.21-.1.3-.17.13-.07.23-.17.32-.28,0,0,.01-.02.02-.02.02-.04.04-.07.06-.11.02-.03.04-.07.06-.11.02-.07.02-.16.01-.23,0-.04-.01-.07-.03-.1-.05-.09-.1-.17-.16-.25-.03-.04-.06-.08-.09-.12l.1.16s-.05-.1-.05-.16v.19s0-.05.01-.08l-.1.2s.03-.04.05-.06l-.19.19s.03-.02.04-.03l-.27.18s.05-.03.07-.04l-.33.16s.07-.03.11-.04c.17-.06.32-.14.46-.25.13-.07.23-.17.32-.28.08-.08.12-.18.11-.29.02-.1-.01-.18-.1-.25l-.19-.12c-.19-.07-.38-.1-.58-.1l-.36.03c-.27.04-.52.11-.77.21h0Z"/><path class="cls-8" d="m301.36,290.9c-.1,2.09-.04,4.19.18,6.27.03.27.39.47.6.55.33.11.77.1,1.1,0,.62-.18,1.27-.6,1.2-1.32-.2-1.91-.25-3.79-.15-5.75.03-.69-.74-.94-1.32-.88-.38.04-.78.15-1.09.39-.22.17-.5.43-.52.74h0Z"/><path class="cls-8" d="m304.43,295.42c.03-.73-.06-1.43-.31-2.11-.11-.3-.23-.59-.29-.9-.06-.33-.06-.67-.06-1,0-.23-.41-.36-.56-.39-.33-.07-.76-.03-1.08.06s-.71.23-.97.49l-.19.21c-.1.12-.13.26-.1.42,0,.3,0,.6.05.9s.15.59.26.88c.23.59.36,1.19.37,1.82v-.21c0,.07,0,.14,0,.21,0,.25.06.39.29.51.27.14.67.14.95.1.38-.06.77-.16,1.1-.37.19-.13.54-.35.55-.61h0Z"/><path class="cls-8" d="m307.59,296.52c.02-1.66-.26-3.31-.85-4.86-.26-.67-.61-1.4-1.28-1.74-.47-.24-.99-.29-1.51-.22-.44.06-.86.17-1.27.34-.32.13-.69.31-.85.63-.24.47,1.01.32,1.16.29.38-.07.76-.17,1.1-.34.21-.11.48-.23.59-.45l-.03.04-.81.44.07-.03-.77.21h.08c-.22,0-.45.02-.67.04.1,0,.11,0,.02,0,.03.01.07.02.1.03.11.07.23.12.33.21.22.18.38.4.52.65.29.54.49,1.15.66,1.74.36,1.24.52,2.52.5,3.81,0,.46,2.89.07,2.9-.78h0Z"/><path class="cls-8" d="m280.93,329.05c.55,0,1.64-.21,1.92-.75s-.26-.69-.74-.69c-.55,0-1.64.21-1.92.75s.26.69.74.69h0Z"/><path class="cls-8" d="m285.29,325.53c-.3,0-.6,0-.9-.03-.13,0-.26-.02-.38-.03,0,0-.15-.02-.21-.02-.54-.06-1.09-.16-1.62-.27-.33-.06-.65-.14-.98-.21-.24-.1-.5-.16-.76-.18-.02,0-.03,0-.05,0-.48-.11-.97-.22-1.45-.34-.19-.04-.39-.05-.59-.03.01.32.04.65.04.97.01.51,0,1.01-.04,1.52.1.07.2.14.3.19.58.31,1.27.45,1.92.43.51-.02,1.15-.14,1.59-.47.67.08,1.33.14,2.01.14.65,0,1.54-.21,1.91-.8.36-.57-.31-.88-.79-.88Zm-3.31-.06s0,0,0,0c0,0,0,0,0,0Z"/><path class="cls-2" d="m280.12,361.99c-2.59,8.22-7.48,12.65-18.48,13.54-36.79,2.97-41.66,1.43-54.34,1.96-17.51.74-30.68-1.48-68.01-3.41-12.95-.67-16.63-2.42-19.59-14.99,2.02-21.92,4.63-44.83,7.76-68.67,3.21-24.47,4.72-52.82,9.16-75.06,20.45,0,42.85,4.77,63.29,3.97,21.58-.84,44.33-2.78,65.68-6.3,4.81,23.21,3.95,50.54,7.88,72.55,5.17,29.02,5.28,48.02,6.65,76.41Z"/><g class="cls-1"><image width="1020" height="1040" transform="translate(77.51 170.46) scale(.24)" xlink:href="../../../var/folders/qp/h7pttzds07s0x0_3h19txv0h0000gn/T/TemporaryItems/NSIRD_Illustrator_bY7T3K/AI_27_8/Adobe/AISVG/0/Svamp/Svamp1.png"/></g><path class="cls-12" d="m280.12,361.99c-2.59,8.22-7.48,12.65-18.48,13.54-36.79,2.97-41.66,1.43-54.34,1.96-17.51.74-30.68-1.48-68.01-3.41-12.95-.67-16.63-2.42-19.59-14.99,2.02-21.92,4.63-44.83,7.76-68.67,3.21-24.47,4.72-52.82,9.16-75.06,20.45,0,42.85,4.77,63.29,3.97,21.58-.84,44.33-2.78,65.68-6.3,4.81,23.21,3.95,50.54,7.88,72.55,5.17,29.02,5.28,48.02,6.65,76.41Z"/><path class="cls-5" d="m71.91,46.79C113.13,22.08,154.34-2.62,213.19.22c9.99.48,19.41,1.71,28.32,3.5,43.15,8.7,73.94,30.78,96.07,46.64,26.66,19.12,59.26,42.49,65.21,81.19.93,6.03,4.68,30.44-9.66,51.34-11.56,16.85-29.35,23.35-42.27,27.46-93.09,29.59-193.88,17.41-199.25,16.72-24.94-3.22-44.81-8.52-84.53-19.1-39.71-10.58-48.58-15.28-55.55-23.88-22.82-28.16-4.95-73.2-3.62-76.41,2.66-6.46,13.46-30.6,64-60.89Z"/><g class="cls-14"><image width="2076" height="1351" transform="translate(-47.22 -47.08) scale(.24)" xlink:href="../../../var/folders/qp/h7pttzds07s0x0_3h19txv0h0000gn/T/TemporaryItems/NSIRD_Illustrator_bY7T3K/AI_27_8/Adobe/AISVG/0/Svamp/Svamp2.png"/></g><path class="cls-6" d="m91.53,52.65l19.65,5.55c4.81,1.36,9.91,1.23,14.65-.36l22.91-7.68c6.45-2.16,11.86-6.68,15.14-12.64l7.23-13.13c.71-1.28,1.08-2.72,1.08-4.19v-5.96c0-5.8-5.58-9.98-11.15-8.33l-29.77,9.11c-.56.17-1.13.44-1.65.72l-39.82,20.88c-6.9,3.69-5.79,13.9,1.73,16.02Z"/><path class="cls-7" d="m16.22,112.85l12.09,9.8c.59.48,1.06,1.07,1.4,1.75l14.64,29.28c.37.74.56,1.55.56,2.37v23.17c0,1.7-.82,3.3-2.2,4.3l-12.51,9.02c-1.74,1.25-4.08,1.36-5.89.21-1.62-1.04-3.17-2.15-4.65-3.33-2.08-1.66-4.31-2.72-6.77-5.43-.28-.31-.98-1.85-1.89-3.21-3.53-5.33-7.2-10.04-8.9-16.7-.12-.46-.09-.95-.15-1.42-1.09-9.8-1.65-18.41,0-27.76.05-.29-.07-2.13,0-2.42l4.59-17.38c.97-3.72,6.69-4.64,9.68-2.22Z"/><ellipse class="cls-7" cx="145.89" cy="111.67" rx="41.03" ry="33.43"/><ellipse class="cls-6" cx="297.55" cy="145.09" rx="48.61" ry="38.75"/><path class="cls-7" d="m251.54,35.77l20.25,11.8c3.12,1.82,6.46,3.25,9.93,4.26l35.27,10.27c5.29,1.54,10.86,1.84,16.29.89h0c5.96-1.05,7.62-8.81,2.61-12.21l-32.94-22.35-30.19-14.55-21.45-6.92h0c-6.33,5.31-8.63,14.04-5.72,21.77h0c1.11,2.96,3.21,5.45,5.95,7.04Z"/><ellipse class="cls-13" cx="175.53" cy="276.65" rx="16.69" ry="28.6" transform="translate(-22.96 15.98) rotate(-4.89)"/><path class="cls-8" d="m183.84,273l-1.29-2.15c-.08-.14-.19-.26-.31-.36l-3.18-2.68c-.21-.17-.46-.29-.73-.32l-3.69-.51c-.3-.04-.6.01-.86.15l-2.57,1.33c-.26.13-.47.34-.61.6l-2.64,4.74c-.08.14-.13.3-.16.46l-.91,4.92c-.02.11-.03.21-.02.32l.27,7.95.23,6.59c0,.18.05.36.12.53l.81,4.03c.04.08.23,2.63.28,2.71l2.15,2.23,3,1.88c.28.42.76.67,1.26.65l1.39-.06c.22,0,.43-.07.63-.17l3.11-1.68c.16-.08,1.15-.46,1.27-.6l4.62-3.44c.07-.08.31-1.56.36-1.65l2.61-6.71c.15-.27.21-.57.18-.87l-.83-8.11c-.09-.85-.88-1.44-1.71-1.28l-3.02.59-3.48.76c-.35.08-.71.02-1.02-.16l-.93-.53c-.4-.23-.66-.63-.72-1.09h0c-.06-.49.13-.99.51-1.31l1.26-1.09,3.28-2.95s.07-.06.11-.09l.86-.63c.62-.45.79-1.31.4-1.96Z"/><ellipse class="cls-13" cx="217.96" cy="268.81" rx="16.58" ry="26.42" transform="translate(-33.56 31.1) rotate(-7.58)"/><path class="cls-11" d="m226.34,264.73l-1.36-1.92c-.09-.12-.19-.23-.32-.32l-3.25-2.32c-.21-.15-.47-.24-.73-.26l-3.68-.29c-.29-.02-.59.04-.85.18l-2.5,1.36c-.25.14-.45.34-.59.58l-2.45,4.5c-.07.13-.12.28-.15.43l-.72,4.59c-.02.1-.02.2-.01.3l.56,7.33.46,6.07c.01.17.06.33.13.48l.95,3.69c.04.07.32,2.42.38,2.49l2.21,1.95,3.04,1.58c.29.38.78.58,1.28.53l1.38-.13c.22-.02.43-.09.61-.19l3.03-1.71c.15-.09,1.12-.49,1.23-.62l4.45-3.4c.07-.08.25-1.45.29-1.54l2.34-6.33c.14-.25.19-.54.15-.82l-1.12-7.45c-.12-.78-.92-1.29-1.75-1.1l-2.98.7-3.43.87c-.34.09-.7.05-1.01-.09l-.94-.44c-.4-.19-.68-.55-.75-.97h0c-.08-.45.09-.92.45-1.24l1.21-1.07,3.14-2.88s.07-.06.11-.09l.83-.63c.6-.45.74-1.25.32-1.83Z"/><path class="cls-8" d="m173.44,313.78c-.81-.61-3.46,1.39-5.11,5-.69,1.51-1.56,3.41-1.11,5.75.52,2.68,2.64,5.15,3.77,4.75,1.12-.4.44-3.34,1.55-9.49.85-4.71,1.47-5.57.9-6Z"/><path class="cls-8" d="m239.95,299.42c.81-.61,3.23,1.56,4.88,5.18.69,1.51,1.56,3.41,1.11,5.75-.52,2.68-2.64,5.15-3.77,4.75-1.12-.4-.44-3.34-1.55-9.49-.85-4.71-1.24-5.75-.67-6.18Z"/><path class="cls-8" d="m172.16,325.38c10.03.6,20.05.44,30.01-.99,4.85-.7,9.85-1.56,14.54-3.05,1.73-.55,3.37-1.41,5-2.17,1.52-.71,3.34-1.27,5.23-1.95,2.52-.9,4.61-2.24,6.92-3.55s4.82-2.33,7.31-3.3c1.26-.49,2.13-1.68,1.75-3.08-.33-1.2-1.81-2.24-3.08-1.75-2.27.89-4.54,1.78-6.72,2.86s-3.95,2.51-6.09,3.45c-1.83.81-3.79,1.3-5.65,2.04-1.7.68-3.31,1.54-4.99,2.25-1.81.76-3.95,1.16-5.91,1.61-2.44.56-4.89,1.05-7.36,1.45-4.72.78-9.49,1.22-14.27,1.41-5.56.22-11.13.09-16.68-.24-3.21-.19-3.2,4.81,0,5h0Z"/><path class="cls-8" d="m183.09,326.51c2.45,6.31,4.44,13.31,9.7,17.92,2.09,1.83,4.25,4.24,6.93,5.12,1.74.57,4.04,1.72,5.82.82,1.51-.75,1.53-2.81.51-3.93-.65-.72-2.14-1.14-3.06-.81-1.38.48-2.51,2.27-1.49,3.67s2.8,1.81,4.32,2.26c1.78.53,3.63.83,5.47.98,3.58.29,7.23-.17,10.71-.98s6.96-2.08,10.34-3.41c.84-.33,1.73-.62,2.51-1.08.41-.24.72-.63,1.11-.87-.42.27.22-.06.32-.11,1.58-.81,2.49-1.95,2.18-3.82l-1.15,2.82c.84-.41,1.35-1.3,1.38-2.23,0-.25-.01-.54-.08-.78-.33-1.22-.2-.59-.17-.04l-.34,1.26.11-.16c.5-.75.4-1.76,0-2.52-2.06-3.87-3.41-8.15-3.94-12.51-.27-2.25-.34-4.53-.22-6.79.13-2.44.76-4.74-.36-7.05-.71-1.47-2.86-1.57-3.93-.51-1.57,1.57-1.95,3.72-1.94,5.86,0,1.68.33,3.14-1.21,4.15-.68.44-1.42.79-2.1,1.24-.85.56-1.58,1.27-2.42,1.84-1.64,1.11-3.93.64-5.82,1.02-2.16.44-4.18,1.35-6.3,1.91-2.26.59-4.59.63-6.91.65-4.83.04-9.67.07-14.5.1v5c.45,0,.36-.04-.27-.15.24.14.3.18.18.11.02.04.43.46.57.61.4.46.77.96,1.22,1.38,1.43,1.34,3.17,1.84,5.11,1.61s3.88-.7,5.89-.78,4.19,0,6.28-.1c8.22-.38,15.77-3.64,23.2-6.89l-3.67-2.82c-.97,5.16,1.03,9.83,3.35,14.33l4.32-2.52c-4.26-6.08-12.01-6.36-18.13-3.05-1.61.87-3.09,1.96-4.53,3.09-.73.57-1.45,1.17-2.15,1.78-.33.28-.64.58-.98.84-.49.39-.6.26,0,.52.64.27.03.44.22.04-.06.12.09-.41.04-.25.15-.51.65-.95,1.05-1.27,1.3-1.06,2.92-1.83,4.48-2.42,2.01-.77,4.08-1.35,6.13-1.98,1.19-.37,2.39-.73,3.58-1.1.56-.17,1.11-.35,1.67-.51.19-.06.39-.11.58-.16.35-.1.29.04.15-.04l1.26-4.66c-5.46.11-11.2,1.09-16.18,3.42-2.17,1.01-3.94,2.77-4.45,5.17-.16.76-.19,1.46-.8,1.95-.72.57-1.71.81-2.57,1.05l3.08,1.75c-.3-1.39-.37-2.83-.2-4.25.08-.68.25-1.36.44-2.02.1-.34.2-.7.34-1.03.28-.66.49-.31-.34-.06h-1.33l.23.04-1.1-.64.2.17-.64-1.1c.16.39.14,1.42-.12,1.8l1.49-1.15c.31.07.22.06-.27-.03-.29-.05-.59-.1-.88-.15-.44-.07-.88-.15-1.33-.22-1.17-.18-2.35-.36-3.54-.43-2.32-.14-4.46.24-6.59,1.15-1.38.59-1.68,3.01-.51,3.93,1.43,1.12,2.87,1.76,4.7,1.81l-2.5-2.5c-.17,2.19.09,6.65,2.97,7,3.27.39,3.91-3.98,4.65-6.3l-4.57.6c.51,1.13.86,2.4.99,3.63.15,1.34,1.04,2.5,2.5,2.5,1.24,0,2.65-1.15,2.5-2.5-.24-2.19-.76-4.15-1.67-6.15s-3.98-1.28-4.57.6c-.21.66-.42,1.32-.64,1.98-.1.29-.19.58-.29.87-.04.12-.41.9-.07.52l1.1-.64-.25.03,2.43.64c.33.29.17.37.1-.09-.04-.31-.15-.6-.19-.91-.07-.59-.03-1.19.01-1.77.11-1.38-1.24-2.46-2.5-2.5-.4-.01-.84-.09-1.17-.35l-.51,3.93c2.62-1.11,5.81-.28,8.49.16,1.77.29,3.61.44,4.62-1.4.73-1.33.99-3.76.51-5.2-.58-1.74-2.4-2.69-4.13-1.93-1.56.69-2.23,2.24-2.75,3.76-1.06,3.07-1.11,6.4-.43,9.55.28,1.32,1.83,2.09,3.08,1.75,2.08-.57,4.17-1.41,5.52-3.17.73-.94,1.07-1.98,1.3-3.13.18-.89.47-1.39,1.25-1.87,1.93-1.2,4.43-1.75,6.61-2.26,2.63-.61,5.28-.92,7.98-.97,2.45-.05,3.45-3.4,1.26-4.66s-4.67-.28-6.97.43-4.41,1.32-6.59,2.02c-3.76,1.2-8.53,2.88-10.72,6.43-1.09,1.78-1.25,4.13-.16,5.95,1.33,2.22,4.07,2.53,6.18,1.25,1.76-1.07,3.2-2.7,4.85-3.93s3.33-2.33,5.21-2.98c3.17-1.1,7.17-.8,9.25,2.17,1.83,2.62,5.81.37,4.32-2.52-1.62-3.16-3.54-6.82-2.85-10.48.43-2.27-1.64-3.71-3.67-2.82-6.91,3.02-14,6.05-21.65,6.24-1.93.05-3.87,0-5.8.09s-3.85.55-5.8.81c-1.27.17-1.57-.63-2.39-1.57-1.04-1.19-2.37-2.1-4.01-2.04-3.2.12-3.23,5.02,0,5,4.99-.04,9.99-.05,14.98-.11,2.6-.03,5.24-.16,7.76-.83,2.22-.58,4.35-1.61,6.63-1.98s4.55-.03,6.68-1.46c.84-.57,1.58-1.28,2.42-1.84.73-.48,1.52-.86,2.25-1.33,2.02-1.31,3.21-3.09,3.49-5.5.12-1.08.04-2.16.05-3.24.01-.66,0-1.46.48-1.94l-3.93-.51c.33.67-.12,2.06-.19,2.77-.12,1.16-.18,2.33-.19,3.5-.02,2.35.19,4.68.53,7,.69,4.57,2.19,8.99,4.36,13.07v-2.52c-.78,1.16-.34,2.25.15,3.39l-.34-1.26v.12c.4-.72.81-1.44,1.23-2.16l-.14.07c-1.06.52-1.32,1.78-1.15,2.82l.03.17v-1.33l-.05.16.64-1.1c-.23.28.14,0-.13.09-.2.06-.44.22-.62.31-.41.23-.75.56-1.14.82-1.03.67-2.39,1.02-3.54,1.45-2.75,1.03-5.53,1.97-8.39,2.62-2.65.61-5.33.93-8.05.82-2.38-.09-5.38-.43-7.46-1.7l.9.9-.02-.03-1.49,3.67c-.75.26-1.29.08-1.8-.47l.51-3.93-.03.02,1.26-.34c-.39.01.45.12.25.06-.11-.03-.22-.05-.33-.09-.35-.11-.71-.21-1.07-.32-.78-.24-1.55-.49-2.33-.74-.35-.11-.37-.26-.11-.03-.6-.5-1.19-1.01-1.78-1.52-1.12-.95-2.26-1.88-3.33-2.88-4.1-3.85-5.67-9.93-7.65-15.02-.49-1.26-1.68-2.13-3.08-1.75-1.2.33-2.24,1.81-1.75,3.08h0Z"/><path class="cls-8" d="m216.91,342.55c.1.4.84.47,2.66,1.05,1.45.46,2.67.75,3.11.37.42-.37-.12-1.29-.27-1.52-.18-.28-.5-1.23-1.4-1.79-.05-.03-.27-.17-.49-.24-1.47-.51-3.85,1.24-3.61,2.13Z"/><path class="cls-10" d="m187.68,325.4c-.7.08.58,1.56.73,2.13.11.4.58,1.77,1.05,2.93.03.07.07.13.11.17.17.15.65.04.74.02.41-.1,1.68.13,2.1.06.97-.16,1.76-.02,4.38-.13,5.84-.25,5.62.25,8.96-.16,1.41-.17,5.05-.7,7.73-1.53,2.95-.91,1.78-.67,3.92-1.15,1.53-.35,3.48.02,4.67-.42,1.19-.44.3-.91,2.62-2.21.7-.39,1.4-.81,2.1-1.21.96-.54,1.06-.59,1.21-.79.61-.77.28-1.63.42-3.37.18-2.25.93-3.24.56-3.58-.33-.29-1.24.43-2.55.86-1.75.57-1.53.56-4.06,1.5-2.6.96-3.51,1.68-5.73,2.54-.69.27-.9.38-5.86,1.58-3.05.74-4.61.89-6.77,1.21-3.93.59-5.9.89-8.07.95-5.29.14-7.35.52-8.27.62Z"/><path class="cls-8" d="m209.72,339.32c-.05.1-.11.19-.18.28l.39-.51c-.09.11-.19.22-.3.31l.51-.39c-.11.08-.22.15-.35.21l.6-.25s-.05.02-.07.03c-.33.08-.61.23-.85.45-.27.18-.49.41-.64.7-.18.29-.28.6-.3.93-.07.33-.06.66.04,1l.25.6c.22.38.52.67.9.9l.6.25c.44.12.89.12,1.33,0,.25-.09.49-.19.73-.31.04-.02.09-.04.13-.07.05-.03.09-.06.14-.09.21-.16.42-.31.62-.48.16-.14.28-.31.41-.48s.27-.34.37-.53c.18-.29.28-.6.3-.93.07-.33.06-.66-.04-1-.08-.33-.23-.61-.45-.85-.18-.27-.41-.49-.7-.64l-.6-.25c-.44-.12-.89-.12-1.33,0l-.6.25c-.38.22-.67.52-.9.9h0Z"/><path class="cls-10" d="m214.14,344.94c-1.01.76-1.26,1.19-2.52,1.98-.7.44-1.01.55-.99.68.07.45,3.64.26,6.63-.18,1.28-.19,1.86-.33,6.7-1.51,4.49-1.09,7.43-1.81,7.4-2.52,0-.15-.14-.15-.92-.9-.81-.77-.78-.87-1.18-1.19-.49-.39-1-.56-2.01-.9-.64-.21-1.11-.37-1.79-.47-.36-.05-1.18-.17-2.07,0-.09.02-.36.03-.41.08-.13.15-1.74.21-1.98.47-.14.15.65.62.93,1.07.33.54.92,1.47.91,1.92,0,.07.28.36-.15.48-.85.24-1.46.2-3.11-.37-.9-.31-1.84-1.5-2.66-1.05-.38.21-.79.89-2.78,2.39Z"/><path class="cls-7" d="m173.97,199.67l-23.57-5.13c-3.64-.79-7.34-1.12-11.03-.98l-37.47,1.41c-5.62.21-11.08,1.76-15.96,4.53h0c-5.36,3.04-4.25,11.4,1.75,13.15l40.41,9.78,34.29,5.26,21.85.89h0c4.23-7.45,3.39-17-2.1-23.82h0c-2.1-2.61-4.99-4.41-8.17-5.1Z"/></svg>